<?xml version="1.0" encoding="utf-8"?>
<svg xmlns="http://www.w3.org/2000/svg" xmlns:xlink="http://www.w3.org/1999/xlink" width="600" height="400" viewBox="0 0 2400 1600">
<defs>
  <clipPath id="clip910">
    <rect x="0" y="0" width="2400" height="1600"/>
  </clipPath>
</defs>
<path clip-path="url(#clip910)" d="M0 1600 L2400 1600 L2400 0 L0 0  Z" fill="#ffffff" fill-rule="evenodd" fill-opacity="1"/>
<defs>
  <clipPath id="clip911">
    <rect x="480" y="0" width="1681" height="1600"/>
  </clipPath>
</defs>
<path clip-path="url(#clip910)" d="M205.121 1423.18 L2352.76 1423.18 L2352.76 123.472 L205.121 123.472  Z" fill="#ffffff" fill-rule="evenodd" fill-opacity="1"/>
<defs>
  <clipPath id="clip912">
    <rect x="205" y="123" width="2149" height="1301"/>
  </clipPath>
</defs>
<polyline clip-path="url(#clip910)" style="stroke:#000000; stroke-linecap:round; stroke-linejoin:round; stroke-width:4; stroke-opacity:1; fill:none" points="205.121,1423.18 2352.76,1423.18 "/>
<polyline clip-path="url(#clip910)" style="stroke:#000000; stroke-linecap:round; stroke-linejoin:round; stroke-width:4; stroke-opacity:1; fill:none" points="323.245,1423.18 323.245,1404.28 "/>
<polyline clip-path="url(#clip910)" style="stroke:#000000; stroke-linecap:round; stroke-linejoin:round; stroke-width:4; stroke-opacity:1; fill:none" points="801.092,1423.18 801.092,1404.28 "/>
<polyline clip-path="url(#clip910)" style="stroke:#000000; stroke-linecap:round; stroke-linejoin:round; stroke-width:4; stroke-opacity:1; fill:none" points="1278.94,1423.18 1278.94,1404.28 "/>
<polyline clip-path="url(#clip910)" style="stroke:#000000; stroke-linecap:round; stroke-linejoin:round; stroke-width:4; stroke-opacity:1; fill:none" points="1756.79,1423.18 1756.79,1404.28 "/>
<polyline clip-path="url(#clip910)" style="stroke:#000000; stroke-linecap:round; stroke-linejoin:round; stroke-width:4; stroke-opacity:1; fill:none" points="2234.63,1423.18 2234.63,1404.28 "/>
<path clip-path="url(#clip910)" d="M254.449 1468.75 L284.125 1468.75 L284.125 1472.69 L254.449 1472.69 L254.449 1468.75 Z" fill="#000000" fill-rule="nonzero" fill-opacity="1" /><path clip-path="url(#clip910)" d="M304.217 1454.1 Q300.606 1454.1 298.777 1457.66 Q296.972 1461.2 296.972 1468.33 Q296.972 1475.44 298.777 1479.01 Q300.606 1482.55 304.217 1482.55 Q307.851 1482.55 309.657 1479.01 Q311.486 1475.44 311.486 1468.33 Q311.486 1461.2 309.657 1457.66 Q307.851 1454.1 304.217 1454.1 M304.217 1450.39 Q310.027 1450.39 313.083 1455 Q316.161 1459.58 316.161 1468.33 Q316.161 1477.06 313.083 1481.67 Q310.027 1486.25 304.217 1486.25 Q298.407 1486.25 295.328 1481.67 Q292.273 1477.06 292.273 1468.33 Q292.273 1459.58 295.328 1455 Q298.407 1450.39 304.217 1450.39 Z" fill="#000000" fill-rule="nonzero" fill-opacity="1" /><path clip-path="url(#clip910)" d="M324.379 1479.7 L329.263 1479.7 L329.263 1485.58 L324.379 1485.58 L324.379 1479.7 Z" fill="#000000" fill-rule="nonzero" fill-opacity="1" /><path clip-path="url(#clip910)" d="M349.448 1454.1 Q345.837 1454.1 344.008 1457.66 Q342.203 1461.2 342.203 1468.33 Q342.203 1475.44 344.008 1479.01 Q345.837 1482.55 349.448 1482.55 Q353.083 1482.55 354.888 1479.01 Q356.717 1475.44 356.717 1468.33 Q356.717 1461.2 354.888 1457.66 Q353.083 1454.1 349.448 1454.1 M349.448 1450.39 Q355.258 1450.39 358.314 1455 Q361.393 1459.58 361.393 1468.33 Q361.393 1477.06 358.314 1481.67 Q355.258 1486.25 349.448 1486.25 Q343.638 1486.25 340.559 1481.67 Q337.504 1477.06 337.504 1468.33 Q337.504 1459.58 340.559 1455 Q343.638 1450.39 349.448 1450.39 Z" fill="#000000" fill-rule="nonzero" fill-opacity="1" /><path clip-path="url(#clip910)" d="M382.457 1455.09 L370.652 1473.54 L382.457 1473.54 L382.457 1455.09 M381.231 1451.02 L387.11 1451.02 L387.11 1473.54 L392.041 1473.54 L392.041 1477.43 L387.11 1477.43 L387.11 1485.58 L382.457 1485.58 L382.457 1477.43 L366.856 1477.43 L366.856 1472.92 L381.231 1451.02 Z" fill="#000000" fill-rule="nonzero" fill-opacity="1" /><path clip-path="url(#clip910)" d="M733.337 1468.75 L763.013 1468.75 L763.013 1472.69 L733.337 1472.69 L733.337 1468.75 Z" fill="#000000" fill-rule="nonzero" fill-opacity="1" /><path clip-path="url(#clip910)" d="M783.106 1454.1 Q779.494 1454.1 777.666 1457.66 Q775.86 1461.2 775.86 1468.33 Q775.86 1475.44 777.666 1479.01 Q779.494 1482.55 783.106 1482.55 Q786.74 1482.55 788.545 1479.01 Q790.374 1475.44 790.374 1468.33 Q790.374 1461.2 788.545 1457.66 Q786.74 1454.1 783.106 1454.1 M783.106 1450.39 Q788.916 1450.39 791.971 1455 Q795.05 1459.58 795.05 1468.33 Q795.05 1477.06 791.971 1481.67 Q788.916 1486.25 783.106 1486.25 Q777.295 1486.25 774.217 1481.67 Q771.161 1477.06 771.161 1468.33 Q771.161 1459.58 774.217 1455 Q777.295 1450.39 783.106 1450.39 Z" fill="#000000" fill-rule="nonzero" fill-opacity="1" /><path clip-path="url(#clip910)" d="M803.267 1479.7 L808.152 1479.7 L808.152 1485.58 L803.267 1485.58 L803.267 1479.7 Z" fill="#000000" fill-rule="nonzero" fill-opacity="1" /><path clip-path="url(#clip910)" d="M828.337 1454.1 Q824.726 1454.1 822.897 1457.66 Q821.091 1461.2 821.091 1468.33 Q821.091 1475.44 822.897 1479.01 Q824.726 1482.55 828.337 1482.55 Q831.971 1482.55 833.777 1479.01 Q835.605 1475.44 835.605 1468.33 Q835.605 1461.2 833.777 1457.66 Q831.971 1454.1 828.337 1454.1 M828.337 1450.39 Q834.147 1450.39 837.202 1455 Q840.281 1459.58 840.281 1468.33 Q840.281 1477.06 837.202 1481.67 Q834.147 1486.25 828.337 1486.25 Q822.527 1486.25 819.448 1481.67 Q816.392 1477.06 816.392 1468.33 Q816.392 1459.58 819.448 1455 Q822.527 1450.39 828.337 1450.39 Z" fill="#000000" fill-rule="nonzero" fill-opacity="1" /><path clip-path="url(#clip910)" d="M852.526 1481.64 L868.846 1481.64 L868.846 1485.58 L846.902 1485.58 L846.902 1481.64 Q849.564 1478.89 854.147 1474.26 Q858.753 1469.61 859.934 1468.27 Q862.179 1465.74 863.059 1464.01 Q863.962 1462.25 863.962 1460.56 Q863.962 1457.8 862.017 1456.07 Q860.096 1454.33 856.994 1454.33 Q854.795 1454.33 852.341 1455.09 Q849.911 1455.86 847.133 1457.41 L847.133 1452.69 Q849.957 1451.55 852.411 1450.97 Q854.864 1450.39 856.901 1450.39 Q862.272 1450.39 865.466 1453.08 Q868.661 1455.77 868.661 1460.26 Q868.661 1462.39 867.85 1464.31 Q867.063 1466.2 864.957 1468.8 Q864.378 1469.47 861.276 1472.69 Q858.175 1475.88 852.526 1481.64 Z" fill="#000000" fill-rule="nonzero" fill-opacity="1" /><path clip-path="url(#clip910)" d="M1241.24 1454.1 Q1237.63 1454.1 1235.8 1457.66 Q1234 1461.2 1234 1468.33 Q1234 1475.44 1235.8 1479.01 Q1237.63 1482.55 1241.24 1482.55 Q1244.88 1482.55 1246.68 1479.01 Q1248.51 1475.44 1248.51 1468.33 Q1248.51 1461.2 1246.68 1457.66 Q1244.88 1454.1 1241.24 1454.1 M1241.24 1450.39 Q1247.05 1450.39 1250.11 1455 Q1253.19 1459.58 1253.19 1468.33 Q1253.19 1477.06 1250.11 1481.67 Q1247.05 1486.25 1241.24 1486.25 Q1235.43 1486.25 1232.35 1481.67 Q1229.3 1477.06 1229.3 1468.33 Q1229.3 1459.58 1232.35 1455 Q1235.43 1450.39 1241.24 1450.39 Z" fill="#000000" fill-rule="nonzero" fill-opacity="1" /><path clip-path="url(#clip910)" d="M1261.4 1479.7 L1266.29 1479.7 L1266.29 1485.58 L1261.4 1485.58 L1261.4 1479.7 Z" fill="#000000" fill-rule="nonzero" fill-opacity="1" /><path clip-path="url(#clip910)" d="M1286.47 1454.1 Q1282.86 1454.1 1281.03 1457.66 Q1279.23 1461.2 1279.23 1468.33 Q1279.23 1475.44 1281.03 1479.01 Q1282.86 1482.55 1286.47 1482.55 Q1290.11 1482.55 1291.91 1479.01 Q1293.74 1475.44 1293.74 1468.33 Q1293.74 1461.2 1291.91 1457.66 Q1290.11 1454.1 1286.47 1454.1 M1286.47 1450.39 Q1292.28 1450.39 1295.34 1455 Q1298.42 1459.58 1298.42 1468.33 Q1298.42 1477.06 1295.34 1481.67 Q1292.28 1486.25 1286.47 1486.25 Q1280.66 1486.25 1277.58 1481.67 Q1274.53 1477.06 1274.53 1468.33 Q1274.53 1459.58 1277.58 1455 Q1280.66 1450.39 1286.47 1450.39 Z" fill="#000000" fill-rule="nonzero" fill-opacity="1" /><path clip-path="url(#clip910)" d="M1316.63 1454.1 Q1313.02 1454.1 1311.2 1457.66 Q1309.39 1461.2 1309.39 1468.33 Q1309.39 1475.44 1311.2 1479.01 Q1313.02 1482.55 1316.63 1482.55 Q1320.27 1482.55 1322.07 1479.01 Q1323.9 1475.44 1323.9 1468.33 Q1323.9 1461.2 1322.07 1457.66 Q1320.27 1454.1 1316.63 1454.1 M1316.63 1450.39 Q1322.45 1450.39 1325.5 1455 Q1328.58 1459.58 1328.58 1468.33 Q1328.58 1477.06 1325.5 1481.67 Q1322.45 1486.25 1316.63 1486.25 Q1310.82 1486.25 1307.75 1481.67 Q1304.69 1477.06 1304.69 1468.33 Q1304.69 1459.58 1307.75 1455 Q1310.82 1450.39 1316.63 1450.39 Z" fill="#000000" fill-rule="nonzero" fill-opacity="1" /><path clip-path="url(#clip910)" d="M1719.89 1454.1 Q1716.28 1454.1 1714.45 1457.66 Q1712.64 1461.2 1712.64 1468.33 Q1712.64 1475.44 1714.45 1479.01 Q1716.28 1482.55 1719.89 1482.55 Q1723.52 1482.55 1725.33 1479.01 Q1727.16 1475.44 1727.16 1468.33 Q1727.16 1461.2 1725.33 1457.66 Q1723.52 1454.1 1719.89 1454.1 M1719.89 1450.39 Q1725.7 1450.39 1728.75 1455 Q1731.83 1459.58 1731.83 1468.33 Q1731.83 1477.06 1728.75 1481.67 Q1725.7 1486.25 1719.89 1486.25 Q1714.08 1486.25 1711 1481.67 Q1707.94 1477.06 1707.94 1468.33 Q1707.94 1459.58 1711 1455 Q1714.08 1450.39 1719.89 1450.39 Z" fill="#000000" fill-rule="nonzero" fill-opacity="1" /><path clip-path="url(#clip910)" d="M1740.05 1479.7 L1744.93 1479.7 L1744.93 1485.58 L1740.05 1485.58 L1740.05 1479.7 Z" fill="#000000" fill-rule="nonzero" fill-opacity="1" /><path clip-path="url(#clip910)" d="M1765.12 1454.1 Q1761.51 1454.1 1759.68 1457.66 Q1757.87 1461.2 1757.87 1468.33 Q1757.87 1475.44 1759.68 1479.01 Q1761.51 1482.55 1765.12 1482.55 Q1768.75 1482.55 1770.56 1479.01 Q1772.39 1475.44 1772.39 1468.33 Q1772.39 1461.2 1770.56 1457.66 Q1768.75 1454.1 1765.12 1454.1 M1765.12 1450.39 Q1770.93 1450.39 1773.98 1455 Q1777.06 1459.58 1777.06 1468.33 Q1777.06 1477.06 1773.98 1481.67 Q1770.93 1486.25 1765.12 1486.25 Q1759.31 1486.25 1756.23 1481.67 Q1753.17 1477.06 1753.17 1468.33 Q1753.17 1459.58 1756.23 1455 Q1759.31 1450.39 1765.12 1450.39 Z" fill="#000000" fill-rule="nonzero" fill-opacity="1" /><path clip-path="url(#clip910)" d="M1789.31 1481.64 L1805.63 1481.64 L1805.63 1485.58 L1783.68 1485.58 L1783.68 1481.64 Q1786.35 1478.89 1790.93 1474.26 Q1795.54 1469.61 1796.72 1468.27 Q1798.96 1465.74 1799.84 1464.01 Q1800.74 1462.25 1800.74 1460.56 Q1800.74 1457.8 1798.8 1456.07 Q1796.88 1454.33 1793.78 1454.33 Q1791.58 1454.33 1789.12 1455.09 Q1786.69 1455.86 1783.91 1457.41 L1783.91 1452.69 Q1786.74 1451.55 1789.19 1450.97 Q1791.65 1450.39 1793.68 1450.39 Q1799.05 1450.39 1802.25 1453.08 Q1805.44 1455.77 1805.44 1460.26 Q1805.44 1462.39 1804.63 1464.31 Q1803.85 1466.2 1801.74 1468.8 Q1801.16 1469.47 1798.06 1472.69 Q1794.96 1475.88 1789.31 1481.64 Z" fill="#000000" fill-rule="nonzero" fill-opacity="1" /><path clip-path="url(#clip910)" d="M2196.69 1454.1 Q2193.08 1454.1 2191.25 1457.66 Q2189.45 1461.2 2189.45 1468.33 Q2189.45 1475.44 2191.25 1479.01 Q2193.08 1482.55 2196.69 1482.55 Q2200.33 1482.55 2202.13 1479.01 Q2203.96 1475.44 2203.96 1468.33 Q2203.96 1461.2 2202.13 1457.66 Q2200.33 1454.1 2196.69 1454.1 M2196.69 1450.39 Q2202.5 1450.39 2205.56 1455 Q2208.64 1459.58 2208.64 1468.33 Q2208.64 1477.06 2205.56 1481.67 Q2202.5 1486.25 2196.69 1486.25 Q2190.88 1486.25 2187.8 1481.67 Q2184.75 1477.06 2184.75 1468.33 Q2184.75 1459.58 2187.8 1455 Q2190.88 1450.39 2196.69 1450.39 Z" fill="#000000" fill-rule="nonzero" fill-opacity="1" /><path clip-path="url(#clip910)" d="M2216.85 1479.7 L2221.74 1479.7 L2221.74 1485.58 L2216.85 1485.58 L2216.85 1479.7 Z" fill="#000000" fill-rule="nonzero" fill-opacity="1" /><path clip-path="url(#clip910)" d="M2241.92 1454.1 Q2238.31 1454.1 2236.48 1457.66 Q2234.68 1461.2 2234.68 1468.33 Q2234.68 1475.44 2236.48 1479.01 Q2238.31 1482.55 2241.92 1482.55 Q2245.56 1482.55 2247.36 1479.01 Q2249.19 1475.44 2249.19 1468.33 Q2249.19 1461.2 2247.36 1457.66 Q2245.56 1454.1 2241.92 1454.1 M2241.92 1450.39 Q2247.73 1450.39 2250.79 1455 Q2253.87 1459.58 2253.87 1468.33 Q2253.87 1477.06 2250.79 1481.67 Q2247.73 1486.25 2241.92 1486.25 Q2236.11 1486.25 2233.03 1481.67 Q2229.98 1477.06 2229.98 1468.33 Q2229.98 1459.58 2233.03 1455 Q2236.11 1450.39 2241.92 1450.39 Z" fill="#000000" fill-rule="nonzero" fill-opacity="1" /><path clip-path="url(#clip910)" d="M2274.93 1455.09 L2263.13 1473.54 L2274.93 1473.54 L2274.93 1455.09 M2273.71 1451.02 L2279.59 1451.02 L2279.59 1473.54 L2284.52 1473.54 L2284.52 1477.43 L2279.59 1477.43 L2279.59 1485.58 L2274.93 1485.58 L2274.93 1477.43 L2259.33 1477.43 L2259.33 1472.92 L2273.71 1451.02 Z" fill="#000000" fill-rule="nonzero" fill-opacity="1" /><path clip-path="url(#clip910)" d="M1174.22 1524.99 Q1174.22 1523.93 1173.93 1523.06 Q1173.67 1522.15 1173.25 1521.54 Q1172.87 1520.9 1172.13 1520.41 Q1171.38 1519.9 1170.77 1519.58 Q1170.16 1519.26 1169.13 1519.06 Q1168.1 1518.84 1167.42 1518.74 Q1166.75 1518.61 1165.59 1518.55 Q1164.43 1518.48 1163.85 1518.48 Q1163.3 1518.48 1162.21 1518.48 Q1158.76 1518.48 1158.18 1518.55 Q1157.31 1518.68 1156.99 1519.19 Q1156.67 1519.67 1156.34 1520.99 L1152.06 1538.19 L1159.44 1538.19 Q1163.46 1538.19 1166.23 1537.07 Q1169 1535.94 1170.58 1534.36 Q1172.32 1532.62 1173.25 1529.82 Q1174.22 1527.02 1174.22 1524.99 M1181.4 1555.36 Q1181.4 1555.71 1181.11 1556.52 Q1180.85 1557.32 1180.21 1558.45 Q1179.57 1559.54 1178.7 1560.54 Q1177.83 1561.54 1176.44 1562.22 Q1175.06 1562.93 1173.48 1562.93 Q1173.09 1562.93 1172.71 1562.89 Q1172.32 1562.89 1171.35 1562.73 Q1170.42 1562.6 1169.65 1562.35 Q1168.87 1562.12 1167.91 1561.57 Q1166.94 1561.06 1166.26 1560.35 Q1165.62 1559.61 1165.17 1558.45 Q1164.72 1557.26 1164.72 1555.81 Q1164.72 1554.52 1165.78 1550.21 Q1166.71 1546.53 1166.71 1545.63 Q1166.71 1544.63 1166.39 1543.7 Q1166.1 1542.77 1165.36 1541.8 Q1164.65 1540.83 1163.14 1540.25 Q1161.63 1539.64 1159.5 1539.64 L1151.67 1539.64 L1147.29 1557.13 Q1147.29 1557.16 1147.2 1557.61 Q1147.1 1558.03 1147.1 1558.26 Q1147.1 1558.68 1147.36 1558.93 Q1147.65 1559.19 1148.36 1559.32 Q1149.07 1559.42 1149.61 1559.45 Q1150.19 1559.45 1151.38 1559.45 Q1152.87 1559.45 1153.12 1559.71 Q1153.25 1559.87 1153.25 1560.16 Q1153.25 1560.61 1153.12 1560.93 Q1153.03 1561.22 1152.77 1561.32 Q1152.54 1561.41 1152.38 1561.44 Q1152.22 1561.48 1151.93 1561.48 L1143.56 1561.28 L1135.25 1561.48 Q1134.32 1561.48 1134.32 1560.74 Q1134.32 1560.09 1134.54 1559.83 Q1134.77 1559.54 1135.06 1559.51 Q1135.35 1559.45 1136.09 1559.45 Q1137.7 1559.45 1138.66 1559.35 Q1139.63 1559.25 1140.24 1559.13 Q1140.89 1558.97 1141.21 1558.51 Q1141.56 1558.06 1141.72 1557.68 Q1141.88 1557.26 1142.11 1556.32 L1150.93 1520.9 Q1151.19 1519.83 1151.19 1519.67 Q1151.19 1519.06 1150.81 1518.9 Q1150.45 1518.71 1149.42 1518.61 L1146.91 1518.48 Q1146.14 1518.48 1145.81 1518.45 Q1145.52 1518.42 1145.3 1518.26 Q1145.07 1518.1 1145.07 1517.74 Q1145.07 1516.84 1145.46 1516.65 Q1145.85 1516.42 1146.97 1516.42 L1165.78 1516.42 Q1172.19 1516.42 1176.25 1519.22 Q1180.34 1522.02 1180.34 1526.31 Q1180.34 1528.24 1179.47 1530.04 Q1178.6 1531.85 1177.15 1533.26 Q1175.73 1534.68 1173.83 1535.87 Q1171.93 1537.03 1169.9 1537.84 Q1167.91 1538.61 1165.85 1539.06 Q1166.75 1539.38 1167.58 1539.87 Q1168.45 1540.35 1169.55 1541.25 Q1170.68 1542.15 1171.35 1543.6 Q1172.03 1545.05 1172.03 1546.82 Q1172.03 1548.08 1171.77 1549.95 Q1171.13 1555.26 1171.13 1557.45 Q1171.13 1559.54 1171.67 1560.51 Q1172.22 1561.48 1173.77 1561.48 Q1175.28 1561.48 1176.96 1560.12 Q1178.66 1558.74 1179.76 1555.49 Q1180.02 1554.55 1180.63 1554.55 Q1180.66 1554.55 1180.69 1554.55 Q1180.76 1554.55 1180.89 1554.62 Q1181.01 1554.65 1181.11 1554.75 Q1181.24 1554.81 1181.3 1554.97 Q1181.4 1555.13 1181.4 1555.36 Z" fill="#000000" fill-rule="nonzero" fill-opacity="1" /><path clip-path="url(#clip910)" d="M1209.16 1553.84 Q1209.41 1554.13 1209.41 1554.42 Q1209.41 1554.71 1208.77 1555.55 Q1208.16 1556.39 1206.84 1557.52 Q1205.52 1558.64 1203.81 1559.71 Q1202.1 1560.77 1199.59 1561.48 Q1197.08 1562.22 1194.44 1562.22 Q1189.7 1562.22 1186.87 1558.84 Q1184.07 1555.45 1184.07 1550.27 Q1184.07 1546.95 1185.16 1544.02 Q1186.26 1541.06 1188.03 1538.97 Q1189.83 1536.87 1192.09 1535.36 Q1194.37 1533.81 1196.76 1533.07 Q1199.14 1532.33 1201.36 1532.33 Q1204.61 1532.33 1206.51 1533.97 Q1208.41 1535.62 1208.41 1537.93 Q1208.41 1538.48 1208.25 1539.16 Q1208.12 1539.83 1207.67 1540.9 Q1207.26 1541.96 1206.16 1543.02 Q1205.07 1544.05 1203.46 1544.73 Q1199.88 1546.24 1193.37 1546.24 L1189.86 1546.24 Q1188.83 1550.4 1188.83 1553.1 Q1188.83 1554.17 1189.03 1555.26 Q1189.22 1556.32 1189.74 1557.68 Q1190.28 1559.03 1191.51 1559.9 Q1192.76 1560.74 1194.57 1560.74 Q1195.15 1560.74 1195.76 1560.7 Q1196.4 1560.67 1198.01 1560.32 Q1199.65 1559.96 1201.1 1559.35 Q1202.55 1558.74 1204.39 1557.42 Q1206.26 1556.07 1207.74 1554.23 Q1208.25 1553.55 1208.61 1553.55 Q1208.9 1553.55 1209.16 1553.84 M1206.22 1537.93 Q1206.22 1536.16 1204.9 1534.97 Q1203.62 1533.78 1201.36 1533.78 Q1200.65 1533.78 1199.78 1533.94 Q1198.91 1534.1 1197.46 1534.78 Q1196.05 1535.45 1194.79 1536.58 Q1193.54 1537.68 1192.28 1539.83 Q1191.02 1541.96 1190.28 1544.79 L1192.99 1544.79 Q1193.92 1544.79 1194.6 1544.79 Q1195.27 1544.76 1196.76 1544.63 Q1198.27 1544.5 1199.36 1544.28 Q1200.46 1544.02 1201.84 1543.51 Q1203.23 1542.99 1204.1 1542.31 Q1205 1541.61 1205.61 1540.48 Q1206.22 1539.35 1206.22 1537.93 Z" fill="#000000" fill-rule="nonzero" fill-opacity="1" /><path clip-path="url(#clip910)" d="M1238.78 1538 Q1238.78 1539.8 1237.88 1540.77 Q1236.98 1541.7 1235.75 1541.7 Q1234.76 1541.7 1234.21 1541.12 Q1233.69 1540.54 1233.69 1539.77 Q1233.69 1538.64 1234.59 1537.74 Q1235.53 1536.84 1236.88 1536.81 Q1236.43 1535.62 1235.24 1534.91 Q1234.05 1534.17 1232.98 1533.97 Q1231.95 1533.78 1230.92 1533.78 Q1228.89 1533.78 1227.35 1534.42 Q1225.8 1535.07 1225.03 1536.07 Q1224.26 1537.03 1223.9 1537.97 Q1223.55 1538.9 1223.55 1539.71 Q1223.55 1540.41 1223.71 1540.99 Q1223.9 1541.54 1224.35 1541.96 Q1224.8 1542.35 1225.13 1542.6 Q1225.48 1542.86 1226.25 1543.09 Q1227.03 1543.31 1227.35 1543.41 Q1227.67 1543.47 1228.57 1543.67 Q1230.44 1544.05 1231.28 1544.28 Q1232.11 1544.47 1233.21 1545.02 Q1234.34 1545.57 1235.17 1546.44 Q1237.2 1548.47 1237.2 1551.27 Q1237.2 1552.3 1236.85 1553.55 Q1236.53 1554.81 1235.59 1556.39 Q1234.66 1557.97 1233.24 1559.22 Q1231.83 1560.48 1229.38 1561.35 Q1226.96 1562.22 1223.93 1562.22 Q1219.72 1562.22 1217.11 1560.45 Q1214.5 1558.64 1214.5 1555.81 Q1214.5 1553.75 1215.63 1552.62 Q1216.75 1551.46 1218.2 1551.46 Q1219.3 1551.46 1219.97 1552.07 Q1220.65 1552.65 1220.65 1553.75 Q1220.65 1555.23 1219.46 1556.36 Q1218.27 1557.48 1216.5 1557.26 Q1218.01 1560.74 1224 1560.74 Q1226.25 1560.74 1227.99 1560.16 Q1229.76 1559.54 1230.73 1558.71 Q1231.73 1557.84 1232.37 1556.78 Q1233.02 1555.71 1233.21 1554.91 Q1233.44 1554.1 1233.44 1553.49 Q1233.44 1552.43 1233.02 1551.62 Q1232.6 1550.82 1232.02 1550.37 Q1231.47 1549.88 1230.41 1549.5 Q1229.38 1549.08 1228.64 1548.92 Q1227.9 1548.76 1226.58 1548.5 Q1225.96 1548.37 1225.58 1548.3 Q1225.19 1548.21 1224.39 1547.95 Q1223.61 1547.66 1223.07 1547.37 Q1222.55 1547.08 1221.87 1546.57 Q1221.2 1546.05 1220.78 1545.44 Q1220.36 1544.83 1220.07 1543.92 Q1219.78 1543.02 1219.78 1541.96 Q1219.78 1540.99 1220.07 1539.83 Q1220.39 1538.68 1221.2 1537.32 Q1222.03 1535.97 1223.23 1534.88 Q1224.42 1533.78 1226.41 1533.07 Q1228.44 1532.33 1230.92 1532.33 Q1234.53 1532.33 1236.66 1534.01 Q1238.78 1535.65 1238.78 1538 Z" fill="#000000" fill-rule="nonzero" fill-opacity="1" /><path clip-path="url(#clip910)" d="M1260.38 1520.25 Q1260.38 1521.67 1259.22 1522.73 Q1258.09 1523.76 1256.87 1523.76 Q1255.74 1523.76 1255.03 1523.09 Q1254.36 1522.38 1254.36 1521.38 Q1254.36 1520.06 1255.49 1518.97 Q1256.61 1517.87 1257.93 1517.87 Q1259.03 1517.87 1259.7 1518.55 Q1260.38 1519.22 1260.38 1520.25 M1260.96 1552.04 Q1260.96 1552.3 1260.67 1553.33 Q1260.38 1554.33 1259.67 1555.87 Q1259 1557.39 1258.06 1558.8 Q1257.13 1560.22 1255.58 1561.22 Q1254.07 1562.22 1252.33 1562.22 Q1249.98 1562.22 1248.43 1560.67 Q1246.92 1559.13 1246.92 1556.81 Q1246.92 1555.55 1248.43 1551.53 Q1252.81 1539.8 1252.97 1539.32 Q1253.71 1537.48 1253.71 1535.87 Q1253.71 1535.13 1253.55 1534.68 Q1253.39 1534.2 1253.07 1534.04 Q1252.75 1533.84 1252.55 1533.81 Q1252.39 1533.78 1252.07 1533.78 Q1250.17 1533.78 1248.4 1535.71 Q1246.63 1537.64 1245.4 1541.96 Q1245.15 1542.77 1244.99 1542.96 Q1244.83 1543.15 1244.34 1543.15 Q1243.54 1543.12 1243.54 1542.48 Q1243.54 1542.28 1243.76 1541.54 Q1243.99 1540.77 1244.41 1539.61 Q1244.83 1538.42 1245.57 1537.19 Q1246.31 1535.94 1247.21 1534.84 Q1248.14 1533.75 1249.46 1533.04 Q1250.78 1532.33 1252.26 1532.33 Q1254.68 1532.33 1256.16 1533.91 Q1257.68 1535.45 1257.68 1537.74 Q1257.68 1539 1256.81 1541.22 Q1255.74 1544.12 1255.36 1545.05 L1252.78 1551.98 Q1251.85 1554.49 1251.56 1555.26 Q1251.3 1556 1251.07 1556.9 Q1250.88 1557.77 1250.88 1558.58 Q1250.88 1559.71 1251.23 1560.22 Q1251.62 1560.74 1252.46 1560.74 Q1254.78 1560.74 1256.48 1558.45 Q1258.19 1556.13 1259.19 1552.59 Q1259.22 1552.49 1259.25 1552.33 Q1259.51 1551.53 1259.77 1551.43 Q1259.9 1551.4 1260.16 1551.4 Q1260.96 1551.4 1260.96 1552.04 Z" fill="#000000" fill-rule="nonzero" fill-opacity="1" /><path clip-path="url(#clip910)" d="M1299.31 1516.42 L1289.81 1554.55 Q1289.42 1556.26 1289.42 1557.71 Q1289.42 1560.74 1291.38 1560.74 Q1292.35 1560.74 1293.12 1560.12 Q1293.9 1559.51 1294.51 1558.22 Q1295.12 1556.94 1295.51 1555.74 Q1295.89 1554.52 1296.41 1552.59 Q1296.57 1551.82 1296.7 1551.62 Q1296.86 1551.4 1297.31 1551.4 Q1298.11 1551.4 1298.11 1552.04 Q1297.24 1556.2 1296.12 1558.58 Q1294.31 1562.22 1291.25 1562.22 Q1288.94 1562.22 1287.29 1560.8 Q1285.65 1559.38 1285.26 1557.26 Q1281.05 1562.22 1276.67 1562.22 Q1272.8 1562.22 1270.35 1559.29 Q1267.91 1556.32 1267.91 1551.65 Q1267.91 1546.95 1270.22 1542.44 Q1272.58 1537.93 1276.28 1535.13 Q1279.98 1532.33 1283.78 1532.33 Q1287.81 1532.33 1289.87 1536.55 L1293.83 1520.9 L1294.02 1519.61 Q1294.02 1519.22 1293.86 1519.03 Q1293.73 1518.8 1292.96 1518.64 Q1292.22 1518.48 1290.74 1518.48 Q1290.13 1518.48 1289.84 1518.45 Q1289.58 1518.42 1289.35 1518.26 Q1289.13 1518.06 1289.13 1517.68 Q1289.13 1516.55 1290.06 1516.42 Q1296.25 1515.71 1298.44 1515.71 Q1298.82 1515.71 1299.05 1515.91 Q1299.27 1516.07 1299.27 1516.26 L1299.31 1516.42 M1289.06 1539.58 Q1289.06 1539.29 1288.84 1538.48 Q1288.61 1537.68 1288.1 1536.55 Q1287.58 1535.42 1286.46 1534.62 Q1285.36 1533.78 1283.88 1533.78 Q1281.88 1533.78 1279.79 1535.49 Q1277.73 1537.19 1276.21 1540.09 Q1275.05 1542.41 1273.8 1547.27 Q1272.58 1552.14 1272.58 1554.55 Q1272.58 1556.03 1272.9 1557.35 Q1273.25 1558.64 1274.25 1559.71 Q1275.25 1560.74 1276.79 1560.74 Q1280.56 1560.74 1284.27 1556.07 Q1284.97 1555.26 1285.14 1554.94 Q1285.33 1554.59 1285.59 1553.62 L1288.87 1540.7 Q1289.06 1539.74 1289.06 1539.58 Z" fill="#000000" fill-rule="nonzero" fill-opacity="1" /><path clip-path="url(#clip910)" d="M1334.44 1552.04 Q1333.6 1556.2 1332.47 1558.58 Q1330.64 1562.22 1327.58 1562.22 Q1325.45 1562.22 1323.84 1561.03 Q1322.26 1559.8 1321.72 1557.77 Q1321.1 1558.58 1320.56 1559.13 Q1320.04 1559.67 1319.04 1560.51 Q1318.05 1561.32 1316.69 1561.77 Q1315.37 1562.22 1313.86 1562.22 Q1312.7 1562.22 1311.64 1561.99 Q1310.57 1561.8 1309.45 1561.25 Q1308.35 1560.67 1307.55 1559.8 Q1306.77 1558.93 1306.26 1557.52 Q1305.74 1556.1 1305.74 1554.3 Q1305.74 1552.04 1306.61 1548.98 Q1307.51 1545.92 1309.58 1540.45 Q1310.7 1537.55 1310.7 1535.94 Q1310.7 1535.2 1310.54 1534.71 Q1310.38 1534.23 1310.06 1534.07 Q1309.77 1533.88 1309.58 1533.84 Q1309.38 1533.78 1309.06 1533.78 Q1307.06 1533.78 1305.32 1535.81 Q1303.58 1537.84 1302.39 1541.96 Q1302.14 1542.77 1301.97 1542.96 Q1301.81 1543.15 1301.33 1543.15 Q1300.53 1543.12 1300.53 1542.48 Q1300.53 1542.22 1300.82 1541.22 Q1301.1 1540.19 1301.78 1538.68 Q1302.49 1537.13 1303.46 1535.74 Q1304.42 1534.33 1305.94 1533.33 Q1307.48 1532.33 1309.25 1532.33 Q1311.67 1532.33 1313.15 1533.91 Q1314.66 1535.45 1314.66 1537.74 Q1314.66 1539.16 1313.54 1541.9 Q1309.96 1551.4 1309.96 1555.36 Q1309.96 1560.74 1314.05 1560.74 Q1315.4 1560.74 1316.66 1560.19 Q1317.95 1559.64 1318.79 1558.87 Q1319.62 1558.1 1320.27 1557.26 Q1320.94 1556.42 1321.23 1555.87 Q1321.56 1555.33 1321.59 1555.2 L1326.52 1535.36 Q1326.71 1534.59 1327.06 1534.07 Q1327.45 1533.52 1327.9 1533.33 Q1328.35 1533.14 1328.61 1533.1 Q1328.87 1533.04 1329.09 1533.04 Q1329.9 1533.04 1330.44 1533.52 Q1331.02 1534.01 1331.02 1534.84 Q1331.02 1535 1330.83 1535.78 Q1330.67 1536.52 1330.41 1537.61 Q1330.15 1538.68 1330.03 1539.26 Q1329 1543.31 1328.9 1543.73 L1327.06 1550.85 Q1326.97 1551.27 1326.64 1552.62 Q1326.35 1553.97 1326.19 1554.68 Q1326.03 1555.36 1325.87 1556.29 Q1325.74 1557.19 1325.74 1557.71 Q1325.74 1559.32 1326.23 1560.03 Q1326.71 1560.74 1327.77 1560.74 Q1328.77 1560.74 1329.54 1560.06 Q1330.35 1559.35 1330.96 1558 Q1331.57 1556.61 1331.93 1555.49 Q1332.28 1554.36 1332.73 1552.59 Q1332.89 1551.82 1333.02 1551.62 Q1333.18 1551.4 1333.63 1551.4 Q1334.44 1551.4 1334.44 1552.04 Z" fill="#000000" fill-rule="nonzero" fill-opacity="1" /><path clip-path="url(#clip910)" d="M1368.62 1552.04 Q1367.75 1556.2 1366.62 1558.58 Q1364.82 1562.22 1361.76 1562.22 Q1359.44 1562.22 1357.79 1560.8 Q1356.15 1559.38 1355.77 1557.26 Q1351.55 1562.22 1347.17 1562.22 Q1343.3 1562.22 1340.85 1559.29 Q1338.41 1556.32 1338.41 1551.65 Q1338.41 1546.95 1340.73 1542.44 Q1343.08 1537.93 1346.78 1535.13 Q1350.48 1532.33 1354.28 1532.33 Q1358.31 1532.33 1360.37 1536.55 Q1360.53 1535.39 1361.27 1534.52 Q1362.01 1533.65 1363.14 1533.65 Q1364.01 1533.65 1364.53 1534.13 Q1365.04 1534.59 1365.04 1535.42 Q1365.04 1535.84 1364.59 1537.68 L1362.21 1546.89 L1360.76 1552.85 Q1360.21 1555.04 1360.05 1555.84 Q1359.92 1556.65 1359.92 1557.71 Q1359.92 1560.74 1361.88 1560.74 Q1362.85 1560.74 1363.62 1560.12 Q1364.4 1559.51 1365.01 1558.22 Q1365.62 1556.94 1366.01 1555.74 Q1366.39 1554.52 1366.91 1552.59 Q1367.07 1551.82 1367.2 1551.62 Q1367.36 1551.4 1367.81 1551.4 Q1368.62 1551.4 1368.62 1552.04 M1359.57 1539.58 Q1359.57 1539.29 1359.34 1538.48 Q1359.11 1537.68 1358.6 1536.55 Q1358.08 1535.42 1356.96 1534.62 Q1355.86 1533.78 1354.38 1533.78 Q1352.38 1533.78 1350.29 1535.49 Q1348.23 1537.19 1346.72 1540.09 Q1345.56 1542.41 1344.3 1547.27 Q1343.08 1552.14 1343.08 1554.55 Q1343.08 1556.03 1343.4 1557.35 Q1343.75 1558.64 1344.75 1559.71 Q1345.75 1560.74 1347.3 1560.74 Q1351.06 1560.74 1354.77 1556.07 Q1355.48 1555.26 1355.64 1554.94 Q1355.83 1554.59 1356.09 1553.62 L1359.37 1540.7 Q1359.57 1539.74 1359.57 1539.58 Z" fill="#000000" fill-rule="nonzero" fill-opacity="1" /><path clip-path="url(#clip910)" d="M1386.79 1516.42 L1377.29 1554.55 Q1376.91 1556.07 1376.91 1557.71 Q1376.91 1560.74 1378.9 1560.74 Q1379.84 1560.74 1380.61 1560.12 Q1381.38 1559.48 1381.96 1558.22 Q1382.58 1556.94 1382.96 1555.71 Q1383.38 1554.49 1383.9 1552.59 Q1384.06 1551.85 1384.22 1551.62 Q1384.38 1551.4 1384.83 1551.4 Q1385.64 1551.4 1385.64 1552.04 Q1384.83 1556 1383.64 1558.51 Q1381.9 1562.22 1378.68 1562.22 Q1376.26 1562.22 1374.46 1560.54 Q1372.69 1558.84 1372.69 1556.13 Q1372.69 1555.1 1373.01 1553.88 L1381.32 1520.9 L1381.54 1519.61 Q1381.54 1519.26 1381.42 1519.06 Q1381.29 1518.87 1380.51 1518.68 Q1379.77 1518.48 1378.29 1518.48 Q1377.68 1518.48 1377.39 1518.45 Q1377.13 1518.42 1376.88 1518.26 Q1376.65 1518.1 1376.65 1517.74 Q1376.65 1517.16 1376.88 1516.84 Q1377.13 1516.52 1377.33 1516.45 Q1377.52 1516.39 1377.91 1516.36 Q1378.45 1516.32 1380.29 1516.16 Q1382.12 1515.97 1383.7 1515.84 Q1385.28 1515.71 1385.96 1515.71 Q1386.34 1515.71 1386.54 1515.91 Q1386.76 1516.07 1386.79 1516.26 L1386.79 1516.42 Z" fill="#000000" fill-rule="nonzero" fill-opacity="1" /><path clip-path="url(#clip910)" d="M1417.22 1538 Q1417.22 1539.8 1416.32 1540.77 Q1415.42 1541.7 1414.19 1541.7 Q1413.2 1541.7 1412.65 1541.12 Q1412.13 1540.54 1412.13 1539.77 Q1412.13 1538.64 1413.03 1537.74 Q1413.97 1536.84 1415.32 1536.81 Q1414.87 1535.62 1413.68 1534.91 Q1412.49 1534.17 1411.42 1533.97 Q1410.39 1533.78 1409.36 1533.78 Q1407.33 1533.78 1405.79 1534.42 Q1404.24 1535.07 1403.47 1536.07 Q1402.7 1537.03 1402.34 1537.97 Q1401.99 1538.9 1401.99 1539.71 Q1401.99 1540.41 1402.15 1540.99 Q1402.34 1541.54 1402.79 1541.96 Q1403.24 1542.35 1403.57 1542.6 Q1403.92 1542.86 1404.69 1543.09 Q1405.47 1543.31 1405.79 1543.41 Q1406.11 1543.47 1407.01 1543.67 Q1408.88 1544.05 1409.72 1544.28 Q1410.56 1544.47 1411.65 1545.02 Q1412.78 1545.57 1413.61 1546.44 Q1415.64 1548.47 1415.64 1551.27 Q1415.64 1552.3 1415.29 1553.55 Q1414.97 1554.81 1414.03 1556.39 Q1413.1 1557.97 1411.68 1559.22 Q1410.27 1560.48 1407.82 1561.35 Q1405.4 1562.22 1402.37 1562.22 Q1398.16 1562.22 1395.55 1560.45 Q1392.94 1558.64 1392.94 1555.81 Q1392.94 1553.75 1394.07 1552.62 Q1395.19 1551.46 1396.64 1551.46 Q1397.74 1551.46 1398.41 1552.07 Q1399.09 1552.65 1399.09 1553.75 Q1399.09 1555.23 1397.9 1556.36 Q1396.71 1557.48 1394.94 1557.26 Q1396.45 1560.74 1402.44 1560.74 Q1404.69 1560.74 1406.43 1560.16 Q1408.2 1559.54 1409.17 1558.71 Q1410.17 1557.84 1410.81 1556.78 Q1411.46 1555.71 1411.65 1554.91 Q1411.88 1554.1 1411.88 1553.49 Q1411.88 1552.43 1411.46 1551.62 Q1411.04 1550.82 1410.46 1550.37 Q1409.91 1549.88 1408.85 1549.5 Q1407.82 1549.08 1407.08 1548.92 Q1406.34 1548.76 1405.02 1548.5 Q1404.4 1548.37 1404.02 1548.3 Q1403.63 1548.21 1402.83 1547.95 Q1402.05 1547.66 1401.51 1547.37 Q1400.99 1547.08 1400.31 1546.57 Q1399.64 1546.05 1399.22 1545.44 Q1398.8 1544.83 1398.51 1543.92 Q1398.22 1543.02 1398.22 1541.96 Q1398.22 1540.99 1398.51 1539.83 Q1398.83 1538.68 1399.64 1537.32 Q1400.47 1535.97 1401.67 1534.88 Q1402.86 1533.78 1404.85 1533.07 Q1406.88 1532.33 1409.36 1532.33 Q1412.97 1532.33 1415.1 1534.01 Q1417.22 1535.65 1417.22 1538 Z" fill="#000000" fill-rule="nonzero" fill-opacity="1" /><polyline clip-path="url(#clip910)" style="stroke:#000000; stroke-linecap:round; stroke-linejoin:round; stroke-width:4; stroke-opacity:1; fill:none" points="205.121,1423.18 205.121,123.472 "/>
<polyline clip-path="url(#clip910)" style="stroke:#000000; stroke-linecap:round; stroke-linejoin:round; stroke-width:4; stroke-opacity:1; fill:none" points="205.121,1423.18 224.019,1423.18 "/>
<polyline clip-path="url(#clip910)" style="stroke:#000000; stroke-linecap:round; stroke-linejoin:round; stroke-width:4; stroke-opacity:1; fill:none" points="205.121,1113.73 224.019,1113.73 "/>
<polyline clip-path="url(#clip910)" style="stroke:#000000; stroke-linecap:round; stroke-linejoin:round; stroke-width:4; stroke-opacity:1; fill:none" points="205.121,804.271 224.019,804.271 "/>
<polyline clip-path="url(#clip910)" style="stroke:#000000; stroke-linecap:round; stroke-linejoin:round; stroke-width:4; stroke-opacity:1; fill:none" points="205.121,494.817 224.019,494.817 "/>
<polyline clip-path="url(#clip910)" style="stroke:#000000; stroke-linecap:round; stroke-linejoin:round; stroke-width:4; stroke-opacity:1; fill:none" points="205.121,185.363 224.019,185.363 "/>
<path clip-path="url(#clip910)" d="M157.177 1408.98 Q153.566 1408.98 151.737 1412.54 Q149.931 1416.08 149.931 1423.21 Q149.931 1430.32 151.737 1433.89 Q153.566 1437.43 157.177 1437.43 Q160.811 1437.43 162.616 1433.89 Q164.445 1430.32 164.445 1423.21 Q164.445 1416.08 162.616 1412.54 Q160.811 1408.98 157.177 1408.98 M157.177 1405.27 Q162.987 1405.27 166.042 1409.88 Q169.121 1414.46 169.121 1423.21 Q169.121 1431.94 166.042 1436.55 Q162.987 1441.13 157.177 1441.13 Q151.366 1441.13 148.288 1436.55 Q145.232 1431.94 145.232 1423.21 Q145.232 1414.46 148.288 1409.88 Q151.366 1405.27 157.177 1405.27 Z" fill="#000000" fill-rule="nonzero" fill-opacity="1" /><path clip-path="url(#clip910)" d="M121.043 1127.07 L137.362 1127.07 L137.362 1131.01 L115.418 1131.01 L115.418 1127.07 Q118.08 1124.32 122.663 1119.69 Q127.269 1115.03 128.45 1113.69 Q130.695 1111.17 131.575 1109.43 Q132.478 1107.67 132.478 1105.98 Q132.478 1103.23 130.533 1101.49 Q128.612 1099.76 125.51 1099.76 Q123.311 1099.76 120.857 1100.52 Q118.427 1101.28 115.649 1102.83 L115.649 1098.11 Q118.473 1096.98 120.927 1096.4 Q123.38 1095.82 125.418 1095.82 Q130.788 1095.82 133.982 1098.51 Q137.177 1101.19 137.177 1105.68 Q137.177 1107.81 136.367 1109.73 Q135.579 1111.63 133.473 1114.22 Q132.894 1114.89 129.792 1118.11 Q126.691 1121.31 121.043 1127.07 Z" fill="#000000" fill-rule="nonzero" fill-opacity="1" /><path clip-path="url(#clip910)" d="M157.177 1099.52 Q153.566 1099.52 151.737 1103.09 Q149.931 1106.63 149.931 1113.76 Q149.931 1120.87 151.737 1124.43 Q153.566 1127.97 157.177 1127.97 Q160.811 1127.97 162.616 1124.43 Q164.445 1120.87 164.445 1113.76 Q164.445 1106.63 162.616 1103.09 Q160.811 1099.52 157.177 1099.52 M157.177 1095.82 Q162.987 1095.82 166.042 1100.43 Q169.121 1105.01 169.121 1113.76 Q169.121 1122.49 166.042 1127.09 Q162.987 1131.68 157.177 1131.68 Q151.366 1131.68 148.288 1127.09 Q145.232 1122.49 145.232 1113.76 Q145.232 1105.01 148.288 1100.43 Q151.366 1095.82 157.177 1095.82 Z" fill="#000000" fill-rule="nonzero" fill-opacity="1" /><path clip-path="url(#clip910)" d="M129.862 791.065 L118.056 809.514 L129.862 809.514 L129.862 791.065 M128.635 786.991 L134.515 786.991 L134.515 809.514 L139.445 809.514 L139.445 813.403 L134.515 813.403 L134.515 821.551 L129.862 821.551 L129.862 813.403 L114.26 813.403 L114.26 808.889 L128.635 786.991 Z" fill="#000000" fill-rule="nonzero" fill-opacity="1" /><path clip-path="url(#clip910)" d="M157.177 790.07 Q153.566 790.07 151.737 793.635 Q149.931 797.177 149.931 804.306 Q149.931 811.413 151.737 814.977 Q153.566 818.519 157.177 818.519 Q160.811 818.519 162.616 814.977 Q164.445 811.413 164.445 804.306 Q164.445 797.177 162.616 793.635 Q160.811 790.07 157.177 790.07 M157.177 786.366 Q162.987 786.366 166.042 790.973 Q169.121 795.556 169.121 804.306 Q169.121 813.033 166.042 817.639 Q162.987 822.223 157.177 822.223 Q151.366 822.223 148.288 817.639 Q145.232 813.033 145.232 804.306 Q145.232 795.556 148.288 790.973 Q151.366 786.366 157.177 786.366 Z" fill="#000000" fill-rule="nonzero" fill-opacity="1" /><path clip-path="url(#clip910)" d="M127.593 492.954 Q124.445 492.954 122.593 495.107 Q120.765 497.259 120.765 501.009 Q120.765 504.736 122.593 506.912 Q124.445 509.065 127.593 509.065 Q130.742 509.065 132.57 506.912 Q134.422 504.736 134.422 501.009 Q134.422 497.259 132.57 495.107 Q130.742 492.954 127.593 492.954 M136.876 478.301 L136.876 482.56 Q135.117 481.727 133.311 481.287 Q131.529 480.847 129.769 480.847 Q125.14 480.847 122.686 483.972 Q120.255 487.097 119.908 493.417 Q121.274 491.403 123.334 490.338 Q125.394 489.25 127.871 489.25 Q133.08 489.25 136.089 492.421 Q139.121 495.569 139.121 501.009 Q139.121 506.333 135.973 509.551 Q132.825 512.768 127.593 512.768 Q121.598 512.768 118.427 508.185 Q115.256 503.579 115.256 494.852 Q115.256 486.658 119.144 481.796 Q123.033 476.912 129.584 476.912 Q131.343 476.912 133.126 477.259 Q134.931 477.607 136.876 478.301 Z" fill="#000000" fill-rule="nonzero" fill-opacity="1" /><path clip-path="url(#clip910)" d="M157.177 480.616 Q153.566 480.616 151.737 484.181 Q149.931 487.722 149.931 494.852 Q149.931 501.958 151.737 505.523 Q153.566 509.065 157.177 509.065 Q160.811 509.065 162.616 505.523 Q164.445 501.958 164.445 494.852 Q164.445 487.722 162.616 484.181 Q160.811 480.616 157.177 480.616 M157.177 476.912 Q162.987 476.912 166.042 481.519 Q169.121 486.102 169.121 494.852 Q169.121 503.579 166.042 508.185 Q162.987 512.768 157.177 512.768 Q151.366 512.768 148.288 508.185 Q145.232 503.579 145.232 494.852 Q145.232 486.102 148.288 481.519 Q151.366 476.912 157.177 476.912 Z" fill="#000000" fill-rule="nonzero" fill-opacity="1" /><path clip-path="url(#clip910)" d="M127.015 186.231 Q123.681 186.231 121.76 188.013 Q119.862 189.796 119.862 192.921 Q119.862 196.046 121.76 197.828 Q123.681 199.611 127.015 199.611 Q130.348 199.611 132.269 197.828 Q134.191 196.023 134.191 192.921 Q134.191 189.796 132.269 188.013 Q130.371 186.231 127.015 186.231 M122.339 184.24 Q119.33 183.5 117.64 181.439 Q115.973 179.379 115.973 176.416 Q115.973 172.273 118.913 169.865 Q121.876 167.458 127.015 167.458 Q132.177 167.458 135.117 169.865 Q138.056 172.273 138.056 176.416 Q138.056 179.379 136.367 181.439 Q134.7 183.5 131.714 184.24 Q135.093 185.027 136.968 187.319 Q138.867 189.611 138.867 192.921 Q138.867 197.944 135.788 200.629 Q132.732 203.314 127.015 203.314 Q121.297 203.314 118.218 200.629 Q115.163 197.944 115.163 192.921 Q115.163 189.611 117.061 187.319 Q118.959 185.027 122.339 184.24 M120.626 176.856 Q120.626 179.541 122.293 181.046 Q123.982 182.55 127.015 182.55 Q130.024 182.55 131.714 181.046 Q133.427 179.541 133.427 176.856 Q133.427 174.171 131.714 172.666 Q130.024 171.162 127.015 171.162 Q123.982 171.162 122.293 172.666 Q120.626 174.171 120.626 176.856 Z" fill="#000000" fill-rule="nonzero" fill-opacity="1" /><path clip-path="url(#clip910)" d="M157.177 171.162 Q153.566 171.162 151.737 174.726 Q149.931 178.268 149.931 185.398 Q149.931 192.504 151.737 196.069 Q153.566 199.611 157.177 199.611 Q160.811 199.611 162.616 196.069 Q164.445 192.504 164.445 185.398 Q164.445 178.268 162.616 174.726 Q160.811 171.162 157.177 171.162 M157.177 167.458 Q162.987 167.458 166.042 172.064 Q169.121 176.648 169.121 185.398 Q169.121 194.124 166.042 198.731 Q162.987 203.314 157.177 203.314 Q151.366 203.314 148.288 198.731 Q145.232 194.124 145.232 185.398 Q145.232 176.648 148.288 172.064 Q151.366 167.458 157.177 167.458 Z" fill="#000000" fill-rule="nonzero" fill-opacity="1" /><path clip-path="url(#clip910)" d="M22.2124 880.608 L33.6132 881.929 Q34.6438 882.025 34.9659 882.186 Q35.2557 882.347 35.2557 882.863 Q35.2557 883.636 34.4828 883.636 Q34.1607 883.636 33.2912 883.507 Q31.5199 883.314 29.7163 883.314 Q27.6874 883.314 26.4313 883.7 Q25.1431 884.054 24.2091 885.085 Q23.2752 886.115 22.8887 888.016 Q22.47 889.916 22.47 892.943 L22.47 901.639 Q22.47 903.764 22.8565 904.28 Q23.2429 904.763 25.0465 905.214 L41.7935 909.432 L41.7935 903.442 Q41.7935 899.255 40.5697 897.613 Q39.3459 895.97 35.449 894.94 Q34.8371 894.779 34.6116 894.714 Q34.354 894.618 34.2251 894.457 Q34.0641 894.264 34.0641 893.941 Q34.0641 893.652 34.2574 893.458 Q34.4184 893.265 34.6116 893.201 L34.8049 893.136 Q35.1269 893.136 35.8676 893.33 L50.167 896.969 Q51.1332 897.226 51.3587 897.387 Q51.5519 897.516 51.5519 897.967 Q51.5519 898.289 51.3265 898.515 Q51.101 898.74 50.7468 898.74 Q50.3603 898.676 50.0382 898.547 Q48.0737 898.096 46.8176 898.096 Q46.0125 898.096 45.5294 898.257 Q45.0463 898.418 44.6276 898.966 Q44.209 899.513 44.0157 900.64 Q43.8225 901.767 43.8225 903.571 L43.8225 909.948 L60.2475 914.038 L61.7612 914.328 Q62.4375 914.328 62.6951 913.974 Q62.9528 913.587 63.0816 912.202 Q63.2426 910.141 63.2426 908.788 Q63.2426 907.114 63.307 906.92 Q63.5003 906.534 64.0156 906.534 Q64.5953 906.534 64.9173 906.792 Q65.2072 907.049 65.2394 907.275 Q65.2716 907.5 65.2716 907.919 L65.0784 917.742 L65.2716 926.437 Q65.2716 927.436 64.4664 927.436 Q63.8545 927.436 63.5969 927.178 Q63.307 926.92 63.2748 926.63 Q63.2426 926.341 63.2426 925.6 Q63.2426 923.99 63.146 923.023 Q63.0494 922.057 62.9206 921.445 Q62.7595 920.801 62.3087 920.479 Q61.8578 920.125 61.4713 919.964 Q61.0526 919.803 60.1187 919.577 L25.2397 910.882 Q24.0481 910.56 23.6616 910.56 Q23.2429 910.56 22.9853 910.85 Q22.7277 911.107 22.631 911.816 Q22.5022 912.524 22.5022 913.104 Q22.47 913.651 22.47 914.843 Q22.47 915.616 22.4378 915.938 Q22.4056 916.228 22.2446 916.453 Q22.0835 916.679 21.7293 916.679 Q20.8275 916.679 20.6343 916.292 Q20.4088 915.874 20.4088 914.714 L20.4088 882.38 Q20.4088 881.091 20.6987 880.801 Q20.9563 880.479 22.2124 880.608 Z" fill="#000000" fill-rule="nonzero" fill-opacity="1" /><path clip-path="url(#clip910)" d="M40.4087 852.955 Q42.1156 852.955 43.2106 854.083 Q44.3056 855.178 44.3056 856.595 Q44.3056 857.819 43.5971 858.463 Q42.8885 859.107 41.9868 859.107 Q40.6985 859.107 39.6357 858.108 Q38.5729 857.11 38.3475 855.661 Q37.5746 856.724 37.5746 858.43 Q37.5746 861.232 39.7323 863.712 Q40.7307 864.807 42.5665 865.999 Q44.37 867.19 45.1429 867.416 L53.7419 869.509 Q54.7081 869.702 59.3457 870.894 Q63.9512 872.054 64.1444 872.15 Q65.0462 872.472 65.5292 873.181 Q66.0123 873.889 66.0123 874.598 Q66.0123 875.403 65.5292 875.95 Q65.0462 876.498 64.2088 876.498 Q64.08 876.498 63.5969 876.401 Q63.1138 876.305 62.4375 876.144 Q61.7612 875.983 61.3747 875.918 L46.1413 872.086 Q43.3716 871.377 42.5021 871.216 Q41.6003 871.023 40.6019 871.023 Q38.8628 871.023 38.2187 871.57 Q37.5746 872.118 37.5746 873.084 Q37.5746 874.759 39.5713 875.854 Q41.5681 876.949 45.4328 877.883 Q46.4956 878.173 46.721 878.366 Q46.9465 878.527 46.9465 879.01 Q46.9143 879.815 46.2701 879.815 Q46.1091 879.815 45.0785 879.557 Q44.0157 879.3 42.4698 878.817 Q40.8918 878.301 39.8934 877.754 Q39.2171 877.432 38.7662 877.142 Q38.3153 876.852 37.6068 876.272 Q36.8982 875.693 36.5118 874.823 Q36.1253 873.954 36.1253 872.891 Q36.1253 870.572 37.5423 868.93 Q38.9594 867.255 41.1816 866.868 Q40.0222 866.063 39.0238 865.065 Q37.9932 864.066 37.0593 862.231 Q36.1253 860.395 36.1253 858.43 Q36.1253 855.983 37.3813 854.469 Q38.6051 852.955 40.4087 852.955 Z" fill="#000000" fill-rule="nonzero" fill-opacity="1" /><path clip-path="url(#clip910)" d="M57.6388 823.797 Q57.9287 823.54 58.2185 823.54 Q58.5084 823.54 59.3457 824.184 Q60.1831 824.796 61.3103 826.116 Q62.4375 827.437 63.5003 829.144 Q64.5631 830.851 65.2716 833.363 Q66.0123 835.875 66.0123 838.516 Q66.0123 843.25 62.6307 846.084 Q59.2491 848.886 54.064 848.886 Q50.7468 848.886 47.816 847.791 Q44.8531 846.696 42.7597 844.924 Q40.6663 843.121 39.1526 840.867 Q37.6068 838.58 36.866 836.197 Q36.1253 833.813 36.1253 831.591 Q36.1253 828.338 37.7678 826.438 Q39.4103 824.538 41.7291 824.538 Q42.2766 824.538 42.9529 824.699 Q43.6293 824.828 44.692 825.279 Q45.7548 825.698 46.8176 826.793 Q47.8482 827.888 48.5245 829.498 Q50.0382 833.073 50.0382 839.578 L50.0382 843.089 Q54.1928 844.119 56.8981 844.119 Q57.9609 844.119 59.0559 843.926 Q60.1187 843.733 61.4713 843.218 Q62.8239 842.67 63.6935 841.446 Q64.5309 840.19 64.5309 838.387 Q64.5309 837.807 64.4987 837.195 Q64.4664 836.551 64.1122 834.941 Q63.7579 833.298 63.146 831.849 Q62.5341 830.4 61.2137 828.564 Q59.861 826.696 58.0253 825.215 Q57.349 824.699 57.349 824.345 Q57.349 824.055 57.6388 823.797 M41.7291 826.728 Q39.9578 826.728 38.7662 828.049 Q37.5746 829.337 37.5746 831.591 Q37.5746 832.3 37.7356 833.169 Q37.8966 834.039 38.5729 835.488 Q39.2493 836.905 40.3765 838.161 Q41.4715 839.417 43.6293 840.673 Q45.7548 841.929 48.589 842.67 L48.589 839.965 Q48.589 839.031 48.589 838.355 Q48.5568 837.678 48.4279 836.197 Q48.2991 834.683 48.0737 833.588 Q47.816 832.493 47.3007 831.108 Q46.7854 829.723 46.1091 828.854 Q45.4006 827.952 44.2734 827.34 Q43.1462 826.728 41.7291 826.728 Z" fill="#000000" fill-rule="nonzero" fill-opacity="1" /><path clip-path="url(#clip910)" d="M36.8338 791.273 L73.5163 800.387 Q74.6757 800.645 74.9656 800.645 Q75.352 800.645 75.5131 800.548 Q75.7063 800.419 75.8673 799.711 Q76.0284 798.97 76.0284 797.489 Q76.0284 796.941 76.0284 796.748 Q76.0284 796.555 76.0928 796.265 Q76.1572 795.975 76.3182 795.878 Q76.4792 795.782 76.7369 795.782 Q78.0573 795.782 78.0573 796.941 Q78.0573 798.036 77.9607 800.323 Q77.8641 802.609 77.8641 803.737 Q77.8641 804.832 77.9607 807.054 Q78.0573 809.276 78.0573 810.339 Q78.0573 810.725 77.8641 810.951 Q77.7031 811.176 77.5098 811.176 L77.3488 811.208 Q76.447 811.208 76.2216 810.854 Q76.0284 810.5 76.0284 809.695 Q75.9961 806.925 75.6097 806.12 Q75.2232 805.315 73.8384 804.928 L62.051 801.965 Q66.0123 805.927 66.0123 809.759 Q66.0123 813.463 63.1138 815.975 Q60.1831 818.455 55.4488 818.455 Q51.9384 818.455 48.3957 817.07 Q44.8531 815.653 42.18 813.463 Q39.5069 811.241 37.8322 808.342 Q36.1253 805.443 36.1253 802.577 Q36.1253 800.741 37.1881 799.099 Q38.2509 797.424 40.7307 796.426 Q39.3137 795.588 37.7678 794.043 Q36.1897 792.497 36.1897 791.949 Q36.1897 791.627 36.4151 791.466 Q36.6084 791.273 36.8338 791.273 M43.3716 797.36 Q43.0496 797.36 42.2444 797.617 Q41.4393 797.843 40.3443 798.358 Q39.2171 798.841 38.4119 799.968 Q37.5746 801.096 37.5746 802.577 Q37.5746 804.703 39.6357 806.989 Q41.6647 809.244 45.2073 810.725 Q47.5262 811.659 51.8418 812.722 Q56.1573 813.785 58.3473 813.785 Q58.8626 813.785 59.4423 813.753 Q60.022 813.688 60.9882 813.431 Q61.9544 813.173 62.6951 812.786 Q63.4359 812.368 63.9834 811.53 Q64.5309 810.693 64.5309 809.566 Q64.5309 807.118 62.4375 804.671 Q60.3441 802.223 58.4762 801.192 Q58.2829 801.063 50.9722 799.228 Q43.6615 797.36 43.3716 797.36 Z" fill="#000000" fill-rule="nonzero" fill-opacity="1" /><path clip-path="url(#clip910)" d="M55.8353 751.724 Q59.9898 752.561 62.3731 753.688 Q66.0123 755.524 66.0123 758.583 Q66.0123 760.709 64.8207 762.319 Q63.5969 763.897 61.5679 764.445 Q62.3731 765.057 62.9206 765.604 Q63.4681 766.12 64.3054 767.118 Q65.1106 768.116 65.5614 769.469 Q66.0123 770.789 66.0123 772.303 Q66.0123 773.463 65.7869 774.525 Q65.5937 775.588 65.0462 776.715 Q64.4664 777.81 63.5969 778.615 Q62.7273 779.388 61.3103 779.904 Q59.8932 780.419 58.0897 780.419 Q55.8353 780.419 52.7757 779.549 Q49.7162 778.648 44.2412 776.586 Q41.3426 775.459 39.7323 775.459 Q38.9916 775.459 38.5085 775.62 Q38.0254 775.781 37.8644 776.103 Q37.6712 776.393 37.639 776.586 Q37.5746 776.78 37.5746 777.102 Q37.5746 779.099 39.6035 780.838 Q41.6325 782.577 45.7548 783.768 Q46.56 784.026 46.7532 784.187 Q46.9465 784.348 46.9465 784.831 Q46.9143 785.636 46.2701 785.636 Q46.0125 785.636 45.0141 785.346 Q43.9835 785.057 42.4698 784.38 Q40.924 783.672 39.5391 782.706 Q38.1221 781.739 37.1237 780.226 Q36.1253 778.68 36.1253 776.909 Q36.1253 774.493 37.7034 773.012 Q39.2493 771.498 41.5359 771.498 Q42.9529 771.498 45.6904 772.625 Q55.1912 776.2 59.1525 776.2 Q64.5309 776.2 64.5309 772.11 Q64.5309 770.757 63.9834 769.501 Q63.4359 768.213 62.6629 767.376 Q61.89 766.538 61.0526 765.894 Q60.2153 765.218 59.6678 764.928 Q59.1203 764.606 58.9915 764.574 L39.1526 759.646 Q38.3797 759.453 37.8644 759.099 Q37.3169 758.712 37.1237 758.261 Q36.9304 757.81 36.8982 757.553 Q36.8338 757.295 36.8338 757.07 Q36.8338 756.265 37.3169 755.717 Q37.8 755.137 38.6373 755.137 Q38.7984 755.137 39.5713 755.331 Q40.3121 755.492 41.4071 755.749 Q42.4698 756.007 43.0496 756.136 Q47.1075 757.166 47.5262 757.263 L54.6437 759.099 Q55.0623 759.195 56.415 759.517 Q57.7676 759.807 58.4762 759.968 Q59.1525 760.129 60.0865 760.29 Q60.9882 760.419 61.5035 760.419 Q63.1138 760.419 63.8223 759.936 Q64.5309 759.453 64.5309 758.39 Q64.5309 757.392 63.8545 756.619 Q63.146 755.814 61.7934 755.202 Q60.4085 754.59 59.2813 754.236 Q58.1541 753.881 56.3828 753.43 Q55.6098 753.269 55.4166 753.141 Q55.1912 752.98 55.1912 752.529 Q55.1912 751.724 55.8353 751.724 Z" fill="#000000" fill-rule="nonzero" fill-opacity="1" /><path clip-path="url(#clip910)" d="M57.6388 722.667 Q57.9287 722.409 58.2185 722.409 Q58.5084 722.409 59.3457 723.053 Q60.1831 723.665 61.3103 724.986 Q62.4375 726.306 63.5003 728.013 Q64.5631 729.72 65.2716 732.232 Q66.0123 734.744 66.0123 737.385 Q66.0123 742.119 62.6307 744.953 Q59.2491 747.755 54.064 747.755 Q50.7468 747.755 47.816 746.66 Q44.8531 745.565 42.7597 743.794 Q40.6663 741.99 39.1526 739.736 Q37.6068 737.449 36.866 735.066 Q36.1253 732.683 36.1253 730.461 Q36.1253 727.208 37.7678 725.308 Q39.4103 723.408 41.7291 723.408 Q42.2766 723.408 42.9529 723.569 Q43.6293 723.697 44.692 724.148 Q45.7548 724.567 46.8176 725.662 Q47.8482 726.757 48.5245 728.367 Q50.0382 731.942 50.0382 738.448 L50.0382 741.958 Q54.1928 742.989 56.8981 742.989 Q57.9609 742.989 59.0559 742.795 Q60.1187 742.602 61.4713 742.087 Q62.8239 741.539 63.6935 740.316 Q64.5309 739.06 64.5309 737.256 Q64.5309 736.676 64.4987 736.064 Q64.4664 735.42 64.1122 733.81 Q63.7579 732.168 63.146 730.718 Q62.5341 729.269 61.2137 727.433 Q59.861 725.565 58.0253 724.084 Q57.349 723.569 57.349 723.214 Q57.349 722.924 57.6388 722.667 M41.7291 725.598 Q39.9578 725.598 38.7662 726.918 Q37.5746 728.206 37.5746 730.461 Q37.5746 731.169 37.7356 732.039 Q37.8966 732.908 38.5729 734.358 Q39.2493 735.775 40.3765 737.031 Q41.4715 738.287 43.6293 739.543 Q45.7548 740.799 48.589 741.539 L48.589 738.834 Q48.589 737.9 48.589 737.224 Q48.5568 736.548 48.4279 735.066 Q48.2991 733.552 48.0737 732.457 Q47.816 731.362 47.3007 729.978 Q46.7854 728.593 46.1091 727.723 Q45.4006 726.821 44.2734 726.209 Q43.1462 725.598 41.7291 725.598 Z" fill="#000000" fill-rule="nonzero" fill-opacity="1" /><path clip-path="url(#clip910)" d="M55.8353 682.896 Q56.0929 682.896 57.0913 683.185 Q58.0897 683.475 59.6356 684.184 Q61.1815 684.86 62.5985 685.794 Q63.9834 686.728 65.0139 688.274 Q66.0123 689.788 66.0123 691.527 Q66.0123 693.846 64.4664 695.391 Q62.9206 696.937 60.6017 696.937 Q59.3135 696.937 57.5422 696.261 Q46.1091 691.978 42.18 691.978 Q37.5746 691.978 37.5746 695.552 Q37.5746 697.324 38.2509 698.998 Q38.895 700.641 39.7968 701.768 Q40.6985 702.895 41.9546 703.926 Q43.1784 704.924 44.0157 705.44 Q44.8209 705.923 45.626 706.309 L48.911 707.147 Q49.8128 707.34 53.3232 708.274 L59.2813 709.723 Q63.7257 710.754 64.1444 710.979 Q65.0462 711.301 65.5292 712.01 Q66.0123 712.718 66.0123 713.427 Q66.0123 714.232 65.5292 714.779 Q65.0462 715.327 64.2088 715.327 Q64.08 715.327 63.5969 715.23 Q63.1138 715.134 62.4375 714.973 Q61.7612 714.812 61.3747 714.747 L46.1413 710.915 Q43.3716 710.206 42.5021 710.045 Q41.6003 709.852 40.6019 709.852 Q37.5746 709.852 37.5746 711.913 Q37.5746 713.588 39.5713 714.683 Q41.5681 715.778 45.4328 716.712 Q46.4956 717.002 46.721 717.195 Q46.9465 717.356 46.9465 717.839 Q46.9143 718.644 46.2701 718.644 Q46.1091 718.644 45.0463 718.386 Q43.9835 718.129 42.4698 717.646 Q40.924 717.13 39.8934 716.647 Q39.1204 716.229 38.7662 716.003 Q38.3797 715.746 37.639 715.134 Q36.866 714.489 36.5118 713.652 Q36.1253 712.783 36.1253 711.72 Q36.1253 709.337 37.6712 707.597 Q39.1848 705.858 41.8579 705.633 Q36.1253 701.349 36.1253 695.359 Q36.1253 691.817 37.9932 689.788 Q39.8612 687.759 43.1784 687.759 Q43.9513 687.759 44.9497 687.92 Q45.9159 688.048 47.1397 688.371 Q48.3635 688.66 49.2975 688.918 Q50.2315 689.176 51.7451 689.691 Q53.2266 690.206 53.8707 690.432 Q54.5148 690.657 56.0285 691.205 Q57.51 691.72 57.671 691.784 Q60.6662 692.976 62.3731 692.976 Q63.5003 692.976 64.0156 692.622 Q64.5309 692.235 64.5309 691.398 Q64.5309 689.143 62.3087 687.469 Q60.0542 685.762 56.3828 684.667 Q55.5776 684.409 55.3844 684.28 Q55.1912 684.119 55.1912 683.668 Q55.1912 682.896 55.8353 682.896 Z" fill="#000000" fill-rule="nonzero" fill-opacity="1" /><path clip-path="url(#clip910)" d="M57.6388 652.478 Q57.9287 652.221 58.2185 652.221 Q58.5084 652.221 59.3457 652.865 Q60.1831 653.477 61.3103 654.797 Q62.4375 656.118 63.5003 657.824 Q64.5631 659.531 65.2716 662.043 Q66.0123 664.555 66.0123 667.196 Q66.0123 672.124 62.7595 675.022 Q59.5067 677.889 54.8369 677.889 Q50.2959 677.889 45.9481 675.344 Q41.5681 672.8 38.8628 668.678 Q36.1253 664.555 36.1253 660.208 Q36.1253 656.762 37.7356 654.604 Q39.3459 652.446 41.7935 652.446 Q43.6937 652.446 44.8531 653.541 Q46.0125 654.636 46.0125 656.118 Q46.0125 657.148 45.4328 657.857 Q44.8209 658.565 43.6937 658.565 Q42.2444 658.565 41.1172 657.374 Q40.6663 656.923 40.4731 656.407 Q40.2476 655.86 40.2476 655.538 Q40.2154 655.216 40.2154 654.475 Q38.9594 655.151 38.2831 656.762 Q37.5746 658.34 37.5746 660.143 Q37.5746 662.816 39.4425 665.361 Q41.2782 667.905 44.1768 669.451 Q47.0109 670.997 51.0366 671.995 Q55.0301 672.993 57.349 672.993 Q60.5373 672.993 62.5341 671.512 Q64.5309 670.03 64.5309 667.068 Q64.5309 666.488 64.4987 665.876 Q64.4664 665.232 64.1122 663.621 Q63.7579 661.979 63.146 660.53 Q62.5341 659.08 61.2137 657.245 Q59.861 655.377 58.0253 653.895 Q57.349 653.38 57.349 653.026 Q57.349 652.736 57.6388 652.478 Z" fill="#000000" fill-rule="nonzero" fill-opacity="1" /><path clip-path="url(#clip910)" d="M38.6373 620.776 Q39.0882 620.776 40.151 621.066 L65.336 627.378 Q70.9398 628.763 74.8689 633.272 Q78.7981 637.749 78.7981 642.837 Q78.7981 645.897 77.1556 647.861 Q75.5453 649.826 73.0654 649.826 Q70.8754 649.826 69.8126 648.666 Q68.782 647.507 68.782 646.122 Q68.782 645.671 68.9109 645.188 Q69.0397 644.705 69.5872 644.19 Q70.1347 643.674 71.0687 643.674 Q72.5823 643.674 73.7739 644.995 Q74.3214 645.639 74.4503 646.251 Q74.5791 646.831 74.5791 647.829 Q75.4809 647.443 76.0928 646.734 Q76.7047 646.025 76.9301 645.22 Q77.1878 644.415 77.2522 643.9 Q77.3488 643.352 77.3488 642.837 Q77.3488 638.715 73.1942 635.559 Q71.9382 634.625 70.6822 633.948 Q69.4584 633.24 67.9447 632.724 Q66.4632 632.209 65.6581 631.984 Q64.8529 631.726 63.0172 631.275 Q66.0123 634.27 66.0123 637.942 Q66.0123 639.488 65.5937 640.873 Q65.175 642.225 64.3054 643.417 Q63.4037 644.608 61.8256 645.317 Q60.2475 645.993 58.1541 645.993 Q55.9319 645.993 52.9045 645.124 Q49.8772 644.254 44.3056 642.161 Q41.1816 641.034 39.6679 641.034 Q38.9272 641.034 38.4763 641.195 Q37.9932 641.356 37.8322 641.678 Q37.639 642 37.6068 642.193 Q37.5746 642.354 37.5746 642.676 Q37.5746 644.576 39.5069 646.348 Q41.4393 648.119 45.7548 649.343 Q46.56 649.6 46.7532 649.761 Q46.9465 649.922 46.9465 650.405 Q46.9143 651.211 46.2701 651.211 Q46.0125 651.211 45.0141 650.921 Q43.9835 650.631 42.4698 649.955 Q40.924 649.246 39.5391 648.28 Q38.1221 647.314 37.1237 645.8 Q36.1253 644.254 36.1253 642.483 Q36.1253 640.067 37.7034 638.586 Q39.2493 637.072 41.5359 637.072 Q42.4698 637.072 43.3072 637.33 Q44.1123 637.555 46.2701 638.393 Q54.9657 641.774 59.2169 641.774 Q60.2475 641.774 61.117 641.613 Q61.9544 641.42 62.7917 641.001 Q63.5969 640.583 64.08 639.745 Q64.5309 638.876 64.5309 637.684 Q64.5309 636.17 63.8223 634.753 Q63.0816 633.304 62.0832 632.402 Q61.0848 631.468 60.2475 630.921 Q59.3779 630.341 58.927 630.212 L47.0753 627.249 L41.7935 625.929 Q38.9272 625.317 38.2187 625.027 Q37.5423 624.641 37.1881 623.964 Q36.8338 623.288 36.8338 622.708 Q36.8338 621.903 37.3169 621.356 Q37.8 620.776 38.6373 620.776 Z" fill="#000000" fill-rule="nonzero" fill-opacity="1" /><path clip-path="url(#clip910)" d="M912.396 18.8198 Q912.396 20.0085 911.863 20.2544 Q911.372 20.5004 909.568 20.5004 Q906.494 20.5004 905.1 20.9103 Q903.747 21.2792 903.338 21.935 Q902.969 22.5498 902.518 24.3534 L891.164 69.6875 Q891.164 69.7285 891.041 70.3023 Q890.918 70.8352 890.918 71.1221 Q890.918 71.655 891.246 71.9829 Q891.615 72.3108 892.516 72.4748 Q893.418 72.5977 894.115 72.6387 Q894.853 72.6387 896.369 72.6387 Q898.255 72.6387 898.542 72.9667 Q898.706 73.1716 898.706 73.5405 Q898.706 74.3193 898.378 74.7292 Q898.091 75.0981 897.804 75.1801 Q897.558 75.2211 897.066 75.2211 Q896.205 75.2211 894.361 75.1391 Q892.516 75.0571 891.574 75.0571 L886.204 74.9751 L875.547 75.2211 Q874.399 75.2211 874.399 74.2783 Q874.399 73.4585 874.686 73.0896 Q874.973 72.7207 875.26 72.6797 Q875.588 72.6387 876.408 72.6387 Q880.63 72.6387 882.023 72.2288 Q883.458 71.778 884.032 69.8515 L889.811 46.6925 L864.234 46.6925 L858.495 69.6875 Q858.495 69.7285 858.372 70.3023 Q858.249 70.8352 858.249 71.1221 Q858.249 71.655 858.577 71.9829 Q858.946 72.3108 859.848 72.4748 Q860.75 72.5977 861.447 72.6387 Q862.184 72.6387 863.701 72.6387 Q865.586 72.6387 865.914 72.9667 Q866.078 73.1716 866.078 73.5405 Q866.078 74.1144 865.914 74.5242 Q865.791 74.8931 865.464 75.0161 Q865.177 75.1391 864.972 75.1801 Q864.767 75.2211 864.398 75.2211 Q863.537 75.2211 861.692 75.1391 Q859.889 75.0571 858.946 75.0571 L853.577 74.9751 L842.919 75.2211 Q841.731 75.2211 841.731 74.2783 Q841.731 73.4585 842.018 73.1306 Q842.305 72.7617 842.673 72.7207 Q843.042 72.6387 843.985 72.6387 Q846.035 72.6387 847.264 72.5158 Q848.494 72.3928 849.273 72.2288 Q850.093 72.0239 850.502 71.45 Q850.953 70.8762 851.158 70.3843 Q851.363 69.8515 851.65 68.6628 L862.881 23.5746 Q863.209 22.2219 863.209 22.017 Q863.209 21.2382 862.717 21.0332 Q862.266 20.7873 860.955 20.6643 L857.758 20.5004 Q856.774 20.5004 856.364 20.4594 Q855.995 20.4184 855.708 20.2135 Q855.421 20.0085 855.421 19.5576 Q855.421 18.9838 855.544 18.6149 Q855.708 18.205 855.995 18.082 Q856.282 17.959 856.487 17.9181 Q856.692 17.8771 857.02 17.8771 L867.841 18.123 L878.58 17.8771 Q879.769 17.8771 879.769 18.8198 Q879.769 20.0085 879.236 20.2544 Q878.703 20.5004 876.9 20.5004 Q873.907 20.5004 872.514 20.9103 Q871.12 21.2792 870.669 21.935 Q870.259 22.5908 869.849 24.3534 L864.89 44.0692 L890.508 44.0692 L895.55 23.5746 Q895.878 22.099 895.878 22.017 Q895.878 21.2382 895.386 21.0332 Q894.935 20.7873 893.623 20.6643 L890.426 20.5004 Q889.442 20.5004 889.032 20.4594 Q888.663 20.4184 888.336 20.2135 Q888.049 20.0085 888.049 19.5576 Q888.049 18.9838 888.172 18.6149 Q888.336 18.205 888.622 18.082 Q888.909 17.959 889.114 17.9181 Q889.319 17.8771 889.647 17.8771 L900.468 18.123 L911.249 17.8771 Q912.396 17.8771 912.396 18.8198 Z" fill="#000000" fill-rule="nonzero" fill-opacity="1" /><path clip-path="url(#clip910)" d="M935.582 22.7548 Q935.582 24.5583 934.106 25.911 Q932.672 27.2226 931.114 27.2226 Q929.679 27.2226 928.778 26.3618 Q927.917 25.4601 927.917 24.1894 Q927.917 22.5089 929.352 21.1152 Q930.786 19.7216 932.467 19.7216 Q933.86 19.7216 934.721 20.5824 Q935.582 21.4431 935.582 22.7548 M936.32 63.2112 Q936.32 63.5391 935.951 64.8508 Q935.582 66.1214 934.68 68.0889 Q933.819 70.0154 932.631 71.819 Q931.442 73.6225 929.475 74.8931 Q927.548 76.1638 925.335 76.1638 Q922.342 76.1638 920.375 74.1963 Q918.448 72.2288 918.448 69.2776 Q918.448 67.679 920.375 62.5554 Q925.949 47.6353 926.154 47.0204 Q927.097 44.6841 927.097 42.6346 Q927.097 41.6918 926.892 41.118 Q926.687 40.5031 926.277 40.2982 Q925.867 40.0523 925.622 40.0113 Q925.417 39.9703 925.007 39.9703 Q922.588 39.9703 920.334 42.4296 Q918.079 44.889 916.522 50.3816 Q916.194 51.4063 915.989 51.6522 Q915.784 51.8982 915.169 51.8982 Q914.145 51.8572 914.145 51.0374 Q914.145 50.7915 914.431 49.8487 Q914.718 48.865 915.251 47.3893 Q915.784 45.8727 916.727 44.3151 Q917.67 42.7166 918.817 41.3229 Q920.006 39.9293 921.687 39.0275 Q923.367 38.1258 925.253 38.1258 Q928.327 38.1258 930.212 40.1342 Q932.139 42.1017 932.139 45.012 Q932.139 46.6105 931.032 49.4388 Q929.679 53.1278 929.188 54.3165 L925.908 63.1292 Q924.72 66.3264 924.351 67.3101 Q924.023 68.2529 923.736 69.4006 Q923.49 70.5073 923.49 71.532 Q923.49 72.9667 923.941 73.6225 Q924.433 74.2783 925.499 74.2783 Q928.45 74.2783 930.622 71.3681 Q932.795 68.4168 934.065 63.908 Q934.106 63.7851 934.147 63.5801 Q934.475 62.5554 934.803 62.4324 Q934.967 62.3914 935.295 62.3914 Q936.32 62.3914 936.32 63.2112 Z" fill="#000000" fill-rule="nonzero" fill-opacity="1" /><path clip-path="url(#clip910)" d="M976.063 45.3399 Q976.063 47.6353 974.916 48.865 Q973.768 50.0536 972.21 50.0536 Q970.94 50.0536 970.243 49.3158 Q969.587 48.578 969.587 47.5943 Q969.587 46.1597 970.735 45.012 Q971.923 43.8643 973.645 43.8233 Q973.071 42.3067 971.554 41.4049 Q970.038 40.4622 968.685 40.2162 Q967.373 39.9703 966.062 39.9703 Q963.48 39.9703 961.512 40.7901 Q959.545 41.6099 958.561 42.8805 Q957.577 44.1102 957.126 45.2989 Q956.675 46.4876 956.675 47.5123 Q956.675 48.4141 956.88 49.1519 Q957.126 49.8487 957.7 50.3816 Q958.274 50.8734 958.684 51.2013 Q959.135 51.5293 960.118 51.8162 Q961.102 52.1031 961.512 52.2261 Q961.922 52.3081 963.07 52.554 Q965.447 53.0459 966.513 53.3328 Q967.578 53.5787 968.972 54.2755 Q970.407 54.9724 971.472 56.0791 Q974.055 58.6614 974.055 62.2275 Q974.055 63.5391 973.604 65.1377 Q973.194 66.7363 972.005 68.7448 Q970.817 70.7532 969.013 72.3518 Q967.21 73.9504 964.094 75.0571 Q961.02 76.1638 957.167 76.1638 Q951.798 76.1638 948.477 73.9094 Q945.157 71.614 945.157 68.0069 Q945.157 65.3836 946.592 63.949 Q948.027 62.4734 949.871 62.4734 Q951.265 62.4734 952.125 63.2522 Q952.986 63.99 952.986 65.3836 Q952.986 67.2691 951.47 68.7038 Q949.953 70.1384 947.699 69.8515 Q949.625 74.2783 957.249 74.2783 Q960.118 74.2783 962.332 73.5405 Q964.586 72.7617 965.816 71.696 Q967.087 70.5893 967.906 69.2366 Q968.726 67.884 968.972 66.8592 Q969.259 65.8345 969.259 65.0557 Q969.259 63.7031 968.726 62.6783 Q968.193 61.6536 967.455 61.0798 Q966.759 60.4649 965.406 59.9731 Q964.094 59.4402 963.152 59.2352 Q962.209 59.0303 960.528 58.7024 Q959.749 58.5384 959.258 58.4564 Q958.766 58.3335 957.741 58.0056 Q956.757 57.6367 956.06 57.2678 Q955.405 56.8989 954.544 56.243 Q953.683 55.5872 953.15 54.8084 Q952.617 54.0296 952.248 52.8819 Q951.88 51.7342 951.88 50.3816 Q951.88 49.1519 952.248 47.6763 Q952.658 46.2007 953.683 44.4791 Q954.749 42.7576 956.265 41.3639 Q957.782 39.9703 960.323 39.0685 Q962.906 38.1258 966.062 38.1258 Q970.653 38.1258 973.358 40.2572 Q976.063 42.3477 976.063 45.3399 Z" fill="#000000" fill-rule="nonzero" fill-opacity="1" /><path clip-path="url(#clip910)" d="M1007.02 39.9703 Q1007.02 41.118 1006.49 41.4049 Q1005.96 41.6508 1004.48 41.6508 L996.609 41.6508 L990.379 66.4084 Q989.887 68.5808 989.887 70.4253 Q989.887 72.4748 990.502 73.3765 Q991.158 74.2783 992.511 74.2783 Q995.175 74.2783 998.044 71.8599 Q1000.95 69.4416 1003.41 63.5391 Q1003.74 62.7603 1003.91 62.5964 Q1004.11 62.3914 1004.64 62.3914 Q1005.67 62.3914 1005.67 63.2112 Q1005.67 63.4981 1005.09 64.8098 Q1004.56 66.1214 1003.37 68.0479 Q1002.22 69.9744 1000.71 71.778 Q999.233 73.5815 996.978 74.8931 Q994.724 76.1638 992.306 76.1638 Q988.903 76.1638 986.731 73.9914 Q984.6 71.819 984.6 68.4168 Q984.6 67.3101 985.46 63.7851 Q986.321 60.219 990.994 41.6508 L983.575 41.6508 Q982.55 41.6508 982.14 41.6099 Q981.771 41.5689 981.484 41.3639 Q981.238 41.118 981.238 40.6261 Q981.238 39.8473 981.566 39.5194 Q981.894 39.1505 982.304 39.1095 Q982.755 39.0275 983.78 39.0275 L991.65 39.0275 L994.929 25.706 Q995.257 24.3944 996.077 23.6566 Q996.937 22.8778 997.429 22.7958 Q997.921 22.6728 998.29 22.6728 Q999.397 22.6728 1000.05 23.2876 Q1000.71 23.8615 1000.71 24.9272 Q1000.71 25.5011 997.265 39.0275 L1004.64 39.0275 Q1005.59 39.0275 1005.96 39.0685 Q1006.36 39.1095 1006.69 39.3145 Q1007.02 39.5194 1007.02 39.9703 Z" fill="#000000" fill-rule="nonzero" fill-opacity="1" /><path clip-path="url(#clip910)" d="M1045.11 52.3081 Q1045.11 56.7759 1043.14 61.2027 Q1041.17 65.5886 1038.02 68.8677 Q1034.9 72.1059 1030.8 74.1553 Q1026.7 76.1638 1022.61 76.1638 Q1016.74 76.1638 1012.93 72.1879 Q1009.16 68.1709 1009.16 61.9405 Q1009.16 56.1201 1012.4 50.5865 Q1015.68 45.012 1020.92 41.5689 Q1026.17 38.1258 1031.66 38.1258 Q1037.44 38.1258 1041.26 42.0197 Q1045.11 45.9137 1045.11 52.3081 M1038.96 49.0289 Q1038.96 45.053 1037.03 42.5116 Q1035.11 39.9703 1031.58 39.9703 Q1030.56 39.9703 1029.37 40.2982 Q1028.18 40.5851 1026.62 41.3639 Q1025.11 42.1427 1023.38 43.7823 Q1021.7 45.3809 1020.23 47.6763 Q1018.3 50.7095 1016.83 56.284 Q1015.39 61.8176 1015.39 65.1377 Q1015.39 69.7285 1017.52 72.0239 Q1019.65 74.2783 1022.69 74.2783 Q1025.64 74.2783 1028.75 72.2288 Q1031.91 70.1384 1034.08 66.5723 Q1036.25 62.8833 1037.61 57.4727 Q1038.96 52.0211 1038.96 49.0289 Z" fill="#000000" fill-rule="nonzero" fill-opacity="1" /><path clip-path="url(#clip910)" d="M1084.98 42.0607 Q1084.98 42.1017 1084.73 43.5773 L1075.39 80.8366 Q1074.9 82.8041 1073.5 84.7716 Q1072.15 86.78 1069.98 88.5016 Q1067.85 90.2641 1064.57 91.3298 Q1061.33 92.4366 1057.6 92.4366 Q1051.65 92.4366 1049.03 91.1659 Q1046.45 89.9362 1046.45 87.3129 Q1046.45 85.0175 1047.88 83.7058 Q1049.32 82.4352 1050.96 82.4352 Q1052.52 82.4352 1053.33 83.3369 Q1054.15 84.2387 1054.15 85.3864 Q1054.15 86.6571 1053.29 87.9277 Q1052.43 89.2394 1050.71 89.7313 Q1053.46 90.592 1057.43 90.592 Q1065.84 90.592 1069.44 81.6974 Q1069.53 81.5744 1069.53 81.5334 L1072.31 70.4253 L1072.19 70.3433 Q1071.49 71.1631 1070.39 72.1059 Q1069.32 73.0076 1067.03 74.1144 Q1064.73 75.2211 1062.48 75.2211 Q1057.76 75.2211 1054.52 71.614 Q1051.33 67.966 1051.33 61.9405 Q1051.33 57.5547 1053.09 53.1688 Q1054.89 48.742 1057.68 45.5038 Q1060.51 42.2247 1064.12 40.1752 Q1067.76 38.1258 1071.29 38.1258 Q1073.75 38.1258 1075.84 39.6014 Q1077.93 41.036 1079.08 43.4134 Q1079.28 41.4459 1080.39 40.6261 Q1081.54 39.8063 1082.52 39.8063 Q1083.63 39.8063 1084.28 40.4212 Q1084.98 40.995 1084.98 42.0607 M1078.09 47.1844 Q1078.09 46.9385 1077.93 46.2826 Q1077.76 45.5858 1077.27 44.4791 Q1076.82 43.3724 1076.12 42.3887 Q1075.43 41.4049 1074.16 40.7081 Q1072.93 39.9703 1071.37 39.9703 Q1068.83 39.9703 1066.29 42.1017 Q1063.75 44.1922 1061.98 47.4303 Q1060.34 50.5455 1058.79 56.5709 Q1057.27 62.5964 1057.27 65.6706 Q1057.27 68.7038 1058.58 71.0402 Q1059.89 73.3765 1062.72 73.3765 Q1066 73.3765 1069.53 70.3433 Q1073.17 67.1872 1073.79 64.4819 L1077.85 48.4551 Q1078.09 47.4713 1078.09 47.1844 Z" fill="#000000" fill-rule="nonzero" fill-opacity="1" /><path clip-path="url(#clip910)" d="M1123.95 43.5773 Q1123.95 45.7498 1122.52 47.1434 Q1121.12 48.537 1119.32 48.537 Q1117.76 48.537 1116.94 47.6353 Q1116.12 46.7335 1116.12 45.5858 Q1116.12 43.9462 1117.39 42.5936 Q1118.66 41.241 1120.51 40.954 Q1119.16 39.9703 1116.98 39.9703 Q1113.42 39.9703 1110.26 42.7166 Q1108.87 43.9872 1107.35 46.3236 Q1105.83 48.619 1105.55 49.6028 L1102.88 60.5469 Q1102.64 61.7766 1101.12 67.679 Q1099.64 73.5405 1099.52 73.7864 Q1099.11 74.9341 1098.21 75.549 Q1097.31 76.1638 1096.41 76.1638 Q1095.38 76.1638 1094.69 75.549 Q1093.99 74.9341 1093.99 73.8684 Q1093.99 73.7045 1094.11 73.0896 Q1094.23 72.4748 1094.44 71.614 Q1094.64 70.7532 1094.73 70.2614 L1099.6 50.8734 Q1100.51 47.3484 1100.71 46.2416 Q1100.96 45.0939 1100.96 43.8233 Q1100.96 41.6099 1100.26 40.7901 Q1099.56 39.9703 1098.33 39.9703 Q1096.2 39.9703 1094.81 42.5116 Q1093.41 45.053 1092.23 49.9717 Q1091.86 51.3243 1091.61 51.6112 Q1091.41 51.8982 1090.79 51.8982 Q1089.77 51.8572 1089.77 51.0374 Q1089.77 50.8324 1090.09 49.5208 Q1090.42 48.1681 1091.04 46.2007 Q1091.69 44.1922 1092.39 42.9215 Q1092.8 42.0607 1093.17 41.4869 Q1093.54 40.913 1094.28 40.0113 Q1095.01 39.1095 1096.12 38.6176 Q1097.23 38.1258 1098.58 38.1258 Q1101.53 38.1258 1103.62 39.9293 Q1105.75 41.7328 1106.24 44.5611 Q1107.27 43.0855 1108.54 41.8148 Q1109.81 40.5031 1112.15 39.3145 Q1114.48 38.1258 1116.98 38.1258 Q1120.1 38.1258 1122.03 39.7243 Q1123.95 41.2819 1123.95 43.5773 Z" fill="#000000" fill-rule="nonzero" fill-opacity="1" /><path clip-path="url(#clip910)" d="M1168.34 63.2112 Q1167.23 68.4988 1165.8 71.532 Q1163.5 76.1638 1159.61 76.1638 Q1156.66 76.1638 1154.57 74.3603 Q1152.48 72.5568 1151.99 69.8515 Q1146.62 76.1638 1141.04 76.1638 Q1136.12 76.1638 1133.01 72.4338 Q1129.89 68.6628 1129.89 62.7193 Q1129.89 56.7349 1132.84 50.9964 Q1135.84 45.2579 1140.55 41.6918 Q1145.26 38.1258 1150.1 38.1258 Q1155.22 38.1258 1157.85 43.4954 Q1158.05 42.0197 1159 40.913 Q1159.94 39.8063 1161.37 39.8063 Q1162.48 39.8063 1163.14 40.4212 Q1163.79 40.995 1163.79 42.0607 Q1163.79 42.5936 1163.22 44.93 L1160.18 56.6529 L1158.34 64.2359 Q1157.64 67.0232 1157.44 68.0479 Q1157.27 69.0727 1157.27 70.4253 Q1157.27 74.2783 1159.77 74.2783 Q1161 74.2783 1161.99 73.4995 Q1162.97 72.7207 1163.75 71.0811 Q1164.53 69.4416 1165.02 67.925 Q1165.51 66.3674 1166.17 63.908 Q1166.37 62.9243 1166.54 62.6783 Q1166.74 62.3914 1167.32 62.3914 Q1168.34 62.3914 1168.34 63.2112 M1156.82 47.3484 Q1156.82 46.9794 1156.54 45.9547 Q1156.25 44.93 1155.59 43.4954 Q1154.94 42.0607 1153.5 41.036 Q1152.11 39.9703 1150.22 39.9703 Q1147.68 39.9703 1145.02 42.1427 Q1142.4 44.3151 1140.47 48.0042 Q1138.99 50.9554 1137.39 57.1448 Q1135.84 63.3342 1135.84 66.4084 Q1135.84 68.2939 1136.25 69.9744 Q1136.7 71.614 1137.97 72.9667 Q1139.24 74.2783 1141.21 74.2783 Q1146 74.2783 1150.72 68.3349 Q1151.62 67.3101 1151.82 66.9002 Q1152.07 66.4494 1152.4 65.2197 L1156.58 48.783 Q1156.82 47.5533 1156.82 47.3484 Z" fill="#000000" fill-rule="nonzero" fill-opacity="1" /><path clip-path="url(#clip910)" d="M1240.62 63.2112 Q1240.62 63.5391 1240.25 64.8098 Q1239.89 66.0805 1238.98 68.0479 Q1238.12 70.0154 1236.89 71.819 Q1235.7 73.5815 1233.74 74.8931 Q1231.81 76.1638 1229.6 76.1638 Q1226.65 76.1638 1224.68 74.1963 Q1222.71 72.2288 1222.71 69.2776 Q1222.71 67.679 1223.82 64.6458 Q1229.02 50.7915 1229.02 45.8318 Q1229.02 39.9703 1224.47 39.9703 Q1221.89 39.9703 1219.55 41.036 Q1217.22 42.1017 1215.7 43.5773 Q1214.18 45.053 1213 46.7335 Q1211.81 48.4141 1211.27 49.5208 Q1210.78 50.6275 1210.66 51.1194 L1205.62 71.3681 Q1205.21 73.0896 1204.92 73.9094 Q1204.63 74.7292 1203.86 75.426 Q1203.08 76.1638 1201.85 76.1638 Q1200.82 76.1638 1200.08 75.549 Q1199.39 74.9341 1199.39 73.8684 Q1199.39 73.7045 1199.59 72.8437 Q1199.8 71.9829 1200.08 70.7942 Q1200.37 69.6055 1200.49 68.9087 Q1201.97 63.3342 1202.18 62.5554 L1204.51 52.7999 Q1205.78 47.9632 1205.78 45.8318 Q1205.78 39.9703 1201.23 39.9703 Q1198.98 39.9703 1196.85 40.8311 Q1194.76 41.6508 1193.32 42.7985 Q1191.89 43.9462 1190.58 45.5448 Q1189.3 47.1024 1188.65 48.1681 Q1188.03 49.1929 1187.54 50.2176 L1186.48 54.3985 Q1186.23 55.5462 1185.04 60.014 L1183.2 67.5971 Q1181.89 73.2536 1181.6 73.7864 Q1181.19 74.9341 1180.29 75.549 Q1179.39 76.1638 1178.48 76.1638 Q1177.46 76.1638 1176.76 75.549 Q1176.06 74.9341 1176.06 73.8684 Q1176.06 73.7045 1176.19 73.0896 Q1176.31 72.4748 1176.52 71.614 Q1176.72 70.7532 1176.8 70.2614 L1181.68 50.8734 Q1182.58 47.3484 1182.79 46.2416 Q1183.03 45.0939 1183.03 43.8233 Q1183.03 39.9703 1180.41 39.9703 Q1178.28 39.9703 1176.88 42.5116 Q1175.49 45.053 1174.3 49.9717 Q1173.93 51.3243 1173.69 51.6112 Q1173.48 51.8982 1172.87 51.8982 Q1171.84 51.8572 1171.84 51.0374 Q1171.84 50.8324 1172.17 49.5208 Q1172.5 48.2091 1173.11 46.2416 Q1173.77 44.2332 1174.47 42.9215 Q1174.88 42.0607 1175.25 41.4869 Q1175.61 40.913 1176.35 40.0113 Q1177.09 39.1095 1178.2 38.6176 Q1179.3 38.1258 1180.66 38.1258 Q1183.65 38.1258 1185.86 40.0523 Q1188.12 41.9788 1188.4 45.4219 Q1193.85 38.1258 1201.48 38.1258 Q1205.78 38.1258 1208.36 40.2982 Q1210.78 42.3887 1211.07 46.2416 Q1216.73 38.1258 1224.76 38.1258 Q1229.39 38.1258 1231.89 40.5441 Q1234.39 42.9215 1234.39 47.1024 Q1234.39 49.2748 1233.29 53.4148 Q1232.18 57.5137 1231.44 59.5632 Q1230.7 61.6126 1229.27 65.5476 Q1227.75 69.3186 1227.75 71.532 Q1227.75 72.9667 1228.24 73.6225 Q1228.74 74.2783 1229.8 74.2783 Q1231.44 74.2783 1232.88 73.3356 Q1234.31 72.3518 1235.34 70.7532 Q1236.4 69.1137 1237.1 67.4741 Q1237.79 65.7935 1238.33 63.908 Q1238.66 62.8833 1238.82 62.6374 Q1239.02 62.3914 1239.6 62.3914 Q1240.62 62.3914 1240.62 63.2112 Z" fill="#000000" fill-rule="nonzero" fill-opacity="1" /><path clip-path="url(#clip910)" d="M1291.87 52.3081 Q1291.87 56.7759 1289.91 61.2027 Q1287.94 65.5886 1284.78 68.8677 Q1281.67 72.1059 1277.57 74.1553 Q1273.47 76.1638 1269.37 76.1638 Q1263.51 76.1638 1259.7 72.1879 Q1255.93 68.1709 1255.93 61.9405 Q1255.93 56.1201 1259.16 50.5865 Q1262.44 45.012 1267.69 41.5689 Q1272.94 38.1258 1278.43 38.1258 Q1284.21 38.1258 1288.02 42.0197 Q1291.87 45.9137 1291.87 52.3081 M1285.72 49.0289 Q1285.72 45.053 1283.8 42.5116 Q1281.87 39.9703 1278.35 39.9703 Q1277.32 39.9703 1276.13 40.2982 Q1274.94 40.5851 1273.39 41.3639 Q1271.87 42.1427 1270.15 43.7823 Q1268.47 45.3809 1266.99 47.6763 Q1265.07 50.7095 1263.59 56.284 Q1262.16 61.8176 1262.16 65.1377 Q1262.16 69.7285 1264.29 72.0239 Q1266.42 74.2783 1269.45 74.2783 Q1272.4 74.2783 1275.52 72.2288 Q1278.67 70.1384 1280.85 66.5723 Q1283.02 62.8833 1284.37 57.4727 Q1285.72 52.0211 1285.72 49.0289 Z" fill="#000000" fill-rule="nonzero" fill-opacity="1" /><path clip-path="url(#clip910)" d="M1338.09 21.812 Q1338.09 24.0664 1336.65 25.4601 Q1335.26 26.8537 1333.5 26.8537 Q1332.23 26.8537 1331.28 26.0749 Q1330.38 25.2961 1330.38 23.9435 Q1330.38 22.5498 1331.45 21.0742 Q1332.51 19.5986 1334.93 19.3937 Q1333.33 17.8771 1330.79 17.8771 Q1329.52 17.8771 1328.45 18.6968 Q1327.43 19.4756 1326.86 20.7463 Q1326.24 22.058 1324.85 29.477 Q1324.4 31.8954 1323.99 34.2318 Q1323.58 36.5682 1323.09 39.0275 L1330.05 39.0275 Q1330.96 39.0275 1331.32 39.0685 Q1331.69 39.1095 1331.98 39.3145 Q1332.31 39.5194 1332.31 39.9703 Q1332.31 41.118 1331.78 41.4049 Q1331.28 41.6508 1329.81 41.6508 L1322.59 41.6508 L1317.55 68.2529 Q1317.43 69.0317 1316.9 71.491 Q1316.4 73.9094 1315.22 77.8854 Q1314.03 81.9023 1312.84 84.2797 Q1312.18 85.6323 1311.32 86.903 Q1310.5 88.2147 1309.31 89.5263 Q1308.12 90.838 1306.57 91.6168 Q1305.01 92.4366 1303.37 92.4366 Q1300.58 92.4366 1298.41 90.879 Q1296.24 89.3214 1296.24 86.6571 Q1296.24 84.4027 1297.63 83.009 Q1299.07 81.6154 1300.83 81.6154 Q1302.1 81.6154 1303 82.3942 Q1303.94 83.173 1303.94 84.5256 Q1303.94 85.0995 1303.74 85.7553 Q1303.53 86.4111 1303.08 87.1489 Q1302.63 87.9277 1301.65 88.4606 Q1300.66 88.9935 1299.31 89.0754 Q1300.91 90.592 1303.37 90.592 Q1304.15 90.592 1304.85 90.2641 Q1305.54 89.9772 1306.12 89.2394 Q1306.73 88.5016 1307.18 87.7638 Q1307.63 87.067 1308.08 85.7143 Q1308.53 84.4027 1308.82 83.4189 Q1309.11 82.4352 1309.48 80.6726 Q1309.89 78.9101 1310.09 77.8444 Q1310.3 76.8196 1310.67 74.8112 L1316.94 41.6508 L1311.4 41.6508 Q1310.42 41.6508 1310.01 41.6099 Q1309.64 41.5689 1309.35 41.3639 Q1309.07 41.118 1309.07 40.6261 Q1309.07 39.8473 1309.39 39.5194 Q1309.76 39.1505 1310.17 39.1095 Q1310.58 39.0275 1311.57 39.0275 L1317.39 39.0275 Q1319.36 28.6572 1320.13 25.87 Q1321.04 22.9187 1322.43 20.8693 Q1323.82 18.7788 1325.38 17.7951 Q1326.94 16.8113 1328.21 16.4424 Q1329.52 16.0325 1330.79 16.0325 Q1333.66 16.0325 1335.87 17.5901 Q1338.09 19.1067 1338.09 21.812 Z" fill="#000000" fill-rule="nonzero" fill-opacity="1" /><path clip-path="url(#clip910)" d="M1398.83 28.7802 Q1398.83 27.4276 1398.46 26.3209 Q1398.14 25.1732 1397.6 24.3944 Q1397.11 23.5746 1396.17 22.9597 Q1395.22 22.3039 1394.45 21.894 Q1393.67 21.4841 1392.36 21.2382 Q1391.04 20.9513 1390.18 20.8283 Q1389.32 20.6643 1387.85 20.5824 Q1386.37 20.5004 1385.63 20.5004 Q1384.94 20.5004 1383.54 20.5004 Q1379.16 20.5004 1378.42 20.5824 Q1377.31 20.7463 1376.9 21.4021 Q1376.49 22.017 1376.08 23.6975 L1370.63 45.5858 L1380.02 45.5858 Q1385.14 45.5858 1388.67 44.1512 Q1392.19 42.7166 1394.2 40.7081 Q1396.41 38.4947 1397.6 34.9286 Q1398.83 31.3625 1398.83 28.7802 M1407.97 67.4331 Q1407.97 67.884 1407.6 68.9087 Q1407.28 69.9334 1406.46 71.3681 Q1405.64 72.7617 1404.53 74.0324 Q1403.42 75.303 1401.66 76.1638 Q1399.9 77.0656 1397.89 77.0656 Q1397.4 77.0656 1396.91 77.0246 Q1396.41 77.0246 1395.18 76.8196 Q1394 76.6557 1393.01 76.3278 Q1392.03 76.0408 1390.8 75.344 Q1389.57 74.6882 1388.71 73.7864 Q1387.89 72.8437 1387.31 71.3681 Q1386.74 69.8515 1386.74 68.0069 Q1386.74 66.3674 1388.09 60.8748 Q1389.28 56.202 1389.28 55.0543 Q1389.28 53.7837 1388.87 52.595 Q1388.5 51.4063 1387.56 50.1766 Q1386.66 48.9469 1384.73 48.2091 Q1382.81 47.4303 1380.1 47.4303 L1370.14 47.4303 L1364.56 69.6875 Q1364.56 69.7285 1364.44 70.3023 Q1364.32 70.8352 1364.32 71.1221 Q1364.32 71.655 1364.65 71.9829 Q1365.02 72.3108 1365.92 72.4748 Q1366.82 72.5977 1367.52 72.6387 Q1368.25 72.6387 1369.77 72.6387 Q1371.66 72.6387 1371.98 72.9667 Q1372.15 73.1716 1372.15 73.5405 Q1372.15 74.1144 1371.98 74.5242 Q1371.86 74.8931 1371.53 75.0161 Q1371.25 75.1391 1371.04 75.1801 Q1370.84 75.2211 1370.47 75.2211 L1359.81 74.9751 L1349.23 75.2211 Q1348.05 75.2211 1348.05 74.2783 Q1348.05 73.4585 1348.33 73.1306 Q1348.62 72.7617 1348.99 72.7207 Q1349.36 72.6387 1350.3 72.6387 Q1352.35 72.6387 1353.58 72.5158 Q1354.81 72.3928 1355.59 72.2288 Q1356.41 72.0239 1356.82 71.45 Q1357.27 70.8762 1357.47 70.3843 Q1357.68 69.8515 1357.97 68.6628 L1369.2 23.5746 Q1369.52 22.2219 1369.52 22.017 Q1369.52 21.2382 1369.03 21.0332 Q1368.58 20.7873 1367.27 20.6643 L1364.07 20.5004 Q1363.09 20.5004 1362.68 20.4594 Q1362.31 20.4184 1362.02 20.2135 Q1361.74 20.0085 1361.74 19.5576 Q1361.74 18.4099 1362.23 18.164 Q1362.72 17.8771 1364.15 17.8771 L1388.09 17.8771 Q1396.25 17.8771 1401.41 21.4431 Q1406.62 25.0092 1406.62 30.4608 Q1406.62 32.9201 1405.51 35.2155 Q1404.41 37.5109 1402.56 39.3145 Q1400.76 41.118 1398.34 42.6346 Q1395.92 44.1102 1393.34 45.1349 Q1390.8 46.1187 1388.17 46.6925 Q1389.32 47.1024 1390.39 47.7173 Q1391.49 48.3321 1392.89 49.4798 Q1394.32 50.6275 1395.18 52.472 Q1396.04 54.3165 1396.04 56.5709 Q1396.04 58.1695 1395.72 60.5469 Q1394.9 67.3101 1394.9 70.0974 Q1394.9 72.7617 1395.59 73.9914 Q1396.29 75.2211 1398.26 75.2211 Q1400.18 75.2211 1402.32 73.4995 Q1404.49 71.737 1405.88 67.5971 Q1406.21 66.4084 1406.99 66.4084 Q1407.03 66.4084 1407.07 66.4084 Q1407.15 66.4084 1407.32 66.4903 Q1407.48 66.5313 1407.6 66.6543 Q1407.77 66.7363 1407.85 66.9412 Q1407.97 67.1462 1407.97 67.4331 Z" fill="#000000" fill-rule="nonzero" fill-opacity="1" /><path clip-path="url(#clip910)" d="M1443.28 65.5066 Q1443.61 65.8755 1443.61 66.2444 Q1443.61 66.6133 1442.79 67.679 Q1442.01 68.7448 1440.33 70.1794 Q1438.65 71.614 1436.48 72.9667 Q1434.31 74.3193 1431.11 75.2211 Q1427.91 76.1638 1424.55 76.1638 Q1418.52 76.1638 1414.92 71.8599 Q1411.35 67.5561 1411.35 60.9568 Q1411.35 56.7349 1412.74 53.0049 Q1414.14 49.2339 1416.39 46.5696 Q1418.69 43.9053 1421.56 41.9788 Q1424.47 40.0113 1427.5 39.0685 Q1430.53 38.1258 1433.36 38.1258 Q1437.5 38.1258 1439.92 40.2162 Q1442.34 42.3067 1442.34 45.2579 Q1442.34 45.9547 1442.13 46.8155 Q1441.97 47.6763 1441.4 49.0289 Q1440.86 50.3816 1439.47 51.7342 Q1438.08 53.0459 1436.03 53.9066 Q1431.48 55.8331 1423.2 55.8331 L1418.73 55.8331 Q1417.42 61.1208 1417.42 64.5639 Q1417.42 65.9165 1417.66 67.3101 Q1417.91 68.6628 1418.57 70.3843 Q1419.26 72.1059 1420.82 73.2126 Q1422.42 74.2783 1424.71 74.2783 Q1425.45 74.2783 1426.23 74.2373 Q1427.05 74.1963 1429.1 73.7454 Q1431.19 73.2946 1433.03 72.5158 Q1434.88 71.737 1437.22 70.0564 Q1439.59 68.3349 1441.48 65.9985 Q1442.13 65.1377 1442.59 65.1377 Q1442.95 65.1377 1443.28 65.5066 M1439.55 45.2579 Q1439.55 43.0035 1437.87 41.4869 Q1436.23 39.9703 1433.36 39.9703 Q1432.46 39.9703 1431.35 40.1752 Q1430.25 40.3802 1428.4 41.241 Q1426.6 42.1017 1425 43.5364 Q1423.4 44.93 1421.8 47.6763 Q1420.21 50.3816 1419.26 53.9886 L1422.71 53.9886 Q1423.89 53.9886 1424.75 53.9886 Q1425.62 53.9476 1427.5 53.7837 Q1429.43 53.6197 1430.82 53.3328 Q1432.21 53.0049 1433.98 52.349 Q1435.74 51.6932 1436.85 50.8324 Q1437.99 49.9307 1438.77 48.4961 Q1439.55 47.0614 1439.55 45.2579 Z" fill="#000000" fill-rule="nonzero" fill-opacity="1" /><path clip-path="url(#clip910)" d="M1480.99 45.3399 Q1480.99 47.6353 1479.84 48.865 Q1478.69 50.0536 1477.13 50.0536 Q1475.86 50.0536 1475.17 49.3158 Q1474.51 48.578 1474.51 47.5943 Q1474.51 46.1597 1475.66 45.012 Q1476.85 43.8643 1478.57 43.8233 Q1477.99 42.3067 1476.48 41.4049 Q1474.96 40.4622 1473.61 40.2162 Q1472.3 39.9703 1470.98 39.9703 Q1468.4 39.9703 1466.43 40.7901 Q1464.47 41.6099 1463.48 42.8805 Q1462.5 44.1102 1462.05 45.2989 Q1461.6 46.4876 1461.6 47.5123 Q1461.6 48.4141 1461.8 49.1519 Q1462.05 49.8487 1462.62 50.3816 Q1463.2 50.8734 1463.61 51.2013 Q1464.06 51.5293 1465.04 51.8162 Q1466.02 52.1031 1466.43 52.2261 Q1466.84 52.3081 1467.99 52.554 Q1470.37 53.0459 1471.44 53.3328 Q1472.5 53.5787 1473.89 54.2755 Q1475.33 54.9724 1476.4 56.0791 Q1478.98 58.6614 1478.98 62.2275 Q1478.98 63.5391 1478.53 65.1377 Q1478.12 66.7363 1476.93 68.7448 Q1475.74 70.7532 1473.94 72.3518 Q1472.13 73.9504 1469.02 75.0571 Q1465.94 76.1638 1462.09 76.1638 Q1456.72 76.1638 1453.4 73.9094 Q1450.08 71.614 1450.08 68.0069 Q1450.08 65.3836 1451.51 63.949 Q1452.95 62.4734 1454.79 62.4734 Q1456.19 62.4734 1457.05 63.2522 Q1457.91 63.99 1457.91 65.3836 Q1457.91 67.2691 1456.39 68.7038 Q1454.88 70.1384 1452.62 69.8515 Q1454.55 74.2783 1462.17 74.2783 Q1465.04 74.2783 1467.25 73.5405 Q1469.51 72.7617 1470.74 71.696 Q1472.01 70.5893 1472.83 69.2366 Q1473.65 67.884 1473.89 66.8592 Q1474.18 65.8345 1474.18 65.0557 Q1474.18 63.7031 1473.65 62.6783 Q1473.12 61.6536 1472.38 61.0798 Q1471.68 60.4649 1470.33 59.9731 Q1469.02 59.4402 1468.07 59.2352 Q1467.13 59.0303 1465.45 58.7024 Q1464.67 58.5384 1464.18 58.4564 Q1463.69 58.3335 1462.66 58.0056 Q1461.68 57.6367 1460.98 57.2678 Q1460.33 56.8989 1459.47 56.243 Q1458.61 55.5872 1458.07 54.8084 Q1457.54 54.0296 1457.17 52.8819 Q1456.8 51.7342 1456.8 50.3816 Q1456.8 49.1519 1457.17 47.6763 Q1457.58 46.2007 1458.61 44.4791 Q1459.67 42.7576 1461.19 41.3639 Q1462.7 39.9703 1465.25 39.0685 Q1467.83 38.1258 1470.98 38.1258 Q1475.58 38.1258 1478.28 40.2572 Q1480.99 42.3477 1480.99 45.3399 Z" fill="#000000" fill-rule="nonzero" fill-opacity="1" /><path clip-path="url(#clip910)" d="M1508.47 22.7548 Q1508.47 24.5583 1507 25.911 Q1505.56 27.2226 1504.01 27.2226 Q1502.57 27.2226 1501.67 26.3618 Q1500.81 25.4601 1500.81 24.1894 Q1500.81 22.5089 1502.24 21.1152 Q1503.68 19.7216 1505.36 19.7216 Q1506.75 19.7216 1507.61 20.5824 Q1508.47 21.4431 1508.47 22.7548 M1509.21 63.2112 Q1509.21 63.5391 1508.84 64.8508 Q1508.47 66.1214 1507.57 68.0889 Q1506.71 70.0154 1505.52 71.819 Q1504.33 73.6225 1502.37 74.8931 Q1500.44 76.1638 1498.23 76.1638 Q1495.23 76.1638 1493.27 74.1963 Q1491.34 72.2288 1491.34 69.2776 Q1491.34 67.679 1493.27 62.5554 Q1498.84 47.6353 1499.05 47.0204 Q1499.99 44.6841 1499.99 42.6346 Q1499.99 41.6918 1499.78 41.118 Q1499.58 40.5031 1499.17 40.2982 Q1498.76 40.0523 1498.51 40.0113 Q1498.31 39.9703 1497.9 39.9703 Q1495.48 39.9703 1493.23 42.4296 Q1490.97 44.889 1489.41 50.3816 Q1489.09 51.4063 1488.88 51.6522 Q1488.68 51.8982 1488.06 51.8982 Q1487.04 51.8572 1487.04 51.0374 Q1487.04 50.7915 1487.32 49.8487 Q1487.61 48.865 1488.14 47.3893 Q1488.68 45.8727 1489.62 44.3151 Q1490.56 42.7166 1491.71 41.3229 Q1492.9 39.9293 1494.58 39.0275 Q1496.26 38.1258 1498.14 38.1258 Q1501.22 38.1258 1503.1 40.1342 Q1505.03 42.1017 1505.03 45.012 Q1505.03 46.6105 1503.92 49.4388 Q1502.57 53.1278 1502.08 54.3165 L1498.8 63.1292 Q1497.61 66.3264 1497.24 67.3101 Q1496.91 68.2529 1496.63 69.4006 Q1496.38 70.5073 1496.38 71.532 Q1496.38 72.9667 1496.83 73.6225 Q1497.32 74.2783 1498.39 74.2783 Q1501.34 74.2783 1503.51 71.3681 Q1505.69 68.4168 1506.96 63.908 Q1507 63.7851 1507.04 63.5801 Q1507.37 62.5554 1507.69 62.4324 Q1507.86 62.3914 1508.19 62.3914 Q1509.21 62.3914 1509.21 63.2112 Z" fill="#000000" fill-rule="nonzero" fill-opacity="1" /><path clip-path="url(#clip910)" d="M1558.01 17.8771 L1545.92 66.4084 Q1545.43 68.5808 1545.43 70.4253 Q1545.43 74.2783 1547.93 74.2783 Q1549.16 74.2783 1550.14 73.4995 Q1551.13 72.7207 1551.91 71.0811 Q1552.68 69.4416 1553.18 67.925 Q1553.67 66.3674 1554.32 63.908 Q1554.53 62.9243 1554.69 62.6783 Q1554.9 62.3914 1555.47 62.3914 Q1556.5 62.3914 1556.5 63.2112 Q1555.39 68.4988 1553.96 71.532 Q1551.66 76.1638 1547.77 76.1638 Q1544.81 76.1638 1542.72 74.3603 Q1540.63 72.5568 1540.14 69.8515 Q1534.77 76.1638 1529.2 76.1638 Q1524.28 76.1638 1521.16 72.4338 Q1518.05 68.6628 1518.05 62.7193 Q1518.05 56.7349 1521 50.9964 Q1523.99 45.2579 1528.71 41.6918 Q1533.42 38.1258 1538.26 38.1258 Q1543.38 38.1258 1546 43.4954 L1551.05 23.5746 L1551.29 21.935 Q1551.29 21.4431 1551.09 21.1972 Q1550.92 20.9103 1549.94 20.7053 Q1549 20.5004 1547.11 20.5004 Q1546.33 20.5004 1545.96 20.4594 Q1545.63 20.4184 1545.35 20.2135 Q1545.06 19.9675 1545.06 19.4756 Q1545.06 18.041 1546.25 17.8771 Q1554.12 16.9753 1556.91 16.9753 Q1557.4 16.9753 1557.69 17.2212 Q1557.97 17.4262 1557.97 17.6721 L1558.01 17.8771 M1544.98 47.3484 Q1544.98 46.9794 1544.69 45.9547 Q1544.4 44.93 1543.75 43.4954 Q1543.09 42.0607 1541.66 41.036 Q1540.27 39.9703 1538.38 39.9703 Q1535.84 39.9703 1533.17 42.1427 Q1530.55 44.3151 1528.62 48.0042 Q1527.15 50.9554 1525.55 57.1448 Q1523.99 63.3342 1523.99 66.4084 Q1523.99 68.2939 1524.4 69.9744 Q1524.85 71.614 1526.12 72.9667 Q1527.39 74.2783 1529.36 74.2783 Q1534.16 74.2783 1538.87 68.3349 Q1539.77 67.3101 1539.98 66.9002 Q1540.22 66.4494 1540.55 65.2197 L1544.73 48.783 Q1544.98 47.5533 1544.98 47.3484 Z" fill="#000000" fill-rule="nonzero" fill-opacity="1" /><path clip-path="url(#clip910)" d="M1602.72 63.2112 Q1601.66 68.4988 1600.22 71.532 Q1597.89 76.1638 1593.99 76.1638 Q1591.29 76.1638 1589.24 74.6472 Q1587.23 73.0896 1586.53 70.5073 Q1585.76 71.532 1585.06 72.2288 Q1584.4 72.9257 1583.13 73.9914 Q1581.86 75.0161 1580.14 75.59 Q1578.46 76.1638 1576.53 76.1638 Q1575.06 76.1638 1573.7 75.8769 Q1572.35 75.631 1570.92 74.9341 Q1569.52 74.1963 1568.5 73.0896 Q1567.51 71.9829 1566.86 70.1794 Q1566.2 68.3759 1566.2 66.0805 Q1566.2 63.2112 1567.31 59.3172 Q1568.46 55.4232 1571.08 48.4551 Q1572.52 44.766 1572.52 42.7166 Q1572.52 41.7738 1572.31 41.159 Q1572.11 40.5441 1571.7 40.3392 Q1571.33 40.0933 1571.08 40.0523 Q1570.84 39.9703 1570.43 39.9703 Q1567.88 39.9703 1565.67 42.5526 Q1563.46 45.1349 1561.94 50.3816 Q1561.61 51.4063 1561.41 51.6522 Q1561.2 51.8982 1560.59 51.8982 Q1559.56 51.8572 1559.56 51.0374 Q1559.56 50.7095 1559.93 49.4388 Q1560.3 48.1271 1561.16 46.2007 Q1562.06 44.2332 1563.29 42.4706 Q1564.52 40.6671 1566.45 39.3964 Q1568.42 38.1258 1570.67 38.1258 Q1573.75 38.1258 1575.63 40.1342 Q1577.56 42.1017 1577.56 45.012 Q1577.56 46.8155 1576.12 50.2996 Q1571.57 62.3914 1571.57 67.4331 Q1571.57 74.2783 1576.78 74.2783 Q1578.5 74.2783 1580.1 73.5815 Q1581.74 72.8847 1582.8 71.9009 Q1583.87 70.9172 1584.69 69.8515 Q1585.55 68.7857 1585.92 68.0889 Q1586.33 67.3921 1586.37 67.2282 L1592.64 41.9788 Q1592.89 40.995 1593.34 40.3392 Q1593.83 39.6424 1594.4 39.3964 Q1594.98 39.1505 1595.31 39.1095 Q1595.63 39.0275 1595.92 39.0275 Q1596.95 39.0275 1597.64 39.6424 Q1598.38 40.2572 1598.38 41.3229 Q1598.38 41.5279 1598.13 42.5116 Q1597.93 43.4544 1597.6 44.848 Q1597.27 46.2007 1597.11 46.9385 Q1595.8 52.1031 1595.67 52.636 L1593.34 61.6946 Q1593.22 62.2275 1592.81 63.949 Q1592.44 65.6706 1592.23 66.5723 Q1592.03 67.4331 1591.82 68.6218 Q1591.66 69.7695 1591.66 70.4253 Q1591.66 72.4748 1592.27 73.3765 Q1592.89 74.2783 1594.24 74.2783 Q1595.51 74.2783 1596.49 73.4175 Q1597.52 72.5158 1598.3 70.7942 Q1599.08 69.0317 1599.53 67.5971 Q1599.98 66.1624 1600.55 63.908 Q1600.76 62.9243 1600.92 62.6783 Q1601.13 62.3914 1601.7 62.3914 Q1602.72 62.3914 1602.72 63.2112 Z" fill="#000000" fill-rule="nonzero" fill-opacity="1" /><path clip-path="url(#clip910)" d="M1646.22 63.2112 Q1645.11 68.4988 1643.68 71.532 Q1641.38 76.1638 1637.49 76.1638 Q1634.54 76.1638 1632.45 74.3603 Q1630.36 72.5568 1629.87 69.8515 Q1624.5 76.1638 1618.92 76.1638 Q1614 76.1638 1610.89 72.4338 Q1607.77 68.6628 1607.77 62.7193 Q1607.77 56.7349 1610.72 50.9964 Q1613.72 45.2579 1618.43 41.6918 Q1623.14 38.1258 1627.98 38.1258 Q1633.1 38.1258 1635.73 43.4954 Q1635.93 42.0197 1636.88 40.913 Q1637.82 39.8063 1639.25 39.8063 Q1640.36 39.8063 1641.02 40.4212 Q1641.67 40.995 1641.67 42.0607 Q1641.67 42.5936 1641.1 44.93 L1638.06 56.6529 L1636.22 64.2359 Q1635.52 67.0232 1635.32 68.0479 Q1635.15 69.0727 1635.15 70.4253 Q1635.15 74.2783 1637.65 74.2783 Q1638.88 74.2783 1639.87 73.4995 Q1640.85 72.7207 1641.63 71.0811 Q1642.41 69.4416 1642.9 67.925 Q1643.39 66.3674 1644.05 63.908 Q1644.25 62.9243 1644.42 62.6783 Q1644.62 62.3914 1645.2 62.3914 Q1646.22 62.3914 1646.22 63.2112 M1634.7 47.3484 Q1634.7 46.9794 1634.42 45.9547 Q1634.13 44.93 1633.47 43.4954 Q1632.82 42.0607 1631.38 41.036 Q1629.99 39.9703 1628.1 39.9703 Q1625.56 39.9703 1622.9 42.1427 Q1620.27 44.3151 1618.35 48.0042 Q1616.87 50.9554 1615.27 57.1448 Q1613.72 63.3342 1613.72 66.4084 Q1613.72 68.2939 1614.13 69.9744 Q1614.58 71.614 1615.85 72.9667 Q1617.12 74.2783 1619.09 74.2783 Q1623.88 74.2783 1628.6 68.3349 Q1629.5 67.3101 1629.7 66.9002 Q1629.95 66.4494 1630.28 65.2197 L1634.46 48.783 Q1634.7 47.5533 1634.7 47.3484 Z" fill="#000000" fill-rule="nonzero" fill-opacity="1" /><path clip-path="url(#clip910)" d="M1669.36 17.8771 L1657.26 66.4084 Q1656.77 68.3349 1656.77 70.4253 Q1656.77 74.2783 1659.31 74.2783 Q1660.5 74.2783 1661.49 73.4995 Q1662.47 72.6797 1663.21 71.0811 Q1663.99 69.4416 1664.48 67.884 Q1665.01 66.3264 1665.67 63.908 Q1665.87 62.9653 1666.08 62.6783 Q1666.28 62.3914 1666.86 62.3914 Q1667.88 62.3914 1667.88 63.2112 Q1666.86 68.2529 1665.34 71.45 Q1663.13 76.1638 1659.03 76.1638 Q1655.95 76.1638 1653.66 74.0324 Q1651.4 71.8599 1651.4 68.4168 Q1651.4 67.1052 1651.81 65.5476 L1662.39 23.5746 L1662.67 21.935 Q1662.67 21.4841 1662.51 21.2382 Q1662.35 20.9922 1661.36 20.7463 Q1660.42 20.5004 1658.53 20.5004 Q1657.76 20.5004 1657.39 20.4594 Q1657.06 20.4184 1656.73 20.2135 Q1656.44 20.0085 1656.44 19.5576 Q1656.44 18.8198 1656.73 18.4099 Q1657.06 18 1657.3 17.9181 Q1657.55 17.8361 1658.04 17.7951 Q1658.74 17.7541 1661.08 17.5491 Q1663.41 17.3032 1665.42 17.1393 Q1667.43 16.9753 1668.29 16.9753 Q1668.78 16.9753 1669.03 17.2212 Q1669.31 17.4262 1669.36 17.6721 L1669.36 17.8771 Z" fill="#000000" fill-rule="nonzero" fill-opacity="1" /><path clip-path="url(#clip910)" d="M1708.08 45.3399 Q1708.08 47.6353 1706.93 48.865 Q1705.78 50.0536 1704.23 50.0536 Q1702.96 50.0536 1702.26 49.3158 Q1701.6 48.578 1701.6 47.5943 Q1701.6 46.1597 1702.75 45.012 Q1703.94 43.8643 1705.66 43.8233 Q1705.09 42.3067 1703.57 41.4049 Q1702.05 40.4622 1700.7 40.2162 Q1699.39 39.9703 1698.08 39.9703 Q1695.5 39.9703 1693.53 40.7901 Q1691.56 41.6099 1690.58 42.8805 Q1689.59 44.1102 1689.14 45.2989 Q1688.69 46.4876 1688.69 47.5123 Q1688.69 48.4141 1688.9 49.1519 Q1689.14 49.8487 1689.72 50.3816 Q1690.29 50.8734 1690.7 51.2013 Q1691.15 51.5293 1692.14 51.8162 Q1693.12 52.1031 1693.53 52.2261 Q1693.94 52.3081 1695.09 52.554 Q1697.46 53.0459 1698.53 53.3328 Q1699.6 53.5787 1700.99 54.2755 Q1702.42 54.9724 1703.49 56.0791 Q1706.07 58.6614 1706.07 62.2275 Q1706.07 63.5391 1705.62 65.1377 Q1705.21 66.7363 1704.02 68.7448 Q1702.83 70.7532 1701.03 72.3518 Q1699.23 73.9504 1696.11 75.0571 Q1693.04 76.1638 1689.18 76.1638 Q1683.81 76.1638 1680.49 73.9094 Q1677.17 71.614 1677.17 68.0069 Q1677.17 65.3836 1678.61 63.949 Q1680.04 62.4734 1681.89 62.4734 Q1683.28 62.4734 1684.14 63.2522 Q1685 63.99 1685 65.3836 Q1685 67.2691 1683.49 68.7038 Q1681.97 70.1384 1679.72 69.8515 Q1681.64 74.2783 1689.27 74.2783 Q1692.14 74.2783 1694.35 73.5405 Q1696.6 72.7617 1697.83 71.696 Q1699.1 70.5893 1699.92 69.2366 Q1700.74 67.884 1700.99 66.8592 Q1701.28 65.8345 1701.28 65.0557 Q1701.28 63.7031 1700.74 62.6783 Q1700.21 61.6536 1699.47 61.0798 Q1698.78 60.4649 1697.42 59.9731 Q1696.11 59.4402 1695.17 59.2352 Q1694.23 59.0303 1692.54 58.7024 Q1691.77 58.5384 1691.27 58.4564 Q1690.78 58.3335 1689.76 58.0056 Q1688.77 57.6367 1688.08 57.2678 Q1687.42 56.8989 1686.56 56.243 Q1685.7 55.5872 1685.17 54.8084 Q1684.63 54.0296 1684.27 52.8819 Q1683.9 51.7342 1683.9 50.3816 Q1683.9 49.1519 1684.27 47.6763 Q1684.68 46.2007 1685.7 44.4791 Q1686.77 42.7576 1688.28 41.3639 Q1689.8 39.9703 1692.34 39.0685 Q1694.92 38.1258 1698.08 38.1258 Q1702.67 38.1258 1705.37 40.2572 Q1708.08 42.3477 1708.08 45.3399 Z" fill="#000000" fill-rule="nonzero" fill-opacity="1" /><path clip-path="url(#clip912)" d="M323.245 1407.71 L323.245 1423.18 L442.706 1423.18 L442.706 1407.71 L323.245 1407.71 L323.245 1407.71  Z" fill="#009af9" fill-rule="evenodd" fill-opacity="1"/>
<polyline clip-path="url(#clip912)" style="stroke:#000000; stroke-linecap:round; stroke-linejoin:round; stroke-width:4; stroke-opacity:1; fill:none" points="323.245,1407.71 323.245,1423.18 442.706,1423.18 442.706,1407.71 323.245,1407.71 "/>
<path clip-path="url(#clip912)" d="M442.706 1376.76 L442.706 1423.18 L562.168 1423.18 L562.168 1376.76 L442.706 1376.76 L442.706 1376.76  Z" fill="#009af9" fill-rule="evenodd" fill-opacity="1"/>
<polyline clip-path="url(#clip912)" style="stroke:#000000; stroke-linecap:round; stroke-linejoin:round; stroke-width:4; stroke-opacity:1; fill:none" points="442.706,1376.76 442.706,1423.18 562.168,1423.18 562.168,1376.76 442.706,1376.76 "/>
<path clip-path="url(#clip912)" d="M562.168 1361.29 L562.168 1423.18 L681.63 1423.18 L681.63 1361.29 L562.168 1361.29 L562.168 1361.29  Z" fill="#009af9" fill-rule="evenodd" fill-opacity="1"/>
<polyline clip-path="url(#clip912)" style="stroke:#000000; stroke-linecap:round; stroke-linejoin:round; stroke-width:4; stroke-opacity:1; fill:none" points="562.168,1361.29 562.168,1423.18 681.63,1423.18 681.63,1361.29 562.168,1361.29 "/>
<path clip-path="url(#clip912)" d="M681.63 1144.67 L681.63 1423.18 L801.092 1423.18 L801.092 1144.67 L681.63 1144.67 L681.63 1144.67  Z" fill="#009af9" fill-rule="evenodd" fill-opacity="1"/>
<polyline clip-path="url(#clip912)" style="stroke:#000000; stroke-linecap:round; stroke-linejoin:round; stroke-width:4; stroke-opacity:1; fill:none" points="681.63,1144.67 681.63,1423.18 801.092,1423.18 801.092,1144.67 681.63,1144.67 "/>
<path clip-path="url(#clip912)" d="M801.092 788.799 L801.092 1423.18 L920.553 1423.18 L920.553 788.799 L801.092 788.799 L801.092 788.799  Z" fill="#009af9" fill-rule="evenodd" fill-opacity="1"/>
<polyline clip-path="url(#clip912)" style="stroke:#000000; stroke-linecap:round; stroke-linejoin:round; stroke-width:4; stroke-opacity:1; fill:none" points="801.092,788.799 801.092,1423.18 920.553,1423.18 920.553,788.799 801.092,788.799 "/>
<path clip-path="url(#clip912)" d="M920.553 510.29 L920.553 1423.18 L1040.02 1423.18 L1040.02 510.29 L920.553 510.29 L920.553 510.29  Z" fill="#009af9" fill-rule="evenodd" fill-opacity="1"/>
<polyline clip-path="url(#clip912)" style="stroke:#000000; stroke-linecap:round; stroke-linejoin:round; stroke-width:4; stroke-opacity:1; fill:none" points="920.553,510.29 920.553,1423.18 1040.02,1423.18 1040.02,510.29 920.553,510.29 "/>
<path clip-path="url(#clip912)" d="M1040.02 262.727 L1040.02 1423.18 L1159.48 1423.18 L1159.48 262.727 L1040.02 262.727 L1040.02 262.727  Z" fill="#009af9" fill-rule="evenodd" fill-opacity="1"/>
<polyline clip-path="url(#clip912)" style="stroke:#000000; stroke-linecap:round; stroke-linejoin:round; stroke-width:4; stroke-opacity:1; fill:none" points="1040.02,262.727 1040.02,1423.18 1159.48,1423.18 1159.48,262.727 1040.02,262.727 "/>
<path clip-path="url(#clip912)" d="M1159.48 401.981 L1159.48 1423.18 L1278.94 1423.18 L1278.94 401.981 L1159.48 401.981 L1159.48 401.981  Z" fill="#009af9" fill-rule="evenodd" fill-opacity="1"/>
<polyline clip-path="url(#clip912)" style="stroke:#000000; stroke-linecap:round; stroke-linejoin:round; stroke-width:4; stroke-opacity:1; fill:none" points="1159.48,401.981 1159.48,1423.18 1278.94,1423.18 1278.94,401.981 1159.48,401.981 "/>
<path clip-path="url(#clip912)" d="M1278.94 123.472 L1278.94 1423.18 L1398.4 1423.18 L1398.4 123.472 L1278.94 123.472 L1278.94 123.472  Z" fill="#009af9" fill-rule="evenodd" fill-opacity="1"/>
<polyline clip-path="url(#clip912)" style="stroke:#000000; stroke-linecap:round; stroke-linejoin:round; stroke-width:4; stroke-opacity:1; fill:none" points="1278.94,123.472 1278.94,1423.18 1398.4,1423.18 1398.4,123.472 1278.94,123.472 "/>
<path clip-path="url(#clip912)" d="M1398.4 603.126 L1398.4 1423.18 L1517.86 1423.18 L1517.86 603.126 L1398.4 603.126 L1398.4 603.126  Z" fill="#009af9" fill-rule="evenodd" fill-opacity="1"/>
<polyline clip-path="url(#clip912)" style="stroke:#000000; stroke-linecap:round; stroke-linejoin:round; stroke-width:4; stroke-opacity:1; fill:none" points="1398.4,603.126 1398.4,1423.18 1517.86,1423.18 1517.86,603.126 1398.4,603.126 "/>
<path clip-path="url(#clip912)" d="M1517.86 835.217 L1517.86 1423.18 L1637.32 1423.18 L1637.32 835.217 L1517.86 835.217 L1517.86 835.217  Z" fill="#009af9" fill-rule="evenodd" fill-opacity="1"/>
<polyline clip-path="url(#clip912)" style="stroke:#000000; stroke-linecap:round; stroke-linejoin:round; stroke-width:4; stroke-opacity:1; fill:none" points="1517.86,835.217 1517.86,1423.18 1637.32,1423.18 1637.32,835.217 1517.86,835.217 "/>
<path clip-path="url(#clip912)" d="M1637.32 1129.2 L1637.32 1423.18 L1756.79 1423.18 L1756.79 1129.2 L1637.32 1129.2 L1637.32 1129.2  Z" fill="#009af9" fill-rule="evenodd" fill-opacity="1"/>
<polyline clip-path="url(#clip912)" style="stroke:#000000; stroke-linecap:round; stroke-linejoin:round; stroke-width:4; stroke-opacity:1; fill:none" points="1637.32,1129.2 1637.32,1423.18 1756.79,1423.18 1756.79,1129.2 1637.32,1129.2 "/>
<path clip-path="url(#clip912)" d="M1756.79 1268.45 L1756.79 1423.18 L1876.25 1423.18 L1876.25 1268.45 L1756.79 1268.45 L1756.79 1268.45  Z" fill="#009af9" fill-rule="evenodd" fill-opacity="1"/>
<polyline clip-path="url(#clip912)" style="stroke:#000000; stroke-linecap:round; stroke-linejoin:round; stroke-width:4; stroke-opacity:1; fill:none" points="1756.79,1268.45 1756.79,1423.18 1876.25,1423.18 1876.25,1268.45 1756.79,1268.45 "/>
<path clip-path="url(#clip912)" d="M1876.25 1314.87 L1876.25 1423.18 L1995.71 1423.18 L1995.71 1314.87 L1876.25 1314.87 L1876.25 1314.87  Z" fill="#009af9" fill-rule="evenodd" fill-opacity="1"/>
<polyline clip-path="url(#clip912)" style="stroke:#000000; stroke-linecap:round; stroke-linejoin:round; stroke-width:4; stroke-opacity:1; fill:none" points="1876.25,1314.87 1876.25,1423.18 1995.71,1423.18 1995.71,1314.87 1876.25,1314.87 "/>
<path clip-path="url(#clip912)" d="M1995.71 1407.71 L1995.71 1423.18 L2115.17 1423.18 L2115.17 1407.71 L1995.71 1407.71 L1995.71 1407.71  Z" fill="#009af9" fill-rule="evenodd" fill-opacity="1"/>
<polyline clip-path="url(#clip912)" style="stroke:#000000; stroke-linecap:round; stroke-linejoin:round; stroke-width:4; stroke-opacity:1; fill:none" points="1995.71,1407.71 1995.71,1423.18 2115.17,1423.18 2115.17,1407.71 1995.71,1407.71 "/>
<path clip-path="url(#clip912)" d="M2115.17 1407.71 L2115.17 1423.18 L2234.63 1423.18 L2234.63 1407.71 L2115.17 1407.71 L2115.17 1407.71  Z" fill="#009af9" fill-rule="evenodd" fill-opacity="1"/>
<polyline clip-path="url(#clip912)" style="stroke:#000000; stroke-linecap:round; stroke-linejoin:round; stroke-width:4; stroke-opacity:1; fill:none" points="2115.17,1407.71 2115.17,1423.18 2234.63,1423.18 2234.63,1407.71 2115.17,1407.71 "/>
<circle clip-path="url(#clip912)" style="fill:#009af9; stroke:none; fill-opacity:0" cx="382.976" cy="1407.71" r="2"/>
<circle clip-path="url(#clip912)" style="fill:#009af9; stroke:none; fill-opacity:0" cx="502.437" cy="1376.76" r="2"/>
<circle clip-path="url(#clip912)" style="fill:#009af9; stroke:none; fill-opacity:0" cx="621.899" cy="1361.29" r="2"/>
<circle clip-path="url(#clip912)" style="fill:#009af9; stroke:none; fill-opacity:0" cx="741.361" cy="1144.67" r="2"/>
<circle clip-path="url(#clip912)" style="fill:#009af9; stroke:none; fill-opacity:0" cx="860.822" cy="788.799" r="2"/>
<circle clip-path="url(#clip912)" style="fill:#009af9; stroke:none; fill-opacity:0" cx="980.284" cy="510.29" r="2"/>
<circle clip-path="url(#clip912)" style="fill:#009af9; stroke:none; fill-opacity:0" cx="1099.75" cy="262.727" r="2"/>
<circle clip-path="url(#clip912)" style="fill:#009af9; stroke:none; fill-opacity:0" cx="1219.21" cy="401.981" r="2"/>
<circle clip-path="url(#clip912)" style="fill:#009af9; stroke:none; fill-opacity:0" cx="1338.67" cy="123.472" r="2"/>
<circle clip-path="url(#clip912)" style="fill:#009af9; stroke:none; fill-opacity:0" cx="1458.13" cy="603.126" r="2"/>
<circle clip-path="url(#clip912)" style="fill:#009af9; stroke:none; fill-opacity:0" cx="1577.59" cy="835.217" r="2"/>
<circle clip-path="url(#clip912)" style="fill:#009af9; stroke:none; fill-opacity:0" cx="1697.05" cy="1129.2" r="2"/>
<circle clip-path="url(#clip912)" style="fill:#009af9; stroke:none; fill-opacity:0" cx="1816.52" cy="1268.45" r="2"/>
<circle clip-path="url(#clip912)" style="fill:#009af9; stroke:none; fill-opacity:0" cx="1935.98" cy="1314.87" r="2"/>
<circle clip-path="url(#clip912)" style="fill:#009af9; stroke:none; fill-opacity:0" cx="2055.44" cy="1407.71" r="2"/>
<circle clip-path="url(#clip912)" style="fill:#009af9; stroke:none; fill-opacity:0" cx="2174.9" cy="1407.71" r="2"/>
</svg>
