<?xml version="1.0" encoding="utf-8"?>
<svg xmlns="http://www.w3.org/2000/svg" xmlns:xlink="http://www.w3.org/1999/xlink" width="600" height="400" viewBox="0 0 2400 1600">
<defs>
  <clipPath id="clip910">
    <rect x="0" y="0" width="2400" height="1600"/>
  </clipPath>
</defs>
<path clip-path="url(#clip910)" d="M0 1600 L2400 1600 L2400 0 L0 0  Z" fill="#ffffff" fill-rule="evenodd" fill-opacity="1"/>
<defs>
  <clipPath id="clip911">
    <rect x="480" y="0" width="1681" height="1600"/>
  </clipPath>
</defs>
<path clip-path="url(#clip910)" d="M255.977 1486.45 L2352.76 1486.45 L2352.76 123.472 L255.977 123.472  Z" fill="#ffffff" fill-rule="evenodd" fill-opacity="1"/>
<defs>
  <clipPath id="clip912">
    <rect x="255" y="123" width="2098" height="1364"/>
  </clipPath>
</defs>
<polyline clip-path="url(#clip910)" style="stroke:#000000; stroke-linecap:round; stroke-linejoin:round; stroke-width:4; stroke-opacity:1; fill:none" points="255.977,1486.45 2352.76,1486.45 "/>
<polyline clip-path="url(#clip910)" style="stroke:#000000; stroke-linecap:round; stroke-linejoin:round; stroke-width:4; stroke-opacity:1; fill:none" points="480.161,1486.45 480.161,1467.55 "/>
<polyline clip-path="url(#clip910)" style="stroke:#000000; stroke-linecap:round; stroke-linejoin:round; stroke-width:4; stroke-opacity:1; fill:none" points="892.264,1486.45 892.264,1467.55 "/>
<polyline clip-path="url(#clip910)" style="stroke:#000000; stroke-linecap:round; stroke-linejoin:round; stroke-width:4; stroke-opacity:1; fill:none" points="1304.37,1486.45 1304.37,1467.55 "/>
<polyline clip-path="url(#clip910)" style="stroke:#000000; stroke-linecap:round; stroke-linejoin:round; stroke-width:4; stroke-opacity:1; fill:none" points="1716.47,1486.45 1716.47,1467.55 "/>
<polyline clip-path="url(#clip910)" style="stroke:#000000; stroke-linecap:round; stroke-linejoin:round; stroke-width:4; stroke-opacity:1; fill:none" points="2128.57,1486.45 2128.57,1467.55 "/>
<path clip-path="url(#clip910)" d="M368.252 1515.42 L368.252 1519.98 Q365.59 1518.71 363.229 1518.08 Q360.868 1517.46 358.669 1517.46 Q354.849 1517.46 352.766 1518.94 Q350.706 1520.42 350.706 1523.15 Q350.706 1525.45 352.071 1526.63 Q353.46 1527.78 357.303 1528.5 L360.127 1529.08 Q365.358 1530.07 367.835 1532.6 Q370.335 1535.1 370.335 1539.31 Q370.335 1544.33 366.956 1546.93 Q363.599 1549.52 357.095 1549.52 Q354.641 1549.52 351.863 1548.96 Q349.109 1548.41 346.146 1547.32 L346.146 1542.51 Q348.993 1544.1 351.724 1544.91 Q354.456 1545.72 357.095 1545.72 Q361.099 1545.72 363.275 1544.15 Q365.451 1542.57 365.451 1539.66 Q365.451 1537.11 363.877 1535.68 Q362.326 1534.24 358.761 1533.52 L355.914 1532.97 Q350.683 1531.93 348.345 1529.7 Q346.007 1527.48 346.007 1523.52 Q346.007 1518.94 349.224 1516.3 Q352.465 1513.66 358.136 1513.66 Q360.567 1513.66 363.09 1514.1 Q365.613 1514.54 368.252 1515.42 Z" fill="#000000" fill-rule="nonzero" fill-opacity="1" /><path clip-path="url(#clip910)" d="M399.618 1534.82 L399.618 1536.9 L380.034 1536.9 Q380.312 1541.3 382.673 1543.62 Q385.057 1545.91 389.294 1545.91 Q391.747 1545.91 394.039 1545.31 Q396.354 1544.7 398.622 1543.5 L398.622 1547.53 Q396.331 1548.5 393.923 1549.01 Q391.516 1549.52 389.039 1549.52 Q382.835 1549.52 379.201 1545.91 Q375.59 1542.3 375.59 1536.14 Q375.59 1529.77 379.016 1526.05 Q382.465 1522.3 388.298 1522.3 Q393.53 1522.3 396.562 1525.68 Q399.618 1529.03 399.618 1534.82 M395.358 1533.57 Q395.312 1530.07 393.391 1527.99 Q391.493 1525.91 388.344 1525.91 Q384.78 1525.91 382.627 1527.92 Q380.497 1529.94 380.173 1533.59 L395.358 1533.57 Z" fill="#000000" fill-rule="nonzero" fill-opacity="1" /><path clip-path="url(#clip910)" d="M410.821 1515.56 L410.821 1522.92 L419.594 1522.92 L419.594 1526.23 L410.821 1526.23 L410.821 1540.31 Q410.821 1543.48 411.678 1544.38 Q412.557 1545.28 415.219 1545.28 L419.594 1545.28 L419.594 1548.85 L415.219 1548.85 Q410.289 1548.85 408.414 1547.02 Q406.539 1545.17 406.539 1540.31 L406.539 1526.23 L403.414 1526.23 L403.414 1522.92 L406.539 1522.92 L406.539 1515.56 L410.821 1515.56 Z" fill="#000000" fill-rule="nonzero" fill-opacity="1" /><path clip-path="url(#clip910)" d="M445.127 1518.13 L445.127 1545.01 L450.775 1545.01 Q457.927 1545.01 461.238 1541.76 Q464.571 1538.52 464.571 1531.53 Q464.571 1524.59 461.238 1521.37 Q457.927 1518.13 450.775 1518.13 L445.127 1518.13 M440.451 1514.29 L450.057 1514.29 Q460.103 1514.29 464.802 1518.48 Q469.501 1522.64 469.501 1531.53 Q469.501 1540.47 464.779 1544.66 Q460.057 1548.85 450.057 1548.85 L440.451 1548.85 L440.451 1514.29 Z" fill="#000000" fill-rule="nonzero" fill-opacity="1" /><path clip-path="url(#clip910)" d="M489.686 1533.96 L502.163 1533.96 L502.163 1537.76 L489.686 1537.76 L489.686 1533.96 Z" fill="#000000" fill-rule="nonzero" fill-opacity="1" /><path clip-path="url(#clip910)" d="M525.427 1544.91 L533.066 1544.91 L533.066 1518.55 L524.756 1520.21 L524.756 1515.95 L533.02 1514.29 L537.695 1514.29 L537.695 1544.91 L545.334 1544.91 L545.334 1548.85 L525.427 1548.85 L525.427 1544.91 Z" fill="#000000" fill-rule="nonzero" fill-opacity="1" /><path clip-path="url(#clip910)" d="M590.797 1533.2 L590.797 1548.85 L586.538 1548.85 L586.538 1533.34 Q586.538 1529.66 585.103 1527.83 Q583.667 1526 580.797 1526 Q577.348 1526 575.357 1528.2 Q573.367 1530.4 573.367 1534.2 L573.367 1548.85 L569.084 1548.85 L569.084 1512.83 L573.367 1512.83 L573.367 1526.95 Q574.894 1524.61 576.955 1523.45 Q579.038 1522.3 581.746 1522.3 Q586.214 1522.3 588.505 1525.07 Q590.797 1527.83 590.797 1533.2 Z" fill="#000000" fill-rule="nonzero" fill-opacity="1" /><path clip-path="url(#clip910)" d="M614.315 1526.9 Q613.598 1526.49 612.741 1526.3 Q611.908 1526.09 610.89 1526.09 Q607.278 1526.09 605.334 1528.45 Q603.413 1530.79 603.413 1535.19 L603.413 1548.85 L599.13 1548.85 L599.13 1522.92 L603.413 1522.92 L603.413 1526.95 Q604.755 1524.59 606.908 1523.45 Q609.061 1522.3 612.14 1522.3 Q612.579 1522.3 613.112 1522.37 Q613.644 1522.41 614.292 1522.53 L614.315 1526.9 Z" fill="#000000" fill-rule="nonzero" fill-opacity="1" /><path clip-path="url(#clip910)" d="M765.274 1515.42 L765.274 1519.98 Q762.612 1518.71 760.251 1518.08 Q757.89 1517.46 755.69 1517.46 Q751.871 1517.46 749.788 1518.94 Q747.728 1520.42 747.728 1523.15 Q747.728 1525.45 749.093 1526.63 Q750.482 1527.78 754.325 1528.5 L757.149 1529.08 Q762.38 1530.07 764.857 1532.6 Q767.357 1535.1 767.357 1539.31 Q767.357 1544.33 763.977 1546.93 Q760.621 1549.52 754.116 1549.52 Q751.663 1549.52 748.885 1548.96 Q746.13 1548.41 743.167 1547.32 L743.167 1542.51 Q746.015 1544.1 748.746 1544.91 Q751.478 1545.72 754.116 1545.72 Q758.121 1545.72 760.297 1544.15 Q762.473 1542.57 762.473 1539.66 Q762.473 1537.11 760.899 1535.68 Q759.348 1534.24 755.783 1533.52 L752.936 1532.97 Q747.704 1531.93 745.366 1529.7 Q743.028 1527.48 743.028 1523.52 Q743.028 1518.94 746.246 1516.3 Q749.487 1513.66 755.158 1513.66 Q757.589 1513.66 760.112 1514.1 Q762.635 1514.54 765.274 1515.42 Z" fill="#000000" fill-rule="nonzero" fill-opacity="1" /><path clip-path="url(#clip910)" d="M796.639 1534.82 L796.639 1536.9 L777.056 1536.9 Q777.334 1541.3 779.695 1543.62 Q782.079 1545.91 786.315 1545.91 Q788.769 1545.91 791.061 1545.31 Q793.375 1544.7 795.644 1543.5 L795.644 1547.53 Q793.352 1548.5 790.945 1549.01 Q788.538 1549.52 786.061 1549.52 Q779.857 1549.52 776.223 1545.91 Q772.612 1542.3 772.612 1536.14 Q772.612 1529.77 776.038 1526.05 Q779.487 1522.3 785.32 1522.3 Q790.551 1522.3 793.584 1525.68 Q796.639 1529.03 796.639 1534.82 M792.38 1533.57 Q792.334 1530.07 790.413 1527.99 Q788.514 1525.91 785.366 1525.91 Q781.801 1525.91 779.649 1527.92 Q777.519 1529.94 777.195 1533.59 L792.38 1533.57 Z" fill="#000000" fill-rule="nonzero" fill-opacity="1" /><path clip-path="url(#clip910)" d="M807.843 1515.56 L807.843 1522.92 L816.616 1522.92 L816.616 1526.23 L807.843 1526.23 L807.843 1540.31 Q807.843 1543.48 808.699 1544.38 Q809.579 1545.28 812.241 1545.28 L816.616 1545.28 L816.616 1548.85 L812.241 1548.85 Q807.311 1548.85 805.436 1547.02 Q803.561 1545.17 803.561 1540.31 L803.561 1526.23 L800.436 1526.23 L800.436 1522.92 L803.561 1522.92 L803.561 1515.56 L807.843 1515.56 Z" fill="#000000" fill-rule="nonzero" fill-opacity="1" /><path clip-path="url(#clip910)" d="M842.148 1518.13 L842.148 1545.01 L847.796 1545.01 Q854.949 1545.01 858.259 1541.76 Q861.593 1538.52 861.593 1531.53 Q861.593 1524.59 858.259 1521.37 Q854.949 1518.13 847.796 1518.13 L842.148 1518.13 M837.472 1514.29 L847.079 1514.29 Q857.125 1514.29 861.824 1518.48 Q866.523 1522.64 866.523 1531.53 Q866.523 1540.47 861.801 1544.66 Q857.079 1548.85 847.079 1548.85 L837.472 1548.85 L837.472 1514.29 Z" fill="#000000" fill-rule="nonzero" fill-opacity="1" /><path clip-path="url(#clip910)" d="M886.708 1533.96 L899.185 1533.96 L899.185 1537.76 L886.708 1537.76 L886.708 1533.96 Z" fill="#000000" fill-rule="nonzero" fill-opacity="1" /><path clip-path="url(#clip910)" d="M922.449 1544.91 L930.088 1544.91 L930.088 1518.55 L921.778 1520.21 L921.778 1515.95 L930.041 1514.29 L934.717 1514.29 L934.717 1544.91 L942.356 1544.91 L942.356 1548.85 L922.449 1548.85 L922.449 1544.91 Z" fill="#000000" fill-rule="nonzero" fill-opacity="1" /><path clip-path="url(#clip910)" d="M955.828 1544.91 L972.148 1544.91 L972.148 1548.85 L950.203 1548.85 L950.203 1544.91 Q952.865 1542.16 957.449 1537.53 Q962.055 1532.88 963.236 1531.53 Q965.481 1529.01 966.361 1527.27 Q967.263 1525.51 967.263 1523.82 Q967.263 1521.07 965.319 1519.33 Q963.398 1517.6 960.296 1517.6 Q958.097 1517.6 955.643 1518.36 Q953.213 1519.13 950.435 1520.68 L950.435 1515.95 Q953.259 1514.82 955.713 1514.24 Q958.166 1513.66 960.203 1513.66 Q965.574 1513.66 968.768 1516.35 Q971.962 1519.03 971.962 1523.52 Q971.962 1525.65 971.152 1527.57 Q970.365 1529.47 968.259 1532.07 Q967.68 1532.74 964.578 1535.95 Q961.476 1539.15 955.828 1544.91 Z" fill="#000000" fill-rule="nonzero" fill-opacity="1" /><path clip-path="url(#clip910)" d="M1017.98 1533.2 L1017.98 1548.85 L1013.72 1548.85 L1013.72 1533.34 Q1013.72 1529.66 1012.29 1527.83 Q1010.85 1526 1007.98 1526 Q1004.53 1526 1002.54 1528.2 Q1000.55 1530.4 1000.55 1534.2 L1000.55 1548.85 L996.268 1548.85 L996.268 1512.83 L1000.55 1512.83 L1000.55 1526.95 Q1002.08 1524.61 1004.14 1523.45 Q1006.22 1522.3 1008.93 1522.3 Q1013.4 1522.3 1015.69 1525.07 Q1017.98 1527.83 1017.98 1533.2 Z" fill="#000000" fill-rule="nonzero" fill-opacity="1" /><path clip-path="url(#clip910)" d="M1041.5 1526.9 Q1040.78 1526.49 1039.93 1526.3 Q1039.09 1526.09 1038.07 1526.09 Q1034.46 1526.09 1032.52 1528.45 Q1030.6 1530.79 1030.6 1535.19 L1030.6 1548.85 L1026.31 1548.85 L1026.31 1522.92 L1030.6 1522.92 L1030.6 1526.95 Q1031.94 1524.59 1034.09 1523.45 Q1036.24 1522.3 1039.32 1522.3 Q1039.76 1522.3 1040.3 1522.37 Q1040.83 1522.41 1041.48 1522.53 L1041.5 1526.9 Z" fill="#000000" fill-rule="nonzero" fill-opacity="1" /><path clip-path="url(#clip910)" d="M1177.38 1515.42 L1177.38 1519.98 Q1174.71 1518.71 1172.35 1518.08 Q1169.99 1517.46 1167.79 1517.46 Q1163.97 1517.46 1161.89 1518.94 Q1159.83 1520.42 1159.83 1523.15 Q1159.83 1525.45 1161.2 1526.63 Q1162.58 1527.78 1166.43 1528.5 L1169.25 1529.08 Q1174.48 1530.07 1176.96 1532.6 Q1179.46 1535.1 1179.46 1539.31 Q1179.46 1544.33 1176.08 1546.93 Q1172.72 1549.52 1166.22 1549.52 Q1163.77 1549.52 1160.99 1548.96 Q1158.23 1548.41 1155.27 1547.32 L1155.27 1542.51 Q1158.12 1544.1 1160.85 1544.91 Q1163.58 1545.72 1166.22 1545.72 Q1170.22 1545.72 1172.4 1544.15 Q1174.58 1542.57 1174.58 1539.66 Q1174.58 1537.11 1173 1535.68 Q1171.45 1534.24 1167.89 1533.52 L1165.04 1532.97 Q1159.81 1531.93 1157.47 1529.7 Q1155.13 1527.48 1155.13 1523.52 Q1155.13 1518.94 1158.35 1516.3 Q1161.59 1513.66 1167.26 1513.66 Q1169.69 1513.66 1172.21 1514.1 Q1174.74 1514.54 1177.38 1515.42 Z" fill="#000000" fill-rule="nonzero" fill-opacity="1" /><path clip-path="url(#clip910)" d="M1208.74 1534.82 L1208.74 1536.9 L1189.16 1536.9 Q1189.44 1541.3 1191.8 1543.62 Q1194.18 1545.91 1198.42 1545.91 Q1200.87 1545.91 1203.16 1545.31 Q1205.48 1544.7 1207.75 1543.5 L1207.75 1547.53 Q1205.46 1548.5 1203.05 1549.01 Q1200.64 1549.52 1198.16 1549.52 Q1191.96 1549.52 1188.33 1545.91 Q1184.71 1542.3 1184.71 1536.14 Q1184.71 1529.77 1188.14 1526.05 Q1191.59 1522.3 1197.42 1522.3 Q1202.65 1522.3 1205.69 1525.68 Q1208.74 1529.03 1208.74 1534.82 M1204.48 1533.57 Q1204.44 1530.07 1202.52 1527.99 Q1200.62 1525.91 1197.47 1525.91 Q1193.9 1525.91 1191.75 1527.92 Q1189.62 1529.94 1189.3 1533.59 L1204.48 1533.57 Z" fill="#000000" fill-rule="nonzero" fill-opacity="1" /><path clip-path="url(#clip910)" d="M1219.95 1515.56 L1219.95 1522.92 L1228.72 1522.92 L1228.72 1526.23 L1219.95 1526.23 L1219.95 1540.31 Q1219.95 1543.48 1220.8 1544.38 Q1221.68 1545.28 1224.34 1545.28 L1228.72 1545.28 L1228.72 1548.85 L1224.34 1548.85 Q1219.41 1548.85 1217.54 1547.02 Q1215.66 1545.17 1215.66 1540.31 L1215.66 1526.23 L1212.54 1526.23 L1212.54 1522.92 L1215.66 1522.92 L1215.66 1515.56 L1219.95 1515.56 Z" fill="#000000" fill-rule="nonzero" fill-opacity="1" /><path clip-path="url(#clip910)" d="M1254.25 1518.13 L1254.25 1545.01 L1259.9 1545.01 Q1267.05 1545.01 1270.36 1541.76 Q1273.7 1538.52 1273.7 1531.53 Q1273.7 1524.59 1270.36 1521.37 Q1267.05 1518.13 1259.9 1518.13 L1254.25 1518.13 M1249.58 1514.29 L1259.18 1514.29 Q1269.23 1514.29 1273.93 1518.48 Q1278.63 1522.64 1278.63 1531.53 Q1278.63 1540.47 1273.9 1544.66 Q1269.18 1548.85 1259.18 1548.85 L1249.58 1548.85 L1249.58 1514.29 Z" fill="#000000" fill-rule="nonzero" fill-opacity="1" /><path clip-path="url(#clip910)" d="M1298.81 1533.96 L1311.29 1533.96 L1311.29 1537.76 L1298.81 1537.76 L1298.81 1533.96 Z" fill="#000000" fill-rule="nonzero" fill-opacity="1" /><path clip-path="url(#clip910)" d="M1337.77 1544.91 L1354.09 1544.91 L1354.09 1548.85 L1332.14 1548.85 L1332.14 1544.91 Q1334.81 1542.16 1339.39 1537.53 Q1344 1532.88 1345.18 1531.53 Q1347.42 1529.01 1348.3 1527.27 Q1349.2 1525.51 1349.2 1523.82 Q1349.2 1521.07 1347.26 1519.33 Q1345.34 1517.6 1342.24 1517.6 Q1340.04 1517.6 1337.58 1518.36 Q1335.15 1519.13 1332.38 1520.68 L1332.38 1515.95 Q1335.2 1514.82 1337.65 1514.24 Q1340.11 1513.66 1342.14 1513.66 Q1347.51 1513.66 1350.71 1516.35 Q1353.9 1519.03 1353.9 1523.52 Q1353.9 1525.65 1353.09 1527.57 Q1352.31 1529.47 1350.2 1532.07 Q1349.62 1532.74 1346.52 1535.95 Q1343.42 1539.15 1337.77 1544.91 Z" fill="#000000" fill-rule="nonzero" fill-opacity="1" /><path clip-path="url(#clip910)" d="M1376.75 1518.36 L1364.94 1536.81 L1376.75 1536.81 L1376.75 1518.36 M1375.52 1514.29 L1381.4 1514.29 L1381.4 1536.81 L1386.33 1536.81 L1386.33 1540.7 L1381.4 1540.7 L1381.4 1548.85 L1376.75 1548.85 L1376.75 1540.7 L1361.15 1540.7 L1361.15 1536.19 L1375.52 1514.29 Z" fill="#000000" fill-rule="nonzero" fill-opacity="1" /><path clip-path="url(#clip910)" d="M1430.08 1533.2 L1430.08 1548.85 L1425.82 1548.85 L1425.82 1533.34 Q1425.82 1529.66 1424.39 1527.83 Q1422.95 1526 1420.08 1526 Q1416.63 1526 1414.64 1528.2 Q1412.65 1530.4 1412.65 1534.2 L1412.65 1548.85 L1408.37 1548.85 L1408.37 1512.83 L1412.65 1512.83 L1412.65 1526.95 Q1414.18 1524.61 1416.24 1523.45 Q1418.32 1522.3 1421.03 1522.3 Q1425.5 1522.3 1427.79 1525.07 Q1430.08 1527.83 1430.08 1533.2 Z" fill="#000000" fill-rule="nonzero" fill-opacity="1" /><path clip-path="url(#clip910)" d="M1453.6 1526.9 Q1452.88 1526.49 1452.03 1526.3 Q1451.19 1526.09 1450.18 1526.09 Q1446.56 1526.09 1444.62 1528.45 Q1442.7 1530.79 1442.7 1535.19 L1442.7 1548.85 L1438.42 1548.85 L1438.42 1522.92 L1442.7 1522.92 L1442.7 1526.95 Q1444.04 1524.59 1446.19 1523.45 Q1448.35 1522.3 1451.43 1522.3 Q1451.87 1522.3 1452.4 1522.37 Q1452.93 1522.41 1453.58 1522.53 L1453.6 1526.9 Z" fill="#000000" fill-rule="nonzero" fill-opacity="1" /><path clip-path="url(#clip910)" d="M1589.48 1515.42 L1589.48 1519.98 Q1586.82 1518.71 1584.46 1518.08 Q1582.1 1517.46 1579.9 1517.46 Q1576.08 1517.46 1573.99 1518.94 Q1571.93 1520.42 1571.93 1523.15 Q1571.93 1525.45 1573.3 1526.63 Q1574.69 1527.78 1578.53 1528.5 L1581.35 1529.08 Q1586.59 1530.07 1589.06 1532.6 Q1591.56 1535.1 1591.56 1539.31 Q1591.56 1544.33 1588.18 1546.93 Q1584.83 1549.52 1578.32 1549.52 Q1575.87 1549.52 1573.09 1548.96 Q1570.34 1548.41 1567.37 1547.32 L1567.37 1542.51 Q1570.22 1544.1 1572.95 1544.91 Q1575.68 1545.72 1578.32 1545.72 Q1582.33 1545.72 1584.5 1544.15 Q1586.68 1542.57 1586.68 1539.66 Q1586.68 1537.11 1585.1 1535.68 Q1583.55 1534.24 1579.99 1533.52 L1577.14 1532.97 Q1571.91 1531.93 1569.57 1529.7 Q1567.23 1527.48 1567.23 1523.52 Q1567.23 1518.94 1570.45 1516.3 Q1573.69 1513.66 1579.36 1513.66 Q1581.79 1513.66 1584.32 1514.1 Q1586.84 1514.54 1589.48 1515.42 Z" fill="#000000" fill-rule="nonzero" fill-opacity="1" /><path clip-path="url(#clip910)" d="M1620.84 1534.82 L1620.84 1536.9 L1601.26 1536.9 Q1601.54 1541.3 1603.9 1543.62 Q1606.28 1545.91 1610.52 1545.91 Q1612.97 1545.91 1615.27 1545.31 Q1617.58 1544.7 1619.85 1543.5 L1619.85 1547.53 Q1617.56 1548.5 1615.15 1549.01 Q1612.74 1549.52 1610.27 1549.52 Q1604.06 1549.52 1600.43 1545.91 Q1596.82 1542.3 1596.82 1536.14 Q1596.82 1529.77 1600.24 1526.05 Q1603.69 1522.3 1609.53 1522.3 Q1614.76 1522.3 1617.79 1525.68 Q1620.84 1529.03 1620.84 1534.82 M1616.59 1533.57 Q1616.54 1530.07 1614.62 1527.99 Q1612.72 1525.91 1609.57 1525.91 Q1606.01 1525.91 1603.85 1527.92 Q1601.72 1529.94 1601.4 1533.59 L1616.59 1533.57 Z" fill="#000000" fill-rule="nonzero" fill-opacity="1" /><path clip-path="url(#clip910)" d="M1632.05 1515.56 L1632.05 1522.92 L1640.82 1522.92 L1640.82 1526.23 L1632.05 1526.23 L1632.05 1540.31 Q1632.05 1543.48 1632.9 1544.38 Q1633.78 1545.28 1636.45 1545.28 L1640.82 1545.28 L1640.82 1548.85 L1636.45 1548.85 Q1631.52 1548.85 1629.64 1547.02 Q1627.77 1545.17 1627.77 1540.31 L1627.77 1526.23 L1624.64 1526.23 L1624.64 1522.92 L1627.77 1522.92 L1627.77 1515.56 L1632.05 1515.56 Z" fill="#000000" fill-rule="nonzero" fill-opacity="1" /><path clip-path="url(#clip910)" d="M1666.35 1518.13 L1666.35 1545.01 L1672 1545.01 Q1679.15 1545.01 1682.46 1541.76 Q1685.8 1538.52 1685.8 1531.53 Q1685.8 1524.59 1682.46 1521.37 Q1679.15 1518.13 1672 1518.13 L1666.35 1518.13 M1661.68 1514.29 L1671.28 1514.29 Q1681.33 1514.29 1686.03 1518.48 Q1690.73 1522.64 1690.73 1531.53 Q1690.73 1540.47 1686.01 1544.66 Q1681.28 1548.85 1671.28 1548.85 L1661.68 1548.85 L1661.68 1514.29 Z" fill="#000000" fill-rule="nonzero" fill-opacity="1" /><path clip-path="url(#clip910)" d="M1710.91 1533.96 L1723.39 1533.96 L1723.39 1537.76 L1710.91 1537.76 L1710.91 1533.96 Z" fill="#000000" fill-rule="nonzero" fill-opacity="1" /><path clip-path="url(#clip910)" d="M1758.69 1518.36 L1746.89 1536.81 L1758.69 1536.81 L1758.69 1518.36 M1757.46 1514.29 L1763.34 1514.29 L1763.34 1536.81 L1768.27 1536.81 L1768.27 1540.7 L1763.34 1540.7 L1763.34 1548.85 L1758.69 1548.85 L1758.69 1540.7 L1743.09 1540.7 L1743.09 1536.19 L1757.46 1514.29 Z" fill="#000000" fill-rule="nonzero" fill-opacity="1" /><path clip-path="url(#clip910)" d="M1786.01 1532.44 Q1782.67 1532.44 1780.75 1534.22 Q1778.85 1536 1778.85 1539.13 Q1778.85 1542.25 1780.75 1544.03 Q1782.67 1545.82 1786.01 1545.82 Q1789.34 1545.82 1791.26 1544.03 Q1793.18 1542.23 1793.18 1539.13 Q1793.18 1536 1791.26 1534.22 Q1789.36 1532.44 1786.01 1532.44 M1781.33 1530.45 Q1778.32 1529.7 1776.63 1527.64 Q1774.96 1525.58 1774.96 1522.62 Q1774.96 1518.48 1777.9 1516.07 Q1780.87 1513.66 1786.01 1513.66 Q1791.17 1513.66 1794.11 1516.07 Q1797.05 1518.48 1797.05 1522.62 Q1797.05 1525.58 1795.36 1527.64 Q1793.69 1529.7 1790.7 1530.45 Q1794.08 1531.23 1795.96 1533.52 Q1797.86 1535.82 1797.86 1539.13 Q1797.86 1544.15 1794.78 1546.83 Q1791.72 1549.52 1786.01 1549.52 Q1780.29 1549.52 1777.21 1546.83 Q1774.15 1544.15 1774.15 1539.13 Q1774.15 1535.82 1776.05 1533.52 Q1777.95 1531.23 1781.33 1530.45 M1779.62 1523.06 Q1779.62 1525.75 1781.28 1527.25 Q1782.97 1528.76 1786.01 1528.76 Q1789.02 1528.76 1790.7 1527.25 Q1792.42 1525.75 1792.42 1523.06 Q1792.42 1520.38 1790.7 1518.87 Q1789.02 1517.37 1786.01 1517.37 Q1782.97 1517.37 1781.28 1518.87 Q1779.62 1520.38 1779.62 1523.06 Z" fill="#000000" fill-rule="nonzero" fill-opacity="1" /><path clip-path="url(#clip910)" d="M1842.19 1533.2 L1842.19 1548.85 L1837.93 1548.85 L1837.93 1533.34 Q1837.93 1529.66 1836.49 1527.83 Q1835.06 1526 1832.19 1526 Q1828.74 1526 1826.75 1528.2 Q1824.76 1530.4 1824.76 1534.2 L1824.76 1548.85 L1820.47 1548.85 L1820.47 1512.83 L1824.76 1512.83 L1824.76 1526.95 Q1826.28 1524.61 1828.34 1523.45 Q1830.43 1522.3 1833.14 1522.3 Q1837.6 1522.3 1839.89 1525.07 Q1842.19 1527.83 1842.19 1533.2 Z" fill="#000000" fill-rule="nonzero" fill-opacity="1" /><path clip-path="url(#clip910)" d="M1865.7 1526.9 Q1864.99 1526.49 1864.13 1526.3 Q1863.3 1526.09 1862.28 1526.09 Q1858.67 1526.09 1856.72 1528.45 Q1854.8 1530.79 1854.8 1535.19 L1854.8 1548.85 L1850.52 1548.85 L1850.52 1522.92 L1854.8 1522.92 L1854.8 1526.95 Q1856.14 1524.59 1858.3 1523.45 Q1860.45 1522.3 1863.53 1522.3 Q1863.97 1522.3 1864.5 1522.37 Q1865.03 1522.41 1865.68 1522.53 L1865.7 1526.9 Z" fill="#000000" fill-rule="nonzero" fill-opacity="1" /><path clip-path="url(#clip910)" d="M2016.66 1515.42 L2016.66 1519.98 Q2014 1518.71 2011.64 1518.08 Q2009.28 1517.46 2007.08 1517.46 Q2003.26 1517.46 2001.18 1518.94 Q1999.12 1520.42 1999.12 1523.15 Q1999.12 1525.45 2000.48 1526.63 Q2001.87 1527.78 2005.71 1528.5 L2008.54 1529.08 Q2013.77 1530.07 2016.25 1532.6 Q2018.75 1535.1 2018.75 1539.31 Q2018.75 1544.33 2015.37 1546.93 Q2012.01 1549.52 2005.51 1549.52 Q2003.05 1549.52 2000.27 1548.96 Q1997.52 1548.41 1994.56 1547.32 L1994.56 1542.51 Q1997.4 1544.1 2000.14 1544.91 Q2002.87 1545.72 2005.51 1545.72 Q2009.51 1545.72 2011.69 1544.15 Q2013.86 1542.57 2013.86 1539.66 Q2013.86 1537.11 2012.29 1535.68 Q2010.74 1534.24 2007.17 1533.52 L2004.32 1532.97 Q1999.09 1531.93 1996.76 1529.7 Q1994.42 1527.48 1994.42 1523.52 Q1994.42 1518.94 1997.64 1516.3 Q2000.88 1513.66 2006.55 1513.66 Q2008.98 1513.66 2011.5 1514.1 Q2014.02 1514.54 2016.66 1515.42 Z" fill="#000000" fill-rule="nonzero" fill-opacity="1" /><path clip-path="url(#clip910)" d="M2048.03 1534.82 L2048.03 1536.9 L2028.45 1536.9 Q2028.72 1541.3 2031.08 1543.62 Q2033.47 1545.91 2037.7 1545.91 Q2040.16 1545.91 2042.45 1545.31 Q2044.76 1544.7 2047.03 1543.5 L2047.03 1547.53 Q2044.74 1548.5 2042.33 1549.01 Q2039.93 1549.52 2037.45 1549.52 Q2031.25 1549.52 2027.61 1545.91 Q2024 1542.3 2024 1536.14 Q2024 1529.77 2027.43 1526.05 Q2030.88 1522.3 2036.71 1522.3 Q2041.94 1522.3 2044.97 1525.68 Q2048.03 1529.03 2048.03 1534.82 M2043.77 1533.57 Q2043.72 1530.07 2041.8 1527.99 Q2039.9 1525.91 2036.76 1525.91 Q2033.19 1525.91 2031.04 1527.92 Q2028.91 1529.94 2028.58 1533.59 L2043.77 1533.57 Z" fill="#000000" fill-rule="nonzero" fill-opacity="1" /><path clip-path="url(#clip910)" d="M2059.23 1515.56 L2059.23 1522.92 L2068.01 1522.92 L2068.01 1526.23 L2059.23 1526.23 L2059.23 1540.31 Q2059.23 1543.48 2060.09 1544.38 Q2060.97 1545.28 2063.63 1545.28 L2068.01 1545.28 L2068.01 1548.85 L2063.63 1548.85 Q2058.7 1548.85 2056.82 1547.02 Q2054.95 1545.17 2054.95 1540.31 L2054.95 1526.23 L2051.82 1526.23 L2051.82 1522.92 L2054.95 1522.92 L2054.95 1515.56 L2059.23 1515.56 Z" fill="#000000" fill-rule="nonzero" fill-opacity="1" /><path clip-path="url(#clip910)" d="M2093.54 1518.13 L2093.54 1545.01 L2099.19 1545.01 Q2106.34 1545.01 2109.65 1541.76 Q2112.98 1538.52 2112.98 1531.53 Q2112.98 1524.59 2109.65 1521.37 Q2106.34 1518.13 2099.19 1518.13 L2093.54 1518.13 M2088.86 1514.29 L2098.47 1514.29 Q2108.51 1514.29 2113.21 1518.48 Q2117.91 1522.64 2117.91 1531.53 Q2117.91 1540.47 2113.19 1544.66 Q2108.47 1548.85 2098.47 1548.85 L2088.86 1548.85 L2088.86 1514.29 Z" fill="#000000" fill-rule="nonzero" fill-opacity="1" /><path clip-path="url(#clip910)" d="M2138.1 1533.96 L2150.57 1533.96 L2150.57 1537.76 L2138.1 1537.76 L2138.1 1533.96 Z" fill="#000000" fill-rule="nonzero" fill-opacity="1" /><path clip-path="url(#clip910)" d="M2183.61 1529.7 Q2180.46 1529.7 2178.61 1531.86 Q2176.78 1534.01 2176.78 1537.76 Q2176.78 1541.49 2178.61 1543.66 Q2180.46 1545.82 2183.61 1545.82 Q2186.75 1545.82 2188.58 1543.66 Q2190.44 1541.49 2190.44 1537.76 Q2190.44 1534.01 2188.58 1531.86 Q2186.75 1529.7 2183.61 1529.7 M2192.89 1515.05 L2192.89 1519.31 Q2191.13 1518.48 2189.32 1518.04 Q2187.54 1517.6 2185.78 1517.6 Q2181.15 1517.6 2178.7 1520.72 Q2176.27 1523.85 2175.92 1530.17 Q2177.29 1528.15 2179.35 1527.09 Q2181.41 1526 2183.88 1526 Q2189.09 1526 2192.1 1529.17 Q2195.13 1532.32 2195.13 1537.76 Q2195.13 1543.08 2191.99 1546.3 Q2188.84 1549.52 2183.61 1549.52 Q2177.61 1549.52 2174.44 1544.94 Q2171.27 1540.33 2171.27 1531.6 Q2171.27 1523.41 2175.16 1518.55 Q2179.05 1513.66 2185.6 1513.66 Q2187.36 1513.66 2189.14 1514.01 Q2190.94 1514.36 2192.89 1515.05 Z" fill="#000000" fill-rule="nonzero" fill-opacity="1" /><path clip-path="url(#clip910)" d="M2239.21 1533.2 L2239.21 1548.85 L2234.95 1548.85 L2234.95 1533.34 Q2234.95 1529.66 2233.51 1527.83 Q2232.08 1526 2229.21 1526 Q2225.76 1526 2223.77 1528.2 Q2221.78 1530.4 2221.78 1534.2 L2221.78 1548.85 L2217.5 1548.85 L2217.5 1512.83 L2221.78 1512.83 L2221.78 1526.95 Q2223.31 1524.61 2225.37 1523.45 Q2227.45 1522.3 2230.16 1522.3 Q2234.62 1522.3 2236.92 1525.07 Q2239.21 1527.83 2239.21 1533.2 Z" fill="#000000" fill-rule="nonzero" fill-opacity="1" /><path clip-path="url(#clip910)" d="M2262.73 1526.9 Q2262.01 1526.49 2261.15 1526.3 Q2260.32 1526.09 2259.3 1526.09 Q2255.69 1526.09 2253.74 1528.45 Q2251.82 1530.79 2251.82 1535.19 L2251.82 1548.85 L2247.54 1548.85 L2247.54 1522.92 L2251.82 1522.92 L2251.82 1526.95 Q2253.17 1524.59 2255.32 1523.45 Q2257.47 1522.3 2260.55 1522.3 Q2260.99 1522.3 2261.52 1522.37 Q2262.06 1522.41 2262.7 1522.53 L2262.73 1526.9 Z" fill="#000000" fill-rule="nonzero" fill-opacity="1" /><polyline clip-path="url(#clip910)" style="stroke:#000000; stroke-linecap:round; stroke-linejoin:round; stroke-width:4; stroke-opacity:1; fill:none" points="255.977,1486.45 255.977,123.472 "/>
<polyline clip-path="url(#clip910)" style="stroke:#000000; stroke-linecap:round; stroke-linejoin:round; stroke-width:4; stroke-opacity:1; fill:none" points="255.977,1486.45 274.875,1486.45 "/>
<polyline clip-path="url(#clip910)" style="stroke:#000000; stroke-linecap:round; stroke-linejoin:round; stroke-width:4; stroke-opacity:1; fill:none" points="255.977,1145.7 274.875,1145.7 "/>
<polyline clip-path="url(#clip910)" style="stroke:#000000; stroke-linecap:round; stroke-linejoin:round; stroke-width:4; stroke-opacity:1; fill:none" points="255.977,804.96 274.875,804.96 "/>
<polyline clip-path="url(#clip910)" style="stroke:#000000; stroke-linecap:round; stroke-linejoin:round; stroke-width:4; stroke-opacity:1; fill:none" points="255.977,464.216 274.875,464.216 "/>
<polyline clip-path="url(#clip910)" style="stroke:#000000; stroke-linecap:round; stroke-linejoin:round; stroke-width:4; stroke-opacity:1; fill:none" points="255.977,123.472 274.875,123.472 "/>
<path clip-path="url(#clip910)" d="M114.631 1486.9 L144.306 1486.9 L144.306 1490.83 L114.631 1490.83 L114.631 1486.9 Z" fill="#000000" fill-rule="nonzero" fill-opacity="1" /><path clip-path="url(#clip910)" d="M164.399 1472.25 Q160.788 1472.25 158.959 1475.81 Q157.153 1479.35 157.153 1486.48 Q157.153 1493.59 158.959 1497.15 Q160.788 1500.7 164.399 1500.7 Q168.033 1500.7 169.839 1497.15 Q171.667 1493.59 171.667 1486.48 Q171.667 1479.35 169.839 1475.81 Q168.033 1472.25 164.399 1472.25 M164.399 1468.54 Q170.209 1468.54 173.264 1473.15 Q176.343 1477.73 176.343 1486.48 Q176.343 1495.21 173.264 1499.82 Q170.209 1504.4 164.399 1504.4 Q158.589 1504.4 155.51 1499.82 Q152.454 1495.21 152.454 1486.48 Q152.454 1477.73 155.51 1473.15 Q158.589 1468.54 164.399 1468.54 Z" fill="#000000" fill-rule="nonzero" fill-opacity="1" /><path clip-path="url(#clip910)" d="M184.561 1497.85 L189.445 1497.85 L189.445 1503.73 L184.561 1503.73 L184.561 1497.85 Z" fill="#000000" fill-rule="nonzero" fill-opacity="1" /><path clip-path="url(#clip910)" d="M203.658 1499.79 L219.977 1499.79 L219.977 1503.73 L198.033 1503.73 L198.033 1499.79 Q200.695 1497.04 205.278 1492.41 Q209.885 1487.76 211.065 1486.41 Q213.311 1483.89 214.19 1482.15 Q215.093 1480.39 215.093 1478.7 Q215.093 1475.95 213.149 1474.21 Q211.227 1472.48 208.125 1472.48 Q205.926 1472.48 203.473 1473.24 Q201.042 1474.01 198.264 1475.56 L198.264 1470.83 Q201.088 1469.7 203.542 1469.12 Q205.996 1468.54 208.033 1468.54 Q213.403 1468.54 216.598 1471.23 Q219.792 1473.91 219.792 1478.4 Q219.792 1480.53 218.982 1482.45 Q218.195 1484.35 216.088 1486.95 Q215.51 1487.62 212.408 1490.83 Q209.306 1494.03 203.658 1499.79 Z" fill="#000000" fill-rule="nonzero" fill-opacity="1" /><path clip-path="url(#clip910)" d="M114.26 1146.16 L143.936 1146.16 L143.936 1150.09 L114.26 1150.09 L114.26 1146.16 Z" fill="#000000" fill-rule="nonzero" fill-opacity="1" /><path clip-path="url(#clip910)" d="M164.028 1131.5 Q160.417 1131.5 158.589 1135.07 Q156.783 1138.61 156.783 1145.74 Q156.783 1152.85 158.589 1156.41 Q160.417 1159.95 164.028 1159.95 Q167.663 1159.95 169.468 1156.41 Q171.297 1152.85 171.297 1145.74 Q171.297 1138.61 169.468 1135.07 Q167.663 1131.5 164.028 1131.5 M164.028 1127.8 Q169.839 1127.8 172.894 1132.41 Q175.973 1136.99 175.973 1145.74 Q175.973 1154.47 172.894 1159.07 Q169.839 1163.66 164.028 1163.66 Q158.218 1163.66 155.14 1159.07 Q152.084 1154.47 152.084 1145.74 Q152.084 1136.99 155.14 1132.41 Q158.218 1127.8 164.028 1127.8 Z" fill="#000000" fill-rule="nonzero" fill-opacity="1" /><path clip-path="url(#clip910)" d="M184.19 1157.1 L189.075 1157.1 L189.075 1162.98 L184.19 1162.98 L184.19 1157.1 Z" fill="#000000" fill-rule="nonzero" fill-opacity="1" /><path clip-path="url(#clip910)" d="M200.07 1159.05 L207.709 1159.05 L207.709 1132.68 L199.399 1134.35 L199.399 1130.09 L207.662 1128.42 L212.338 1128.42 L212.338 1159.05 L219.977 1159.05 L219.977 1162.98 L200.07 1162.98 L200.07 1159.05 Z" fill="#000000" fill-rule="nonzero" fill-opacity="1" /><path clip-path="url(#clip910)" d="M162.802 790.759 Q159.19 790.759 157.362 794.323 Q155.556 797.865 155.556 804.995 Q155.556 812.101 157.362 815.666 Q159.19 819.208 162.802 819.208 Q166.436 819.208 168.241 815.666 Q170.07 812.101 170.07 804.995 Q170.07 797.865 168.241 794.323 Q166.436 790.759 162.802 790.759 M162.802 787.055 Q168.612 787.055 171.667 791.661 Q174.746 796.245 174.746 804.995 Q174.746 813.722 171.667 818.328 Q168.612 822.911 162.802 822.911 Q156.991 822.911 153.913 818.328 Q150.857 813.722 150.857 804.995 Q150.857 796.245 153.913 791.661 Q156.991 787.055 162.802 787.055 Z" fill="#000000" fill-rule="nonzero" fill-opacity="1" /><path clip-path="url(#clip910)" d="M182.963 816.36 L187.848 816.36 L187.848 822.24 L182.963 822.24 L182.963 816.36 Z" fill="#000000" fill-rule="nonzero" fill-opacity="1" /><path clip-path="url(#clip910)" d="M208.033 790.759 Q204.422 790.759 202.593 794.323 Q200.787 797.865 200.787 804.995 Q200.787 812.101 202.593 815.666 Q204.422 819.208 208.033 819.208 Q211.667 819.208 213.473 815.666 Q215.301 812.101 215.301 804.995 Q215.301 797.865 213.473 794.323 Q211.667 790.759 208.033 790.759 M208.033 787.055 Q213.843 787.055 216.898 791.661 Q219.977 796.245 219.977 804.995 Q219.977 813.722 216.898 818.328 Q213.843 822.911 208.033 822.911 Q202.223 822.911 199.144 818.328 Q196.088 813.722 196.088 804.995 Q196.088 796.245 199.144 791.661 Q202.223 787.055 208.033 787.055 Z" fill="#000000" fill-rule="nonzero" fill-opacity="1" /><path clip-path="url(#clip910)" d="M164.028 450.015 Q160.417 450.015 158.589 453.58 Q156.783 457.121 156.783 464.251 Q156.783 471.357 158.589 474.922 Q160.417 478.464 164.028 478.464 Q167.663 478.464 169.468 474.922 Q171.297 471.357 171.297 464.251 Q171.297 457.121 169.468 453.58 Q167.663 450.015 164.028 450.015 M164.028 446.311 Q169.839 446.311 172.894 450.918 Q175.973 455.501 175.973 464.251 Q175.973 472.978 172.894 477.584 Q169.839 482.167 164.028 482.167 Q158.218 482.167 155.14 477.584 Q152.084 472.978 152.084 464.251 Q152.084 455.501 155.14 450.918 Q158.218 446.311 164.028 446.311 Z" fill="#000000" fill-rule="nonzero" fill-opacity="1" /><path clip-path="url(#clip910)" d="M184.19 475.616 L189.075 475.616 L189.075 481.496 L184.19 481.496 L184.19 475.616 Z" fill="#000000" fill-rule="nonzero" fill-opacity="1" /><path clip-path="url(#clip910)" d="M200.07 477.561 L207.709 477.561 L207.709 451.195 L199.399 452.862 L199.399 448.603 L207.662 446.936 L212.338 446.936 L212.338 477.561 L219.977 477.561 L219.977 481.496 L200.07 481.496 L200.07 477.561 Z" fill="#000000" fill-rule="nonzero" fill-opacity="1" /><path clip-path="url(#clip910)" d="M164.399 109.271 Q160.788 109.271 158.959 112.836 Q157.153 116.377 157.153 123.507 Q157.153 130.613 158.959 134.178 Q160.788 137.72 164.399 137.72 Q168.033 137.72 169.839 134.178 Q171.667 130.613 171.667 123.507 Q171.667 116.377 169.839 112.836 Q168.033 109.271 164.399 109.271 M164.399 105.567 Q170.209 105.567 173.264 110.174 Q176.343 114.757 176.343 123.507 Q176.343 132.234 173.264 136.84 Q170.209 141.423 164.399 141.423 Q158.589 141.423 155.51 136.84 Q152.454 132.234 152.454 123.507 Q152.454 114.757 155.51 110.174 Q158.589 105.567 164.399 105.567 Z" fill="#000000" fill-rule="nonzero" fill-opacity="1" /><path clip-path="url(#clip910)" d="M184.561 134.873 L189.445 134.873 L189.445 140.752 L184.561 140.752 L184.561 134.873 Z" fill="#000000" fill-rule="nonzero" fill-opacity="1" /><path clip-path="url(#clip910)" d="M203.658 136.817 L219.977 136.817 L219.977 140.752 L198.033 140.752 L198.033 136.817 Q200.695 134.062 205.278 129.433 Q209.885 124.78 211.065 123.437 Q213.311 120.914 214.19 119.178 Q215.093 117.419 215.093 115.729 Q215.093 112.974 213.149 111.238 Q211.227 109.502 208.125 109.502 Q205.926 109.502 203.473 110.266 Q201.042 111.03 198.264 112.581 L198.264 107.859 Q201.088 106.725 203.542 106.146 Q205.996 105.567 208.033 105.567 Q213.403 105.567 216.598 108.252 Q219.792 110.937 219.792 115.428 Q219.792 117.558 218.982 119.479 Q218.195 121.377 216.088 123.97 Q215.51 124.641 212.408 127.859 Q209.306 131.053 203.658 136.817 Z" fill="#000000" fill-rule="nonzero" fill-opacity="1" /><path clip-path="url(#clip910)" d="M35.2042 909.68 Q34.1414 909.68 33.2719 909.969 Q32.3701 910.227 31.7582 910.646 Q31.1141 911.032 30.631 911.773 Q30.1157 912.514 29.7936 913.126 Q29.4716 913.737 29.2784 914.768 Q29.0529 915.799 28.9563 916.475 Q28.8275 917.151 28.7631 918.311 Q28.6986 919.47 28.6986 920.05 Q28.6986 920.597 28.6986 921.692 Q28.6986 925.138 28.7631 925.718 Q28.8919 926.588 29.4072 926.91 Q29.8903 927.232 31.2107 927.554 L48.4086 931.837 L48.4086 924.462 Q48.4086 920.436 47.2814 917.667 Q46.1542 914.897 44.5761 913.319 Q42.837 911.58 40.0351 910.646 Q37.2332 909.68 35.2042 909.68 M65.5744 902.498 Q65.9286 902.498 66.7338 902.787 Q67.5389 903.045 68.6661 903.689 Q69.7611 904.333 70.7595 905.203 Q71.7579 906.072 72.4342 907.457 Q73.1427 908.842 73.1427 910.42 Q73.1427 910.807 73.1105 911.193 Q73.1105 911.58 72.9495 912.546 Q72.8207 913.48 72.563 914.253 Q72.3376 915.026 71.7901 915.992 Q71.2748 916.958 70.5663 917.634 Q69.8255 918.278 68.6661 918.729 Q67.4745 919.18 66.0252 919.18 Q64.737 919.18 60.4214 918.117 Q56.75 917.183 55.8482 917.183 Q54.8498 917.183 53.9158 917.506 Q52.9819 917.795 52.0157 918.536 Q51.0495 919.245 50.4698 920.758 Q49.8579 922.272 49.8579 924.398 L49.8579 932.224 L67.3457 936.604 Q67.3779 936.604 67.8288 936.7 Q68.2474 936.797 68.4729 936.797 Q68.8916 936.797 69.1492 936.539 Q69.4069 936.249 69.5357 935.541 Q69.6323 934.832 69.6645 934.285 Q69.6645 933.705 69.6645 932.513 Q69.6645 931.032 69.9221 930.774 Q70.0832 930.646 70.373 930.646 Q70.8239 930.646 71.146 930.774 Q71.4358 930.871 71.5324 931.129 Q71.6291 931.354 71.6613 931.515 Q71.6935 931.676 71.6935 931.966 L71.5002 940.34 L71.6935 948.649 Q71.6935 949.583 70.9527 949.583 Q70.3086 949.583 70.051 949.357 Q69.7611 949.132 69.7289 948.842 Q69.6645 948.552 69.6645 947.811 Q69.6645 946.201 69.5679 945.235 Q69.4713 944.269 69.3424 943.657 Q69.1814 943.013 68.7305 942.691 Q68.2796 942.336 67.8932 942.175 Q67.4745 942.014 66.5405 941.789 L31.1141 932.964 Q30.0513 932.707 29.8903 932.707 Q29.2784 932.707 29.1173 933.093 Q28.9241 933.447 28.8275 934.478 L28.6986 936.99 Q28.6986 937.763 28.6664 938.085 Q28.6342 938.375 28.4732 938.6 Q28.3122 938.826 27.9579 938.826 Q27.0561 938.826 26.8629 938.439 Q26.6375 938.053 26.6375 936.926 L26.6375 918.117 Q26.6375 911.708 29.4394 907.651 Q32.2413 903.56 36.5247 903.56 Q38.457 903.56 40.2605 904.43 Q42.0641 905.3 43.4811 906.749 Q44.8982 908.166 46.0898 910.066 Q47.2492 911.966 48.0544 913.995 Q48.8273 915.992 49.2782 918.053 Q49.6002 917.151 50.0833 916.314 Q50.5664 915.444 51.4682 914.349 Q52.37 913.222 53.8192 912.546 Q55.2685 911.87 57.0398 911.87 Q58.2958 911.87 60.1638 912.127 Q65.4777 912.771 67.6677 912.771 Q69.7611 912.771 70.7273 912.224 Q71.6935 911.676 71.6935 910.13 Q71.6935 908.617 70.3408 906.942 Q68.956 905.235 65.7032 904.14 Q64.7692 903.882 64.7692 903.271 Q64.7692 903.238 64.7692 903.206 Q64.7692 903.142 64.8336 903.013 Q64.8658 902.884 64.9624 902.787 Q65.0269 902.659 65.1879 902.594 Q65.3489 902.498 65.5744 902.498 Z" fill="#000000" fill-rule="nonzero" fill-opacity="1" /><path clip-path="url(#clip910)" d="M64.0607 874.743 Q64.3505 874.485 64.6404 874.485 Q64.9302 874.485 65.7676 875.129 Q66.6049 875.741 67.7321 877.062 Q68.8594 878.382 69.9221 880.089 Q70.9849 881.796 71.6935 884.308 Q72.4342 886.82 72.4342 889.461 Q72.4342 894.195 69.0526 897.029 Q65.671 899.831 60.4858 899.831 Q57.1686 899.831 54.2379 898.736 Q51.275 897.641 49.1816 895.87 Q47.0882 894.066 45.5745 891.812 Q44.0286 889.525 43.2879 887.142 Q42.5472 884.759 42.5472 882.537 Q42.5472 879.284 44.1897 877.384 Q45.8322 875.484 48.151 875.484 Q48.6985 875.484 49.3748 875.645 Q50.0511 875.774 51.1139 876.224 Q52.1767 876.643 53.2395 877.738 Q54.2701 878.833 54.9464 880.443 Q56.4601 884.018 56.4601 890.524 L56.4601 894.034 Q60.6147 895.065 63.3199 895.065 Q64.3827 895.065 65.4777 894.872 Q66.5405 894.678 67.8932 894.163 Q69.2458 893.616 70.1154 892.392 Q70.9527 891.136 70.9527 889.332 Q70.9527 888.753 70.9205 888.141 Q70.8883 887.496 70.5341 885.886 Q70.1798 884.244 69.5679 882.794 Q68.956 881.345 67.6355 879.509 Q66.2829 877.641 64.4472 876.16 Q63.7708 875.645 63.7708 875.29 Q63.7708 875.001 64.0607 874.743 M48.151 877.674 Q46.3797 877.674 45.188 878.994 Q43.9964 880.282 43.9964 882.537 Q43.9964 883.245 44.1575 884.115 Q44.3185 884.984 44.9948 886.434 Q45.6711 887.851 46.7983 889.107 Q47.8933 890.363 50.0511 891.619 Q52.1767 892.875 55.0108 893.616 L55.0108 890.91 Q55.0108 889.976 55.0108 889.3 Q54.9786 888.624 54.8498 887.142 Q54.721 885.629 54.4955 884.534 Q54.2379 883.439 53.7226 882.054 Q53.2073 880.669 52.531 879.799 Q51.8225 878.898 50.6952 878.286 Q49.568 877.674 48.151 877.674 Z" fill="#000000" fill-rule="nonzero" fill-opacity="1" /><path clip-path="url(#clip910)" d="M48.2154 845.117 Q50.0189 845.117 50.9851 846.019 Q51.9191 846.92 51.9191 848.144 Q51.9191 849.143 51.3394 849.69 Q50.7597 850.205 49.9867 850.205 Q48.8595 850.205 47.9578 849.304 Q47.056 848.37 47.0238 847.017 Q45.8322 847.468 45.1236 848.66 Q44.3829 849.851 44.1897 850.914 Q43.9964 851.945 43.9964 852.975 Q43.9964 855.004 44.6405 856.55 Q45.2847 858.096 46.283 858.869 Q47.2492 859.642 48.1832 859.996 Q49.1172 860.35 49.9223 860.35 Q50.6308 860.35 51.2105 860.189 Q51.758 859.996 52.1767 859.545 Q52.5632 859.094 52.8208 858.772 Q53.0785 858.418 53.3039 857.645 Q53.5294 856.872 53.626 856.55 Q53.6904 856.228 53.8836 855.326 Q54.2701 853.458 54.4955 852.621 Q54.6888 851.784 55.2363 850.689 Q55.7838 849.561 56.6533 848.724 Q58.6823 846.695 61.4842 846.695 Q62.5148 846.695 63.7708 847.049 Q65.0269 847.371 66.6049 848.305 Q68.183 849.239 69.4391 850.656 Q70.6951 852.073 71.5646 854.521 Q72.4342 856.936 72.4342 859.964 Q72.4342 864.183 70.6629 866.791 Q68.8594 869.4 66.0252 869.4 Q63.9641 869.4 62.8369 868.273 Q61.6774 867.146 61.6774 865.696 Q61.6774 864.601 62.2894 863.925 Q62.8691 863.249 63.9641 863.249 Q65.4455 863.249 66.5727 864.44 Q67.6999 865.632 67.4745 867.403 Q70.9527 865.89 70.9527 859.899 Q70.9527 857.645 70.373 855.906 Q69.7611 854.135 68.9238 853.168 Q68.0542 852.17 66.9914 851.526 Q65.9286 850.882 65.1235 850.689 Q64.3183 850.463 63.7064 850.463 Q62.6436 850.463 61.8385 850.882 Q61.0333 851.3 60.5824 851.88 Q60.0994 852.428 59.7129 853.49 Q59.2942 854.521 59.1332 855.262 Q58.9722 856.003 58.7145 857.323 Q58.5857 857.935 58.5213 858.321 Q58.4247 858.708 58.167 859.513 Q57.8772 860.286 57.5873 860.833 Q57.2974 861.349 56.7822 862.025 Q56.2669 862.701 55.655 863.12 Q55.043 863.539 54.1413 863.829 Q53.2395 864.118 52.1767 864.118 Q51.2105 864.118 50.0511 863.829 Q48.8917 863.506 47.5391 862.701 Q46.1864 861.864 45.0914 860.672 Q43.9964 859.481 43.2879 857.484 Q42.5472 855.455 42.5472 852.975 Q42.5472 849.368 44.2219 847.243 Q45.8644 845.117 48.2154 845.117 Z" fill="#000000" fill-rule="nonzero" fill-opacity="1" /><path clip-path="url(#clip910)" d="M30.47 823.518 Q31.887 823.518 32.9498 824.677 Q33.9804 825.805 33.9804 827.028 Q33.9804 828.156 33.3041 828.864 Q32.5956 829.54 31.5972 829.54 Q30.2767 829.54 29.1817 828.413 Q28.0867 827.286 28.0867 825.966 Q28.0867 824.871 28.7631 824.194 Q29.4394 823.518 30.47 823.518 M62.2572 822.938 Q62.5148 822.938 63.5454 823.228 Q64.5438 823.518 66.0897 824.226 Q67.6033 824.903 69.0204 825.837 Q70.4374 826.771 71.4358 828.317 Q72.4342 829.83 72.4342 831.569 Q72.4342 833.92 70.8883 835.466 Q69.3424 836.98 67.0236 836.98 Q65.7676 836.98 61.7419 835.466 Q50.0189 831.086 49.5358 830.925 Q47.7001 830.185 46.0898 830.185 Q45.3491 830.185 44.8982 830.346 Q44.4151 830.507 44.2541 830.829 Q44.0608 831.151 44.0286 831.344 Q43.9964 831.505 43.9964 831.827 Q43.9964 833.727 45.9288 835.499 Q47.8611 837.27 52.1767 838.494 Q52.9819 838.751 53.1751 838.912 Q53.3683 839.073 53.3683 839.556 Q53.3361 840.362 52.692 840.362 Q52.4988 840.362 51.758 840.136 Q50.9851 839.911 49.8257 839.492 Q48.6341 839.073 47.4103 838.333 Q46.1542 837.592 45.0592 836.69 Q43.9642 835.756 43.2557 834.436 Q42.5472 833.115 42.5472 831.634 Q42.5472 829.218 44.1253 827.737 Q45.6711 826.223 47.9578 826.223 Q49.2138 826.223 51.436 827.093 Q54.3345 828.156 55.2685 828.542 L62.1927 831.119 Q64.7048 832.052 65.4777 832.342 Q66.2185 832.6 67.1202 832.825 Q67.9898 833.019 68.7949 833.019 Q69.9221 833.019 70.4374 832.664 Q70.9527 832.278 70.9527 831.441 Q70.9527 829.122 68.6661 827.415 Q66.3473 825.708 62.8047 824.71 Q62.708 824.677 62.547 824.645 Q61.7419 824.387 61.6452 824.13 Q61.613 824.001 61.613 823.743 Q61.613 822.938 62.2572 822.938 Z" fill="#000000" fill-rule="nonzero" fill-opacity="1" /><path clip-path="url(#clip910)" d="M26.6375 784.593 L64.7692 794.093 Q66.4761 794.48 67.9254 794.48 Q70.9527 794.48 70.9527 792.515 Q70.9527 791.549 70.3408 790.776 Q69.7289 790.003 68.4407 789.391 Q67.1524 788.779 65.9608 788.393 Q64.737 788.006 62.8047 787.491 Q62.0317 787.33 61.8385 787.201 Q61.613 787.04 61.613 786.589 Q61.613 785.784 62.2572 785.784 Q66.4117 786.654 68.7949 787.781 Q72.4342 789.584 72.4342 792.644 Q72.4342 794.963 71.0171 796.605 Q69.6001 798.248 67.4745 798.634 Q72.4342 802.853 72.4342 807.233 Q72.4342 811.098 69.5035 813.546 Q66.5405 815.993 61.8707 815.993 Q57.1686 815.993 52.6598 813.674 Q48.151 811.323 45.3491 807.62 Q42.5472 803.916 42.5472 800.116 Q42.5472 796.09 46.7661 794.029 L31.1141 790.068 L29.8259 789.874 Q29.4394 789.874 29.2461 790.035 Q29.0207 790.164 28.8597 790.937 Q28.6986 791.678 28.6986 793.159 Q28.6986 793.771 28.6664 794.061 Q28.6342 794.319 28.4732 794.544 Q28.28 794.77 27.8935 794.77 Q26.7663 794.77 26.6375 793.836 Q25.9289 787.652 25.9289 785.462 Q25.9289 785.076 26.1222 784.85 Q26.2832 784.625 26.4764 784.625 L26.6375 784.593 M49.7935 794.834 Q49.5036 794.834 48.6985 795.059 Q47.8933 795.285 46.7661 795.8 Q45.6389 796.315 44.8338 797.443 Q43.9964 798.538 43.9964 800.019 Q43.9964 802.016 45.7033 804.109 Q47.4103 806.17 50.3088 807.684 Q52.6276 808.844 57.4907 810.1 Q62.3538 811.323 64.7692 811.323 Q66.2507 811.323 67.5711 811.001 Q68.8594 810.647 69.9221 809.649 Q70.9527 808.65 70.9527 807.104 Q70.9527 803.336 66.2829 799.633 Q65.4777 798.924 65.1557 798.763 Q64.8014 798.57 63.8352 798.312 L50.9207 795.027 Q49.9545 794.834 49.7935 794.834 Z" fill="#000000" fill-rule="nonzero" fill-opacity="1" /><path clip-path="url(#clip910)" d="M62.2572 749.46 Q66.4117 750.298 68.7949 751.425 Q72.4342 753.261 72.4342 756.32 Q72.4342 758.446 71.2426 760.056 Q70.0188 761.634 67.9898 762.182 Q68.7949 762.794 69.3424 763.341 Q69.8899 763.857 70.7273 764.855 Q71.5324 765.853 71.9833 767.206 Q72.4342 768.526 72.4342 770.04 Q72.4342 771.199 72.2088 772.262 Q72.0155 773.325 71.468 774.452 Q70.8883 775.547 70.0188 776.352 Q69.1492 777.125 67.7321 777.641 Q66.3151 778.156 64.5116 778.156 Q62.2572 778.156 59.1976 777.286 Q56.138 776.385 50.663 774.323 Q47.7645 773.196 46.1542 773.196 Q45.4135 773.196 44.9304 773.357 Q44.4473 773.518 44.2863 773.84 Q44.093 774.13 44.0608 774.323 Q43.9964 774.517 43.9964 774.839 Q43.9964 776.835 46.0254 778.575 Q48.0544 780.314 52.1767 781.505 Q52.9819 781.763 53.1751 781.924 Q53.3683 782.085 53.3683 782.568 Q53.3361 783.373 52.692 783.373 Q52.4344 783.373 51.436 783.083 Q50.4054 782.794 48.8917 782.117 Q47.3458 781.409 45.961 780.443 Q44.5439 779.476 43.5455 777.963 Q42.5472 776.417 42.5472 774.645 Q42.5472 772.23 44.1253 770.749 Q45.6711 769.235 47.9578 769.235 Q49.3748 769.235 52.1123 770.362 Q61.613 773.937 65.5744 773.937 Q70.9527 773.937 70.9527 769.847 Q70.9527 768.494 70.4052 767.238 Q69.8577 765.95 69.0848 765.113 Q68.3119 764.275 67.4745 763.631 Q66.6371 762.955 66.0897 762.665 Q65.5422 762.343 65.4133 762.311 L45.5745 757.383 Q44.8016 757.19 44.2863 756.836 Q43.7388 756.449 43.5455 755.998 Q43.3523 755.547 43.3201 755.29 Q43.2557 755.032 43.2557 754.807 Q43.2557 754.002 43.7388 753.454 Q44.2219 752.874 45.0592 752.874 Q45.2203 752.874 45.9932 753.068 Q46.7339 753.229 47.8289 753.486 Q48.8917 753.744 49.4714 753.873 Q53.5294 754.903 53.948 755 L61.0655 756.836 Q61.4842 756.932 62.8369 757.254 Q64.1895 757.544 64.898 757.705 Q65.5744 757.866 66.5083 758.027 Q67.4101 758.156 67.9254 758.156 Q69.5357 758.156 70.2442 757.673 Q70.9527 757.19 70.9527 756.127 Q70.9527 755.129 70.2764 754.356 Q69.5679 753.551 68.2152 752.939 Q66.8304 752.327 65.7032 751.973 Q64.576 751.618 62.8047 751.167 Q62.0317 751.006 61.8385 750.878 Q61.613 750.717 61.613 750.266 Q61.613 749.46 62.2572 749.46 Z" fill="#000000" fill-rule="nonzero" fill-opacity="1" /><path clip-path="url(#clip910)" d="M62.2572 715.283 Q66.4117 716.153 68.7949 717.28 Q72.4342 719.083 72.4342 722.143 Q72.4342 724.462 71.0171 726.104 Q69.6001 727.747 67.4745 728.133 Q72.4342 732.352 72.4342 736.732 Q72.4342 740.597 69.5035 743.044 Q66.5405 745.492 61.8707 745.492 Q57.1686 745.492 52.6598 743.173 Q48.151 740.822 45.3491 737.119 Q42.5472 733.415 42.5472 729.615 Q42.5472 725.589 46.7661 723.528 Q45.6067 723.367 44.7372 722.626 Q43.8676 721.885 43.8676 720.758 Q43.8676 719.888 44.3507 719.373 Q44.8016 718.858 45.6389 718.858 Q46.0576 718.858 47.8933 719.309 L57.1042 721.692 L63.0623 723.141 Q65.2523 723.689 66.0574 723.85 Q66.8626 723.979 67.9254 723.979 Q70.9527 723.979 70.9527 722.014 Q70.9527 721.048 70.3408 720.275 Q69.7289 719.502 68.4407 718.89 Q67.1524 718.278 65.9608 717.892 Q64.737 717.505 62.8047 716.99 Q62.0317 716.829 61.8385 716.7 Q61.613 716.539 61.613 716.088 Q61.613 715.283 62.2572 715.283 M49.7935 724.333 Q49.5036 724.333 48.6985 724.558 Q47.8933 724.784 46.7661 725.299 Q45.6389 725.814 44.8338 726.942 Q43.9964 728.037 43.9964 729.518 Q43.9964 731.515 45.7033 733.608 Q47.4103 735.669 50.3088 737.183 Q52.6276 738.342 57.4907 739.598 Q62.3538 740.822 64.7692 740.822 Q66.2507 740.822 67.5711 740.5 Q68.8594 740.146 69.9221 739.148 Q70.9527 738.149 70.9527 736.603 Q70.9527 732.835 66.2829 729.132 Q65.4777 728.423 65.1557 728.262 Q64.8014 728.069 63.8352 727.811 L50.9207 724.526 Q49.9545 724.333 49.7935 724.333 Z" fill="#000000" fill-rule="nonzero" fill-opacity="1" /><path clip-path="url(#clip910)" d="M26.6375 697.104 L64.7692 706.605 Q66.2829 706.991 67.9254 706.991 Q70.9527 706.991 70.9527 704.994 Q70.9527 704.06 70.3408 703.287 Q69.6967 702.514 68.4407 701.935 Q67.1524 701.323 65.9286 700.936 Q64.7048 700.518 62.8047 700.002 Q62.0639 699.841 61.8385 699.68 Q61.613 699.519 61.613 699.068 Q61.613 698.263 62.2572 698.263 Q66.2185 699.068 68.7305 700.26 Q72.4342 701.999 72.4342 705.22 Q72.4342 707.635 70.7595 709.439 Q69.0526 711.21 66.3473 711.21 Q65.3167 711.21 64.0929 710.888 L31.1141 702.579 L29.8259 702.353 Q29.4716 702.353 29.2784 702.482 Q29.0851 702.611 28.8919 703.384 Q28.6986 704.125 28.6986 705.606 Q28.6986 706.218 28.6664 706.508 Q28.6342 706.766 28.4732 707.023 Q28.3122 707.249 27.9579 707.249 Q27.3782 707.249 27.0561 707.023 Q26.7341 706.766 26.6697 706.572 Q26.6053 706.379 26.5731 705.993 Q26.5409 705.445 26.3798 703.609 Q26.1866 701.774 26.0578 700.196 Q25.9289 698.618 25.9289 697.941 Q25.9289 697.555 26.1222 697.362 Q26.2832 697.136 26.4764 697.104 L26.6375 697.104 Z" fill="#000000" fill-rule="nonzero" fill-opacity="1" /><path clip-path="url(#clip910)" d="M48.2154 666.677 Q50.0189 666.677 50.9851 667.579 Q51.9191 668.48 51.9191 669.704 Q51.9191 670.702 51.3394 671.25 Q50.7597 671.765 49.9867 671.765 Q48.8595 671.765 47.9578 670.864 Q47.056 669.93 47.0238 668.577 Q45.8322 669.028 45.1236 670.219 Q44.3829 671.411 44.1897 672.474 Q43.9964 673.504 43.9964 674.535 Q43.9964 676.564 44.6405 678.11 Q45.2847 679.656 46.283 680.429 Q47.2492 681.202 48.1832 681.556 Q49.1172 681.91 49.9223 681.91 Q50.6308 681.91 51.2105 681.749 Q51.758 681.556 52.1767 681.105 Q52.5632 680.654 52.8208 680.332 Q53.0785 679.978 53.3039 679.205 Q53.5294 678.432 53.626 678.11 Q53.6904 677.788 53.8836 676.886 Q54.2701 675.018 54.4955 674.181 Q54.6888 673.343 55.2363 672.248 Q55.7838 671.121 56.6533 670.284 Q58.6823 668.255 61.4842 668.255 Q62.5148 668.255 63.7708 668.609 Q65.0269 668.931 66.6049 669.865 Q68.183 670.799 69.4391 672.216 Q70.6951 673.633 71.5646 676.081 Q72.4342 678.496 72.4342 681.524 Q72.4342 685.743 70.6629 688.351 Q68.8594 690.96 66.0252 690.96 Q63.9641 690.96 62.8369 689.833 Q61.6774 688.706 61.6774 687.256 Q61.6774 686.161 62.2894 685.485 Q62.8691 684.809 63.9641 684.809 Q65.4455 684.809 66.5727 686 Q67.6999 687.192 67.4745 688.963 Q70.9527 687.45 70.9527 681.459 Q70.9527 679.205 70.373 677.466 Q69.7611 675.694 68.9238 674.728 Q68.0542 673.73 66.9914 673.086 Q65.9286 672.442 65.1235 672.248 Q64.3183 672.023 63.7064 672.023 Q62.6436 672.023 61.8385 672.442 Q61.0333 672.86 60.5824 673.44 Q60.0994 673.987 59.7129 675.05 Q59.2942 676.081 59.1332 676.822 Q58.9722 677.562 58.7145 678.883 Q58.5857 679.495 58.5213 679.881 Q58.4247 680.268 58.167 681.073 Q57.8772 681.846 57.5873 682.393 Q57.2974 682.909 56.7822 683.585 Q56.2669 684.261 55.655 684.68 Q55.043 685.099 54.1413 685.388 Q53.2395 685.678 52.1767 685.678 Q51.2105 685.678 50.0511 685.388 Q48.8917 685.066 47.5391 684.261 Q46.1864 683.424 45.0914 682.232 Q43.9964 681.041 43.2879 679.044 Q42.5472 677.015 42.5472 674.535 Q42.5472 670.928 44.2219 668.802 Q45.8644 666.677 48.2154 666.677 Z" fill="#000000" fill-rule="nonzero" fill-opacity="1" /><path clip-path="url(#clip910)" d="M968.444 29.477 Q968.444 33.289 965.821 36.7321 Q963.239 40.1342 959.304 42.3067 Q955.369 44.4381 950.901 45.2579 Q956.926 45.9547 960.41 49.2339 Q963.935 52.513 963.935 57.1038 Q963.935 60.178 962.132 63.4162 Q960.369 66.6133 957.336 69.2366 Q954.344 71.8599 949.917 73.5405 Q945.531 75.2211 940.735 75.2211 L910.772 75.2211 Q909.83 75.2211 909.461 75.1801 Q909.092 75.1391 908.805 74.9341 Q908.518 74.7292 908.518 74.2783 Q908.518 73.4585 908.805 73.0896 Q909.133 72.7207 909.502 72.6797 Q909.87 72.6387 910.772 72.6387 Q912.822 72.6387 914.051 72.5158 Q915.281 72.3928 916.06 72.2288 Q916.88 72.0239 917.29 71.45 Q917.74 70.8762 917.945 70.3843 Q918.15 69.8515 918.437 68.6628 L929.668 23.5746 Q929.996 22.2219 929.996 22.017 Q929.996 21.2382 929.504 21.0332 Q929.053 20.7873 927.742 20.6643 L924.545 20.5004 Q923.561 20.5004 923.151 20.4594 Q922.782 20.4184 922.495 20.2135 Q922.208 20.0085 922.208 19.5576 Q922.208 18.4099 922.7 18.164 Q923.233 17.8771 924.627 17.8771 L952.827 17.8771 Q960.082 17.8771 964.263 21.2382 Q968.444 24.5583 968.444 29.477 M960.82 29.1491 Q960.82 27.5915 960.41 26.1979 Q960 24.8043 959.017 23.4516 Q958.074 22.099 956.188 21.3202 Q954.303 20.5004 951.68 20.5004 L940.817 20.5004 Q938.153 20.5004 937.497 20.9922 Q936.882 21.4431 936.309 23.6975 L931.103 44.4791 L943.359 44.4791 Q947.089 44.4791 950.368 43.1265 Q953.688 41.7738 955.942 39.6014 Q958.197 37.388 959.509 34.6417 Q960.82 31.8954 960.82 29.1491 M956.106 56.161 Q956.106 54.9314 955.901 53.7427 Q955.697 52.554 955.041 51.1604 Q954.385 49.7667 953.36 48.742 Q952.335 47.7173 950.532 47.0204 Q948.769 46.3236 946.474 46.3236 L930.611 46.3236 L924.791 69.7695 Q924.381 71.2861 924.381 71.696 Q924.381 72.1469 924.586 72.3108 Q924.832 72.4338 925.487 72.5158 Q926.225 72.6387 927.332 72.6387 L938.727 72.6387 Q942.334 72.6387 945.613 71.2451 Q948.892 69.8105 951.147 67.5151 Q953.442 65.2197 954.754 62.2275 Q956.106 59.2352 956.106 56.161 Z" fill="#000000" fill-rule="nonzero" fill-opacity="1" /><path clip-path="url(#clip910)" d="M1010.58 52.3081 Q1010.58 56.7759 1008.61 61.2027 Q1006.64 65.5886 1003.48 68.8677 Q1000.37 72.1059 996.27 74.1553 Q992.171 76.1638 988.073 76.1638 Q982.211 76.1638 978.399 72.1879 Q974.628 68.1709 974.628 61.9405 Q974.628 56.1201 977.866 50.5865 Q981.145 45.012 986.392 41.5689 Q991.639 38.1258 997.131 38.1258 Q1002.91 38.1258 1006.72 42.0197 Q1010.58 45.9137 1010.58 52.3081 M1004.43 49.0289 Q1004.43 45.053 1002.5 42.5116 Q1000.57 39.9703 997.049 39.9703 Q996.024 39.9703 994.836 40.2982 Q993.647 40.5851 992.089 41.3639 Q990.573 42.1427 988.851 43.7823 Q987.171 45.3809 985.695 47.6763 Q983.769 50.7095 982.293 56.284 Q980.858 61.8176 980.858 65.1377 Q980.858 69.7285 982.99 72.0239 Q985.121 74.2783 988.155 74.2783 Q991.106 74.2783 994.221 72.2288 Q997.377 70.1384 999.55 66.5723 Q1001.72 62.8833 1003.07 57.4727 Q1004.43 52.0211 1004.43 49.0289 Z" fill="#000000" fill-rule="nonzero" fill-opacity="1" /><path clip-path="url(#clip910)" d="M1053.19 43.6593 Q1053.19 45.9547 1051.76 47.2664 Q1050.32 48.537 1048.69 48.537 Q1047.13 48.537 1046.31 47.6353 Q1045.49 46.7335 1045.49 45.5858 Q1045.49 44.0282 1046.64 42.6756 Q1047.78 41.3229 1049.5 41.036 Q1047.82 39.9703 1045.32 39.9703 Q1043.68 39.9703 1042.25 40.8311 Q1040.86 41.6918 1040 42.7985 Q1039.18 43.9053 1038.44 45.5038 Q1037.74 47.0614 1037.45 48.0042 Q1037.21 48.9059 1037 49.8897 L1034.13 61.3667 Q1032.74 66.8183 1032.74 68.7448 Q1032.74 71.1221 1033.89 72.7207 Q1035.04 74.2783 1037.33 74.2783 Q1038.23 74.2783 1039.26 74.0324 Q1040.28 73.7454 1041.59 73.0076 Q1042.95 72.2288 1044.14 71.0811 Q1045.36 69.8925 1046.55 67.884 Q1047.74 65.8755 1048.52 63.2932 Q1048.77 62.3914 1049.59 62.3914 Q1050.61 62.3914 1050.61 63.2112 Q1050.61 63.908 1050.04 65.3836 Q1049.5 66.8183 1048.32 68.7038 Q1047.17 70.5483 1045.65 72.2288 Q1044.14 73.8684 1041.88 75.0161 Q1039.63 76.1638 1037.17 76.1638 Q1033.64 76.1638 1031.31 74.2783 Q1028.97 72.3928 1028.11 69.7695 Q1027.9 70.1384 1027.62 70.6303 Q1027.33 71.1221 1026.47 72.2288 Q1025.65 73.2946 1024.71 74.1144 Q1023.76 74.8931 1022.29 75.508 Q1020.85 76.1638 1019.3 76.1638 Q1017.33 76.1638 1015.57 75.59 Q1013.84 75.0161 1012.61 73.7045 Q1011.38 72.3928 1011.38 70.5893 Q1011.38 68.5808 1012.74 67.1872 Q1014.13 65.7525 1016.02 65.7525 Q1017.21 65.7525 1018.15 66.4494 Q1019.13 67.1462 1019.13 68.6628 Q1019.13 70.3433 1017.98 71.614 Q1016.84 72.8847 1015.2 73.2126 Q1016.88 74.2783 1019.38 74.2783 Q1022.08 74.2783 1024.21 71.9009 Q1026.35 69.5236 1027.37 65.5476 Q1029.91 55.9971 1030.9 51.7342 Q1031.88 47.4303 1031.88 45.5858 Q1031.88 43.8643 1031.43 42.6756 Q1030.98 41.4869 1030.2 40.954 Q1029.46 40.3802 1028.76 40.1752 Q1028.11 39.9703 1027.37 39.9703 Q1026.14 39.9703 1024.75 40.4622 Q1023.39 40.954 1021.76 42.1017 Q1020.16 43.2084 1018.64 45.5038 Q1017.12 47.7992 1016.1 50.9554 Q1015.89 51.8982 1014.99 51.8982 Q1014.01 51.8572 1014.01 51.0374 Q1014.01 50.3406 1014.54 48.9059 Q1015.11 47.4303 1016.26 45.5858 Q1017.45 43.7413 1018.97 42.1017 Q1020.53 40.4212 1022.78 39.2735 Q1025.08 38.1258 1027.53 38.1258 Q1028.64 38.1258 1029.71 38.3717 Q1030.81 38.5766 1032.13 39.1915 Q1033.48 39.8063 1034.67 41.159 Q1035.86 42.5116 1036.59 44.4791 Q1037.09 43.5364 1037.74 42.6346 Q1038.44 41.7328 1039.5 40.6261 Q1040.61 39.4784 1042.13 38.8226 Q1043.68 38.1258 1045.41 38.1258 Q1047.09 38.1258 1048.73 38.5766 Q1050.37 38.9865 1051.76 40.3392 Q1053.19 41.6508 1053.19 43.6593 Z" fill="#000000" fill-rule="nonzero" fill-opacity="1" /><path clip-path="url(#clip910)" d="M1129.94 30.5427 Q1129.94 35.1335 1126.54 39.3554 Q1123.18 43.5773 1117.68 46.1597 Q1112.23 48.701 1106.37 48.701 L1092.11 48.701 L1086.9 69.6875 Q1086.86 69.8105 1086.74 70.3433 Q1086.61 70.8352 1086.61 71.1221 Q1086.61 72.1469 1087.89 72.3928 Q1089.2 72.6387 1092.11 72.6387 Q1093.99 72.6387 1094.28 72.9667 Q1094.44 73.1716 1094.44 73.5405 Q1094.44 74.1144 1094.28 74.5242 Q1094.12 74.8931 1093.79 75.0161 Q1093.5 75.1391 1093.3 75.1801 Q1093.09 75.2211 1092.76 75.2211 Q1091.9 75.2211 1090.06 75.1391 Q1088.25 75.0571 1087.31 75.0571 L1081.94 74.9751 L1071.28 75.2211 Q1070.01 75.2211 1070.01 74.1963 Q1070.01 73.4175 1070.34 73.0896 Q1070.67 72.7207 1071.04 72.6797 Q1071.41 72.6387 1072.35 72.6387 Q1074.4 72.6387 1075.63 72.5158 Q1076.86 72.3928 1077.64 72.2288 Q1078.46 72.0239 1078.87 71.45 Q1079.32 70.8762 1079.52 70.3843 Q1079.73 69.8515 1080.02 68.6628 L1091.25 23.5746 Q1091.57 22.2219 1091.57 22.017 Q1091.57 21.3202 1091.16 21.0742 Q1090.8 20.7873 1089.73 20.6643 Q1087.68 20.5004 1086.12 20.5004 Q1085.1 20.5004 1084.69 20.4594 Q1084.32 20.4184 1083.99 20.2135 Q1083.7 19.9675 1083.7 19.4756 Q1083.7 18.6968 1084.03 18.3689 Q1084.4 18 1084.81 17.959 Q1085.22 17.8771 1086.2 17.8771 L1113.42 17.8771 Q1121.25 17.8771 1125.6 21.6071 Q1129.94 25.3371 1129.94 30.5427 M1122.15 28.5343 Q1122.15 20.5004 1110.72 20.5004 L1102.68 20.5004 Q1100.02 20.5004 1099.36 20.9922 Q1098.71 21.4431 1098.13 23.6975 L1092.43 46.5286 L1104.28 46.5286 Q1112.23 46.5286 1117.19 42.0607 Q1119.45 40.0113 1120.8 35.7484 Q1122.15 31.4855 1122.15 28.5343 Z" fill="#000000" fill-rule="nonzero" fill-opacity="1" /><path clip-path="url(#clip910)" d="M1152.4 17.8771 L1140.31 66.4084 Q1139.81 68.3349 1139.81 70.4253 Q1139.81 74.2783 1142.36 74.2783 Q1143.54 74.2783 1144.53 73.4995 Q1145.51 72.6797 1146.25 71.0811 Q1147.03 69.4416 1147.52 67.884 Q1148.05 66.3264 1148.71 63.908 Q1148.91 62.9653 1149.12 62.6783 Q1149.32 62.3914 1149.9 62.3914 Q1150.92 62.3914 1150.92 63.2112 Q1149.9 68.2529 1148.38 71.45 Q1146.17 76.1638 1142.07 76.1638 Q1138.99 76.1638 1136.7 74.0324 Q1134.44 71.8599 1134.44 68.4168 Q1134.44 67.1052 1134.85 65.5476 L1145.43 23.5746 L1145.72 21.935 Q1145.72 21.4841 1145.55 21.2382 Q1145.39 20.9922 1144.41 20.7463 Q1143.46 20.5004 1141.58 20.5004 Q1140.8 20.5004 1140.43 20.4594 Q1140.1 20.4184 1139.77 20.2135 Q1139.49 20.0085 1139.49 19.5576 Q1139.49 18.8198 1139.77 18.4099 Q1140.1 18 1140.35 17.9181 Q1140.59 17.8361 1141.09 17.7951 Q1141.78 17.7541 1144.12 17.5491 Q1146.45 17.3032 1148.46 17.1393 Q1150.47 16.9753 1151.33 16.9753 Q1151.82 16.9753 1152.07 17.2212 Q1152.36 17.4262 1152.4 17.6721 L1152.4 17.8771 Z" fill="#000000" fill-rule="nonzero" fill-opacity="1" /><path clip-path="url(#clip910)" d="M1197.84 52.3081 Q1197.84 56.7759 1195.88 61.2027 Q1193.91 65.5886 1190.75 68.8677 Q1187.64 72.1059 1183.54 74.1553 Q1179.44 76.1638 1175.34 76.1638 Q1169.48 76.1638 1165.67 72.1879 Q1161.9 68.1709 1161.9 61.9405 Q1161.9 56.1201 1165.13 50.5865 Q1168.41 45.012 1173.66 41.5689 Q1178.91 38.1258 1184.4 38.1258 Q1190.18 38.1258 1193.99 42.0197 Q1197.84 45.9137 1197.84 52.3081 M1191.7 49.0289 Q1191.7 45.053 1189.77 42.5116 Q1187.84 39.9703 1184.32 39.9703 Q1183.29 39.9703 1182.1 40.2982 Q1180.92 40.5851 1179.36 41.3639 Q1177.84 42.1427 1176.12 43.7823 Q1174.44 45.3809 1172.96 47.6763 Q1171.04 50.7095 1169.56 56.284 Q1168.13 61.8176 1168.13 65.1377 Q1168.13 69.7285 1170.26 72.0239 Q1172.39 74.2783 1175.42 74.2783 Q1178.37 74.2783 1181.49 72.2288 Q1184.65 70.1384 1186.82 66.5723 Q1188.99 62.8833 1190.34 57.4727 Q1191.7 52.0211 1191.7 49.0289 Z" fill="#000000" fill-rule="nonzero" fill-opacity="1" /><path clip-path="url(#clip910)" d="M1224.69 39.9703 Q1224.69 41.118 1224.15 41.4049 Q1223.62 41.6508 1222.14 41.6508 L1214.27 41.6508 L1208.04 66.4084 Q1207.55 68.5808 1207.55 70.4253 Q1207.55 72.4748 1208.17 73.3765 Q1208.82 74.2783 1210.18 74.2783 Q1212.84 74.2783 1215.71 71.8599 Q1218.62 69.4416 1221.08 63.5391 Q1221.41 62.7603 1221.57 62.5964 Q1221.78 62.3914 1222.31 62.3914 Q1223.33 62.3914 1223.33 63.2112 Q1223.33 63.4981 1222.76 64.8098 Q1222.23 66.1214 1221.04 68.0479 Q1219.89 69.9744 1218.37 71.778 Q1216.9 73.5815 1214.64 74.8931 Q1212.39 76.1638 1209.97 76.1638 Q1206.57 76.1638 1204.4 73.9914 Q1202.26 71.819 1202.26 68.4168 Q1202.26 67.3101 1203.13 63.7851 Q1203.99 60.219 1208.66 41.6508 L1201.24 41.6508 Q1200.21 41.6508 1199.81 41.6099 Q1199.44 41.5689 1199.15 41.3639 Q1198.9 41.118 1198.9 40.6261 Q1198.9 39.8473 1199.23 39.5194 Q1199.56 39.1505 1199.97 39.1095 Q1200.42 39.0275 1201.44 39.0275 L1209.31 39.0275 L1212.59 25.706 Q1212.92 24.3944 1213.74 23.6566 Q1214.6 22.8778 1215.09 22.7958 Q1215.59 22.6728 1215.95 22.6728 Q1217.06 22.6728 1217.72 23.2876 Q1218.37 23.8615 1218.37 24.9272 Q1218.37 25.5011 1214.93 39.0275 L1222.31 39.0275 Q1223.25 39.0275 1223.62 39.0685 Q1224.03 39.1095 1224.36 39.3145 Q1224.69 39.5194 1224.69 39.9703 Z" fill="#000000" fill-rule="nonzero" fill-opacity="1" /><path clip-path="url(#clip910)" d="M1275.94 52.3081 Q1275.94 56.7759 1273.97 61.2027 Q1272.01 65.5886 1268.85 68.8677 Q1265.74 72.1059 1261.64 74.1553 Q1257.54 76.1638 1253.44 76.1638 Q1247.58 76.1638 1243.77 72.1879 Q1239.99 68.1709 1239.99 61.9405 Q1239.99 56.1201 1243.23 50.5865 Q1246.51 45.012 1251.76 41.5689 Q1257.01 38.1258 1262.5 38.1258 Q1268.28 38.1258 1272.09 42.0197 Q1275.94 45.9137 1275.94 52.3081 M1269.79 49.0289 Q1269.79 45.053 1267.87 42.5116 Q1265.94 39.9703 1262.42 39.9703 Q1261.39 39.9703 1260.2 40.2982 Q1259.01 40.5851 1257.46 41.3639 Q1255.94 42.1427 1254.22 43.7823 Q1252.54 45.3809 1251.06 47.6763 Q1249.14 50.7095 1247.66 56.284 Q1246.23 61.8176 1246.23 65.1377 Q1246.23 69.7285 1248.36 72.0239 Q1250.49 74.2783 1253.52 74.2783 Q1256.47 74.2783 1259.59 72.2288 Q1262.74 70.1384 1264.92 66.5723 Q1267.09 62.8833 1268.44 57.4727 Q1269.79 52.0211 1269.79 49.0289 Z" fill="#000000" fill-rule="nonzero" fill-opacity="1" /><path clip-path="url(#clip910)" d="M1322.16 21.812 Q1322.16 24.0664 1320.72 25.4601 Q1319.33 26.8537 1317.57 26.8537 Q1316.3 26.8537 1315.35 26.0749 Q1314.45 25.2961 1314.45 23.9435 Q1314.45 22.5498 1315.52 21.0742 Q1316.58 19.5986 1319 19.3937 Q1317.4 17.8771 1314.86 17.8771 Q1313.59 17.8771 1312.52 18.6968 Q1311.5 19.4756 1310.93 20.7463 Q1310.31 22.058 1308.92 29.477 Q1308.47 31.8954 1308.06 34.2318 Q1307.65 36.5682 1307.15 39.0275 L1314.12 39.0275 Q1315.02 39.0275 1315.39 39.0685 Q1315.76 39.1095 1316.05 39.3145 Q1316.38 39.5194 1316.38 39.9703 Q1316.38 41.118 1315.84 41.4049 Q1315.35 41.6508 1313.88 41.6508 L1306.66 41.6508 L1301.62 68.2529 Q1301.5 69.0317 1300.97 71.491 Q1300.47 73.9094 1299.28 77.8854 Q1298.1 81.9023 1296.91 84.2797 Q1296.25 85.6323 1295.39 86.903 Q1294.57 88.2147 1293.38 89.5263 Q1292.19 90.838 1290.64 91.6168 Q1289.08 92.4366 1287.44 92.4366 Q1284.65 92.4366 1282.48 90.879 Q1280.31 89.3214 1280.31 86.6571 Q1280.31 84.4027 1281.7 83.009 Q1283.13 81.6154 1284.9 81.6154 Q1286.17 81.6154 1287.07 82.3942 Q1288.01 83.173 1288.01 84.5256 Q1288.01 85.0995 1287.81 85.7553 Q1287.6 86.4111 1287.15 87.1489 Q1286.7 87.9277 1285.72 88.4606 Q1284.73 88.9935 1283.38 89.0754 Q1284.98 90.592 1287.44 90.592 Q1288.22 90.592 1288.91 90.2641 Q1289.61 89.9772 1290.18 89.2394 Q1290.8 88.5016 1291.25 87.7638 Q1291.7 87.067 1292.15 85.7143 Q1292.6 84.4027 1292.89 83.4189 Q1293.18 82.4352 1293.55 80.6726 Q1293.96 78.9101 1294.16 77.8444 Q1294.37 76.8196 1294.73 74.8112 L1301.01 41.6508 L1295.47 41.6508 Q1294.49 41.6508 1294.08 41.6099 Q1293.71 41.5689 1293.42 41.3639 Q1293.14 41.118 1293.14 40.6261 Q1293.14 39.8473 1293.46 39.5194 Q1293.83 39.1505 1294.24 39.1095 Q1294.65 39.0275 1295.64 39.0275 L1301.46 39.0275 Q1303.42 28.6572 1304.2 25.87 Q1305.11 22.9187 1306.5 20.8693 Q1307.89 18.7788 1309.45 17.7951 Q1311.01 16.8113 1312.28 16.4424 Q1313.59 16.0325 1314.86 16.0325 Q1317.73 16.0325 1319.94 17.5901 Q1322.16 19.1067 1322.16 21.812 Z" fill="#000000" fill-rule="nonzero" fill-opacity="1" /><path clip-path="url(#clip910)" d="M1382.9 28.7802 Q1382.9 27.4276 1382.53 26.3209 Q1382.2 25.1732 1381.67 24.3944 Q1381.18 23.5746 1380.24 22.9597 Q1379.29 22.3039 1378.52 21.894 Q1377.74 21.4841 1376.42 21.2382 Q1375.11 20.9513 1374.25 20.8283 Q1373.39 20.6643 1371.92 20.5824 Q1370.44 20.5004 1369.7 20.5004 Q1369.01 20.5004 1367.61 20.5004 Q1363.23 20.5004 1362.49 20.5824 Q1361.38 20.7463 1360.97 21.4021 Q1360.56 22.017 1360.15 23.6975 L1354.7 45.5858 L1364.09 45.5858 Q1369.21 45.5858 1372.74 44.1512 Q1376.26 42.7166 1378.27 40.7081 Q1380.48 38.4947 1381.67 34.9286 Q1382.9 31.3625 1382.9 28.7802 M1392.04 67.4331 Q1392.04 67.884 1391.67 68.9087 Q1391.34 69.9334 1390.52 71.3681 Q1389.71 72.7617 1388.6 74.0324 Q1387.49 75.303 1385.73 76.1638 Q1383.97 77.0656 1381.96 77.0656 Q1381.47 77.0656 1380.97 77.0246 Q1380.48 77.0246 1379.25 76.8196 Q1378.06 76.6557 1377.08 76.3278 Q1376.1 76.0408 1374.87 75.344 Q1373.64 74.6882 1372.78 73.7864 Q1371.96 72.8437 1371.38 71.3681 Q1370.81 69.8515 1370.81 68.0069 Q1370.81 66.3674 1372.16 60.8748 Q1373.35 56.202 1373.35 55.0543 Q1373.35 53.7837 1372.94 52.595 Q1372.57 51.4063 1371.63 50.1766 Q1370.73 48.9469 1368.8 48.2091 Q1366.87 47.4303 1364.17 47.4303 L1354.21 47.4303 L1348.63 69.6875 Q1348.63 69.7285 1348.51 70.3023 Q1348.39 70.8352 1348.39 71.1221 Q1348.39 71.655 1348.72 71.9829 Q1349.08 72.3108 1349.99 72.4748 Q1350.89 72.5977 1351.59 72.6387 Q1352.32 72.6387 1353.84 72.6387 Q1355.73 72.6387 1356.05 72.9667 Q1356.22 73.1716 1356.22 73.5405 Q1356.22 74.1144 1356.05 74.5242 Q1355.93 74.8931 1355.6 75.0161 Q1355.32 75.1391 1355.11 75.1801 Q1354.91 75.2211 1354.54 75.2211 L1343.88 74.9751 L1333.3 75.2211 Q1332.12 75.2211 1332.12 74.2783 Q1332.12 73.4585 1332.4 73.1306 Q1332.69 72.7617 1333.06 72.7207 Q1333.43 72.6387 1334.37 72.6387 Q1336.42 72.6387 1337.65 72.5158 Q1338.88 72.3928 1339.66 72.2288 Q1340.48 72.0239 1340.89 71.45 Q1341.34 70.8762 1341.54 70.3843 Q1341.75 69.8515 1342.03 68.6628 L1353.27 23.5746 Q1353.59 22.2219 1353.59 22.017 Q1353.59 21.2382 1353.1 21.0332 Q1352.65 20.7873 1351.34 20.6643 L1348.14 20.5004 Q1347.16 20.5004 1346.75 20.4594 Q1346.38 20.4184 1346.09 20.2135 Q1345.81 20.0085 1345.81 19.5576 Q1345.81 18.4099 1346.3 18.164 Q1346.79 17.8771 1348.22 17.8771 L1372.16 17.8771 Q1380.32 17.8771 1385.48 21.4431 Q1390.69 25.0092 1390.69 30.4608 Q1390.69 32.9201 1389.58 35.2155 Q1388.48 37.5109 1386.63 39.3145 Q1384.83 41.118 1382.41 42.6346 Q1379.99 44.1102 1377.41 45.1349 Q1374.87 46.1187 1372.24 46.6925 Q1373.39 47.1024 1374.46 47.7173 Q1375.56 48.3321 1376.96 49.4798 Q1378.39 50.6275 1379.25 52.472 Q1380.11 54.3165 1380.11 56.5709 Q1380.11 58.1695 1379.79 60.5469 Q1378.97 67.3101 1378.97 70.0974 Q1378.97 72.7617 1379.66 73.9914 Q1380.36 75.2211 1382.33 75.2211 Q1384.25 75.2211 1386.39 73.4995 Q1388.56 71.737 1389.95 67.5971 Q1390.28 66.4084 1391.06 66.4084 Q1391.1 66.4084 1391.14 66.4084 Q1391.22 66.4084 1391.39 66.4903 Q1391.55 66.5313 1391.67 66.6543 Q1391.84 66.7363 1391.92 66.9412 Q1392.04 67.1462 1392.04 67.4331 Z" fill="#000000" fill-rule="nonzero" fill-opacity="1" /><path clip-path="url(#clip910)" d="M1427.35 65.5066 Q1427.68 65.8755 1427.68 66.2444 Q1427.68 66.6133 1426.86 67.679 Q1426.08 68.7448 1424.4 70.1794 Q1422.72 71.614 1420.55 72.9667 Q1418.37 74.3193 1415.18 75.2211 Q1411.98 76.1638 1408.62 76.1638 Q1402.59 76.1638 1398.99 71.8599 Q1395.42 67.5561 1395.42 60.9568 Q1395.42 56.7349 1396.81 53.0049 Q1398.21 49.2339 1400.46 46.5696 Q1402.76 43.9053 1405.63 41.9788 Q1408.54 40.0113 1411.57 39.0685 Q1414.6 38.1258 1417.43 38.1258 Q1421.57 38.1258 1423.99 40.2162 Q1426.41 42.3067 1426.41 45.2579 Q1426.41 45.9547 1426.2 46.8155 Q1426.04 47.6763 1425.47 49.0289 Q1424.93 50.3816 1423.54 51.7342 Q1422.15 53.0459 1420.1 53.9066 Q1415.55 55.8331 1407.27 55.8331 L1402.8 55.8331 Q1401.49 61.1208 1401.49 64.5639 Q1401.49 65.9165 1401.73 67.3101 Q1401.98 68.6628 1402.63 70.3843 Q1403.33 72.1059 1404.89 73.2126 Q1406.49 74.2783 1408.78 74.2783 Q1409.52 74.2783 1410.3 74.2373 Q1411.12 74.1963 1413.17 73.7454 Q1415.26 73.2946 1417.1 72.5158 Q1418.95 71.737 1421.28 70.0564 Q1423.66 68.3349 1425.55 65.9985 Q1426.2 65.1377 1426.65 65.1377 Q1427.02 65.1377 1427.35 65.5066 M1423.62 45.2579 Q1423.62 43.0035 1421.94 41.4869 Q1420.3 39.9703 1417.43 39.9703 Q1416.53 39.9703 1415.42 40.1752 Q1414.32 40.3802 1412.47 41.241 Q1410.67 42.1017 1409.07 43.5364 Q1407.47 44.93 1405.87 47.6763 Q1404.27 50.3816 1403.33 53.9886 L1406.77 53.9886 Q1407.96 53.9886 1408.82 53.9886 Q1409.68 53.9476 1411.57 53.7837 Q1413.5 53.6197 1414.89 53.3328 Q1416.28 53.0049 1418.05 52.349 Q1419.81 51.6932 1420.92 50.8324 Q1422.06 49.9307 1422.84 48.4961 Q1423.62 47.0614 1423.62 45.2579 Z" fill="#000000" fill-rule="nonzero" fill-opacity="1" /><path clip-path="url(#clip910)" d="M1465.05 45.3399 Q1465.05 47.6353 1463.91 48.865 Q1462.76 50.0536 1461.2 50.0536 Q1459.93 50.0536 1459.23 49.3158 Q1458.58 48.578 1458.58 47.5943 Q1458.58 46.1597 1459.73 45.012 Q1460.92 43.8643 1462.64 43.8233 Q1462.06 42.3067 1460.55 41.4049 Q1459.03 40.4622 1457.68 40.2162 Q1456.37 39.9703 1455.05 39.9703 Q1452.47 39.9703 1450.5 40.7901 Q1448.54 41.6099 1447.55 42.8805 Q1446.57 44.1102 1446.12 45.2989 Q1445.67 46.4876 1445.67 47.5123 Q1445.67 48.4141 1445.87 49.1519 Q1446.12 49.8487 1446.69 50.3816 Q1447.27 50.8734 1447.68 51.2013 Q1448.13 51.5293 1449.11 51.8162 Q1450.09 52.1031 1450.5 52.2261 Q1450.91 52.3081 1452.06 52.554 Q1454.44 53.0459 1455.5 53.3328 Q1456.57 53.5787 1457.96 54.2755 Q1459.4 54.9724 1460.46 56.0791 Q1463.05 58.6614 1463.05 62.2275 Q1463.05 63.5391 1462.6 65.1377 Q1462.19 66.7363 1461 68.7448 Q1459.81 70.7532 1458 72.3518 Q1456.2 73.9504 1453.09 75.0571 Q1450.01 76.1638 1446.16 76.1638 Q1440.79 76.1638 1437.47 73.9094 Q1434.15 71.614 1434.15 68.0069 Q1434.15 65.3836 1435.58 63.949 Q1437.02 62.4734 1438.86 62.4734 Q1440.26 62.4734 1441.12 63.2522 Q1441.98 63.99 1441.98 65.3836 Q1441.98 67.2691 1440.46 68.7038 Q1438.94 70.1384 1436.69 69.8515 Q1438.62 74.2783 1446.24 74.2783 Q1449.11 74.2783 1451.32 73.5405 Q1453.58 72.7617 1454.81 71.696 Q1456.08 70.5893 1456.9 69.2366 Q1457.72 67.884 1457.96 66.8592 Q1458.25 65.8345 1458.25 65.0557 Q1458.25 63.7031 1457.72 62.6783 Q1457.18 61.6536 1456.45 61.0798 Q1455.75 60.4649 1454.4 59.9731 Q1453.09 59.4402 1452.14 59.2352 Q1451.2 59.0303 1449.52 58.7024 Q1448.74 58.5384 1448.25 58.4564 Q1447.76 58.3335 1446.73 58.0056 Q1445.75 57.6367 1445.05 57.2678 Q1444.4 56.8989 1443.54 56.243 Q1442.67 55.5872 1442.14 54.8084 Q1441.61 54.0296 1441.24 52.8819 Q1440.87 51.7342 1440.87 50.3816 Q1440.87 49.1519 1441.24 47.6763 Q1441.65 46.2007 1442.67 44.4791 Q1443.74 42.7576 1445.26 41.3639 Q1446.77 39.9703 1449.32 39.0685 Q1451.9 38.1258 1455.05 38.1258 Q1459.64 38.1258 1462.35 40.2572 Q1465.05 42.3477 1465.05 45.3399 Z" fill="#000000" fill-rule="nonzero" fill-opacity="1" /><path clip-path="url(#clip910)" d="M1492.54 22.7548 Q1492.54 24.5583 1491.07 25.911 Q1489.63 27.2226 1488.07 27.2226 Q1486.64 27.2226 1485.74 26.3618 Q1484.88 25.4601 1484.88 24.1894 Q1484.88 22.5089 1486.31 21.1152 Q1487.75 19.7216 1489.43 19.7216 Q1490.82 19.7216 1491.68 20.5824 Q1492.54 21.4431 1492.54 22.7548 M1493.28 63.2112 Q1493.28 63.5391 1492.91 64.8508 Q1492.54 66.1214 1491.64 68.0889 Q1490.78 70.0154 1489.59 71.819 Q1488.4 73.6225 1486.44 74.8931 Q1484.51 76.1638 1482.3 76.1638 Q1479.3 76.1638 1477.34 74.1963 Q1475.41 72.2288 1475.41 69.2776 Q1475.41 67.679 1477.34 62.5554 Q1482.91 47.6353 1483.12 47.0204 Q1484.06 44.6841 1484.06 42.6346 Q1484.06 41.6918 1483.85 41.118 Q1483.65 40.5031 1483.24 40.2982 Q1482.83 40.0523 1482.58 40.0113 Q1482.38 39.9703 1481.97 39.9703 Q1479.55 39.9703 1477.29 42.4296 Q1475.04 44.889 1473.48 50.3816 Q1473.15 51.4063 1472.95 51.6522 Q1472.74 51.8982 1472.13 51.8982 Q1471.11 51.8572 1471.11 51.0374 Q1471.11 50.7915 1471.39 49.8487 Q1471.68 48.865 1472.21 47.3893 Q1472.74 45.8727 1473.69 44.3151 Q1474.63 42.7166 1475.78 41.3229 Q1476.97 39.9293 1478.65 39.0275 Q1480.33 38.1258 1482.21 38.1258 Q1485.29 38.1258 1487.17 40.1342 Q1489.1 42.1017 1489.1 45.012 Q1489.1 46.6105 1487.99 49.4388 Q1486.64 53.1278 1486.15 54.3165 L1482.87 63.1292 Q1481.68 66.3264 1481.31 67.3101 Q1480.98 68.2529 1480.7 69.4006 Q1480.45 70.5073 1480.45 71.532 Q1480.45 72.9667 1480.9 73.6225 Q1481.39 74.2783 1482.46 74.2783 Q1485.41 74.2783 1487.58 71.3681 Q1489.76 68.4168 1491.03 63.908 Q1491.07 63.7851 1491.11 63.5801 Q1491.44 62.5554 1491.76 62.4324 Q1491.93 62.3914 1492.26 62.3914 Q1493.28 62.3914 1493.28 63.2112 Z" fill="#000000" fill-rule="nonzero" fill-opacity="1" /><path clip-path="url(#clip910)" d="M1542.08 17.8771 L1529.99 66.4084 Q1529.5 68.5808 1529.5 70.4253 Q1529.5 74.2783 1532 74.2783 Q1533.23 74.2783 1534.21 73.4995 Q1535.2 72.7207 1535.98 71.0811 Q1536.75 69.4416 1537.25 67.925 Q1537.74 66.3674 1538.39 63.908 Q1538.6 62.9243 1538.76 62.6783 Q1538.97 62.3914 1539.54 62.3914 Q1540.57 62.3914 1540.57 63.2112 Q1539.46 68.4988 1538.02 71.532 Q1535.73 76.1638 1531.84 76.1638 Q1528.88 76.1638 1526.79 74.3603 Q1524.7 72.5568 1524.21 69.8515 Q1518.84 76.1638 1513.27 76.1638 Q1508.35 76.1638 1505.23 72.4338 Q1502.12 68.6628 1502.12 62.7193 Q1502.12 56.7349 1505.07 50.9964 Q1508.06 45.2579 1512.78 41.6918 Q1517.49 38.1258 1522.33 38.1258 Q1527.45 38.1258 1530.07 43.4954 L1535.11 23.5746 L1535.36 21.935 Q1535.36 21.4431 1535.16 21.1972 Q1534.99 20.9103 1534.01 20.7053 Q1533.06 20.5004 1531.18 20.5004 Q1530.4 20.5004 1530.03 20.4594 Q1529.7 20.4184 1529.42 20.2135 Q1529.13 19.9675 1529.13 19.4756 Q1529.13 18.041 1530.32 17.8771 Q1538.19 16.9753 1540.98 16.9753 Q1541.47 16.9753 1541.75 17.2212 Q1542.04 17.4262 1542.04 17.6721 L1542.08 17.8771 M1529.05 47.3484 Q1529.05 46.9794 1528.76 45.9547 Q1528.47 44.93 1527.82 43.4954 Q1527.16 42.0607 1525.73 41.036 Q1524.33 39.9703 1522.45 39.9703 Q1519.91 39.9703 1517.24 42.1427 Q1514.62 44.3151 1512.69 48.0042 Q1511.22 50.9554 1509.62 57.1448 Q1508.06 63.3342 1508.06 66.4084 Q1508.06 68.2939 1508.47 69.9744 Q1508.92 71.614 1510.19 72.9667 Q1511.46 74.2783 1513.43 74.2783 Q1518.23 74.2783 1522.94 68.3349 Q1523.84 67.3101 1524.05 66.9002 Q1524.29 66.4494 1524.62 65.2197 L1528.8 48.783 Q1529.05 47.5533 1529.05 47.3484 Z" fill="#000000" fill-rule="nonzero" fill-opacity="1" /><path clip-path="url(#clip910)" d="M1586.79 63.2112 Q1585.73 68.4988 1584.29 71.532 Q1581.96 76.1638 1578.06 76.1638 Q1575.36 76.1638 1573.31 74.6472 Q1571.3 73.0896 1570.6 70.5073 Q1569.82 71.532 1569.13 72.2288 Q1568.47 72.9257 1567.2 73.9914 Q1565.93 75.0161 1564.21 75.59 Q1562.53 76.1638 1560.6 76.1638 Q1559.13 76.1638 1557.77 75.8769 Q1556.42 75.631 1554.99 74.9341 Q1553.59 74.1963 1552.57 73.0896 Q1551.58 71.9829 1550.93 70.1794 Q1550.27 68.3759 1550.27 66.0805 Q1550.27 63.2112 1551.38 59.3172 Q1552.53 55.4232 1555.15 48.4551 Q1556.58 44.766 1556.58 42.7166 Q1556.58 41.7738 1556.38 41.159 Q1556.17 40.5441 1555.76 40.3392 Q1555.4 40.0933 1555.15 40.0523 Q1554.9 39.9703 1554.49 39.9703 Q1551.95 39.9703 1549.74 42.5526 Q1547.53 45.1349 1546.01 50.3816 Q1545.68 51.4063 1545.48 51.6522 Q1545.27 51.8982 1544.66 51.8982 Q1543.63 51.8572 1543.63 51.0374 Q1543.63 50.7095 1544 49.4388 Q1544.37 48.1271 1545.23 46.2007 Q1546.13 44.2332 1547.36 42.4706 Q1548.59 40.6671 1550.52 39.3964 Q1552.49 38.1258 1554.74 38.1258 Q1557.81 38.1258 1559.7 40.1342 Q1561.63 42.1017 1561.63 45.012 Q1561.63 46.8155 1560.19 50.2996 Q1555.64 62.3914 1555.64 67.4331 Q1555.64 74.2783 1560.85 74.2783 Q1562.57 74.2783 1564.17 73.5815 Q1565.81 72.8847 1566.87 71.9009 Q1567.94 70.9172 1568.76 69.8515 Q1569.62 68.7857 1569.99 68.0889 Q1570.4 67.3921 1570.44 67.2282 L1576.71 41.9788 Q1576.96 40.995 1577.41 40.3392 Q1577.9 39.6424 1578.47 39.3964 Q1579.05 39.1505 1579.37 39.1095 Q1579.7 39.0275 1579.99 39.0275 Q1581.01 39.0275 1581.71 39.6424 Q1582.45 40.2572 1582.45 41.3229 Q1582.45 41.5279 1582.2 42.5116 Q1582 43.4544 1581.67 44.848 Q1581.34 46.2007 1581.18 46.9385 Q1579.87 52.1031 1579.74 52.636 L1577.41 61.6946 Q1577.28 62.2275 1576.87 63.949 Q1576.51 65.6706 1576.3 66.5723 Q1576.1 67.4331 1575.89 68.6218 Q1575.73 69.7695 1575.73 70.4253 Q1575.73 72.4748 1576.34 73.3765 Q1576.96 74.2783 1578.31 74.2783 Q1579.58 74.2783 1580.56 73.4175 Q1581.59 72.5158 1582.37 70.7942 Q1583.15 69.0317 1583.6 67.5971 Q1584.05 66.1624 1584.62 63.908 Q1584.83 62.9243 1584.99 62.6783 Q1585.2 62.3914 1585.77 62.3914 Q1586.79 62.3914 1586.79 63.2112 Z" fill="#000000" fill-rule="nonzero" fill-opacity="1" /><path clip-path="url(#clip910)" d="M1630.29 63.2112 Q1629.18 68.4988 1627.75 71.532 Q1625.45 76.1638 1621.56 76.1638 Q1618.61 76.1638 1616.52 74.3603 Q1614.43 72.5568 1613.94 69.8515 Q1608.57 76.1638 1602.99 76.1638 Q1598.07 76.1638 1594.96 72.4338 Q1591.84 68.6628 1591.84 62.7193 Q1591.84 56.7349 1594.79 50.9964 Q1597.79 45.2579 1602.5 41.6918 Q1607.21 38.1258 1612.05 38.1258 Q1617.17 38.1258 1619.8 43.4954 Q1620 42.0197 1620.94 40.913 Q1621.89 39.8063 1623.32 39.8063 Q1624.43 39.8063 1625.08 40.4212 Q1625.74 40.995 1625.74 42.0607 Q1625.74 42.5936 1625.17 44.93 L1622.13 56.6529 L1620.29 64.2359 Q1619.59 67.0232 1619.39 68.0479 Q1619.22 69.0727 1619.22 70.4253 Q1619.22 74.2783 1621.72 74.2783 Q1622.95 74.2783 1623.94 73.4995 Q1624.92 72.7207 1625.7 71.0811 Q1626.48 69.4416 1626.97 67.925 Q1627.46 66.3674 1628.12 63.908 Q1628.32 62.9243 1628.49 62.6783 Q1628.69 62.3914 1629.27 62.3914 Q1630.29 62.3914 1630.29 63.2112 M1618.77 47.3484 Q1618.77 46.9794 1618.49 45.9547 Q1618.2 44.93 1617.54 43.4954 Q1616.89 42.0607 1615.45 41.036 Q1614.06 39.9703 1612.17 39.9703 Q1609.63 39.9703 1606.97 42.1427 Q1604.34 44.3151 1602.42 48.0042 Q1600.94 50.9554 1599.34 57.1448 Q1597.79 63.3342 1597.79 66.4084 Q1597.79 68.2939 1598.2 69.9744 Q1598.65 71.614 1599.92 72.9667 Q1601.19 74.2783 1603.16 74.2783 Q1607.95 74.2783 1612.66 68.3349 Q1613.57 67.3101 1613.77 66.9002 Q1614.02 66.4494 1614.35 65.2197 L1618.53 48.783 Q1618.77 47.5533 1618.77 47.3484 Z" fill="#000000" fill-rule="nonzero" fill-opacity="1" /><path clip-path="url(#clip910)" d="M1653.42 17.8771 L1641.33 66.4084 Q1640.84 68.3349 1640.84 70.4253 Q1640.84 74.2783 1643.38 74.2783 Q1644.57 74.2783 1645.55 73.4995 Q1646.54 72.6797 1647.28 71.0811 Q1648.06 69.4416 1648.55 67.884 Q1649.08 66.3264 1649.74 63.908 Q1649.94 62.9653 1650.15 62.6783 Q1650.35 62.3914 1650.92 62.3914 Q1651.95 62.3914 1651.95 63.2112 Q1650.92 68.2529 1649.41 71.45 Q1647.19 76.1638 1643.1 76.1638 Q1640.02 76.1638 1637.73 74.0324 Q1635.47 71.8599 1635.47 68.4168 Q1635.47 67.1052 1635.88 65.5476 L1646.46 23.5746 L1646.74 21.935 Q1646.74 21.4841 1646.58 21.2382 Q1646.42 20.9922 1645.43 20.7463 Q1644.49 20.5004 1642.6 20.5004 Q1641.82 20.5004 1641.46 20.4594 Q1641.13 20.4184 1640.8 20.2135 Q1640.51 20.0085 1640.51 19.5576 Q1640.51 18.8198 1640.8 18.4099 Q1641.13 18 1641.37 17.9181 Q1641.62 17.8361 1642.11 17.7951 Q1642.81 17.7541 1645.14 17.5491 Q1647.48 17.3032 1649.49 17.1393 Q1651.5 16.9753 1652.36 16.9753 Q1652.85 16.9753 1653.1 17.2212 Q1653.38 17.4262 1653.42 17.6721 L1653.42 17.8771 Z" fill="#000000" fill-rule="nonzero" fill-opacity="1" /><path clip-path="url(#clip910)" d="M1692.15 45.3399 Q1692.15 47.6353 1691 48.865 Q1689.85 50.0536 1688.3 50.0536 Q1687.03 50.0536 1686.33 49.3158 Q1685.67 48.578 1685.67 47.5943 Q1685.67 46.1597 1686.82 45.012 Q1688.01 43.8643 1689.73 43.8233 Q1689.16 42.3067 1687.64 41.4049 Q1686.12 40.4622 1684.77 40.2162 Q1683.46 39.9703 1682.15 39.9703 Q1679.57 39.9703 1677.6 40.7901 Q1675.63 41.6099 1674.65 42.8805 Q1673.66 44.1102 1673.21 45.2989 Q1672.76 46.4876 1672.76 47.5123 Q1672.76 48.4141 1672.97 49.1519 Q1673.21 49.8487 1673.79 50.3816 Q1674.36 50.8734 1674.77 51.2013 Q1675.22 51.5293 1676.2 51.8162 Q1677.19 52.1031 1677.6 52.2261 Q1678.01 52.3081 1679.16 52.554 Q1681.53 53.0459 1682.6 53.3328 Q1683.66 53.5787 1685.06 54.2755 Q1686.49 54.9724 1687.56 56.0791 Q1690.14 58.6614 1690.14 62.2275 Q1690.14 63.5391 1689.69 65.1377 Q1689.28 66.7363 1688.09 68.7448 Q1686.9 70.7532 1685.1 72.3518 Q1683.3 73.9504 1680.18 75.0571 Q1677.11 76.1638 1673.25 76.1638 Q1667.88 76.1638 1664.56 73.9094 Q1661.24 71.614 1661.24 68.0069 Q1661.24 65.3836 1662.68 63.949 Q1664.11 62.4734 1665.96 62.4734 Q1667.35 62.4734 1668.21 63.2522 Q1669.07 63.99 1669.07 65.3836 Q1669.07 67.2691 1667.56 68.7038 Q1666.04 70.1384 1663.78 69.8515 Q1665.71 74.2783 1673.33 74.2783 Q1676.2 74.2783 1678.42 73.5405 Q1680.67 72.7617 1681.9 71.696 Q1683.17 70.5893 1683.99 69.2366 Q1684.81 67.884 1685.06 66.8592 Q1685.34 65.8345 1685.34 65.0557 Q1685.34 63.7031 1684.81 62.6783 Q1684.28 61.6536 1683.54 61.0798 Q1682.84 60.4649 1681.49 59.9731 Q1680.18 59.4402 1679.24 59.2352 Q1678.29 59.0303 1676.61 58.7024 Q1675.84 58.5384 1675.34 58.4564 Q1674.85 58.3335 1673.83 58.0056 Q1672.84 57.6367 1672.15 57.2678 Q1671.49 56.8989 1670.63 56.243 Q1669.77 55.5872 1669.24 54.8084 Q1668.7 54.0296 1668.33 52.8819 Q1667.97 51.7342 1667.97 50.3816 Q1667.97 49.1519 1668.33 47.6763 Q1668.74 46.2007 1669.77 44.4791 Q1670.83 42.7576 1672.35 41.3639 Q1673.87 39.9703 1676.41 39.0685 Q1678.99 38.1258 1682.15 38.1258 Q1686.74 38.1258 1689.44 40.2572 Q1692.15 42.3477 1692.15 45.3399 Z" fill="#000000" fill-rule="nonzero" fill-opacity="1" /><path clip-path="url(#clip912)" d="M480.161 1199.02 L397.741 1199.02 L562.582 1199.02 L480.161 1199.02 L480.161 979.379 L480.161 1199.02  Z" fill="#009af9" fill-rule="evenodd" fill-opacity="1"/>
<polyline clip-path="url(#clip912)" style="stroke:#000000; stroke-linecap:round; stroke-linejoin:round; stroke-width:4; stroke-opacity:1; fill:none" points="480.161,1199.02 397.741,1199.02 562.582,1199.02 480.161,1199.02 480.161,979.379 480.161,1199.02 "/>
<path clip-path="url(#clip912)" d="M645.002 979.379 L645.002 874.869 L315.32 874.869 L315.32 979.379 L645.002 979.379 L645.002 874.869 L645.002 979.379  Z" fill="#009af9" fill-rule="evenodd" fill-opacity="1"/>
<polyline clip-path="url(#clip912)" style="stroke:#000000; stroke-linecap:round; stroke-linejoin:round; stroke-width:4; stroke-opacity:1; fill:none" points="645.002,979.379 645.002,874.869 315.32,874.869 315.32,979.379 645.002,979.379 645.002,874.869 645.002,979.379 "/>
<path clip-path="url(#clip912)" d="M645.002 661.055 L315.32 661.055 L315.32 874.869 L645.002 874.869 L645.002 661.055 L480.161 661.055 L645.002 661.055  Z" fill="#009af9" fill-rule="evenodd" fill-opacity="1"/>
<polyline clip-path="url(#clip912)" style="stroke:#000000; stroke-linecap:round; stroke-linejoin:round; stroke-width:4; stroke-opacity:1; fill:none" points="645.002,661.055 315.32,661.055 315.32,874.869 645.002,874.869 645.002,661.055 480.161,661.055 645.002,661.055 "/>
<path clip-path="url(#clip912)" d="M480.161 525.472 L397.741 525.472 L562.582 525.472 L480.161 525.472 L480.161 661.055 L480.161 525.472  Z" fill="#009af9" fill-rule="evenodd" fill-opacity="1"/>
<polyline clip-path="url(#clip912)" style="stroke:#000000; stroke-linecap:round; stroke-linejoin:round; stroke-width:4; stroke-opacity:1; fill:none" points="480.161,525.472 397.741,525.472 562.582,525.472 480.161,525.472 480.161,661.055 480.161,525.472 "/>
<polyline clip-path="url(#clip912)" style="stroke:#009af9; stroke-linecap:round; stroke-linejoin:round; stroke-width:0; stroke-opacity:1; fill:none" points="480.161,1199.02 397.741,1199.02 562.582,1199.02 480.161,1199.02 480.161,979.379 "/>
<polyline clip-path="url(#clip912)" style="stroke:#009af9; stroke-linecap:round; stroke-linejoin:round; stroke-width:0; stroke-opacity:1; fill:none" points="645.002,979.379 645.002,874.869 315.32,874.869 315.32,979.379 645.002,979.379 645.002,874.869 "/>
<polyline clip-path="url(#clip912)" style="stroke:#009af9; stroke-linecap:round; stroke-linejoin:round; stroke-width:0; stroke-opacity:1; fill:none" points="645.002,661.055 315.32,661.055 315.32,874.869 645.002,874.869 645.002,661.055 480.161,661.055 "/>
<polyline clip-path="url(#clip912)" style="stroke:#009af9; stroke-linecap:round; stroke-linejoin:round; stroke-width:0; stroke-opacity:1; fill:none" points="480.161,525.472 397.741,525.472 562.582,525.472 480.161,525.472 480.161,661.055 "/>
<path clip-path="url(#clip912)" d="M892.264 1091.24 L809.843 1091.24 L974.684 1091.24 L892.264 1091.24 L892.264 904.036 L892.264 1091.24  Z" fill="#e26f46" fill-rule="evenodd" fill-opacity="1"/>
<polyline clip-path="url(#clip912)" style="stroke:#000000; stroke-linecap:round; stroke-linejoin:round; stroke-width:4; stroke-opacity:1; fill:none" points="892.264,1091.24 809.843,1091.24 974.684,1091.24 892.264,1091.24 892.264,904.036 892.264,1091.24 "/>
<path clip-path="url(#clip912)" d="M1057.1 904.036 L1057.1 854.486 L727.423 854.486 L727.423 904.036 L1057.1 904.036 L1057.1 854.486 L1057.1 904.036  Z" fill="#e26f46" fill-rule="evenodd" fill-opacity="1"/>
<polyline clip-path="url(#clip912)" style="stroke:#000000; stroke-linecap:round; stroke-linejoin:round; stroke-width:4; stroke-opacity:1; fill:none" points="1057.1,904.036 1057.1,854.486 727.423,854.486 727.423,904.036 1057.1,904.036 1057.1,854.486 1057.1,904.036 "/>
<path clip-path="url(#clip912)" d="M1057.1 723.855 L727.423 723.855 L727.423 854.486 L1057.1 854.486 L1057.1 723.855 L892.264 723.855 L1057.1 723.855  Z" fill="#e26f46" fill-rule="evenodd" fill-opacity="1"/>
<polyline clip-path="url(#clip912)" style="stroke:#000000; stroke-linecap:round; stroke-linejoin:round; stroke-width:4; stroke-opacity:1; fill:none" points="1057.1,723.855 727.423,723.855 727.423,854.486 1057.1,854.486 1057.1,723.855 892.264,723.855 1057.1,723.855 "/>
<path clip-path="url(#clip912)" d="M892.264 553.664 L809.843 553.664 L974.684 553.664 L892.264 553.664 L892.264 723.855 L892.264 553.664  Z" fill="#e26f46" fill-rule="evenodd" fill-opacity="1"/>
<polyline clip-path="url(#clip912)" style="stroke:#000000; stroke-linecap:round; stroke-linejoin:round; stroke-width:4; stroke-opacity:1; fill:none" points="892.264,553.664 809.843,553.664 974.684,553.664 892.264,553.664 892.264,723.855 892.264,553.664 "/>
<circle clip-path="url(#clip912)" cx="892.264" cy="1305.02" r="14.4" fill="#e26f46" fill-rule="evenodd" fill-opacity="1" stroke="#000000" stroke-opacity="1" stroke-width="3.2"/>
<polyline clip-path="url(#clip912)" style="stroke:#e26f46; stroke-linecap:round; stroke-linejoin:round; stroke-width:0; stroke-opacity:1; fill:none" points="892.264,1091.24 809.843,1091.24 974.684,1091.24 892.264,1091.24 892.264,904.036 "/>
<polyline clip-path="url(#clip912)" style="stroke:#e26f46; stroke-linecap:round; stroke-linejoin:round; stroke-width:0; stroke-opacity:1; fill:none" points="1057.1,904.036 1057.1,854.486 727.423,854.486 727.423,904.036 1057.1,904.036 1057.1,854.486 "/>
<polyline clip-path="url(#clip912)" style="stroke:#e26f46; stroke-linecap:round; stroke-linejoin:round; stroke-width:0; stroke-opacity:1; fill:none" points="1057.1,723.855 727.423,723.855 727.423,854.486 1057.1,854.486 1057.1,723.855 892.264,723.855 "/>
<polyline clip-path="url(#clip912)" style="stroke:#e26f46; stroke-linecap:round; stroke-linejoin:round; stroke-width:0; stroke-opacity:1; fill:none" points="892.264,553.664 809.843,553.664 974.684,553.664 892.264,553.664 892.264,723.855 "/>
<path clip-path="url(#clip912)" d="M1304.37 1214.6 L1221.95 1214.6 L1386.79 1214.6 L1304.37 1214.6 L1304.37 999.751 L1304.37 1214.6  Z" fill="#3da44d" fill-rule="evenodd" fill-opacity="1"/>
<polyline clip-path="url(#clip912)" style="stroke:#000000; stroke-linecap:round; stroke-linejoin:round; stroke-width:4; stroke-opacity:1; fill:none" points="1304.37,1214.6 1221.95,1214.6 1386.79,1214.6 1304.37,1214.6 1304.37,999.751 1304.37,1214.6 "/>
<path clip-path="url(#clip912)" d="M1469.21 999.751 L1469.21 710.393 L1139.53 710.393 L1139.53 999.751 L1469.21 999.751 L1469.21 710.393 L1469.21 999.751  Z" fill="#3da44d" fill-rule="evenodd" fill-opacity="1"/>
<polyline clip-path="url(#clip912)" style="stroke:#000000; stroke-linecap:round; stroke-linejoin:round; stroke-width:4; stroke-opacity:1; fill:none" points="1469.21,999.751 1469.21,710.393 1139.53,710.393 1139.53,999.751 1469.21,999.751 1469.21,710.393 1469.21,999.751 "/>
<path clip-path="url(#clip912)" d="M1469.21 483.277 L1139.53 483.277 L1139.53 710.393 L1469.21 710.393 L1469.21 483.277 L1304.37 483.277 L1469.21 483.277  Z" fill="#3da44d" fill-rule="evenodd" fill-opacity="1"/>
<polyline clip-path="url(#clip912)" style="stroke:#000000; stroke-linecap:round; stroke-linejoin:round; stroke-width:4; stroke-opacity:1; fill:none" points="1469.21,483.277 1139.53,483.277 1139.53,710.393 1469.21,710.393 1469.21,483.277 1304.37,483.277 1469.21,483.277 "/>
<path clip-path="url(#clip912)" d="M1304.37 279.219 L1221.95 279.219 L1386.79 279.219 L1304.37 279.219 L1304.37 483.277 L1304.37 279.219  Z" fill="#3da44d" fill-rule="evenodd" fill-opacity="1"/>
<polyline clip-path="url(#clip912)" style="stroke:#000000; stroke-linecap:round; stroke-linejoin:round; stroke-width:4; stroke-opacity:1; fill:none" points="1304.37,279.219 1221.95,279.219 1386.79,279.219 1304.37,279.219 1304.37,483.277 1304.37,279.219 "/>
<polyline clip-path="url(#clip912)" style="stroke:#3da44d; stroke-linecap:round; stroke-linejoin:round; stroke-width:0; stroke-opacity:1; fill:none" points="1304.37,1214.6 1221.95,1214.6 1386.79,1214.6 1304.37,1214.6 1304.37,999.751 "/>
<polyline clip-path="url(#clip912)" style="stroke:#3da44d; stroke-linecap:round; stroke-linejoin:round; stroke-width:0; stroke-opacity:1; fill:none" points="1469.21,999.751 1469.21,710.393 1139.53,710.393 1139.53,999.751 1469.21,999.751 1469.21,710.393 "/>
<polyline clip-path="url(#clip912)" style="stroke:#3da44d; stroke-linecap:round; stroke-linejoin:round; stroke-width:0; stroke-opacity:1; fill:none" points="1469.21,483.277 1139.53,483.277 1139.53,710.393 1469.21,710.393 1469.21,483.277 1304.37,483.277 "/>
<polyline clip-path="url(#clip912)" style="stroke:#3da44d; stroke-linecap:round; stroke-linejoin:round; stroke-width:0; stroke-opacity:1; fill:none" points="1304.37,279.219 1221.95,279.219 1386.79,279.219 1304.37,279.219 1304.37,483.277 "/>
<path clip-path="url(#clip912)" d="M1716.47 1119.04 L1634.05 1119.04 L1798.89 1119.04 L1716.47 1119.04 L1716.47 949.003 L1716.47 1119.04  Z" fill="#c271d2" fill-rule="evenodd" fill-opacity="1"/>
<polyline clip-path="url(#clip912)" style="stroke:#000000; stroke-linecap:round; stroke-linejoin:round; stroke-width:4; stroke-opacity:1; fill:none" points="1716.47,1119.04 1634.05,1119.04 1798.89,1119.04 1716.47,1119.04 1716.47,949.003 1716.47,1119.04 "/>
<path clip-path="url(#clip912)" d="M1881.31 949.003 L1881.31 860.577 L1551.63 860.577 L1551.63 949.003 L1881.31 949.003 L1881.31 860.577 L1881.31 949.003  Z" fill="#c271d2" fill-rule="evenodd" fill-opacity="1"/>
<polyline clip-path="url(#clip912)" style="stroke:#000000; stroke-linecap:round; stroke-linejoin:round; stroke-width:4; stroke-opacity:1; fill:none" points="1881.31,949.003 1881.31,860.577 1551.63,860.577 1551.63,949.003 1881.31,949.003 1881.31,860.577 1881.31,949.003 "/>
<path clip-path="url(#clip912)" d="M1881.31 707.315 L1551.63 707.315 L1551.63 860.577 L1881.31 860.577 L1881.31 707.315 L1716.47 707.315 L1881.31 707.315  Z" fill="#c271d2" fill-rule="evenodd" fill-opacity="1"/>
<polyline clip-path="url(#clip912)" style="stroke:#000000; stroke-linecap:round; stroke-linejoin:round; stroke-width:4; stroke-opacity:1; fill:none" points="1881.31,707.315 1551.63,707.315 1551.63,860.577 1881.31,860.577 1881.31,707.315 1716.47,707.315 1881.31,707.315 "/>
<path clip-path="url(#clip912)" d="M1716.47 531.255 L1634.05 531.255 L1798.89 531.255 L1716.47 531.255 L1716.47 707.315 L1716.47 531.255  Z" fill="#c271d2" fill-rule="evenodd" fill-opacity="1"/>
<polyline clip-path="url(#clip912)" style="stroke:#000000; stroke-linecap:round; stroke-linejoin:round; stroke-width:4; stroke-opacity:1; fill:none" points="1716.47,531.255 1634.05,531.255 1798.89,531.255 1716.47,531.255 1716.47,707.315 1716.47,531.255 "/>
<circle clip-path="url(#clip912)" cx="1716.47" cy="169.159" r="14.4" fill="#c271d2" fill-rule="evenodd" fill-opacity="1" stroke="#000000" stroke-opacity="1" stroke-width="3.2"/>
<polyline clip-path="url(#clip912)" style="stroke:#c271d2; stroke-linecap:round; stroke-linejoin:round; stroke-width:0; stroke-opacity:1; fill:none" points="1716.47,1119.04 1634.05,1119.04 1798.89,1119.04 1716.47,1119.04 1716.47,949.003 "/>
<polyline clip-path="url(#clip912)" style="stroke:#c271d2; stroke-linecap:round; stroke-linejoin:round; stroke-width:0; stroke-opacity:1; fill:none" points="1881.31,949.003 1881.31,860.577 1551.63,860.577 1551.63,949.003 1881.31,949.003 1881.31,860.577 "/>
<polyline clip-path="url(#clip912)" style="stroke:#c271d2; stroke-linecap:round; stroke-linejoin:round; stroke-width:0; stroke-opacity:1; fill:none" points="1881.31,707.315 1551.63,707.315 1551.63,860.577 1881.31,860.577 1881.31,707.315 1716.47,707.315 "/>
<polyline clip-path="url(#clip912)" style="stroke:#c271d2; stroke-linecap:round; stroke-linejoin:round; stroke-width:0; stroke-opacity:1; fill:none" points="1716.47,531.255 1634.05,531.255 1798.89,531.255 1716.47,531.255 1716.47,707.315 "/>
<path clip-path="url(#clip912)" d="M2128.57 1006.33 L2046.15 1006.33 L2210.99 1006.33 L2128.57 1006.33 L2128.57 904.955 L2128.57 1006.33  Z" fill="#ac8d18" fill-rule="evenodd" fill-opacity="1"/>
<polyline clip-path="url(#clip912)" style="stroke:#000000; stroke-linecap:round; stroke-linejoin:round; stroke-width:4; stroke-opacity:1; fill:none" points="2128.57,1006.33 2046.15,1006.33 2210.99,1006.33 2128.57,1006.33 2128.57,904.955 2128.57,1006.33 "/>
<path clip-path="url(#clip912)" d="M2293.41 904.955 L2293.41 837.205 L1963.73 837.205 L1963.73 904.955 L2293.41 904.955 L2293.41 837.205 L2293.41 904.955  Z" fill="#ac8d18" fill-rule="evenodd" fill-opacity="1"/>
<polyline clip-path="url(#clip912)" style="stroke:#000000; stroke-linecap:round; stroke-linejoin:round; stroke-width:4; stroke-opacity:1; fill:none" points="2293.41,904.955 2293.41,837.205 1963.73,837.205 1963.73,904.955 2293.41,904.955 2293.41,837.205 2293.41,904.955 "/>
<path clip-path="url(#clip912)" d="M2293.41 725.353 L1963.73 725.353 L1963.73 837.205 L2293.41 837.205 L2293.41 725.353 L2128.57 725.353 L2293.41 725.353  Z" fill="#ac8d18" fill-rule="evenodd" fill-opacity="1"/>
<polyline clip-path="url(#clip912)" style="stroke:#000000; stroke-linecap:round; stroke-linejoin:round; stroke-width:4; stroke-opacity:1; fill:none" points="2293.41,725.353 1963.73,725.353 1963.73,837.205 2293.41,837.205 2293.41,725.353 2128.57,725.353 2293.41,725.353 "/>
<path clip-path="url(#clip912)" d="M2128.57 512.951 L2046.15 512.951 L2210.99 512.951 L2128.57 512.951 L2128.57 725.353 L2128.57 512.951  Z" fill="#ac8d18" fill-rule="evenodd" fill-opacity="1"/>
<polyline clip-path="url(#clip912)" style="stroke:#000000; stroke-linecap:round; stroke-linejoin:round; stroke-width:4; stroke-opacity:1; fill:none" points="2128.57,512.951 2046.15,512.951 2210.99,512.951 2128.57,512.951 2128.57,725.353 2128.57,512.951 "/>
<polyline clip-path="url(#clip912)" style="stroke:#ac8d18; stroke-linecap:round; stroke-linejoin:round; stroke-width:0; stroke-opacity:1; fill:none" points="2128.57,1006.33 2046.15,1006.33 2210.99,1006.33 2128.57,1006.33 2128.57,904.955 "/>
<polyline clip-path="url(#clip912)" style="stroke:#ac8d18; stroke-linecap:round; stroke-linejoin:round; stroke-width:0; stroke-opacity:1; fill:none" points="2293.41,904.955 2293.41,837.205 1963.73,837.205 1963.73,904.955 2293.41,904.955 2293.41,837.205 "/>
<polyline clip-path="url(#clip912)" style="stroke:#ac8d18; stroke-linecap:round; stroke-linejoin:round; stroke-width:0; stroke-opacity:1; fill:none" points="2293.41,725.353 1963.73,725.353 1963.73,837.205 2293.41,837.205 2293.41,725.353 2128.57,725.353 "/>
<polyline clip-path="url(#clip912)" style="stroke:#ac8d18; stroke-linecap:round; stroke-linejoin:round; stroke-width:0; stroke-opacity:1; fill:none" points="2128.57,512.951 2046.15,512.951 2210.99,512.951 2128.57,512.951 2128.57,725.353 "/>
</svg>
