<?xml version="1.0" encoding="utf-8"?>
<svg xmlns="http://www.w3.org/2000/svg" xmlns:xlink="http://www.w3.org/1999/xlink" width="600" height="400" viewBox="0 0 2400 1600">
<defs>
  <clipPath id="clip880">
    <rect x="0" y="0" width="2400" height="1600"/>
  </clipPath>
</defs>
<path clip-path="url(#clip880)" d="M0 1600 L2400 1600 L2400 0 L0 0  Z" fill="#ffffff" fill-rule="evenodd" fill-opacity="1"/>
<defs>
  <clipPath id="clip881">
    <rect x="480" y="0" width="1681" height="1600"/>
  </clipPath>
</defs>
<path clip-path="url(#clip880)" d="M247.459 1423.18 L2352.76 1423.18 L2352.76 123.472 L247.459 123.472  Z" fill="#ffffff" fill-rule="evenodd" fill-opacity="1"/>
<defs>
  <clipPath id="clip882">
    <rect x="247" y="123" width="2106" height="1301"/>
  </clipPath>
</defs>
<polyline clip-path="url(#clip880)" style="stroke:#000000; stroke-linecap:round; stroke-linejoin:round; stroke-width:4; stroke-opacity:1; fill:none" points="247.459,1423.18 2352.76,1423.18 "/>
<polyline clip-path="url(#clip880)" style="stroke:#000000; stroke-linecap:round; stroke-linejoin:round; stroke-width:4; stroke-opacity:1; fill:none" points="675.538,1423.18 675.538,1404.28 "/>
<polyline clip-path="url(#clip880)" style="stroke:#000000; stroke-linecap:round; stroke-linejoin:round; stroke-width:4; stroke-opacity:1; fill:none" points="1196.01,1423.18 1196.01,1404.28 "/>
<polyline clip-path="url(#clip880)" style="stroke:#000000; stroke-linecap:round; stroke-linejoin:round; stroke-width:4; stroke-opacity:1; fill:none" points="1716.49,1423.18 1716.49,1404.28 "/>
<polyline clip-path="url(#clip880)" style="stroke:#000000; stroke-linecap:round; stroke-linejoin:round; stroke-width:4; stroke-opacity:1; fill:none" points="2236.96,1423.18 2236.96,1404.28 "/>
<path clip-path="url(#clip880)" d="M622.68 1468.75 L652.356 1468.75 L652.356 1472.69 L622.68 1472.69 L622.68 1468.75 Z" fill="#000000" fill-rule="nonzero" fill-opacity="1" /><path clip-path="url(#clip880)" d="M672.448 1454.1 Q668.837 1454.1 667.008 1457.66 Q665.203 1461.2 665.203 1468.33 Q665.203 1475.44 667.008 1479.01 Q668.837 1482.55 672.448 1482.55 Q676.082 1482.55 677.888 1479.01 Q679.717 1475.44 679.717 1468.33 Q679.717 1461.2 677.888 1457.66 Q676.082 1454.1 672.448 1454.1 M672.448 1450.39 Q678.258 1450.39 681.314 1455 Q684.392 1459.58 684.392 1468.33 Q684.392 1477.06 681.314 1481.67 Q678.258 1486.25 672.448 1486.25 Q666.638 1486.25 663.559 1481.67 Q660.504 1477.06 660.504 1468.33 Q660.504 1459.58 663.559 1455 Q666.638 1450.39 672.448 1450.39 Z" fill="#000000" fill-rule="nonzero" fill-opacity="1" /><path clip-path="url(#clip880)" d="M692.61 1479.7 L697.494 1479.7 L697.494 1485.58 L692.61 1485.58 L692.61 1479.7 Z" fill="#000000" fill-rule="nonzero" fill-opacity="1" /><path clip-path="url(#clip880)" d="M708.49 1481.64 L716.128 1481.64 L716.128 1455.28 L707.818 1456.95 L707.818 1452.69 L716.082 1451.02 L720.758 1451.02 L720.758 1481.64 L728.397 1481.64 L728.397 1485.58 L708.49 1485.58 L708.49 1481.64 Z" fill="#000000" fill-rule="nonzero" fill-opacity="1" /><path clip-path="url(#clip880)" d="M1173.4 1454.1 Q1169.79 1454.1 1167.96 1457.66 Q1166.15 1461.2 1166.15 1468.33 Q1166.15 1475.44 1167.96 1479.01 Q1169.79 1482.55 1173.4 1482.55 Q1177.03 1482.55 1178.84 1479.01 Q1180.67 1475.44 1180.67 1468.33 Q1180.67 1461.2 1178.84 1457.66 Q1177.03 1454.1 1173.4 1454.1 M1173.4 1450.39 Q1179.21 1450.39 1182.26 1455 Q1185.34 1459.58 1185.34 1468.33 Q1185.34 1477.06 1182.26 1481.67 Q1179.21 1486.25 1173.4 1486.25 Q1167.59 1486.25 1164.51 1481.67 Q1161.45 1477.06 1161.45 1468.33 Q1161.45 1459.58 1164.51 1455 Q1167.59 1450.39 1173.4 1450.39 Z" fill="#000000" fill-rule="nonzero" fill-opacity="1" /><path clip-path="url(#clip880)" d="M1193.56 1479.7 L1198.44 1479.7 L1198.44 1485.58 L1193.56 1485.58 L1193.56 1479.7 Z" fill="#000000" fill-rule="nonzero" fill-opacity="1" /><path clip-path="url(#clip880)" d="M1218.63 1454.1 Q1215.02 1454.1 1213.19 1457.66 Q1211.38 1461.2 1211.38 1468.33 Q1211.38 1475.44 1213.19 1479.01 Q1215.02 1482.55 1218.63 1482.55 Q1222.26 1482.55 1224.07 1479.01 Q1225.9 1475.44 1225.9 1468.33 Q1225.9 1461.2 1224.07 1457.66 Q1222.26 1454.1 1218.63 1454.1 M1218.63 1450.39 Q1224.44 1450.39 1227.49 1455 Q1230.57 1459.58 1230.57 1468.33 Q1230.57 1477.06 1227.49 1481.67 Q1224.44 1486.25 1218.63 1486.25 Q1212.82 1486.25 1209.74 1481.67 Q1206.68 1477.06 1206.68 1468.33 Q1206.68 1459.58 1209.74 1455 Q1212.82 1450.39 1218.63 1450.39 Z" fill="#000000" fill-rule="nonzero" fill-opacity="1" /><path clip-path="url(#clip880)" d="M1694.48 1454.1 Q1690.87 1454.1 1689.04 1457.66 Q1687.24 1461.2 1687.24 1468.33 Q1687.24 1475.44 1689.04 1479.01 Q1690.87 1482.55 1694.48 1482.55 Q1698.12 1482.55 1699.92 1479.01 Q1701.75 1475.44 1701.75 1468.33 Q1701.75 1461.2 1699.92 1457.66 Q1698.12 1454.1 1694.48 1454.1 M1694.48 1450.39 Q1700.29 1450.39 1703.35 1455 Q1706.43 1459.58 1706.43 1468.33 Q1706.43 1477.06 1703.35 1481.67 Q1700.29 1486.25 1694.48 1486.25 Q1688.67 1486.25 1685.6 1481.67 Q1682.54 1477.06 1682.54 1468.33 Q1682.54 1459.58 1685.6 1455 Q1688.67 1450.39 1694.48 1450.39 Z" fill="#000000" fill-rule="nonzero" fill-opacity="1" /><path clip-path="url(#clip880)" d="M1714.65 1479.7 L1719.53 1479.7 L1719.53 1485.58 L1714.65 1485.58 L1714.65 1479.7 Z" fill="#000000" fill-rule="nonzero" fill-opacity="1" /><path clip-path="url(#clip880)" d="M1730.53 1481.64 L1738.16 1481.64 L1738.16 1455.28 L1729.85 1456.95 L1729.85 1452.69 L1738.12 1451.02 L1742.79 1451.02 L1742.79 1481.64 L1750.43 1481.64 L1750.43 1485.58 L1730.53 1485.58 L1730.53 1481.64 Z" fill="#000000" fill-rule="nonzero" fill-opacity="1" /><path clip-path="url(#clip880)" d="M2215.14 1454.1 Q2211.53 1454.1 2209.7 1457.66 Q2207.9 1461.2 2207.9 1468.33 Q2207.9 1475.44 2209.7 1479.01 Q2211.53 1482.55 2215.14 1482.55 Q2218.78 1482.55 2220.58 1479.01 Q2222.41 1475.44 2222.41 1468.33 Q2222.41 1461.2 2220.58 1457.66 Q2218.78 1454.1 2215.14 1454.1 M2215.14 1450.39 Q2220.95 1450.39 2224.01 1455 Q2227.09 1459.58 2227.09 1468.33 Q2227.09 1477.06 2224.01 1481.67 Q2220.95 1486.25 2215.14 1486.25 Q2209.33 1486.25 2206.25 1481.67 Q2203.2 1477.06 2203.2 1468.33 Q2203.2 1459.58 2206.25 1455 Q2209.33 1450.39 2215.14 1450.39 Z" fill="#000000" fill-rule="nonzero" fill-opacity="1" /><path clip-path="url(#clip880)" d="M2235.31 1479.7 L2240.19 1479.7 L2240.19 1485.58 L2235.31 1485.58 L2235.31 1479.7 Z" fill="#000000" fill-rule="nonzero" fill-opacity="1" /><path clip-path="url(#clip880)" d="M2254.4 1481.64 L2270.72 1481.64 L2270.72 1485.58 L2248.78 1485.58 L2248.78 1481.64 Q2251.44 1478.89 2256.02 1474.26 Q2260.63 1469.61 2261.81 1468.27 Q2264.06 1465.74 2264.94 1464.01 Q2265.84 1462.25 2265.84 1460.56 Q2265.84 1457.8 2263.89 1456.07 Q2261.97 1454.33 2258.87 1454.33 Q2256.67 1454.33 2254.22 1455.09 Q2251.79 1455.86 2249.01 1457.41 L2249.01 1452.69 Q2251.83 1451.55 2254.29 1450.97 Q2256.74 1450.39 2258.78 1450.39 Q2264.15 1450.39 2267.34 1453.08 Q2270.54 1455.77 2270.54 1460.26 Q2270.54 1462.39 2269.73 1464.31 Q2268.94 1466.2 2266.83 1468.8 Q2266.25 1469.47 2263.15 1472.69 Q2260.05 1475.88 2254.4 1481.64 Z" fill="#000000" fill-rule="nonzero" fill-opacity="1" /><path clip-path="url(#clip880)" d="M1195.39 1524.99 Q1195.39 1523.93 1195.1 1523.06 Q1194.84 1522.15 1194.42 1521.54 Q1194.04 1520.9 1193.29 1520.41 Q1192.55 1519.9 1191.94 1519.58 Q1191.33 1519.26 1190.3 1519.06 Q1189.27 1518.84 1188.59 1518.74 Q1187.92 1518.61 1186.76 1518.55 Q1185.6 1518.48 1185.02 1518.48 Q1184.47 1518.48 1183.37 1518.48 Q1179.93 1518.48 1179.35 1518.55 Q1178.48 1518.68 1178.16 1519.19 Q1177.84 1519.67 1177.51 1520.99 L1173.23 1538.19 L1180.61 1538.19 Q1184.63 1538.19 1187.4 1537.07 Q1190.17 1535.94 1191.75 1534.36 Q1193.49 1532.62 1194.42 1529.82 Q1195.39 1527.02 1195.39 1524.99 M1202.57 1555.36 Q1202.57 1555.71 1202.28 1556.52 Q1202.02 1557.32 1201.38 1558.45 Q1200.73 1559.54 1199.86 1560.54 Q1198.99 1561.54 1197.61 1562.22 Q1196.23 1562.93 1194.65 1562.93 Q1194.26 1562.93 1193.87 1562.89 Q1193.49 1562.89 1192.52 1562.73 Q1191.59 1562.6 1190.81 1562.35 Q1190.04 1562.12 1189.08 1561.57 Q1188.11 1561.06 1187.43 1560.35 Q1186.79 1559.61 1186.34 1558.45 Q1185.89 1557.26 1185.89 1555.81 Q1185.89 1554.52 1186.95 1550.21 Q1187.88 1546.53 1187.88 1545.63 Q1187.88 1544.63 1187.56 1543.7 Q1187.27 1542.77 1186.53 1541.8 Q1185.82 1540.83 1184.31 1540.25 Q1182.8 1539.64 1180.67 1539.64 L1172.84 1539.64 L1168.46 1557.13 Q1168.46 1557.16 1168.37 1557.61 Q1168.27 1558.03 1168.27 1558.26 Q1168.27 1558.68 1168.53 1558.93 Q1168.82 1559.19 1169.53 1559.32 Q1170.24 1559.42 1170.78 1559.45 Q1171.36 1559.45 1172.55 1559.45 Q1174.04 1559.45 1174.29 1559.71 Q1174.42 1559.87 1174.42 1560.16 Q1174.42 1560.61 1174.29 1560.93 Q1174.2 1561.22 1173.94 1561.32 Q1173.71 1561.41 1173.55 1561.44 Q1173.39 1561.48 1173.1 1561.48 L1164.73 1561.28 L1156.42 1561.48 Q1155.48 1561.48 1155.48 1560.74 Q1155.48 1560.09 1155.71 1559.83 Q1155.94 1559.54 1156.23 1559.51 Q1156.52 1559.45 1157.26 1559.45 Q1158.87 1559.45 1159.83 1559.35 Q1160.8 1559.25 1161.41 1559.13 Q1162.05 1558.97 1162.38 1558.51 Q1162.73 1558.06 1162.89 1557.68 Q1163.05 1557.26 1163.28 1556.32 L1172.1 1520.9 Q1172.36 1519.83 1172.36 1519.67 Q1172.36 1519.06 1171.97 1518.9 Q1171.62 1518.71 1170.59 1518.61 L1168.08 1518.48 Q1167.3 1518.48 1166.98 1518.45 Q1166.69 1518.42 1166.47 1518.26 Q1166.24 1518.1 1166.24 1517.74 Q1166.24 1516.84 1166.63 1516.65 Q1167.01 1516.42 1168.14 1516.42 L1186.95 1516.42 Q1193.36 1516.42 1197.42 1519.22 Q1201.51 1522.02 1201.51 1526.31 Q1201.51 1528.24 1200.64 1530.04 Q1199.77 1531.85 1198.32 1533.26 Q1196.9 1534.68 1195 1535.87 Q1193.1 1537.03 1191.07 1537.84 Q1189.08 1538.61 1187.01 1539.06 Q1187.92 1539.38 1188.75 1539.87 Q1189.62 1540.35 1190.72 1541.25 Q1191.85 1542.15 1192.52 1543.6 Q1193.2 1545.05 1193.2 1546.82 Q1193.2 1548.08 1192.94 1549.95 Q1192.3 1555.26 1192.3 1557.45 Q1192.3 1559.54 1192.84 1560.51 Q1193.39 1561.48 1194.94 1561.48 Q1196.45 1561.48 1198.13 1560.12 Q1199.83 1558.74 1200.93 1555.49 Q1201.18 1554.55 1201.8 1554.55 Q1201.83 1554.55 1201.86 1554.55 Q1201.93 1554.55 1202.05 1554.62 Q1202.18 1554.65 1202.28 1554.75 Q1202.41 1554.81 1202.47 1554.97 Q1202.57 1555.13 1202.57 1555.36 Z" fill="#000000" fill-rule="nonzero" fill-opacity="1" /><path clip-path="url(#clip880)" d="M1230.32 1553.84 Q1230.58 1554.13 1230.58 1554.42 Q1230.58 1554.71 1229.94 1555.55 Q1229.33 1556.39 1228.01 1557.52 Q1226.69 1558.64 1224.98 1559.71 Q1223.27 1560.77 1220.76 1561.48 Q1218.25 1562.22 1215.61 1562.22 Q1210.87 1562.22 1208.04 1558.84 Q1205.24 1555.45 1205.24 1550.27 Q1205.24 1546.95 1206.33 1544.02 Q1207.43 1541.06 1209.2 1538.97 Q1211 1536.87 1213.26 1535.36 Q1215.54 1533.81 1217.93 1533.07 Q1220.31 1532.33 1222.53 1532.33 Q1225.78 1532.33 1227.68 1533.97 Q1229.58 1535.62 1229.58 1537.93 Q1229.58 1538.48 1229.42 1539.16 Q1229.29 1539.83 1228.84 1540.9 Q1228.42 1541.96 1227.33 1543.02 Q1226.23 1544.05 1224.62 1544.73 Q1221.05 1546.24 1214.54 1546.24 L1211.03 1546.24 Q1210 1550.4 1210 1553.1 Q1210 1554.17 1210.2 1555.26 Q1210.39 1556.32 1210.9 1557.68 Q1211.45 1559.03 1212.68 1559.9 Q1213.93 1560.74 1215.74 1560.74 Q1216.31 1560.74 1216.93 1560.7 Q1217.57 1560.67 1219.18 1560.32 Q1220.82 1559.96 1222.27 1559.35 Q1223.72 1558.74 1225.56 1557.42 Q1227.43 1556.07 1228.91 1554.23 Q1229.42 1553.55 1229.78 1553.55 Q1230.07 1553.55 1230.32 1553.84 M1227.39 1537.93 Q1227.39 1536.16 1226.07 1534.97 Q1224.78 1533.78 1222.53 1533.78 Q1221.82 1533.78 1220.95 1533.94 Q1220.08 1534.1 1218.63 1534.78 Q1217.22 1535.45 1215.96 1536.58 Q1214.7 1537.68 1213.45 1539.83 Q1212.19 1541.96 1211.45 1544.79 L1214.16 1544.79 Q1215.09 1544.79 1215.77 1544.79 Q1216.44 1544.76 1217.93 1544.63 Q1219.44 1544.5 1220.53 1544.28 Q1221.63 1544.02 1223.01 1543.51 Q1224.4 1542.99 1225.27 1542.31 Q1226.17 1541.61 1226.78 1540.48 Q1227.39 1539.35 1227.39 1537.93 Z" fill="#000000" fill-rule="nonzero" fill-opacity="1" /><path clip-path="url(#clip880)" d="M1259.95 1538 Q1259.95 1539.8 1259.05 1540.77 Q1258.15 1541.7 1256.92 1541.7 Q1255.92 1541.7 1255.38 1541.12 Q1254.86 1540.54 1254.86 1539.77 Q1254.86 1538.64 1255.76 1537.74 Q1256.7 1536.84 1258.05 1536.81 Q1257.6 1535.62 1256.41 1534.91 Q1255.22 1534.17 1254.15 1533.97 Q1253.12 1533.78 1252.09 1533.78 Q1250.06 1533.78 1248.52 1534.42 Q1246.97 1535.07 1246.2 1536.07 Q1245.43 1537.03 1245.07 1537.97 Q1244.72 1538.9 1244.72 1539.71 Q1244.72 1540.41 1244.88 1540.99 Q1245.07 1541.54 1245.52 1541.96 Q1245.97 1542.35 1246.3 1542.6 Q1246.65 1542.86 1247.42 1543.09 Q1248.2 1543.31 1248.52 1543.41 Q1248.84 1543.47 1249.74 1543.67 Q1251.61 1544.05 1252.45 1544.28 Q1253.28 1544.47 1254.38 1545.02 Q1255.51 1545.57 1256.34 1546.44 Q1258.37 1548.47 1258.37 1551.27 Q1258.37 1552.3 1258.02 1553.55 Q1257.7 1554.81 1256.76 1556.39 Q1255.83 1557.97 1254.41 1559.22 Q1252.99 1560.48 1250.55 1561.35 Q1248.13 1562.22 1245.1 1562.22 Q1240.88 1562.22 1238.28 1560.45 Q1235.67 1558.64 1235.67 1555.81 Q1235.67 1553.75 1236.79 1552.62 Q1237.92 1551.46 1239.37 1551.46 Q1240.47 1551.46 1241.14 1552.07 Q1241.82 1552.65 1241.82 1553.75 Q1241.82 1555.23 1240.63 1556.36 Q1239.44 1557.48 1237.66 1557.26 Q1239.18 1560.74 1245.17 1560.74 Q1247.42 1560.74 1249.16 1560.16 Q1250.93 1559.54 1251.9 1558.71 Q1252.9 1557.84 1253.54 1556.78 Q1254.19 1555.71 1254.38 1554.91 Q1254.6 1554.1 1254.6 1553.49 Q1254.6 1552.43 1254.19 1551.62 Q1253.77 1550.82 1253.19 1550.37 Q1252.64 1549.88 1251.58 1549.5 Q1250.55 1549.08 1249.81 1548.92 Q1249.06 1548.76 1247.74 1548.5 Q1247.13 1548.37 1246.75 1548.3 Q1246.36 1548.21 1245.55 1547.95 Q1244.78 1547.66 1244.23 1547.37 Q1243.72 1547.08 1243.04 1546.57 Q1242.37 1546.05 1241.95 1545.44 Q1241.53 1544.83 1241.24 1543.92 Q1240.95 1543.02 1240.95 1541.96 Q1240.95 1540.99 1241.24 1539.83 Q1241.56 1538.68 1242.37 1537.32 Q1243.2 1535.97 1244.39 1534.88 Q1245.59 1533.78 1247.58 1533.07 Q1249.61 1532.33 1252.09 1532.33 Q1255.7 1532.33 1257.82 1534.01 Q1259.95 1535.65 1259.95 1538 Z" fill="#000000" fill-rule="nonzero" fill-opacity="1" /><path clip-path="url(#clip880)" d="M1281.55 1520.25 Q1281.55 1521.67 1280.39 1522.73 Q1279.26 1523.76 1278.04 1523.76 Q1276.91 1523.76 1276.2 1523.09 Q1275.53 1522.38 1275.53 1521.38 Q1275.53 1520.06 1276.65 1518.97 Q1277.78 1517.87 1279.1 1517.87 Q1280.2 1517.87 1280.87 1518.55 Q1281.55 1519.22 1281.55 1520.25 M1282.13 1552.04 Q1282.13 1552.3 1281.84 1553.33 Q1281.55 1554.33 1280.84 1555.87 Q1280.16 1557.39 1279.23 1558.8 Q1278.3 1560.22 1276.75 1561.22 Q1275.24 1562.22 1273.5 1562.22 Q1271.15 1562.22 1269.6 1560.67 Q1268.09 1559.13 1268.09 1556.81 Q1268.09 1555.55 1269.6 1551.53 Q1273.98 1539.8 1274.14 1539.32 Q1274.88 1537.48 1274.88 1535.87 Q1274.88 1535.13 1274.72 1534.68 Q1274.56 1534.2 1274.24 1534.04 Q1273.92 1533.84 1273.72 1533.81 Q1273.56 1533.78 1273.24 1533.78 Q1271.34 1533.78 1269.57 1535.71 Q1267.8 1537.64 1266.57 1541.96 Q1266.32 1542.77 1266.15 1542.96 Q1265.99 1543.15 1265.51 1543.15 Q1264.71 1543.12 1264.71 1542.48 Q1264.71 1542.28 1264.93 1541.54 Q1265.16 1540.77 1265.58 1539.61 Q1265.99 1538.42 1266.73 1537.19 Q1267.48 1535.94 1268.38 1534.84 Q1269.31 1533.75 1270.63 1533.04 Q1271.95 1532.33 1273.43 1532.33 Q1275.85 1532.33 1277.33 1533.91 Q1278.84 1535.45 1278.84 1537.74 Q1278.84 1539 1277.97 1541.22 Q1276.91 1544.12 1276.53 1545.05 L1273.95 1551.98 Q1273.01 1554.49 1272.72 1555.26 Q1272.47 1556 1272.24 1556.9 Q1272.05 1557.77 1272.05 1558.58 Q1272.05 1559.71 1272.4 1560.22 Q1272.79 1560.74 1273.63 1560.74 Q1275.95 1560.74 1277.65 1558.45 Q1279.36 1556.13 1280.36 1552.59 Q1280.39 1552.49 1280.42 1552.33 Q1280.68 1551.53 1280.94 1551.43 Q1281.07 1551.4 1281.32 1551.4 Q1282.13 1551.4 1282.13 1552.04 Z" fill="#000000" fill-rule="nonzero" fill-opacity="1" /><path clip-path="url(#clip880)" d="M1320.47 1516.42 L1310.97 1554.55 Q1310.59 1556.26 1310.59 1557.71 Q1310.59 1560.74 1312.55 1560.74 Q1313.52 1560.74 1314.29 1560.12 Q1315.06 1559.51 1315.68 1558.22 Q1316.29 1556.94 1316.67 1555.74 Q1317.06 1554.52 1317.58 1552.59 Q1317.74 1551.82 1317.87 1551.62 Q1318.03 1551.4 1318.48 1551.4 Q1319.28 1551.4 1319.28 1552.04 Q1318.41 1556.2 1317.29 1558.58 Q1315.48 1562.22 1312.42 1562.22 Q1310.1 1562.22 1308.46 1560.8 Q1306.82 1559.38 1306.43 1557.26 Q1302.21 1562.22 1297.83 1562.22 Q1293.97 1562.22 1291.52 1559.29 Q1289.07 1556.32 1289.07 1551.65 Q1289.07 1546.95 1291.39 1542.44 Q1293.74 1537.93 1297.45 1535.13 Q1301.15 1532.33 1304.95 1532.33 Q1308.98 1532.33 1311.04 1536.55 L1315 1520.9 L1315.19 1519.61 Q1315.19 1519.22 1315.03 1519.03 Q1314.9 1518.8 1314.13 1518.64 Q1313.39 1518.48 1311.91 1518.48 Q1311.3 1518.48 1311.01 1518.45 Q1310.75 1518.42 1310.52 1518.26 Q1310.3 1518.06 1310.3 1517.68 Q1310.3 1516.55 1311.23 1516.42 Q1317.42 1515.71 1319.61 1515.71 Q1319.99 1515.71 1320.22 1515.91 Q1320.44 1516.07 1320.44 1516.26 L1320.47 1516.42 M1310.23 1539.58 Q1310.23 1539.29 1310.01 1538.48 Q1309.78 1537.68 1309.27 1536.55 Q1308.75 1535.42 1307.62 1534.62 Q1306.53 1533.78 1305.05 1533.78 Q1303.05 1533.78 1300.96 1535.49 Q1298.9 1537.19 1297.38 1540.09 Q1296.22 1542.41 1294.97 1547.27 Q1293.74 1552.14 1293.74 1554.55 Q1293.74 1556.03 1294.07 1557.35 Q1294.42 1558.64 1295.42 1559.71 Q1296.42 1560.74 1297.96 1560.74 Q1301.73 1560.74 1305.43 1556.07 Q1306.14 1555.26 1306.3 1554.94 Q1306.5 1554.59 1306.76 1553.62 L1310.04 1540.7 Q1310.23 1539.74 1310.23 1539.58 Z" fill="#000000" fill-rule="nonzero" fill-opacity="1" /><path clip-path="url(#clip880)" d="M1355.61 1552.04 Q1354.77 1556.2 1353.64 1558.58 Q1351.81 1562.22 1348.75 1562.22 Q1346.62 1562.22 1345.01 1561.03 Q1343.43 1559.8 1342.89 1557.77 Q1342.27 1558.58 1341.73 1559.13 Q1341.21 1559.67 1340.21 1560.51 Q1339.21 1561.32 1337.86 1561.77 Q1336.54 1562.22 1335.03 1562.22 Q1333.87 1562.22 1332.81 1561.99 Q1331.74 1561.8 1330.62 1561.25 Q1329.52 1560.67 1328.71 1559.8 Q1327.94 1558.93 1327.43 1557.52 Q1326.91 1556.1 1326.91 1554.3 Q1326.91 1552.04 1327.78 1548.98 Q1328.68 1545.92 1330.74 1540.45 Q1331.87 1537.55 1331.87 1535.94 Q1331.87 1535.2 1331.71 1534.71 Q1331.55 1534.23 1331.23 1534.07 Q1330.94 1533.88 1330.74 1533.84 Q1330.55 1533.78 1330.23 1533.78 Q1328.23 1533.78 1326.49 1535.81 Q1324.75 1537.84 1323.56 1541.96 Q1323.3 1542.77 1323.14 1542.96 Q1322.98 1543.15 1322.5 1543.15 Q1321.69 1543.12 1321.69 1542.48 Q1321.69 1542.22 1321.98 1541.22 Q1322.27 1540.19 1322.95 1538.68 Q1323.66 1537.13 1324.62 1535.74 Q1325.59 1534.33 1327.1 1533.33 Q1328.65 1532.33 1330.42 1532.33 Q1332.84 1532.33 1334.32 1533.91 Q1335.83 1535.45 1335.83 1537.74 Q1335.83 1539.16 1334.71 1541.9 Q1331.13 1551.4 1331.13 1555.36 Q1331.13 1560.74 1335.22 1560.74 Q1336.57 1560.74 1337.83 1560.19 Q1339.12 1559.64 1339.95 1558.87 Q1340.79 1558.1 1341.44 1557.26 Q1342.11 1556.42 1342.4 1555.87 Q1342.72 1555.33 1342.76 1555.2 L1347.68 1535.36 Q1347.88 1534.59 1348.23 1534.07 Q1348.62 1533.52 1349.07 1533.33 Q1349.52 1533.14 1349.78 1533.1 Q1350.04 1533.04 1350.26 1533.04 Q1351.07 1533.04 1351.61 1533.52 Q1352.19 1534.01 1352.19 1534.84 Q1352.19 1535 1352 1535.78 Q1351.84 1536.52 1351.58 1537.61 Q1351.32 1538.68 1351.19 1539.26 Q1350.16 1543.31 1350.07 1543.73 L1348.23 1550.85 Q1348.14 1551.27 1347.81 1552.62 Q1347.52 1553.97 1347.36 1554.68 Q1347.2 1555.36 1347.04 1556.29 Q1346.91 1557.19 1346.91 1557.71 Q1346.91 1559.32 1347.39 1560.03 Q1347.88 1560.74 1348.94 1560.74 Q1349.94 1560.74 1350.71 1560.06 Q1351.52 1559.35 1352.13 1558 Q1352.74 1556.61 1353.09 1555.49 Q1353.45 1554.36 1353.9 1552.59 Q1354.06 1551.82 1354.19 1551.62 Q1354.35 1551.4 1354.8 1551.4 Q1355.61 1551.4 1355.61 1552.04 Z" fill="#000000" fill-rule="nonzero" fill-opacity="1" /><path clip-path="url(#clip880)" d="M1389.78 1552.04 Q1388.91 1556.2 1387.79 1558.58 Q1385.98 1562.22 1382.92 1562.22 Q1380.61 1562.22 1378.96 1560.8 Q1377.32 1559.38 1376.93 1557.26 Q1372.72 1562.22 1368.34 1562.22 Q1364.47 1562.22 1362.02 1559.29 Q1359.58 1556.32 1359.58 1551.65 Q1359.58 1546.95 1361.89 1542.44 Q1364.25 1537.93 1367.95 1535.13 Q1371.65 1532.33 1375.45 1532.33 Q1379.48 1532.33 1381.54 1536.55 Q1381.7 1535.39 1382.44 1534.52 Q1383.18 1533.65 1384.31 1533.65 Q1385.18 1533.65 1385.69 1534.13 Q1386.21 1534.59 1386.21 1535.42 Q1386.21 1535.84 1385.76 1537.68 L1383.38 1546.89 L1381.93 1552.85 Q1381.38 1555.04 1381.22 1555.84 Q1381.09 1556.65 1381.09 1557.71 Q1381.09 1560.74 1383.05 1560.74 Q1384.02 1560.74 1384.79 1560.12 Q1385.57 1559.51 1386.18 1558.22 Q1386.79 1556.94 1387.18 1555.74 Q1387.56 1554.52 1388.08 1552.59 Q1388.24 1551.82 1388.37 1551.62 Q1388.53 1551.4 1388.98 1551.4 Q1389.78 1551.4 1389.78 1552.04 M1380.73 1539.58 Q1380.73 1539.29 1380.51 1538.48 Q1380.28 1537.68 1379.77 1536.55 Q1379.25 1535.42 1378.13 1534.62 Q1377.03 1533.78 1375.55 1533.78 Q1373.55 1533.78 1371.46 1535.49 Q1369.4 1537.19 1367.88 1540.09 Q1366.72 1542.41 1365.47 1547.27 Q1364.25 1552.14 1364.25 1554.55 Q1364.25 1556.03 1364.57 1557.35 Q1364.92 1558.64 1365.92 1559.71 Q1366.92 1560.74 1368.46 1560.74 Q1372.23 1560.74 1375.94 1556.07 Q1376.64 1555.26 1376.81 1554.94 Q1377 1554.59 1377.26 1553.62 L1380.54 1540.7 Q1380.73 1539.74 1380.73 1539.58 Z" fill="#000000" fill-rule="nonzero" fill-opacity="1" /><path clip-path="url(#clip880)" d="M1407.96 1516.42 L1398.46 1554.55 Q1398.08 1556.07 1398.08 1557.71 Q1398.08 1560.74 1400.07 1560.74 Q1401.01 1560.74 1401.78 1560.12 Q1402.55 1559.48 1403.13 1558.22 Q1403.74 1556.94 1404.13 1555.71 Q1404.55 1554.49 1405.06 1552.59 Q1405.23 1551.85 1405.39 1551.62 Q1405.55 1551.4 1406 1551.4 Q1406.8 1551.4 1406.8 1552.04 Q1406 1556 1404.81 1558.51 Q1403.07 1562.22 1399.85 1562.22 Q1397.43 1562.22 1395.63 1560.54 Q1393.86 1558.84 1393.86 1556.13 Q1393.86 1555.1 1394.18 1553.88 L1402.49 1520.9 L1402.71 1519.61 Q1402.71 1519.26 1402.59 1519.06 Q1402.46 1518.87 1401.68 1518.68 Q1400.94 1518.48 1399.46 1518.48 Q1398.85 1518.48 1398.56 1518.45 Q1398.3 1518.42 1398.04 1518.26 Q1397.82 1518.1 1397.82 1517.74 Q1397.82 1517.16 1398.04 1516.84 Q1398.3 1516.52 1398.49 1516.45 Q1398.69 1516.39 1399.07 1516.36 Q1399.62 1516.32 1401.46 1516.16 Q1403.29 1515.97 1404.87 1515.84 Q1406.45 1515.71 1407.13 1515.71 Q1407.51 1515.71 1407.71 1515.91 Q1407.93 1516.07 1407.96 1516.26 L1407.96 1516.42 Z" fill="#000000" fill-rule="nonzero" fill-opacity="1" /><path clip-path="url(#clip880)" d="M1438.39 1538 Q1438.39 1539.8 1437.49 1540.77 Q1436.59 1541.7 1435.36 1541.7 Q1434.36 1541.7 1433.82 1541.12 Q1433.3 1540.54 1433.3 1539.77 Q1433.3 1538.64 1434.2 1537.74 Q1435.14 1536.84 1436.49 1536.81 Q1436.04 1535.62 1434.85 1534.91 Q1433.66 1534.17 1432.59 1533.97 Q1431.56 1533.78 1430.53 1533.78 Q1428.5 1533.78 1426.96 1534.42 Q1425.41 1535.07 1424.64 1536.07 Q1423.87 1537.03 1423.51 1537.97 Q1423.16 1538.9 1423.16 1539.71 Q1423.16 1540.41 1423.32 1540.99 Q1423.51 1541.54 1423.96 1541.96 Q1424.41 1542.35 1424.74 1542.6 Q1425.09 1542.86 1425.86 1543.09 Q1426.64 1543.31 1426.96 1543.41 Q1427.28 1543.47 1428.18 1543.67 Q1430.05 1544.05 1430.89 1544.28 Q1431.72 1544.47 1432.82 1545.02 Q1433.95 1545.57 1434.78 1546.44 Q1436.81 1548.47 1436.81 1551.27 Q1436.81 1552.3 1436.46 1553.55 Q1436.14 1554.81 1435.2 1556.39 Q1434.27 1557.97 1432.85 1559.22 Q1431.43 1560.48 1428.99 1561.35 Q1426.57 1562.22 1423.54 1562.22 Q1419.32 1562.22 1416.72 1560.45 Q1414.11 1558.64 1414.11 1555.81 Q1414.11 1553.75 1415.23 1552.62 Q1416.36 1551.46 1417.81 1551.46 Q1418.91 1551.46 1419.58 1552.07 Q1420.26 1552.65 1420.26 1553.75 Q1420.26 1555.23 1419.07 1556.36 Q1417.88 1557.48 1416.1 1557.26 Q1417.62 1560.74 1423.61 1560.74 Q1425.86 1560.74 1427.6 1560.16 Q1429.37 1559.54 1430.34 1558.71 Q1431.34 1557.84 1431.98 1556.78 Q1432.63 1555.71 1432.82 1554.91 Q1433.04 1554.1 1433.04 1553.49 Q1433.04 1552.43 1432.63 1551.62 Q1432.21 1550.82 1431.63 1550.37 Q1431.08 1549.88 1430.02 1549.5 Q1428.99 1549.08 1428.25 1548.92 Q1427.5 1548.76 1426.18 1548.5 Q1425.57 1548.37 1425.19 1548.3 Q1424.8 1548.21 1423.99 1547.95 Q1423.22 1547.66 1422.67 1547.37 Q1422.16 1547.08 1421.48 1546.57 Q1420.81 1546.05 1420.39 1545.44 Q1419.97 1544.83 1419.68 1543.92 Q1419.39 1543.02 1419.39 1541.96 Q1419.39 1540.99 1419.68 1539.83 Q1420 1538.68 1420.81 1537.32 Q1421.64 1535.97 1422.84 1534.88 Q1424.03 1533.78 1426.02 1533.07 Q1428.05 1532.33 1430.53 1532.33 Q1434.14 1532.33 1436.26 1534.01 Q1438.39 1535.65 1438.39 1538 Z" fill="#000000" fill-rule="nonzero" fill-opacity="1" /><polyline clip-path="url(#clip880)" style="stroke:#000000; stroke-linecap:round; stroke-linejoin:round; stroke-width:4; stroke-opacity:1; fill:none" points="247.459,1423.18 247.459,123.472 "/>
<polyline clip-path="url(#clip880)" style="stroke:#000000; stroke-linecap:round; stroke-linejoin:round; stroke-width:4; stroke-opacity:1; fill:none" points="247.459,1423.18 266.356,1423.18 "/>
<polyline clip-path="url(#clip880)" style="stroke:#000000; stroke-linecap:round; stroke-linejoin:round; stroke-width:4; stroke-opacity:1; fill:none" points="247.459,1127.79 266.356,1127.79 "/>
<polyline clip-path="url(#clip880)" style="stroke:#000000; stroke-linecap:round; stroke-linejoin:round; stroke-width:4; stroke-opacity:1; fill:none" points="247.459,832.404 266.356,832.404 "/>
<polyline clip-path="url(#clip880)" style="stroke:#000000; stroke-linecap:round; stroke-linejoin:round; stroke-width:4; stroke-opacity:1; fill:none" points="247.459,537.015 266.356,537.015 "/>
<polyline clip-path="url(#clip880)" style="stroke:#000000; stroke-linecap:round; stroke-linejoin:round; stroke-width:4; stroke-opacity:1; fill:none" points="247.459,241.627 266.356,241.627 "/>
<path clip-path="url(#clip880)" d="M154.283 1408.98 Q150.672 1408.98 148.843 1412.54 Q147.038 1416.08 147.038 1423.21 Q147.038 1430.32 148.843 1433.89 Q150.672 1437.43 154.283 1437.43 Q157.917 1437.43 159.723 1433.89 Q161.552 1430.32 161.552 1423.21 Q161.552 1416.08 159.723 1412.54 Q157.917 1408.98 154.283 1408.98 M154.283 1405.27 Q160.093 1405.27 163.149 1409.88 Q166.227 1414.46 166.227 1423.21 Q166.227 1431.94 163.149 1436.55 Q160.093 1441.13 154.283 1441.13 Q148.473 1441.13 145.394 1436.55 Q142.339 1431.94 142.339 1423.21 Q142.339 1414.46 145.394 1409.88 Q148.473 1405.27 154.283 1405.27 Z" fill="#000000" fill-rule="nonzero" fill-opacity="1" /><path clip-path="url(#clip880)" d="M174.445 1434.58 L179.329 1434.58 L179.329 1440.46 L174.445 1440.46 L174.445 1434.58 Z" fill="#000000" fill-rule="nonzero" fill-opacity="1" /><path clip-path="url(#clip880)" d="M199.514 1408.98 Q195.903 1408.98 194.075 1412.54 Q192.269 1416.08 192.269 1423.21 Q192.269 1430.32 194.075 1433.89 Q195.903 1437.43 199.514 1437.43 Q203.149 1437.43 204.954 1433.89 Q206.783 1430.32 206.783 1423.21 Q206.783 1416.08 204.954 1412.54 Q203.149 1408.98 199.514 1408.98 M199.514 1405.27 Q205.324 1405.27 208.38 1409.88 Q211.459 1414.46 211.459 1423.21 Q211.459 1431.94 208.38 1436.55 Q205.324 1441.13 199.514 1441.13 Q193.704 1441.13 190.625 1436.55 Q187.57 1431.94 187.57 1423.21 Q187.57 1414.46 190.625 1409.88 Q193.704 1405.27 199.514 1405.27 Z" fill="#000000" fill-rule="nonzero" fill-opacity="1" /><path clip-path="url(#clip880)" d="M149.306 1141.14 L165.626 1141.14 L165.626 1145.07 L143.681 1145.07 L143.681 1141.14 Q146.343 1138.38 150.927 1133.75 Q155.533 1129.1 156.714 1127.76 Q158.959 1125.23 159.839 1123.5 Q160.741 1121.74 160.741 1120.05 Q160.741 1117.29 158.797 1115.56 Q156.876 1113.82 153.774 1113.82 Q151.575 1113.82 149.121 1114.59 Q146.691 1115.35 143.913 1116.9 L143.913 1112.18 Q146.737 1111.04 149.191 1110.47 Q151.644 1109.89 153.681 1109.89 Q159.052 1109.89 162.246 1112.57 Q165.44 1115.26 165.44 1119.75 Q165.44 1121.88 164.63 1123.8 Q163.843 1125.7 161.737 1128.29 Q161.158 1128.96 158.056 1132.18 Q154.954 1135.37 149.306 1141.14 Z" fill="#000000" fill-rule="nonzero" fill-opacity="1" /><path clip-path="url(#clip880)" d="M175.44 1139.19 L180.325 1139.19 L180.325 1145.07 L175.44 1145.07 L175.44 1139.19 Z" fill="#000000" fill-rule="nonzero" fill-opacity="1" /><path clip-path="url(#clip880)" d="M190.556 1110.51 L208.912 1110.51 L208.912 1114.45 L194.838 1114.45 L194.838 1122.92 Q195.857 1122.57 196.875 1122.41 Q197.894 1122.22 198.912 1122.22 Q204.699 1122.22 208.079 1125.4 Q211.459 1128.57 211.459 1133.98 Q211.459 1139.56 207.987 1142.66 Q204.514 1145.74 198.195 1145.74 Q196.019 1145.74 193.75 1145.37 Q191.505 1145 189.098 1144.26 L189.098 1139.56 Q191.181 1140.7 193.403 1141.25 Q195.625 1141.81 198.102 1141.81 Q202.107 1141.81 204.445 1139.7 Q206.783 1137.59 206.783 1133.98 Q206.783 1130.37 204.445 1128.27 Q202.107 1126.16 198.102 1126.16 Q196.227 1126.16 194.352 1126.58 Q192.5 1126.99 190.556 1127.87 L190.556 1110.51 Z" fill="#000000" fill-rule="nonzero" fill-opacity="1" /><path clip-path="url(#clip880)" d="M144.329 815.124 L162.686 815.124 L162.686 819.059 L148.612 819.059 L148.612 827.531 Q149.63 827.184 150.649 827.022 Q151.667 826.837 152.686 826.837 Q158.473 826.837 161.852 830.008 Q165.232 833.179 165.232 838.596 Q165.232 844.174 161.76 847.276 Q158.288 850.355 151.968 850.355 Q149.792 850.355 147.524 849.985 Q145.279 849.614 142.871 848.873 L142.871 844.174 Q144.954 845.309 147.177 845.864 Q149.399 846.42 151.876 846.42 Q155.88 846.42 158.218 844.313 Q160.556 842.207 160.556 838.596 Q160.556 834.985 158.218 832.878 Q155.88 830.772 151.876 830.772 Q150.001 830.772 148.126 831.188 Q146.274 831.605 144.329 832.485 L144.329 815.124 Z" fill="#000000" fill-rule="nonzero" fill-opacity="1" /><path clip-path="url(#clip880)" d="M174.445 843.804 L179.329 843.804 L179.329 849.684 L174.445 849.684 L174.445 843.804 Z" fill="#000000" fill-rule="nonzero" fill-opacity="1" /><path clip-path="url(#clip880)" d="M199.514 818.202 Q195.903 818.202 194.075 821.767 Q192.269 825.309 192.269 832.438 Q192.269 839.545 194.075 843.11 Q195.903 846.651 199.514 846.651 Q203.149 846.651 204.954 843.11 Q206.783 839.545 206.783 832.438 Q206.783 825.309 204.954 821.767 Q203.149 818.202 199.514 818.202 M199.514 814.499 Q205.324 814.499 208.38 819.105 Q211.459 823.688 211.459 832.438 Q211.459 841.165 208.38 845.772 Q205.324 850.355 199.514 850.355 Q193.704 850.355 190.625 845.772 Q187.57 841.165 187.57 832.438 Q187.57 823.688 190.625 819.105 Q193.704 814.499 199.514 814.499 Z" fill="#000000" fill-rule="nonzero" fill-opacity="1" /><path clip-path="url(#clip880)" d="M144.098 519.735 L166.32 519.735 L166.32 521.726 L153.774 554.295 L148.89 554.295 L160.695 523.671 L144.098 523.671 L144.098 519.735 Z" fill="#000000" fill-rule="nonzero" fill-opacity="1" /><path clip-path="url(#clip880)" d="M175.44 548.416 L180.325 548.416 L180.325 554.295 L175.44 554.295 L175.44 548.416 Z" fill="#000000" fill-rule="nonzero" fill-opacity="1" /><path clip-path="url(#clip880)" d="M190.556 519.735 L208.912 519.735 L208.912 523.671 L194.838 523.671 L194.838 532.143 Q195.857 531.796 196.875 531.634 Q197.894 531.448 198.912 531.448 Q204.699 531.448 208.079 534.62 Q211.459 537.791 211.459 543.208 Q211.459 548.786 207.987 551.888 Q204.514 554.967 198.195 554.967 Q196.019 554.967 193.75 554.596 Q191.505 554.226 189.098 553.485 L189.098 548.786 Q191.181 549.921 193.403 550.476 Q195.625 551.032 198.102 551.032 Q202.107 551.032 204.445 548.925 Q206.783 546.819 206.783 543.208 Q206.783 539.596 204.445 537.49 Q202.107 535.384 198.102 535.384 Q196.227 535.384 194.352 535.8 Q192.5 536.217 190.556 537.097 L190.556 519.735 Z" fill="#000000" fill-rule="nonzero" fill-opacity="1" /><path clip-path="url(#clip880)" d="M114.931 254.972 L122.57 254.972 L122.57 228.607 L114.26 230.273 L114.26 226.014 L122.524 224.347 L127.2 224.347 L127.2 254.972 L134.839 254.972 L134.839 258.907 L114.931 258.907 L114.931 254.972 Z" fill="#000000" fill-rule="nonzero" fill-opacity="1" /><path clip-path="url(#clip880)" d="M154.283 227.426 Q150.672 227.426 148.843 230.991 Q147.038 234.533 147.038 241.662 Q147.038 248.769 148.843 252.333 Q150.672 255.875 154.283 255.875 Q157.917 255.875 159.723 252.333 Q161.552 248.769 161.552 241.662 Q161.552 234.533 159.723 230.991 Q157.917 227.426 154.283 227.426 M154.283 223.722 Q160.093 223.722 163.149 228.329 Q166.227 232.912 166.227 241.662 Q166.227 250.389 163.149 254.995 Q160.093 259.579 154.283 259.579 Q148.473 259.579 145.394 254.995 Q142.339 250.389 142.339 241.662 Q142.339 232.912 145.394 228.329 Q148.473 223.722 154.283 223.722 Z" fill="#000000" fill-rule="nonzero" fill-opacity="1" /><path clip-path="url(#clip880)" d="M174.445 253.028 L179.329 253.028 L179.329 258.907 L174.445 258.907 L174.445 253.028 Z" fill="#000000" fill-rule="nonzero" fill-opacity="1" /><path clip-path="url(#clip880)" d="M199.514 227.426 Q195.903 227.426 194.075 230.991 Q192.269 234.533 192.269 241.662 Q192.269 248.769 194.075 252.333 Q195.903 255.875 199.514 255.875 Q203.149 255.875 204.954 252.333 Q206.783 248.769 206.783 241.662 Q206.783 234.533 204.954 230.991 Q203.149 227.426 199.514 227.426 M199.514 223.722 Q205.324 223.722 208.38 228.329 Q211.459 232.912 211.459 241.662 Q211.459 250.389 208.38 254.995 Q205.324 259.579 199.514 259.579 Q193.704 259.579 190.625 254.995 Q187.57 250.389 187.57 241.662 Q187.57 232.912 190.625 228.329 Q193.704 223.722 199.514 223.722 Z" fill="#000000" fill-rule="nonzero" fill-opacity="1" /><path clip-path="url(#clip880)" d="M22.2124 880.608 L33.6132 881.929 Q34.6438 882.025 34.9659 882.186 Q35.2557 882.347 35.2557 882.863 Q35.2557 883.636 34.4828 883.636 Q34.1607 883.636 33.2912 883.507 Q31.5199 883.314 29.7163 883.314 Q27.6874 883.314 26.4313 883.7 Q25.1431 884.054 24.2091 885.085 Q23.2752 886.115 22.8887 888.016 Q22.47 889.916 22.47 892.943 L22.47 901.639 Q22.47 903.764 22.8565 904.28 Q23.2429 904.763 25.0465 905.214 L41.7935 909.432 L41.7935 903.442 Q41.7935 899.255 40.5697 897.613 Q39.3459 895.97 35.449 894.94 Q34.8371 894.779 34.6116 894.714 Q34.354 894.618 34.2251 894.457 Q34.0641 894.264 34.0641 893.941 Q34.0641 893.652 34.2574 893.458 Q34.4184 893.265 34.6116 893.201 L34.8049 893.136 Q35.1269 893.136 35.8676 893.33 L50.167 896.969 Q51.1332 897.226 51.3587 897.387 Q51.5519 897.516 51.5519 897.967 Q51.5519 898.289 51.3265 898.515 Q51.101 898.74 50.7468 898.74 Q50.3603 898.676 50.0382 898.547 Q48.0737 898.096 46.8176 898.096 Q46.0125 898.096 45.5294 898.257 Q45.0463 898.418 44.6276 898.966 Q44.209 899.513 44.0157 900.64 Q43.8225 901.767 43.8225 903.571 L43.8225 909.948 L60.2475 914.038 L61.7612 914.328 Q62.4375 914.328 62.6951 913.974 Q62.9528 913.587 63.0816 912.202 Q63.2426 910.141 63.2426 908.788 Q63.2426 907.114 63.307 906.92 Q63.5003 906.534 64.0156 906.534 Q64.5953 906.534 64.9173 906.792 Q65.2072 907.049 65.2394 907.275 Q65.2716 907.5 65.2716 907.919 L65.0784 917.742 L65.2716 926.437 Q65.2716 927.436 64.4664 927.436 Q63.8545 927.436 63.5969 927.178 Q63.307 926.92 63.2748 926.63 Q63.2426 926.341 63.2426 925.6 Q63.2426 923.99 63.146 923.023 Q63.0494 922.057 62.9206 921.445 Q62.7595 920.801 62.3087 920.479 Q61.8578 920.125 61.4713 919.964 Q61.0526 919.803 60.1187 919.577 L25.2397 910.882 Q24.0481 910.56 23.6616 910.56 Q23.2429 910.56 22.9853 910.85 Q22.7277 911.107 22.631 911.816 Q22.5022 912.524 22.5022 913.104 Q22.47 913.651 22.47 914.843 Q22.47 915.616 22.4378 915.938 Q22.4056 916.228 22.2446 916.453 Q22.0835 916.679 21.7293 916.679 Q20.8275 916.679 20.6343 916.292 Q20.4088 915.874 20.4088 914.714 L20.4088 882.38 Q20.4088 881.091 20.6987 880.801 Q20.9563 880.479 22.2124 880.608 Z" fill="#000000" fill-rule="nonzero" fill-opacity="1" /><path clip-path="url(#clip880)" d="M40.4087 852.955 Q42.1156 852.955 43.2106 854.083 Q44.3056 855.178 44.3056 856.595 Q44.3056 857.819 43.5971 858.463 Q42.8885 859.107 41.9868 859.107 Q40.6985 859.107 39.6357 858.108 Q38.5729 857.11 38.3475 855.661 Q37.5746 856.724 37.5746 858.43 Q37.5746 861.232 39.7323 863.712 Q40.7307 864.807 42.5665 865.999 Q44.37 867.19 45.1429 867.416 L53.7419 869.509 Q54.7081 869.702 59.3457 870.894 Q63.9512 872.054 64.1444 872.15 Q65.0462 872.472 65.5292 873.181 Q66.0123 873.889 66.0123 874.598 Q66.0123 875.403 65.5292 875.95 Q65.0462 876.498 64.2088 876.498 Q64.08 876.498 63.5969 876.401 Q63.1138 876.305 62.4375 876.144 Q61.7612 875.983 61.3747 875.918 L46.1413 872.086 Q43.3716 871.377 42.5021 871.216 Q41.6003 871.023 40.6019 871.023 Q38.8628 871.023 38.2187 871.57 Q37.5746 872.118 37.5746 873.084 Q37.5746 874.759 39.5713 875.854 Q41.5681 876.949 45.4328 877.883 Q46.4956 878.173 46.721 878.366 Q46.9465 878.527 46.9465 879.01 Q46.9143 879.815 46.2701 879.815 Q46.1091 879.815 45.0785 879.557 Q44.0157 879.3 42.4698 878.817 Q40.8918 878.301 39.8934 877.754 Q39.2171 877.432 38.7662 877.142 Q38.3153 876.852 37.6068 876.272 Q36.8982 875.693 36.5118 874.823 Q36.1253 873.954 36.1253 872.891 Q36.1253 870.572 37.5423 868.93 Q38.9594 867.255 41.1816 866.868 Q40.0222 866.063 39.0238 865.065 Q37.9932 864.066 37.0593 862.231 Q36.1253 860.395 36.1253 858.43 Q36.1253 855.983 37.3813 854.469 Q38.6051 852.955 40.4087 852.955 Z" fill="#000000" fill-rule="nonzero" fill-opacity="1" /><path clip-path="url(#clip880)" d="M57.6388 823.797 Q57.9287 823.54 58.2185 823.54 Q58.5084 823.54 59.3457 824.184 Q60.1831 824.796 61.3103 826.116 Q62.4375 827.437 63.5003 829.144 Q64.5631 830.851 65.2716 833.363 Q66.0123 835.875 66.0123 838.516 Q66.0123 843.25 62.6307 846.084 Q59.2491 848.886 54.064 848.886 Q50.7468 848.886 47.816 847.791 Q44.8531 846.696 42.7597 844.924 Q40.6663 843.121 39.1526 840.867 Q37.6068 838.58 36.866 836.197 Q36.1253 833.813 36.1253 831.591 Q36.1253 828.338 37.7678 826.438 Q39.4103 824.538 41.7291 824.538 Q42.2766 824.538 42.9529 824.699 Q43.6293 824.828 44.692 825.279 Q45.7548 825.698 46.8176 826.793 Q47.8482 827.888 48.5245 829.498 Q50.0382 833.073 50.0382 839.578 L50.0382 843.089 Q54.1928 844.119 56.8981 844.119 Q57.9609 844.119 59.0559 843.926 Q60.1187 843.733 61.4713 843.218 Q62.8239 842.67 63.6935 841.446 Q64.5309 840.19 64.5309 838.387 Q64.5309 837.807 64.4987 837.195 Q64.4664 836.551 64.1122 834.941 Q63.7579 833.298 63.146 831.849 Q62.5341 830.4 61.2137 828.564 Q59.861 826.696 58.0253 825.215 Q57.349 824.699 57.349 824.345 Q57.349 824.055 57.6388 823.797 M41.7291 826.728 Q39.9578 826.728 38.7662 828.049 Q37.5746 829.337 37.5746 831.591 Q37.5746 832.3 37.7356 833.169 Q37.8966 834.039 38.5729 835.488 Q39.2493 836.905 40.3765 838.161 Q41.4715 839.417 43.6293 840.673 Q45.7548 841.929 48.589 842.67 L48.589 839.965 Q48.589 839.031 48.589 838.355 Q48.5568 837.678 48.4279 836.197 Q48.2991 834.683 48.0737 833.588 Q47.816 832.493 47.3007 831.108 Q46.7854 829.723 46.1091 828.854 Q45.4006 827.952 44.2734 827.34 Q43.1462 826.728 41.7291 826.728 Z" fill="#000000" fill-rule="nonzero" fill-opacity="1" /><path clip-path="url(#clip880)" d="M36.8338 791.273 L73.5163 800.387 Q74.6757 800.645 74.9656 800.645 Q75.352 800.645 75.5131 800.548 Q75.7063 800.419 75.8673 799.711 Q76.0284 798.97 76.0284 797.489 Q76.0284 796.941 76.0284 796.748 Q76.0284 796.555 76.0928 796.265 Q76.1572 795.975 76.3182 795.878 Q76.4792 795.782 76.7369 795.782 Q78.0573 795.782 78.0573 796.941 Q78.0573 798.036 77.9607 800.323 Q77.8641 802.609 77.8641 803.737 Q77.8641 804.832 77.9607 807.054 Q78.0573 809.276 78.0573 810.339 Q78.0573 810.725 77.8641 810.951 Q77.7031 811.176 77.5098 811.176 L77.3488 811.208 Q76.447 811.208 76.2216 810.854 Q76.0284 810.5 76.0284 809.695 Q75.9961 806.925 75.6097 806.12 Q75.2232 805.315 73.8384 804.928 L62.051 801.965 Q66.0123 805.927 66.0123 809.759 Q66.0123 813.463 63.1138 815.975 Q60.1831 818.455 55.4488 818.455 Q51.9384 818.455 48.3957 817.07 Q44.8531 815.653 42.18 813.463 Q39.5069 811.241 37.8322 808.342 Q36.1253 805.443 36.1253 802.577 Q36.1253 800.741 37.1881 799.099 Q38.2509 797.424 40.7307 796.426 Q39.3137 795.588 37.7678 794.043 Q36.1897 792.497 36.1897 791.949 Q36.1897 791.627 36.4151 791.466 Q36.6084 791.273 36.8338 791.273 M43.3716 797.36 Q43.0496 797.36 42.2444 797.617 Q41.4393 797.843 40.3443 798.358 Q39.2171 798.841 38.4119 799.968 Q37.5746 801.096 37.5746 802.577 Q37.5746 804.703 39.6357 806.989 Q41.6647 809.244 45.2073 810.725 Q47.5262 811.659 51.8418 812.722 Q56.1573 813.785 58.3473 813.785 Q58.8626 813.785 59.4423 813.753 Q60.022 813.688 60.9882 813.431 Q61.9544 813.173 62.6951 812.786 Q63.4359 812.368 63.9834 811.53 Q64.5309 810.693 64.5309 809.566 Q64.5309 807.118 62.4375 804.671 Q60.3441 802.223 58.4762 801.192 Q58.2829 801.063 50.9722 799.228 Q43.6615 797.36 43.3716 797.36 Z" fill="#000000" fill-rule="nonzero" fill-opacity="1" /><path clip-path="url(#clip880)" d="M55.8353 751.724 Q59.9898 752.561 62.3731 753.688 Q66.0123 755.524 66.0123 758.583 Q66.0123 760.709 64.8207 762.319 Q63.5969 763.897 61.5679 764.445 Q62.3731 765.057 62.9206 765.604 Q63.4681 766.12 64.3054 767.118 Q65.1106 768.116 65.5614 769.469 Q66.0123 770.789 66.0123 772.303 Q66.0123 773.463 65.7869 774.525 Q65.5937 775.588 65.0462 776.715 Q64.4664 777.81 63.5969 778.615 Q62.7273 779.388 61.3103 779.904 Q59.8932 780.419 58.0897 780.419 Q55.8353 780.419 52.7757 779.549 Q49.7162 778.648 44.2412 776.586 Q41.3426 775.459 39.7323 775.459 Q38.9916 775.459 38.5085 775.62 Q38.0254 775.781 37.8644 776.103 Q37.6712 776.393 37.639 776.586 Q37.5746 776.78 37.5746 777.102 Q37.5746 779.099 39.6035 780.838 Q41.6325 782.577 45.7548 783.768 Q46.56 784.026 46.7532 784.187 Q46.9465 784.348 46.9465 784.831 Q46.9143 785.636 46.2701 785.636 Q46.0125 785.636 45.0141 785.346 Q43.9835 785.057 42.4698 784.38 Q40.924 783.672 39.5391 782.706 Q38.1221 781.739 37.1237 780.226 Q36.1253 778.68 36.1253 776.909 Q36.1253 774.493 37.7034 773.012 Q39.2493 771.498 41.5359 771.498 Q42.9529 771.498 45.6904 772.625 Q55.1912 776.2 59.1525 776.2 Q64.5309 776.2 64.5309 772.11 Q64.5309 770.757 63.9834 769.501 Q63.4359 768.213 62.6629 767.376 Q61.89 766.538 61.0526 765.894 Q60.2153 765.218 59.6678 764.928 Q59.1203 764.606 58.9915 764.574 L39.1526 759.646 Q38.3797 759.453 37.8644 759.099 Q37.3169 758.712 37.1237 758.261 Q36.9304 757.81 36.8982 757.553 Q36.8338 757.295 36.8338 757.07 Q36.8338 756.265 37.3169 755.717 Q37.8 755.137 38.6373 755.137 Q38.7984 755.137 39.5713 755.331 Q40.3121 755.492 41.4071 755.749 Q42.4698 756.007 43.0496 756.136 Q47.1075 757.166 47.5262 757.263 L54.6437 759.099 Q55.0623 759.195 56.415 759.517 Q57.7676 759.807 58.4762 759.968 Q59.1525 760.129 60.0865 760.29 Q60.9882 760.419 61.5035 760.419 Q63.1138 760.419 63.8223 759.936 Q64.5309 759.453 64.5309 758.39 Q64.5309 757.392 63.8545 756.619 Q63.146 755.814 61.7934 755.202 Q60.4085 754.59 59.2813 754.236 Q58.1541 753.881 56.3828 753.43 Q55.6098 753.269 55.4166 753.141 Q55.1912 752.98 55.1912 752.529 Q55.1912 751.724 55.8353 751.724 Z" fill="#000000" fill-rule="nonzero" fill-opacity="1" /><path clip-path="url(#clip880)" d="M57.6388 722.667 Q57.9287 722.409 58.2185 722.409 Q58.5084 722.409 59.3457 723.053 Q60.1831 723.665 61.3103 724.986 Q62.4375 726.306 63.5003 728.013 Q64.5631 729.72 65.2716 732.232 Q66.0123 734.744 66.0123 737.385 Q66.0123 742.119 62.6307 744.953 Q59.2491 747.755 54.064 747.755 Q50.7468 747.755 47.816 746.66 Q44.8531 745.565 42.7597 743.794 Q40.6663 741.99 39.1526 739.736 Q37.6068 737.449 36.866 735.066 Q36.1253 732.683 36.1253 730.461 Q36.1253 727.208 37.7678 725.308 Q39.4103 723.408 41.7291 723.408 Q42.2766 723.408 42.9529 723.569 Q43.6293 723.697 44.692 724.148 Q45.7548 724.567 46.8176 725.662 Q47.8482 726.757 48.5245 728.367 Q50.0382 731.942 50.0382 738.448 L50.0382 741.958 Q54.1928 742.989 56.8981 742.989 Q57.9609 742.989 59.0559 742.795 Q60.1187 742.602 61.4713 742.087 Q62.8239 741.539 63.6935 740.316 Q64.5309 739.06 64.5309 737.256 Q64.5309 736.676 64.4987 736.064 Q64.4664 735.42 64.1122 733.81 Q63.7579 732.168 63.146 730.718 Q62.5341 729.269 61.2137 727.433 Q59.861 725.565 58.0253 724.084 Q57.349 723.569 57.349 723.214 Q57.349 722.924 57.6388 722.667 M41.7291 725.598 Q39.9578 725.598 38.7662 726.918 Q37.5746 728.206 37.5746 730.461 Q37.5746 731.169 37.7356 732.039 Q37.8966 732.908 38.5729 734.358 Q39.2493 735.775 40.3765 737.031 Q41.4715 738.287 43.6293 739.543 Q45.7548 740.799 48.589 741.539 L48.589 738.834 Q48.589 737.9 48.589 737.224 Q48.5568 736.548 48.4279 735.066 Q48.2991 733.552 48.0737 732.457 Q47.816 731.362 47.3007 729.978 Q46.7854 728.593 46.1091 727.723 Q45.4006 726.821 44.2734 726.209 Q43.1462 725.598 41.7291 725.598 Z" fill="#000000" fill-rule="nonzero" fill-opacity="1" /><path clip-path="url(#clip880)" d="M55.8353 682.896 Q56.0929 682.896 57.0913 683.185 Q58.0897 683.475 59.6356 684.184 Q61.1815 684.86 62.5985 685.794 Q63.9834 686.728 65.0139 688.274 Q66.0123 689.788 66.0123 691.527 Q66.0123 693.846 64.4664 695.391 Q62.9206 696.937 60.6017 696.937 Q59.3135 696.937 57.5422 696.261 Q46.1091 691.978 42.18 691.978 Q37.5746 691.978 37.5746 695.552 Q37.5746 697.324 38.2509 698.998 Q38.895 700.641 39.7968 701.768 Q40.6985 702.895 41.9546 703.926 Q43.1784 704.924 44.0157 705.44 Q44.8209 705.923 45.626 706.309 L48.911 707.147 Q49.8128 707.34 53.3232 708.274 L59.2813 709.723 Q63.7257 710.754 64.1444 710.979 Q65.0462 711.301 65.5292 712.01 Q66.0123 712.718 66.0123 713.427 Q66.0123 714.232 65.5292 714.779 Q65.0462 715.327 64.2088 715.327 Q64.08 715.327 63.5969 715.23 Q63.1138 715.134 62.4375 714.973 Q61.7612 714.812 61.3747 714.747 L46.1413 710.915 Q43.3716 710.206 42.5021 710.045 Q41.6003 709.852 40.6019 709.852 Q37.5746 709.852 37.5746 711.913 Q37.5746 713.588 39.5713 714.683 Q41.5681 715.778 45.4328 716.712 Q46.4956 717.002 46.721 717.195 Q46.9465 717.356 46.9465 717.839 Q46.9143 718.644 46.2701 718.644 Q46.1091 718.644 45.0463 718.386 Q43.9835 718.129 42.4698 717.646 Q40.924 717.13 39.8934 716.647 Q39.1204 716.229 38.7662 716.003 Q38.3797 715.746 37.639 715.134 Q36.866 714.489 36.5118 713.652 Q36.1253 712.783 36.1253 711.72 Q36.1253 709.337 37.6712 707.597 Q39.1848 705.858 41.8579 705.633 Q36.1253 701.349 36.1253 695.359 Q36.1253 691.817 37.9932 689.788 Q39.8612 687.759 43.1784 687.759 Q43.9513 687.759 44.9497 687.92 Q45.9159 688.048 47.1397 688.371 Q48.3635 688.66 49.2975 688.918 Q50.2315 689.176 51.7451 689.691 Q53.2266 690.206 53.8707 690.432 Q54.5148 690.657 56.0285 691.205 Q57.51 691.72 57.671 691.784 Q60.6662 692.976 62.3731 692.976 Q63.5003 692.976 64.0156 692.622 Q64.5309 692.235 64.5309 691.398 Q64.5309 689.143 62.3087 687.469 Q60.0542 685.762 56.3828 684.667 Q55.5776 684.409 55.3844 684.28 Q55.1912 684.119 55.1912 683.668 Q55.1912 682.896 55.8353 682.896 Z" fill="#000000" fill-rule="nonzero" fill-opacity="1" /><path clip-path="url(#clip880)" d="M57.6388 652.478 Q57.9287 652.221 58.2185 652.221 Q58.5084 652.221 59.3457 652.865 Q60.1831 653.477 61.3103 654.797 Q62.4375 656.118 63.5003 657.824 Q64.5631 659.531 65.2716 662.043 Q66.0123 664.555 66.0123 667.196 Q66.0123 672.124 62.7595 675.022 Q59.5067 677.889 54.8369 677.889 Q50.2959 677.889 45.9481 675.344 Q41.5681 672.8 38.8628 668.678 Q36.1253 664.555 36.1253 660.208 Q36.1253 656.762 37.7356 654.604 Q39.3459 652.446 41.7935 652.446 Q43.6937 652.446 44.8531 653.541 Q46.0125 654.636 46.0125 656.118 Q46.0125 657.148 45.4328 657.857 Q44.8209 658.565 43.6937 658.565 Q42.2444 658.565 41.1172 657.374 Q40.6663 656.923 40.4731 656.407 Q40.2476 655.86 40.2476 655.538 Q40.2154 655.216 40.2154 654.475 Q38.9594 655.151 38.2831 656.762 Q37.5746 658.34 37.5746 660.143 Q37.5746 662.816 39.4425 665.361 Q41.2782 667.905 44.1768 669.451 Q47.0109 670.997 51.0366 671.995 Q55.0301 672.993 57.349 672.993 Q60.5373 672.993 62.5341 671.512 Q64.5309 670.03 64.5309 667.068 Q64.5309 666.488 64.4987 665.876 Q64.4664 665.232 64.1122 663.621 Q63.7579 661.979 63.146 660.53 Q62.5341 659.08 61.2137 657.245 Q59.861 655.377 58.0253 653.895 Q57.349 653.38 57.349 653.026 Q57.349 652.736 57.6388 652.478 Z" fill="#000000" fill-rule="nonzero" fill-opacity="1" /><path clip-path="url(#clip880)" d="M38.6373 620.776 Q39.0882 620.776 40.151 621.066 L65.336 627.378 Q70.9398 628.763 74.8689 633.272 Q78.7981 637.749 78.7981 642.837 Q78.7981 645.897 77.1556 647.861 Q75.5453 649.826 73.0654 649.826 Q70.8754 649.826 69.8126 648.666 Q68.782 647.507 68.782 646.122 Q68.782 645.671 68.9109 645.188 Q69.0397 644.705 69.5872 644.19 Q70.1347 643.674 71.0687 643.674 Q72.5823 643.674 73.7739 644.995 Q74.3214 645.639 74.4503 646.251 Q74.5791 646.831 74.5791 647.829 Q75.4809 647.443 76.0928 646.734 Q76.7047 646.025 76.9301 645.22 Q77.1878 644.415 77.2522 643.9 Q77.3488 643.352 77.3488 642.837 Q77.3488 638.715 73.1942 635.559 Q71.9382 634.625 70.6822 633.948 Q69.4584 633.24 67.9447 632.724 Q66.4632 632.209 65.6581 631.984 Q64.8529 631.726 63.0172 631.275 Q66.0123 634.27 66.0123 637.942 Q66.0123 639.488 65.5937 640.873 Q65.175 642.225 64.3054 643.417 Q63.4037 644.608 61.8256 645.317 Q60.2475 645.993 58.1541 645.993 Q55.9319 645.993 52.9045 645.124 Q49.8772 644.254 44.3056 642.161 Q41.1816 641.034 39.6679 641.034 Q38.9272 641.034 38.4763 641.195 Q37.9932 641.356 37.8322 641.678 Q37.639 642 37.6068 642.193 Q37.5746 642.354 37.5746 642.676 Q37.5746 644.576 39.5069 646.348 Q41.4393 648.119 45.7548 649.343 Q46.56 649.6 46.7532 649.761 Q46.9465 649.922 46.9465 650.405 Q46.9143 651.211 46.2701 651.211 Q46.0125 651.211 45.0141 650.921 Q43.9835 650.631 42.4698 649.955 Q40.924 649.246 39.5391 648.28 Q38.1221 647.314 37.1237 645.8 Q36.1253 644.254 36.1253 642.483 Q36.1253 640.067 37.7034 638.586 Q39.2493 637.072 41.5359 637.072 Q42.4698 637.072 43.3072 637.33 Q44.1123 637.555 46.2701 638.393 Q54.9657 641.774 59.2169 641.774 Q60.2475 641.774 61.117 641.613 Q61.9544 641.42 62.7917 641.001 Q63.5969 640.583 64.08 639.745 Q64.5309 638.876 64.5309 637.684 Q64.5309 636.17 63.8223 634.753 Q63.0816 633.304 62.0832 632.402 Q61.0848 631.468 60.2475 630.921 Q59.3779 630.341 58.927 630.212 L47.0753 627.249 L41.7935 625.929 Q38.9272 625.317 38.2187 625.027 Q37.5423 624.641 37.1881 623.964 Q36.8338 623.288 36.8338 622.708 Q36.8338 621.903 37.3169 621.356 Q37.8 620.776 38.6373 620.776 Z" fill="#000000" fill-rule="nonzero" fill-opacity="1" /><path clip-path="url(#clip880)" d="M933.565 18.8198 Q933.565 20.0085 933.032 20.2544 Q932.54 20.5004 930.737 20.5004 Q927.663 20.5004 926.269 20.9103 Q924.916 21.2792 924.506 21.935 Q924.138 22.5498 923.687 24.3534 L912.333 69.6875 Q912.333 69.7285 912.21 70.3023 Q912.087 70.8352 912.087 71.1221 Q912.087 71.655 912.415 71.9829 Q912.784 72.3108 913.685 72.4748 Q914.587 72.5977 915.284 72.6387 Q916.022 72.6387 917.538 72.6387 Q919.424 72.6387 919.711 72.9667 Q919.875 73.1716 919.875 73.5405 Q919.875 74.3193 919.547 74.7292 Q919.26 75.0981 918.973 75.1801 Q918.727 75.2211 918.235 75.2211 Q917.374 75.2211 915.53 75.1391 Q913.685 75.0571 912.743 75.0571 L907.373 74.9751 L896.716 75.2211 Q895.568 75.2211 895.568 74.2783 Q895.568 73.4585 895.855 73.0896 Q896.142 72.7207 896.429 72.6797 Q896.757 72.6387 897.577 72.6387 Q901.798 72.6387 903.192 72.2288 Q904.627 71.778 905.201 69.8515 L910.98 46.6925 L885.403 46.6925 L879.664 69.6875 Q879.664 69.7285 879.541 70.3023 Q879.418 70.8352 879.418 71.1221 Q879.418 71.655 879.746 71.9829 Q880.115 72.3108 881.017 72.4748 Q881.919 72.5977 882.615 72.6387 Q883.353 72.6387 884.87 72.6387 Q886.755 72.6387 887.083 72.9667 Q887.247 73.1716 887.247 73.5405 Q887.247 74.1144 887.083 74.5242 Q886.96 74.8931 886.632 75.0161 Q886.345 75.1391 886.141 75.1801 Q885.936 75.2211 885.567 75.2211 Q884.706 75.2211 882.861 75.1391 Q881.058 75.0571 880.115 75.0571 L874.745 74.9751 L864.088 75.2211 Q862.9 75.2211 862.9 74.2783 Q862.9 73.4585 863.187 73.1306 Q863.473 72.7617 863.842 72.7207 Q864.211 72.6387 865.154 72.6387 Q867.203 72.6387 868.433 72.5158 Q869.663 72.3928 870.442 72.2288 Q871.261 72.0239 871.671 71.45 Q872.122 70.8762 872.327 70.3843 Q872.532 69.8515 872.819 68.6628 L884.05 23.5746 Q884.378 22.2219 884.378 22.017 Q884.378 21.2382 883.886 21.0332 Q883.435 20.7873 882.124 20.6643 L878.926 20.5004 Q877.943 20.5004 877.533 20.4594 Q877.164 20.4184 876.877 20.2135 Q876.59 20.0085 876.59 19.5576 Q876.59 18.9838 876.713 18.6149 Q876.877 18.205 877.164 18.082 Q877.451 17.959 877.656 17.9181 Q877.861 17.8771 878.189 17.8771 L889.01 18.123 L899.749 17.8771 Q900.938 17.8771 900.938 18.8198 Q900.938 20.0085 900.405 20.2544 Q899.872 20.5004 898.068 20.5004 Q895.076 20.5004 893.683 20.9103 Q892.289 21.2792 891.838 21.935 Q891.428 22.5908 891.018 24.3534 L886.059 44.0692 L911.677 44.0692 L916.719 23.5746 Q917.046 22.099 917.046 22.017 Q917.046 21.2382 916.555 21.0332 Q916.104 20.7873 914.792 20.6643 L911.595 20.5004 Q910.611 20.5004 910.201 20.4594 Q909.832 20.4184 909.504 20.2135 Q909.217 20.0085 909.217 19.5576 Q909.217 18.9838 909.34 18.6149 Q909.504 18.205 909.791 18.082 Q910.078 17.959 910.283 17.9181 Q910.488 17.8771 910.816 17.8771 L921.637 18.123 L932.417 17.8771 Q933.565 17.8771 933.565 18.8198 Z" fill="#000000" fill-rule="nonzero" fill-opacity="1" /><path clip-path="url(#clip880)" d="M956.751 22.7548 Q956.751 24.5583 955.275 25.911 Q953.841 27.2226 952.283 27.2226 Q950.848 27.2226 949.947 26.3618 Q949.086 25.4601 949.086 24.1894 Q949.086 22.5089 950.52 21.1152 Q951.955 19.7216 953.636 19.7216 Q955.029 19.7216 955.89 20.5824 Q956.751 21.4431 956.751 22.7548 M957.489 63.2112 Q957.489 63.5391 957.12 64.8508 Q956.751 66.1214 955.849 68.0889 Q954.988 70.0154 953.8 71.819 Q952.611 73.6225 950.643 74.8931 Q948.717 76.1638 946.503 76.1638 Q943.511 76.1638 941.544 74.1963 Q939.617 72.2288 939.617 69.2776 Q939.617 67.679 941.544 62.5554 Q947.118 47.6353 947.323 47.0204 Q948.266 44.6841 948.266 42.6346 Q948.266 41.6918 948.061 41.118 Q947.856 40.5031 947.446 40.2982 Q947.036 40.0523 946.79 40.0113 Q946.585 39.9703 946.176 39.9703 Q943.757 39.9703 941.503 42.4296 Q939.248 44.889 937.691 50.3816 Q937.363 51.4063 937.158 51.6522 Q936.953 51.8982 936.338 51.8982 Q935.313 51.8572 935.313 51.0374 Q935.313 50.7915 935.6 49.8487 Q935.887 48.865 936.42 47.3893 Q936.953 45.8727 937.896 44.3151 Q938.838 42.7166 939.986 41.3229 Q941.175 39.9293 942.855 39.0275 Q944.536 38.1258 946.421 38.1258 Q949.496 38.1258 951.381 40.1342 Q953.308 42.1017 953.308 45.012 Q953.308 46.6105 952.201 49.4388 Q950.848 53.1278 950.356 54.3165 L947.077 63.1292 Q945.889 66.3264 945.52 67.3101 Q945.192 68.2529 944.905 69.4006 Q944.659 70.5073 944.659 71.532 Q944.659 72.9667 945.11 73.6225 Q945.602 74.2783 946.667 74.2783 Q949.619 74.2783 951.791 71.3681 Q953.964 68.4168 955.234 63.908 Q955.275 63.7851 955.316 63.5801 Q955.644 62.5554 955.972 62.4324 Q956.136 62.3914 956.464 62.3914 Q957.489 62.3914 957.489 63.2112 Z" fill="#000000" fill-rule="nonzero" fill-opacity="1" /><path clip-path="url(#clip880)" d="M997.232 45.3399 Q997.232 47.6353 996.084 48.865 Q994.937 50.0536 993.379 50.0536 Q992.108 50.0536 991.412 49.3158 Q990.756 48.578 990.756 47.5943 Q990.756 46.1597 991.903 45.012 Q993.092 43.8643 994.814 43.8233 Q994.24 42.3067 992.723 41.4049 Q991.207 40.4622 989.854 40.2162 Q988.542 39.9703 987.231 39.9703 Q984.648 39.9703 982.681 40.7901 Q980.713 41.6099 979.73 42.8805 Q978.746 44.1102 978.295 45.2989 Q977.844 46.4876 977.844 47.5123 Q977.844 48.4141 978.049 49.1519 Q978.295 49.8487 978.869 50.3816 Q979.443 50.8734 979.853 51.2013 Q980.304 51.5293 981.287 51.8162 Q982.271 52.1031 982.681 52.2261 Q983.091 52.3081 984.238 52.554 Q986.616 53.0459 987.682 53.3328 Q988.747 53.5787 990.141 54.2755 Q991.576 54.9724 992.641 56.0791 Q995.224 58.6614 995.224 62.2275 Q995.224 63.5391 994.773 65.1377 Q994.363 66.7363 993.174 68.7448 Q991.985 70.7532 990.182 72.3518 Q988.378 73.9504 985.263 75.0571 Q982.189 76.1638 978.336 76.1638 Q972.966 76.1638 969.646 73.9094 Q966.326 71.614 966.326 68.0069 Q966.326 65.3836 967.761 63.949 Q969.195 62.4734 971.04 62.4734 Q972.434 62.4734 973.294 63.2522 Q974.155 63.99 974.155 65.3836 Q974.155 67.2691 972.639 68.7038 Q971.122 70.1384 968.868 69.8515 Q970.794 74.2783 978.418 74.2783 Q981.287 74.2783 983.501 73.5405 Q985.755 72.7617 986.985 71.696 Q988.255 70.5893 989.075 69.2366 Q989.895 67.884 990.141 66.8592 Q990.428 65.8345 990.428 65.0557 Q990.428 63.7031 989.895 62.6783 Q989.362 61.6536 988.624 61.0798 Q987.928 60.4649 986.575 59.9731 Q985.263 59.4402 984.32 59.2352 Q983.378 59.0303 981.697 58.7024 Q980.918 58.5384 980.426 58.4564 Q979.935 58.3335 978.91 58.0056 Q977.926 57.6367 977.229 57.2678 Q976.573 56.8989 975.713 56.243 Q974.852 55.5872 974.319 54.8084 Q973.786 54.0296 973.417 52.8819 Q973.048 51.7342 973.048 50.3816 Q973.048 49.1519 973.417 47.6763 Q973.827 46.2007 974.852 44.4791 Q975.918 42.7576 977.434 41.3639 Q978.951 39.9703 981.492 39.0685 Q984.075 38.1258 987.231 38.1258 Q991.822 38.1258 994.527 40.2572 Q997.232 42.3477 997.232 45.3399 Z" fill="#000000" fill-rule="nonzero" fill-opacity="1" /><path clip-path="url(#clip880)" d="M1028.19 39.9703 Q1028.19 41.118 1027.66 41.4049 Q1027.12 41.6508 1025.65 41.6508 L1017.78 41.6508 L1011.55 66.4084 Q1011.06 68.5808 1011.06 70.4253 Q1011.06 72.4748 1011.67 73.3765 Q1012.33 74.2783 1013.68 74.2783 Q1016.34 74.2783 1019.21 71.8599 Q1022.12 69.4416 1024.58 63.5391 Q1024.91 62.7603 1025.07 62.5964 Q1025.28 62.3914 1025.81 62.3914 Q1026.84 62.3914 1026.84 63.2112 Q1026.84 63.4981 1026.26 64.8098 Q1025.73 66.1214 1024.54 68.0479 Q1023.39 69.9744 1021.88 71.778 Q1020.4 73.5815 1018.15 74.8931 Q1015.89 76.1638 1013.47 76.1638 Q1010.07 76.1638 1007.9 73.9914 Q1005.77 71.819 1005.77 68.4168 Q1005.77 67.3101 1006.63 63.7851 Q1007.49 60.219 1012.16 41.6508 L1004.74 41.6508 Q1003.72 41.6508 1003.31 41.6099 Q1002.94 41.5689 1002.65 41.3639 Q1002.41 41.118 1002.41 40.6261 Q1002.41 39.8473 1002.74 39.5194 Q1003.06 39.1505 1003.47 39.1095 Q1003.92 39.0275 1004.95 39.0275 L1012.82 39.0275 L1016.1 25.706 Q1016.43 24.3944 1017.25 23.6566 Q1018.11 22.8778 1018.6 22.7958 Q1019.09 22.6728 1019.46 22.6728 Q1020.57 22.6728 1021.22 23.2876 Q1021.88 23.8615 1021.88 24.9272 Q1021.88 25.5011 1018.43 39.0275 L1025.81 39.0275 Q1026.75 39.0275 1027.12 39.0685 Q1027.53 39.1095 1027.86 39.3145 Q1028.19 39.5194 1028.19 39.9703 Z" fill="#000000" fill-rule="nonzero" fill-opacity="1" /><path clip-path="url(#clip880)" d="M1066.28 52.3081 Q1066.28 56.7759 1064.31 61.2027 Q1062.34 65.5886 1059.19 68.8677 Q1056.07 72.1059 1051.97 74.1553 Q1047.87 76.1638 1043.77 76.1638 Q1037.91 76.1638 1034.1 72.1879 Q1030.33 68.1709 1030.33 61.9405 Q1030.33 56.1201 1033.57 50.5865 Q1036.85 45.012 1042.09 41.5689 Q1047.34 38.1258 1052.83 38.1258 Q1058.61 38.1258 1062.42 42.0197 Q1066.28 45.9137 1066.28 52.3081 M1060.13 49.0289 Q1060.13 45.053 1058.2 42.5116 Q1056.28 39.9703 1052.75 39.9703 Q1051.73 39.9703 1050.54 40.2982 Q1049.35 40.5851 1047.79 41.3639 Q1046.27 42.1427 1044.55 43.7823 Q1042.87 45.3809 1041.4 47.6763 Q1039.47 50.7095 1037.99 56.284 Q1036.56 61.8176 1036.56 65.1377 Q1036.56 69.7285 1038.69 72.0239 Q1040.82 74.2783 1043.86 74.2783 Q1046.81 74.2783 1049.92 72.2288 Q1053.08 70.1384 1055.25 66.5723 Q1057.42 62.8833 1058.78 57.4727 Q1060.13 52.0211 1060.13 49.0289 Z" fill="#000000" fill-rule="nonzero" fill-opacity="1" /><path clip-path="url(#clip880)" d="M1106.15 42.0607 Q1106.15 42.1017 1105.9 43.5773 L1096.56 80.8366 Q1096.06 82.8041 1094.67 84.7716 Q1093.32 86.78 1091.15 88.5016 Q1089.01 90.2641 1085.73 91.3298 Q1082.5 92.4366 1078.77 92.4366 Q1072.82 92.4366 1070.2 91.1659 Q1067.62 89.9362 1067.62 87.3129 Q1067.62 85.0175 1069.05 83.7058 Q1070.49 82.4352 1072.13 82.4352 Q1073.68 82.4352 1074.5 83.3369 Q1075.32 84.2387 1075.32 85.3864 Q1075.32 86.6571 1074.46 87.9277 Q1073.6 89.2394 1071.88 89.7313 Q1074.63 90.592 1078.6 90.592 Q1087.01 90.592 1090.61 81.6974 Q1090.69 81.5744 1090.69 81.5334 L1093.48 70.4253 L1093.36 70.3433 Q1092.66 71.1631 1091.56 72.1059 Q1090.49 73.0076 1088.19 74.1144 Q1085.9 75.2211 1083.64 75.2211 Q1078.93 75.2211 1075.69 71.614 Q1072.5 67.966 1072.5 61.9405 Q1072.5 57.5547 1074.26 53.1688 Q1076.06 48.742 1078.85 45.5038 Q1081.68 42.2247 1085.28 40.1752 Q1088.93 38.1258 1092.46 38.1258 Q1094.92 38.1258 1097.01 39.6014 Q1099.1 41.036 1100.25 43.4134 Q1100.45 41.4459 1101.56 40.6261 Q1102.7 39.8063 1103.69 39.8063 Q1104.79 39.8063 1105.45 40.4212 Q1106.15 40.995 1106.15 42.0607 M1099.26 47.1844 Q1099.26 46.9385 1099.1 46.2826 Q1098.93 45.5858 1098.44 44.4791 Q1097.99 43.3724 1097.29 42.3887 Q1096.6 41.4049 1095.33 40.7081 Q1094.1 39.9703 1092.54 39.9703 Q1090 39.9703 1087.46 42.1017 Q1084.92 44.1922 1083.15 47.4303 Q1081.51 50.5455 1079.96 56.5709 Q1078.44 62.5964 1078.44 65.6706 Q1078.44 68.7038 1079.75 71.0402 Q1081.06 73.3765 1083.89 73.3765 Q1087.17 73.3765 1090.69 70.3433 Q1094.34 67.1872 1094.96 64.4819 L1099.02 48.4551 Q1099.26 47.4713 1099.26 47.1844 Z" fill="#000000" fill-rule="nonzero" fill-opacity="1" /><path clip-path="url(#clip880)" d="M1145.12 43.5773 Q1145.12 45.7498 1143.69 47.1434 Q1142.29 48.537 1140.49 48.537 Q1138.93 48.537 1138.11 47.6353 Q1137.29 46.7335 1137.29 45.5858 Q1137.29 43.9462 1138.56 42.5936 Q1139.83 41.241 1141.68 40.954 Q1140.32 39.9703 1138.15 39.9703 Q1134.59 39.9703 1131.43 42.7166 Q1130.04 43.9872 1128.52 46.3236 Q1127 48.619 1126.72 49.6028 L1124.05 60.5469 Q1123.81 61.7766 1122.29 67.679 Q1120.81 73.5405 1120.69 73.7864 Q1120.28 74.9341 1119.38 75.549 Q1118.48 76.1638 1117.58 76.1638 Q1116.55 76.1638 1115.85 75.549 Q1115.16 74.9341 1115.16 73.8684 Q1115.16 73.7045 1115.28 73.0896 Q1115.4 72.4748 1115.61 71.614 Q1115.81 70.7532 1115.9 70.2614 L1120.77 50.8734 Q1121.67 47.3484 1121.88 46.2416 Q1122.13 45.0939 1122.13 43.8233 Q1122.13 41.6099 1121.43 40.7901 Q1120.73 39.9703 1119.5 39.9703 Q1117.37 39.9703 1115.98 42.5116 Q1114.58 45.053 1113.39 49.9717 Q1113.03 51.3243 1112.78 51.6112 Q1112.57 51.8982 1111.96 51.8982 Q1110.94 51.8572 1110.94 51.0374 Q1110.94 50.8324 1111.26 49.5208 Q1111.59 48.1681 1112.21 46.2007 Q1112.86 44.1922 1113.56 42.9215 Q1113.97 42.0607 1114.34 41.4869 Q1114.71 40.913 1115.44 40.0113 Q1116.18 39.1095 1117.29 38.6176 Q1118.4 38.1258 1119.75 38.1258 Q1122.7 38.1258 1124.79 39.9293 Q1126.92 41.7328 1127.41 44.5611 Q1128.44 43.0855 1129.71 41.8148 Q1130.98 40.5031 1133.32 39.3145 Q1135.65 38.1258 1138.15 38.1258 Q1141.27 38.1258 1143.19 39.7243 Q1145.12 41.2819 1145.12 43.5773 Z" fill="#000000" fill-rule="nonzero" fill-opacity="1" /><path clip-path="url(#clip880)" d="M1189.51 63.2112 Q1188.4 68.4988 1186.97 71.532 Q1184.67 76.1638 1180.78 76.1638 Q1177.83 76.1638 1175.74 74.3603 Q1173.65 72.5568 1173.16 69.8515 Q1167.79 76.1638 1162.21 76.1638 Q1157.29 76.1638 1154.18 72.4338 Q1151.06 68.6628 1151.06 62.7193 Q1151.06 56.7349 1154.01 50.9964 Q1157.01 45.2579 1161.72 41.6918 Q1166.43 38.1258 1171.27 38.1258 Q1176.39 38.1258 1179.02 43.4954 Q1179.22 42.0197 1180.16 40.913 Q1181.11 39.8063 1182.54 39.8063 Q1183.65 39.8063 1184.3 40.4212 Q1184.96 40.995 1184.96 42.0607 Q1184.96 42.5936 1184.39 44.93 L1181.35 56.6529 L1179.51 64.2359 Q1178.81 67.0232 1178.61 68.0479 Q1178.44 69.0727 1178.44 70.4253 Q1178.44 74.2783 1180.94 74.2783 Q1182.17 74.2783 1183.16 73.4995 Q1184.14 72.7207 1184.92 71.0811 Q1185.7 69.4416 1186.19 67.925 Q1186.68 66.3674 1187.34 63.908 Q1187.54 62.9243 1187.71 62.6783 Q1187.91 62.3914 1188.49 62.3914 Q1189.51 62.3914 1189.51 63.2112 M1177.99 47.3484 Q1177.99 46.9794 1177.71 45.9547 Q1177.42 44.93 1176.76 43.4954 Q1176.11 42.0607 1174.67 41.036 Q1173.28 39.9703 1171.39 39.9703 Q1168.85 39.9703 1166.19 42.1427 Q1163.56 44.3151 1161.64 48.0042 Q1160.16 50.9554 1158.56 57.1448 Q1157.01 63.3342 1157.01 66.4084 Q1157.01 68.2939 1157.42 69.9744 Q1157.87 71.614 1159.14 72.9667 Q1160.41 74.2783 1162.38 74.2783 Q1167.17 74.2783 1171.88 68.3349 Q1172.79 67.3101 1172.99 66.9002 Q1173.24 66.4494 1173.57 65.2197 L1177.75 48.783 Q1177.99 47.5533 1177.99 47.3484 Z" fill="#000000" fill-rule="nonzero" fill-opacity="1" /><path clip-path="url(#clip880)" d="M1261.79 63.2112 Q1261.79 63.5391 1261.42 64.8098 Q1261.05 66.0805 1260.15 68.0479 Q1259.29 70.0154 1258.06 71.819 Q1256.87 73.5815 1254.91 74.8931 Q1252.98 76.1638 1250.77 76.1638 Q1247.81 76.1638 1245.85 74.1963 Q1243.88 72.2288 1243.88 69.2776 Q1243.88 67.679 1244.99 64.6458 Q1250.19 50.7915 1250.19 45.8318 Q1250.19 39.9703 1245.64 39.9703 Q1243.06 39.9703 1240.72 41.036 Q1238.39 42.1017 1236.87 43.5773 Q1235.35 45.053 1234.17 46.7335 Q1232.98 48.4141 1232.44 49.5208 Q1231.95 50.6275 1231.83 51.1194 L1226.79 71.3681 Q1226.38 73.0896 1226.09 73.9094 Q1225.8 74.7292 1225.02 75.426 Q1224.25 76.1638 1223.02 76.1638 Q1221.99 76.1638 1221.25 75.549 Q1220.56 74.9341 1220.56 73.8684 Q1220.56 73.7045 1220.76 72.8437 Q1220.97 71.9829 1221.25 70.7942 Q1221.54 69.6055 1221.66 68.9087 Q1223.14 63.3342 1223.34 62.5554 L1225.68 52.7999 Q1226.95 47.9632 1226.95 45.8318 Q1226.95 39.9703 1222.4 39.9703 Q1220.15 39.9703 1218.02 40.8311 Q1215.92 41.6508 1214.49 42.7985 Q1213.06 43.9462 1211.74 45.5448 Q1210.47 47.1024 1209.82 48.1681 Q1209.2 49.1929 1208.71 50.2176 L1207.65 54.3985 Q1207.4 55.5462 1206.21 60.014 L1204.37 67.5971 Q1203.05 73.2536 1202.77 73.7864 Q1202.36 74.9341 1201.46 75.549 Q1200.55 76.1638 1199.65 76.1638 Q1198.63 76.1638 1197.93 75.549 Q1197.23 74.9341 1197.23 73.8684 Q1197.23 73.7045 1197.36 73.0896 Q1197.48 72.4748 1197.68 71.614 Q1197.89 70.7532 1197.97 70.2614 L1202.85 50.8734 Q1203.75 47.3484 1203.96 46.2416 Q1204.2 45.0939 1204.2 43.8233 Q1204.2 39.9703 1201.58 39.9703 Q1199.45 39.9703 1198.05 42.5116 Q1196.66 45.053 1195.47 49.9717 Q1195.1 51.3243 1194.86 51.6112 Q1194.65 51.8982 1194.04 51.8982 Q1193.01 51.8572 1193.01 51.0374 Q1193.01 50.8324 1193.34 49.5208 Q1193.67 48.2091 1194.28 46.2416 Q1194.94 44.2332 1195.64 42.9215 Q1196.05 42.0607 1196.41 41.4869 Q1196.78 40.913 1197.52 40.0113 Q1198.26 39.1095 1199.37 38.6176 Q1200.47 38.1258 1201.82 38.1258 Q1204.82 38.1258 1207.03 40.0523 Q1209.28 41.9788 1209.57 45.4219 Q1215.02 38.1258 1222.65 38.1258 Q1226.95 38.1258 1229.53 40.2982 Q1231.95 42.3887 1232.24 46.2416 Q1237.9 38.1258 1245.93 38.1258 Q1250.56 38.1258 1253.06 40.5441 Q1255.56 42.9215 1255.56 47.1024 Q1255.56 49.2748 1254.45 53.4148 Q1253.35 57.5137 1252.61 59.5632 Q1251.87 61.6126 1250.44 65.5476 Q1248.92 69.3186 1248.92 71.532 Q1248.92 72.9667 1249.41 73.6225 Q1249.91 74.2783 1250.97 74.2783 Q1252.61 74.2783 1254.04 73.3356 Q1255.48 72.3518 1256.5 70.7532 Q1257.57 69.1137 1258.27 67.4741 Q1258.96 65.7935 1259.5 63.908 Q1259.82 62.8833 1259.99 62.6374 Q1260.19 62.3914 1260.77 62.3914 Q1261.79 62.3914 1261.79 63.2112 Z" fill="#000000" fill-rule="nonzero" fill-opacity="1" /><path clip-path="url(#clip880)" d="M1313.04 52.3081 Q1313.04 56.7759 1311.07 61.2027 Q1309.11 65.5886 1305.95 68.8677 Q1302.84 72.1059 1298.74 74.1553 Q1294.64 76.1638 1290.54 76.1638 Q1284.68 76.1638 1280.87 72.1879 Q1277.09 68.1709 1277.09 61.9405 Q1277.09 56.1201 1280.33 50.5865 Q1283.61 45.012 1288.86 41.5689 Q1294.11 38.1258 1299.6 38.1258 Q1305.38 38.1258 1309.19 42.0197 Q1313.04 45.9137 1313.04 52.3081 M1306.89 49.0289 Q1306.89 45.053 1304.97 42.5116 Q1303.04 39.9703 1299.52 39.9703 Q1298.49 39.9703 1297.3 40.2982 Q1296.11 40.5851 1294.56 41.3639 Q1293.04 42.1427 1291.32 43.7823 Q1289.64 45.3809 1288.16 47.6763 Q1286.24 50.7095 1284.76 56.284 Q1283.32 61.8176 1283.32 65.1377 Q1283.32 69.7285 1285.46 72.0239 Q1287.59 74.2783 1290.62 74.2783 Q1293.57 74.2783 1296.69 72.2288 Q1299.84 70.1384 1302.02 66.5723 Q1304.19 62.8833 1305.54 57.4727 Q1306.89 52.0211 1306.89 49.0289 Z" fill="#000000" fill-rule="nonzero" fill-opacity="1" /><path clip-path="url(#clip880)" d="M1359.26 21.812 Q1359.26 24.0664 1357.82 25.4601 Q1356.43 26.8537 1354.67 26.8537 Q1353.39 26.8537 1352.45 26.0749 Q1351.55 25.2961 1351.55 23.9435 Q1351.55 22.5498 1352.62 21.0742 Q1353.68 19.5986 1356.1 19.3937 Q1354.5 17.8771 1351.96 17.8771 Q1350.69 17.8771 1349.62 18.6968 Q1348.6 19.4756 1348.03 20.7463 Q1347.41 22.058 1346.02 29.477 Q1345.57 31.8954 1345.16 34.2318 Q1344.75 36.5682 1344.25 39.0275 L1351.22 39.0275 Q1352.12 39.0275 1352.49 39.0685 Q1352.86 39.1095 1353.15 39.3145 Q1353.48 39.5194 1353.48 39.9703 Q1353.48 41.118 1352.94 41.4049 Q1352.45 41.6508 1350.98 41.6508 L1343.76 41.6508 L1338.72 68.2529 Q1338.6 69.0317 1338.06 71.491 Q1337.57 73.9094 1336.38 77.8854 Q1335.2 81.9023 1334.01 84.2797 Q1333.35 85.6323 1332.49 86.903 Q1331.67 88.2147 1330.48 89.5263 Q1329.29 90.838 1327.74 91.6168 Q1326.18 92.4366 1324.54 92.4366 Q1321.75 92.4366 1319.58 90.879 Q1317.41 89.3214 1317.41 86.6571 Q1317.41 84.4027 1318.8 83.009 Q1320.23 81.6154 1322 81.6154 Q1323.27 81.6154 1324.17 82.3942 Q1325.11 83.173 1325.11 84.5256 Q1325.11 85.0995 1324.91 85.7553 Q1324.7 86.4111 1324.25 87.1489 Q1323.8 87.9277 1322.82 88.4606 Q1321.83 88.9935 1320.48 89.0754 Q1322.08 90.592 1324.54 90.592 Q1325.32 90.592 1326.01 90.2641 Q1326.71 89.9772 1327.28 89.2394 Q1327.9 88.5016 1328.35 87.7638 Q1328.8 87.067 1329.25 85.7143 Q1329.7 84.4027 1329.99 83.4189 Q1330.28 82.4352 1330.65 80.6726 Q1331.06 78.9101 1331.26 77.8444 Q1331.47 76.8196 1331.83 74.8112 L1338.11 41.6508 L1332.57 41.6508 Q1331.59 41.6508 1331.18 41.6099 Q1330.81 41.5689 1330.52 41.3639 Q1330.24 41.118 1330.24 40.6261 Q1330.24 39.8473 1330.56 39.5194 Q1330.93 39.1505 1331.34 39.1095 Q1331.75 39.0275 1332.74 39.0275 L1338.56 39.0275 Q1340.52 28.6572 1341.3 25.87 Q1342.2 22.9187 1343.6 20.8693 Q1344.99 18.7788 1346.55 17.7951 Q1348.11 16.8113 1349.38 16.4424 Q1350.69 16.0325 1351.96 16.0325 Q1354.83 16.0325 1357.04 17.5901 Q1359.26 19.1067 1359.26 21.812 Z" fill="#000000" fill-rule="nonzero" fill-opacity="1" /><path clip-path="url(#clip880)" d="M1420 28.7802 Q1420 27.4276 1419.63 26.3209 Q1419.3 25.1732 1418.77 24.3944 Q1418.28 23.5746 1417.34 22.9597 Q1416.39 22.3039 1415.61 21.894 Q1414.84 21.4841 1413.52 21.2382 Q1412.21 20.9513 1411.35 20.8283 Q1410.49 20.6643 1409.02 20.5824 Q1407.54 20.5004 1406.8 20.5004 Q1406.11 20.5004 1404.71 20.5004 Q1400.33 20.5004 1399.59 20.5824 Q1398.48 20.7463 1398.07 21.4021 Q1397.66 22.017 1397.25 23.6975 L1391.8 45.5858 L1401.19 45.5858 Q1406.31 45.5858 1409.84 44.1512 Q1413.36 42.7166 1415.37 40.7081 Q1417.58 38.4947 1418.77 34.9286 Q1420 31.3625 1420 28.7802 M1429.14 67.4331 Q1429.14 67.884 1428.77 68.9087 Q1428.44 69.9334 1427.62 71.3681 Q1426.8 72.7617 1425.7 74.0324 Q1424.59 75.303 1422.83 76.1638 Q1421.07 77.0656 1419.06 77.0656 Q1418.57 77.0656 1418.07 77.0246 Q1417.58 77.0246 1416.35 76.8196 Q1415.16 76.6557 1414.18 76.3278 Q1413.2 76.0408 1411.97 75.344 Q1410.74 74.6882 1409.88 73.7864 Q1409.06 72.8437 1408.48 71.3681 Q1407.91 69.8515 1407.91 68.0069 Q1407.91 66.3674 1409.26 60.8748 Q1410.45 56.202 1410.45 55.0543 Q1410.45 53.7837 1410.04 52.595 Q1409.67 51.4063 1408.73 50.1766 Q1407.83 48.9469 1405.9 48.2091 Q1403.97 47.4303 1401.27 47.4303 L1391.31 47.4303 L1385.73 69.6875 Q1385.73 69.7285 1385.61 70.3023 Q1385.49 70.8352 1385.49 71.1221 Q1385.49 71.655 1385.82 71.9829 Q1386.18 72.3108 1387.09 72.4748 Q1387.99 72.5977 1388.68 72.6387 Q1389.42 72.6387 1390.94 72.6387 Q1392.82 72.6387 1393.15 72.9667 Q1393.32 73.1716 1393.32 73.5405 Q1393.32 74.1144 1393.15 74.5242 Q1393.03 74.8931 1392.7 75.0161 Q1392.41 75.1391 1392.21 75.1801 Q1392.01 75.2211 1391.64 75.2211 L1380.98 74.9751 L1370.4 75.2211 Q1369.22 75.2211 1369.22 74.2783 Q1369.22 73.4585 1369.5 73.1306 Q1369.79 72.7617 1370.16 72.7207 Q1370.53 72.6387 1371.47 72.6387 Q1373.52 72.6387 1374.75 72.5158 Q1375.98 72.3928 1376.76 72.2288 Q1377.58 72.0239 1377.99 71.45 Q1378.44 70.8762 1378.64 70.3843 Q1378.85 69.8515 1379.13 68.6628 L1390.37 23.5746 Q1390.69 22.2219 1390.69 22.017 Q1390.69 21.2382 1390.2 21.0332 Q1389.75 20.7873 1388.44 20.6643 L1385.24 20.5004 Q1384.26 20.5004 1383.85 20.4594 Q1383.48 20.4184 1383.19 20.2135 Q1382.91 20.0085 1382.91 19.5576 Q1382.91 18.4099 1383.4 18.164 Q1383.89 17.8771 1385.32 17.8771 L1409.26 17.8771 Q1417.42 17.8771 1422.58 21.4431 Q1427.79 25.0092 1427.79 30.4608 Q1427.79 32.9201 1426.68 35.2155 Q1425.58 37.5109 1423.73 39.3145 Q1421.93 41.118 1419.51 42.6346 Q1417.09 44.1102 1414.51 45.1349 Q1411.97 46.1187 1409.34 46.6925 Q1410.49 47.1024 1411.56 47.7173 Q1412.66 48.3321 1414.06 49.4798 Q1415.49 50.6275 1416.35 52.472 Q1417.21 54.3165 1417.21 56.5709 Q1417.21 58.1695 1416.89 60.5469 Q1416.07 67.3101 1416.07 70.0974 Q1416.07 72.7617 1416.76 73.9914 Q1417.46 75.2211 1419.43 75.2211 Q1421.35 75.2211 1423.48 73.4995 Q1425.66 71.737 1427.05 67.5971 Q1427.38 66.4084 1428.16 66.4084 Q1428.2 66.4084 1428.24 66.4084 Q1428.32 66.4084 1428.49 66.4903 Q1428.65 66.5313 1428.77 66.6543 Q1428.94 66.7363 1429.02 66.9412 Q1429.14 67.1462 1429.14 67.4331 Z" fill="#000000" fill-rule="nonzero" fill-opacity="1" /><path clip-path="url(#clip880)" d="M1464.45 65.5066 Q1464.78 65.8755 1464.78 66.2444 Q1464.78 66.6133 1463.96 67.679 Q1463.18 68.7448 1461.5 70.1794 Q1459.82 71.614 1457.65 72.9667 Q1455.47 74.3193 1452.28 75.2211 Q1449.08 76.1638 1445.72 76.1638 Q1439.69 76.1638 1436.09 71.8599 Q1432.52 67.5561 1432.52 60.9568 Q1432.52 56.7349 1433.91 53.0049 Q1435.31 49.2339 1437.56 46.5696 Q1439.86 43.9053 1442.73 41.9788 Q1445.64 40.0113 1448.67 39.0685 Q1451.7 38.1258 1454.53 38.1258 Q1458.67 38.1258 1461.09 40.2162 Q1463.51 42.3067 1463.51 45.2579 Q1463.51 45.9547 1463.3 46.8155 Q1463.14 47.6763 1462.57 49.0289 Q1462.03 50.3816 1460.64 51.7342 Q1459.25 53.0459 1457.2 53.9066 Q1452.65 55.8331 1444.37 55.8331 L1439.9 55.8331 Q1438.59 61.1208 1438.59 64.5639 Q1438.59 65.9165 1438.83 67.3101 Q1439.08 68.6628 1439.73 70.3843 Q1440.43 72.1059 1441.99 73.2126 Q1443.59 74.2783 1445.88 74.2783 Q1446.62 74.2783 1447.4 74.2373 Q1448.22 74.1963 1450.27 73.7454 Q1452.36 73.2946 1454.2 72.5158 Q1456.05 71.737 1458.38 70.0564 Q1460.76 68.3349 1462.65 65.9985 Q1463.3 65.1377 1463.75 65.1377 Q1464.12 65.1377 1464.45 65.5066 M1460.72 45.2579 Q1460.72 43.0035 1459.04 41.4869 Q1457.4 39.9703 1454.53 39.9703 Q1453.63 39.9703 1452.52 40.1752 Q1451.42 40.3802 1449.57 41.241 Q1447.77 42.1017 1446.17 43.5364 Q1444.57 44.93 1442.97 47.6763 Q1441.37 50.3816 1440.43 53.9886 L1443.87 53.9886 Q1445.06 53.9886 1445.92 53.9886 Q1446.78 53.9476 1448.67 53.7837 Q1450.6 53.6197 1451.99 53.3328 Q1453.38 53.0049 1455.15 52.349 Q1456.91 51.6932 1458.02 50.8324 Q1459.16 49.9307 1459.94 48.4961 Q1460.72 47.0614 1460.72 45.2579 Z" fill="#000000" fill-rule="nonzero" fill-opacity="1" /><path clip-path="url(#clip880)" d="M1502.15 45.3399 Q1502.15 47.6353 1501.01 48.865 Q1499.86 50.0536 1498.3 50.0536 Q1497.03 50.0536 1496.33 49.3158 Q1495.68 48.578 1495.68 47.5943 Q1495.68 46.1597 1496.83 45.012 Q1498.01 43.8643 1499.74 43.8233 Q1499.16 42.3067 1497.65 41.4049 Q1496.13 40.4622 1494.78 40.2162 Q1493.46 39.9703 1492.15 39.9703 Q1489.57 39.9703 1487.6 40.7901 Q1485.64 41.6099 1484.65 42.8805 Q1483.67 44.1102 1483.22 45.2989 Q1482.77 46.4876 1482.77 47.5123 Q1482.77 48.4141 1482.97 49.1519 Q1483.22 49.8487 1483.79 50.3816 Q1484.37 50.8734 1484.78 51.2013 Q1485.23 51.5293 1486.21 51.8162 Q1487.19 52.1031 1487.6 52.2261 Q1488.01 52.3081 1489.16 52.554 Q1491.54 53.0459 1492.6 53.3328 Q1493.67 53.5787 1495.06 54.2755 Q1496.5 54.9724 1497.56 56.0791 Q1500.15 58.6614 1500.15 62.2275 Q1500.15 63.5391 1499.7 65.1377 Q1499.29 66.7363 1498.1 68.7448 Q1496.91 70.7532 1495.1 72.3518 Q1493.3 73.9504 1490.19 75.0571 Q1487.11 76.1638 1483.26 76.1638 Q1477.89 76.1638 1474.57 73.9094 Q1471.25 71.614 1471.25 68.0069 Q1471.25 65.3836 1472.68 63.949 Q1474.12 62.4734 1475.96 62.4734 Q1477.36 62.4734 1478.22 63.2522 Q1479.08 63.99 1479.08 65.3836 Q1479.08 67.2691 1477.56 68.7038 Q1476.04 70.1384 1473.79 69.8515 Q1475.72 74.2783 1483.34 74.2783 Q1486.21 74.2783 1488.42 73.5405 Q1490.68 72.7617 1491.91 71.696 Q1493.18 70.5893 1494 69.2366 Q1494.82 67.884 1495.06 66.8592 Q1495.35 65.8345 1495.35 65.0557 Q1495.35 63.7031 1494.82 62.6783 Q1494.28 61.6536 1493.55 61.0798 Q1492.85 60.4649 1491.5 59.9731 Q1490.19 59.4402 1489.24 59.2352 Q1488.3 59.0303 1486.62 58.7024 Q1485.84 58.5384 1485.35 58.4564 Q1484.86 58.3335 1483.83 58.0056 Q1482.85 57.6367 1482.15 57.2678 Q1481.5 56.8989 1480.64 56.243 Q1479.77 55.5872 1479.24 54.8084 Q1478.71 54.0296 1478.34 52.8819 Q1477.97 51.7342 1477.97 50.3816 Q1477.97 49.1519 1478.34 47.6763 Q1478.75 46.2007 1479.77 44.4791 Q1480.84 42.7576 1482.36 41.3639 Q1483.87 39.9703 1486.41 39.0685 Q1489 38.1258 1492.15 38.1258 Q1496.74 38.1258 1499.45 40.2572 Q1502.15 42.3477 1502.15 45.3399 Z" fill="#000000" fill-rule="nonzero" fill-opacity="1" /><path clip-path="url(#clip880)" d="M1529.64 22.7548 Q1529.64 24.5583 1528.17 25.911 Q1526.73 27.2226 1525.17 27.2226 Q1523.74 27.2226 1522.84 26.3618 Q1521.98 25.4601 1521.98 24.1894 Q1521.98 22.5089 1523.41 21.1152 Q1524.85 19.7216 1526.53 19.7216 Q1527.92 19.7216 1528.78 20.5824 Q1529.64 21.4431 1529.64 22.7548 M1530.38 63.2112 Q1530.38 63.5391 1530.01 64.8508 Q1529.64 66.1214 1528.74 68.0889 Q1527.88 70.0154 1526.69 71.819 Q1525.5 73.6225 1523.53 74.8931 Q1521.61 76.1638 1519.4 76.1638 Q1516.4 76.1638 1514.44 74.1963 Q1512.51 72.2288 1512.51 69.2776 Q1512.51 67.679 1514.44 62.5554 Q1520.01 47.6353 1520.21 47.0204 Q1521.16 44.6841 1521.16 42.6346 Q1521.16 41.6918 1520.95 41.118 Q1520.75 40.5031 1520.34 40.2982 Q1519.93 40.0523 1519.68 40.0113 Q1519.48 39.9703 1519.07 39.9703 Q1516.65 39.9703 1514.39 42.4296 Q1512.14 44.889 1510.58 50.3816 Q1510.25 51.4063 1510.05 51.6522 Q1509.84 51.8982 1509.23 51.8982 Q1508.2 51.8572 1508.2 51.0374 Q1508.2 50.7915 1508.49 49.8487 Q1508.78 48.865 1509.31 47.3893 Q1509.84 45.8727 1510.79 44.3151 Q1511.73 42.7166 1512.88 41.3229 Q1514.07 39.9293 1515.75 39.0275 Q1517.43 38.1258 1519.31 38.1258 Q1522.39 38.1258 1524.27 40.1342 Q1526.2 42.1017 1526.2 45.012 Q1526.2 46.6105 1525.09 49.4388 Q1523.74 53.1278 1523.25 54.3165 L1519.97 63.1292 Q1518.78 66.3264 1518.41 67.3101 Q1518.08 68.2529 1517.8 69.4006 Q1517.55 70.5073 1517.55 71.532 Q1517.55 72.9667 1518 73.6225 Q1518.49 74.2783 1519.56 74.2783 Q1522.51 74.2783 1524.68 71.3681 Q1526.86 68.4168 1528.13 63.908 Q1528.17 63.7851 1528.21 63.5801 Q1528.54 62.5554 1528.86 62.4324 Q1529.03 62.3914 1529.36 62.3914 Q1530.38 62.3914 1530.38 63.2112 Z" fill="#000000" fill-rule="nonzero" fill-opacity="1" /><path clip-path="url(#clip880)" d="M1579.18 17.8771 L1567.09 66.4084 Q1566.6 68.5808 1566.6 70.4253 Q1566.6 74.2783 1569.1 74.2783 Q1570.33 74.2783 1571.31 73.4995 Q1572.3 72.7207 1573.07 71.0811 Q1573.85 69.4416 1574.35 67.925 Q1574.84 66.3674 1575.49 63.908 Q1575.7 62.9243 1575.86 62.6783 Q1576.07 62.3914 1576.64 62.3914 Q1577.67 62.3914 1577.67 63.2112 Q1576.56 68.4988 1575.12 71.532 Q1572.83 76.1638 1568.93 76.1638 Q1565.98 76.1638 1563.89 74.3603 Q1561.8 72.5568 1561.31 69.8515 Q1555.94 76.1638 1550.37 76.1638 Q1545.45 76.1638 1542.33 72.4338 Q1539.22 68.6628 1539.22 62.7193 Q1539.22 56.7349 1542.17 50.9964 Q1545.16 45.2579 1549.87 41.6918 Q1554.59 38.1258 1559.43 38.1258 Q1564.55 38.1258 1567.17 43.4954 L1572.21 23.5746 L1572.46 21.935 Q1572.46 21.4431 1572.26 21.1972 Q1572.09 20.9103 1571.11 20.7053 Q1570.16 20.5004 1568.28 20.5004 Q1567.5 20.5004 1567.13 20.4594 Q1566.8 20.4184 1566.52 20.2135 Q1566.23 19.9675 1566.23 19.4756 Q1566.23 18.041 1567.42 17.8771 Q1575.29 16.9753 1578.08 16.9753 Q1578.57 16.9753 1578.85 17.2212 Q1579.14 17.4262 1579.14 17.6721 L1579.18 17.8771 M1566.15 47.3484 Q1566.15 46.9794 1565.86 45.9547 Q1565.57 44.93 1564.92 43.4954 Q1564.26 42.0607 1562.83 41.036 Q1561.43 39.9703 1559.55 39.9703 Q1557.01 39.9703 1554.34 42.1427 Q1551.72 44.3151 1549.79 48.0042 Q1548.32 50.9554 1546.72 57.1448 Q1545.16 63.3342 1545.16 66.4084 Q1545.16 68.2939 1545.57 69.9744 Q1546.02 71.614 1547.29 72.9667 Q1548.56 74.2783 1550.53 74.2783 Q1555.33 74.2783 1560.04 68.3349 Q1560.94 67.3101 1561.15 66.9002 Q1561.39 66.4494 1561.72 65.2197 L1565.9 48.783 Q1566.15 47.5533 1566.15 47.3484 Z" fill="#000000" fill-rule="nonzero" fill-opacity="1" /><path clip-path="url(#clip880)" d="M1623.89 63.2112 Q1622.83 68.4988 1621.39 71.532 Q1619.06 76.1638 1615.16 76.1638 Q1612.46 76.1638 1610.41 74.6472 Q1608.4 73.0896 1607.7 70.5073 Q1606.92 71.532 1606.23 72.2288 Q1605.57 72.9257 1604.3 73.9914 Q1603.03 75.0161 1601.31 75.59 Q1599.63 76.1638 1597.7 76.1638 Q1596.23 76.1638 1594.87 75.8769 Q1593.52 75.631 1592.09 74.9341 Q1590.69 74.1963 1589.67 73.0896 Q1588.68 71.9829 1588.03 70.1794 Q1587.37 68.3759 1587.37 66.0805 Q1587.37 63.2112 1588.48 59.3172 Q1589.63 55.4232 1592.25 48.4551 Q1593.68 44.766 1593.68 42.7166 Q1593.68 41.7738 1593.48 41.159 Q1593.27 40.5441 1592.86 40.3392 Q1592.5 40.0933 1592.25 40.0523 Q1592 39.9703 1591.59 39.9703 Q1589.05 39.9703 1586.84 42.5526 Q1584.63 45.1349 1583.11 50.3816 Q1582.78 51.4063 1582.58 51.6522 Q1582.37 51.8982 1581.76 51.8982 Q1580.73 51.8572 1580.73 51.0374 Q1580.73 50.7095 1581.1 49.4388 Q1581.47 48.1271 1582.33 46.2007 Q1583.23 44.2332 1584.46 42.4706 Q1585.69 40.6671 1587.62 39.3964 Q1589.59 38.1258 1591.84 38.1258 Q1594.91 38.1258 1596.8 40.1342 Q1598.73 42.1017 1598.73 45.012 Q1598.73 46.8155 1597.29 50.2996 Q1592.74 62.3914 1592.74 67.4331 Q1592.74 74.2783 1597.95 74.2783 Q1599.67 74.2783 1601.27 73.5815 Q1602.91 72.8847 1603.97 71.9009 Q1605.04 70.9172 1605.86 69.8515 Q1606.72 68.7857 1607.09 68.0889 Q1607.5 67.3921 1607.54 67.2282 L1613.81 41.9788 Q1614.06 40.995 1614.51 40.3392 Q1615 39.6424 1615.57 39.3964 Q1616.15 39.1505 1616.47 39.1095 Q1616.8 39.0275 1617.09 39.0275 Q1618.11 39.0275 1618.81 39.6424 Q1619.55 40.2572 1619.55 41.3229 Q1619.55 41.5279 1619.3 42.5116 Q1619.1 43.4544 1618.77 44.848 Q1618.44 46.2007 1618.28 46.9385 Q1616.97 52.1031 1616.84 52.636 L1614.51 61.6946 Q1614.38 62.2275 1613.97 63.949 Q1613.61 65.6706 1613.4 66.5723 Q1613.2 67.4331 1612.99 68.6218 Q1612.83 69.7695 1612.83 70.4253 Q1612.83 72.4748 1613.44 73.3765 Q1614.06 74.2783 1615.41 74.2783 Q1616.68 74.2783 1617.66 73.4175 Q1618.69 72.5158 1619.47 70.7942 Q1620.25 69.0317 1620.7 67.5971 Q1621.15 66.1624 1621.72 63.908 Q1621.93 62.9243 1622.09 62.6783 Q1622.3 62.3914 1622.87 62.3914 Q1623.89 62.3914 1623.89 63.2112 Z" fill="#000000" fill-rule="nonzero" fill-opacity="1" /><path clip-path="url(#clip880)" d="M1667.39 63.2112 Q1666.28 68.4988 1664.85 71.532 Q1662.55 76.1638 1658.66 76.1638 Q1655.71 76.1638 1653.62 74.3603 Q1651.53 72.5568 1651.04 69.8515 Q1645.67 76.1638 1640.09 76.1638 Q1635.17 76.1638 1632.06 72.4338 Q1628.94 68.6628 1628.94 62.7193 Q1628.94 56.7349 1631.89 50.9964 Q1634.89 45.2579 1639.6 41.6918 Q1644.31 38.1258 1649.15 38.1258 Q1654.27 38.1258 1656.9 43.4954 Q1657.1 42.0197 1658.04 40.913 Q1658.99 39.8063 1660.42 39.8063 Q1661.53 39.8063 1662.18 40.4212 Q1662.84 40.995 1662.84 42.0607 Q1662.84 42.5936 1662.27 44.93 L1659.23 56.6529 L1657.39 64.2359 Q1656.69 67.0232 1656.49 68.0479 Q1656.32 69.0727 1656.32 70.4253 Q1656.32 74.2783 1658.82 74.2783 Q1660.05 74.2783 1661.04 73.4995 Q1662.02 72.7207 1662.8 71.0811 Q1663.58 69.4416 1664.07 67.925 Q1664.56 66.3674 1665.22 63.908 Q1665.42 62.9243 1665.59 62.6783 Q1665.79 62.3914 1666.37 62.3914 Q1667.39 62.3914 1667.39 63.2112 M1655.87 47.3484 Q1655.87 46.9794 1655.58 45.9547 Q1655.3 44.93 1654.64 43.4954 Q1653.99 42.0607 1652.55 41.036 Q1651.16 39.9703 1649.27 39.9703 Q1646.73 39.9703 1644.07 42.1427 Q1641.44 44.3151 1639.52 48.0042 Q1638.04 50.9554 1636.44 57.1448 Q1634.89 63.3342 1634.89 66.4084 Q1634.89 68.2939 1635.3 69.9744 Q1635.75 71.614 1637.02 72.9667 Q1638.29 74.2783 1640.25 74.2783 Q1645.05 74.2783 1649.76 68.3349 Q1650.67 67.3101 1650.87 66.9002 Q1651.12 66.4494 1651.44 65.2197 L1655.63 48.783 Q1655.87 47.5533 1655.87 47.3484 Z" fill="#000000" fill-rule="nonzero" fill-opacity="1" /><path clip-path="url(#clip880)" d="M1690.52 17.8771 L1678.43 66.4084 Q1677.94 68.3349 1677.94 70.4253 Q1677.94 74.2783 1680.48 74.2783 Q1681.67 74.2783 1682.65 73.4995 Q1683.64 72.6797 1684.38 71.0811 Q1685.16 69.4416 1685.65 67.884 Q1686.18 66.3264 1686.84 63.908 Q1687.04 62.9653 1687.25 62.6783 Q1687.45 62.3914 1688.02 62.3914 Q1689.05 62.3914 1689.05 63.2112 Q1688.02 68.2529 1686.51 71.45 Q1684.29 76.1638 1680.2 76.1638 Q1677.12 76.1638 1674.83 74.0324 Q1672.57 71.8599 1672.57 68.4168 Q1672.57 67.1052 1672.98 65.5476 L1683.56 23.5746 L1683.84 21.935 Q1683.84 21.4841 1683.68 21.2382 Q1683.52 20.9922 1682.53 20.7463 Q1681.59 20.5004 1679.7 20.5004 Q1678.92 20.5004 1678.56 20.4594 Q1678.23 20.4184 1677.9 20.2135 Q1677.61 20.0085 1677.61 19.5576 Q1677.61 18.8198 1677.9 18.4099 Q1678.23 18 1678.47 17.9181 Q1678.72 17.8361 1679.21 17.7951 Q1679.91 17.7541 1682.24 17.5491 Q1684.58 17.3032 1686.59 17.1393 Q1688.6 16.9753 1689.46 16.9753 Q1689.95 16.9753 1690.2 17.2212 Q1690.48 17.4262 1690.52 17.6721 L1690.52 17.8771 Z" fill="#000000" fill-rule="nonzero" fill-opacity="1" /><path clip-path="url(#clip880)" d="M1729.25 45.3399 Q1729.25 47.6353 1728.1 48.865 Q1726.95 50.0536 1725.4 50.0536 Q1724.13 50.0536 1723.43 49.3158 Q1722.77 48.578 1722.77 47.5943 Q1722.77 46.1597 1723.92 45.012 Q1725.11 43.8643 1726.83 43.8233 Q1726.26 42.3067 1724.74 41.4049 Q1723.22 40.4622 1721.87 40.2162 Q1720.56 39.9703 1719.25 39.9703 Q1716.67 39.9703 1714.7 40.7901 Q1712.73 41.6099 1711.75 42.8805 Q1710.76 44.1102 1710.31 45.2989 Q1709.86 46.4876 1709.86 47.5123 Q1709.86 48.4141 1710.07 49.1519 Q1710.31 49.8487 1710.89 50.3816 Q1711.46 50.8734 1711.87 51.2013 Q1712.32 51.5293 1713.3 51.8162 Q1714.29 52.1031 1714.7 52.2261 Q1715.11 52.3081 1716.26 52.554 Q1718.63 53.0459 1719.7 53.3328 Q1720.76 53.5787 1722.16 54.2755 Q1723.59 54.9724 1724.66 56.0791 Q1727.24 58.6614 1727.24 62.2275 Q1727.24 63.5391 1726.79 65.1377 Q1726.38 66.7363 1725.19 68.7448 Q1724 70.7532 1722.2 72.3518 Q1720.4 73.9504 1717.28 75.0571 Q1714.21 76.1638 1710.35 76.1638 Q1704.98 76.1638 1701.66 73.9094 Q1698.34 71.614 1698.34 68.0069 Q1698.34 65.3836 1699.78 63.949 Q1701.21 62.4734 1703.06 62.4734 Q1704.45 62.4734 1705.31 63.2522 Q1706.17 63.99 1706.17 65.3836 Q1706.17 67.2691 1704.66 68.7038 Q1703.14 70.1384 1700.88 69.8515 Q1702.81 74.2783 1710.43 74.2783 Q1713.3 74.2783 1715.52 73.5405 Q1717.77 72.7617 1719 71.696 Q1720.27 70.5893 1721.09 69.2366 Q1721.91 67.884 1722.16 66.8592 Q1722.44 65.8345 1722.44 65.0557 Q1722.44 63.7031 1721.91 62.6783 Q1721.38 61.6536 1720.64 61.0798 Q1719.94 60.4649 1718.59 59.9731 Q1717.28 59.4402 1716.34 59.2352 Q1715.39 59.0303 1713.71 58.7024 Q1712.94 58.5384 1712.44 58.4564 Q1711.95 58.3335 1710.93 58.0056 Q1709.94 57.6367 1709.25 57.2678 Q1708.59 56.8989 1707.73 56.243 Q1706.87 55.5872 1706.34 54.8084 Q1705.8 54.0296 1705.43 52.8819 Q1705.07 51.7342 1705.07 50.3816 Q1705.07 49.1519 1705.43 47.6763 Q1705.84 46.2007 1706.87 44.4791 Q1707.93 42.7576 1709.45 41.3639 Q1710.97 39.9703 1713.51 39.0685 Q1716.09 38.1258 1719.25 38.1258 Q1723.84 38.1258 1726.54 40.2572 Q1729.25 42.3477 1729.25 45.3399 Z" fill="#000000" fill-rule="nonzero" fill-opacity="1" /><path clip-path="url(#clip882)" d="M363.254 1305.02 L363.254 1423.18 L467.349 1423.18 L467.349 1305.02 L363.254 1305.02 L363.254 1305.02  Z" fill="#009af9" fill-rule="evenodd" fill-opacity="1"/>
<polyline clip-path="url(#clip882)" style="stroke:#000000; stroke-linecap:round; stroke-linejoin:round; stroke-width:4; stroke-opacity:1; fill:none" points="363.254,1305.02 363.254,1423.18 467.349,1423.18 467.349,1305.02 363.254,1305.02 "/>
<path clip-path="url(#clip882)" d="M467.349 1305.02 L467.349 1423.18 L571.443 1423.18 L571.443 1305.02 L467.349 1305.02 L467.349 1305.02  Z" fill="#009af9" fill-rule="evenodd" fill-opacity="1"/>
<polyline clip-path="url(#clip882)" style="stroke:#000000; stroke-linecap:round; stroke-linejoin:round; stroke-width:4; stroke-opacity:1; fill:none" points="467.349,1305.02 467.349,1423.18 571.443,1423.18 571.443,1305.02 467.349,1305.02 "/>
<path clip-path="url(#clip882)" d="M571.443 1186.87 L571.443 1423.18 L675.538 1423.18 L675.538 1186.87 L571.443 1186.87 L571.443 1186.87  Z" fill="#009af9" fill-rule="evenodd" fill-opacity="1"/>
<polyline clip-path="url(#clip882)" style="stroke:#000000; stroke-linecap:round; stroke-linejoin:round; stroke-width:4; stroke-opacity:1; fill:none" points="571.443,1186.87 571.443,1423.18 675.538,1423.18 675.538,1186.87 571.443,1186.87 "/>
<path clip-path="url(#clip882)" d="M675.538 1186.87 L675.538 1423.18 L779.633 1423.18 L779.633 1186.87 L675.538 1186.87 L675.538 1186.87  Z" fill="#009af9" fill-rule="evenodd" fill-opacity="1"/>
<polyline clip-path="url(#clip882)" style="stroke:#000000; stroke-linecap:round; stroke-linejoin:round; stroke-width:4; stroke-opacity:1; fill:none" points="675.538,1186.87 675.538,1423.18 779.633,1423.18 779.633,1186.87 675.538,1186.87 "/>
<path clip-path="url(#clip882)" d="M779.633 1068.71 L779.633 1423.18 L883.728 1423.18 L883.728 1068.71 L779.633 1068.71 L779.633 1068.71  Z" fill="#009af9" fill-rule="evenodd" fill-opacity="1"/>
<polyline clip-path="url(#clip882)" style="stroke:#000000; stroke-linecap:round; stroke-linejoin:round; stroke-width:4; stroke-opacity:1; fill:none" points="779.633,1068.71 779.633,1423.18 883.728,1423.18 883.728,1068.71 779.633,1068.71 "/>
<path clip-path="url(#clip882)" d="M883.728 477.938 L883.728 1423.18 L987.823 1423.18 L987.823 477.938 L883.728 477.938 L883.728 477.938  Z" fill="#009af9" fill-rule="evenodd" fill-opacity="1"/>
<polyline clip-path="url(#clip882)" style="stroke:#000000; stroke-linecap:round; stroke-linejoin:round; stroke-width:4; stroke-opacity:1; fill:none" points="883.728,477.938 883.728,1423.18 987.823,1423.18 987.823,477.938 883.728,477.938 "/>
<path clip-path="url(#clip882)" d="M987.823 123.472 L987.823 1423.18 L1091.92 1423.18 L1091.92 123.472 L987.823 123.472 L987.823 123.472  Z" fill="#009af9" fill-rule="evenodd" fill-opacity="1"/>
<polyline clip-path="url(#clip882)" style="stroke:#000000; stroke-linecap:round; stroke-linejoin:round; stroke-width:4; stroke-opacity:1; fill:none" points="987.823,123.472 987.823,1423.18 1091.92,1423.18 1091.92,123.472 987.823,123.472 "/>
<path clip-path="url(#clip882)" d="M1091.92 714.248 L1091.92 1423.18 L1196.01 1423.18 L1196.01 714.248 L1091.92 714.248 L1091.92 714.248  Z" fill="#009af9" fill-rule="evenodd" fill-opacity="1"/>
<polyline clip-path="url(#clip882)" style="stroke:#000000; stroke-linecap:round; stroke-linejoin:round; stroke-width:4; stroke-opacity:1; fill:none" points="1091.92,714.248 1091.92,1423.18 1196.01,1423.18 1196.01,714.248 1091.92,714.248 "/>
<path clip-path="url(#clip882)" d="M1196.01 1186.87 L1196.01 1423.18 L1300.11 1423.18 L1300.11 1186.87 L1196.01 1186.87 L1196.01 1186.87  Z" fill="#009af9" fill-rule="evenodd" fill-opacity="1"/>
<polyline clip-path="url(#clip882)" style="stroke:#000000; stroke-linecap:round; stroke-linejoin:round; stroke-width:4; stroke-opacity:1; fill:none" points="1196.01,1186.87 1196.01,1423.18 1300.11,1423.18 1300.11,1186.87 1196.01,1186.87 "/>
<path clip-path="url(#clip882)" d="M1300.11 123.472 L1300.11 1423.18 L1404.2 1423.18 L1404.2 123.472 L1300.11 123.472 L1300.11 123.472  Z" fill="#009af9" fill-rule="evenodd" fill-opacity="1"/>
<polyline clip-path="url(#clip882)" style="stroke:#000000; stroke-linecap:round; stroke-linejoin:round; stroke-width:4; stroke-opacity:1; fill:none" points="1300.11,123.472 1300.11,1423.18 1404.2,1423.18 1404.2,123.472 1300.11,123.472 "/>
<path clip-path="url(#clip882)" d="M1404.2 1068.71 L1404.2 1423.18 L1508.3 1423.18 L1508.3 1068.71 L1404.2 1068.71 L1404.2 1068.71  Z" fill="#009af9" fill-rule="evenodd" fill-opacity="1"/>
<polyline clip-path="url(#clip882)" style="stroke:#000000; stroke-linecap:round; stroke-linejoin:round; stroke-width:4; stroke-opacity:1; fill:none" points="1404.2,1068.71 1404.2,1423.18 1508.3,1423.18 1508.3,1068.71 1404.2,1068.71 "/>
<path clip-path="url(#clip882)" d="M1508.3 832.404 L1508.3 1423.18 L1612.39 1423.18 L1612.39 832.404 L1508.3 832.404 L1508.3 832.404  Z" fill="#009af9" fill-rule="evenodd" fill-opacity="1"/>
<polyline clip-path="url(#clip882)" style="stroke:#000000; stroke-linecap:round; stroke-linejoin:round; stroke-width:4; stroke-opacity:1; fill:none" points="1508.3,832.404 1508.3,1423.18 1612.39,1423.18 1612.39,832.404 1508.3,832.404 "/>
<path clip-path="url(#clip882)" d="M1612.39 950.559 L1612.39 1423.18 L1716.49 1423.18 L1716.49 950.559 L1612.39 950.559 L1612.39 950.559  Z" fill="#009af9" fill-rule="evenodd" fill-opacity="1"/>
<polyline clip-path="url(#clip882)" style="stroke:#000000; stroke-linecap:round; stroke-linejoin:round; stroke-width:4; stroke-opacity:1; fill:none" points="1612.39,950.559 1612.39,1423.18 1716.49,1423.18 1716.49,950.559 1612.39,950.559 "/>
<path clip-path="url(#clip882)" d="M1716.49 1305.02 L1716.49 1423.18 L1820.58 1423.18 L1820.58 1305.02 L1716.49 1305.02 L1716.49 1305.02  Z" fill="#009af9" fill-rule="evenodd" fill-opacity="1"/>
<polyline clip-path="url(#clip882)" style="stroke:#000000; stroke-linecap:round; stroke-linejoin:round; stroke-width:4; stroke-opacity:1; fill:none" points="1716.49,1305.02 1716.49,1423.18 1820.58,1423.18 1820.58,1305.02 1716.49,1305.02 "/>
<path clip-path="url(#clip882)" d="M1820.58 1423.18 L1820.58 1423.18 L1924.68 1423.18 L1924.68 1423.18 L1820.58 1423.18 L1820.58 1423.18  Z" fill="#009af9" fill-rule="evenodd" fill-opacity="1"/>
<polyline clip-path="url(#clip882)" style="stroke:#000000; stroke-linecap:round; stroke-linejoin:round; stroke-width:4; stroke-opacity:1; fill:none" points="1820.58,1423.18 1820.58,1423.18 1924.68,1423.18 1820.58,1423.18 "/>
<path clip-path="url(#clip882)" d="M1924.68 1186.87 L1924.68 1423.18 L2028.77 1423.18 L2028.77 1186.87 L1924.68 1186.87 L1924.68 1186.87  Z" fill="#009af9" fill-rule="evenodd" fill-opacity="1"/>
<polyline clip-path="url(#clip882)" style="stroke:#000000; stroke-linecap:round; stroke-linejoin:round; stroke-width:4; stroke-opacity:1; fill:none" points="1924.68,1186.87 1924.68,1423.18 2028.77,1423.18 2028.77,1186.87 1924.68,1186.87 "/>
<path clip-path="url(#clip882)" d="M2028.77 1423.18 L2028.77 1423.18 L2132.87 1423.18 L2132.87 1423.18 L2028.77 1423.18 L2028.77 1423.18  Z" fill="#009af9" fill-rule="evenodd" fill-opacity="1"/>
<polyline clip-path="url(#clip882)" style="stroke:#000000; stroke-linecap:round; stroke-linejoin:round; stroke-width:4; stroke-opacity:1; fill:none" points="2028.77,1423.18 2028.77,1423.18 2132.87,1423.18 2028.77,1423.18 "/>
<path clip-path="url(#clip882)" d="M2132.87 1305.02 L2132.87 1423.18 L2236.96 1423.18 L2236.96 1305.02 L2132.87 1305.02 L2132.87 1305.02  Z" fill="#009af9" fill-rule="evenodd" fill-opacity="1"/>
<polyline clip-path="url(#clip882)" style="stroke:#000000; stroke-linecap:round; stroke-linejoin:round; stroke-width:4; stroke-opacity:1; fill:none" points="2132.87,1305.02 2132.87,1423.18 2236.96,1423.18 2236.96,1305.02 2132.87,1305.02 "/>
<circle clip-path="url(#clip882)" style="fill:#009af9; stroke:none; fill-opacity:0" cx="415.301" cy="1305.02" r="2"/>
<circle clip-path="url(#clip882)" style="fill:#009af9; stroke:none; fill-opacity:0" cx="519.396" cy="1305.02" r="2"/>
<circle clip-path="url(#clip882)" style="fill:#009af9; stroke:none; fill-opacity:0" cx="623.491" cy="1186.87" r="2"/>
<circle clip-path="url(#clip882)" style="fill:#009af9; stroke:none; fill-opacity:0" cx="727.586" cy="1186.87" r="2"/>
<circle clip-path="url(#clip882)" style="fill:#009af9; stroke:none; fill-opacity:0" cx="831.681" cy="1068.71" r="2"/>
<circle clip-path="url(#clip882)" style="fill:#009af9; stroke:none; fill-opacity:0" cx="935.775" cy="477.938" r="2"/>
<circle clip-path="url(#clip882)" style="fill:#009af9; stroke:none; fill-opacity:0" cx="1039.87" cy="123.472" r="2"/>
<circle clip-path="url(#clip882)" style="fill:#009af9; stroke:none; fill-opacity:0" cx="1143.97" cy="714.248" r="2"/>
<circle clip-path="url(#clip882)" style="fill:#009af9; stroke:none; fill-opacity:0" cx="1248.06" cy="1186.87" r="2"/>
<circle clip-path="url(#clip882)" style="fill:#009af9; stroke:none; fill-opacity:0" cx="1352.15" cy="123.472" r="2"/>
<circle clip-path="url(#clip882)" style="fill:#009af9; stroke:none; fill-opacity:0" cx="1456.25" cy="1068.71" r="2"/>
<circle clip-path="url(#clip882)" style="fill:#009af9; stroke:none; fill-opacity:0" cx="1560.34" cy="832.404" r="2"/>
<circle clip-path="url(#clip882)" style="fill:#009af9; stroke:none; fill-opacity:0" cx="1664.44" cy="950.559" r="2"/>
<circle clip-path="url(#clip882)" style="fill:#009af9; stroke:none; fill-opacity:0" cx="1768.53" cy="1305.02" r="2"/>
<circle clip-path="url(#clip882)" style="fill:#009af9; stroke:none; fill-opacity:0" cx="1872.63" cy="1423.18" r="2"/>
<circle clip-path="url(#clip882)" style="fill:#009af9; stroke:none; fill-opacity:0" cx="1976.72" cy="1186.87" r="2"/>
<circle clip-path="url(#clip882)" style="fill:#009af9; stroke:none; fill-opacity:0" cx="2080.82" cy="1423.18" r="2"/>
<circle clip-path="url(#clip882)" style="fill:#009af9; stroke:none; fill-opacity:0" cx="2184.91" cy="1305.02" r="2"/>
</svg>
