<?xml version="1.0" encoding="utf-8"?>
<svg xmlns="http://www.w3.org/2000/svg" xmlns:xlink="http://www.w3.org/1999/xlink" width="600" height="400" viewBox="0 0 2400 1600">
<defs>
  <clipPath id="clip790">
    <rect x="0" y="0" width="2400" height="1600"/>
  </clipPath>
</defs>
<path clip-path="url(#clip790)" d="M0 1600 L2400 1600 L2400 0 L0 0  Z" fill="#ffffff" fill-rule="evenodd" fill-opacity="1"/>
<defs>
  <clipPath id="clip791">
    <rect x="480" y="0" width="1681" height="1600"/>
  </clipPath>
</defs>
<path clip-path="url(#clip790)" d="M219.866 1423.18 L2352.76 1423.18 L2352.76 123.472 L219.866 123.472  Z" fill="#ffffff" fill-rule="evenodd" fill-opacity="1"/>
<defs>
  <clipPath id="clip792">
    <rect x="219" y="123" width="2134" height="1301"/>
  </clipPath>
</defs>
<polyline clip-path="url(#clip790)" style="stroke:#000000; stroke-linecap:round; stroke-linejoin:round; stroke-width:4; stroke-opacity:1; fill:none" points="219.866,1423.18 2352.76,1423.18 "/>
<polyline clip-path="url(#clip790)" style="stroke:#000000; stroke-linecap:round; stroke-linejoin:round; stroke-width:4; stroke-opacity:1; fill:none" points="219.866,1423.18 219.866,1404.28 "/>
<polyline clip-path="url(#clip790)" style="stroke:#000000; stroke-linecap:round; stroke-linejoin:round; stroke-width:4; stroke-opacity:1; fill:none" points="575.348,1423.18 575.348,1404.28 "/>
<polyline clip-path="url(#clip790)" style="stroke:#000000; stroke-linecap:round; stroke-linejoin:round; stroke-width:4; stroke-opacity:1; fill:none" points="930.829,1423.18 930.829,1404.28 "/>
<polyline clip-path="url(#clip790)" style="stroke:#000000; stroke-linecap:round; stroke-linejoin:round; stroke-width:4; stroke-opacity:1; fill:none" points="1286.31,1423.18 1286.31,1404.28 "/>
<polyline clip-path="url(#clip790)" style="stroke:#000000; stroke-linecap:round; stroke-linejoin:round; stroke-width:4; stroke-opacity:1; fill:none" points="1641.79,1423.18 1641.79,1404.28 "/>
<polyline clip-path="url(#clip790)" style="stroke:#000000; stroke-linecap:round; stroke-linejoin:round; stroke-width:4; stroke-opacity:1; fill:none" points="1997.27,1423.18 1997.27,1404.28 "/>
<polyline clip-path="url(#clip790)" style="stroke:#000000; stroke-linecap:round; stroke-linejoin:round; stroke-width:4; stroke-opacity:1; fill:none" points="2352.76,1423.18 2352.76,1404.28 "/>
<path clip-path="url(#clip790)" d="M219.866 1454.1 Q216.255 1454.1 214.426 1457.66 Q212.621 1461.2 212.621 1468.33 Q212.621 1475.44 214.426 1479.01 Q216.255 1482.55 219.866 1482.55 Q223.501 1482.55 225.306 1479.01 Q227.135 1475.44 227.135 1468.33 Q227.135 1461.2 225.306 1457.66 Q223.501 1454.1 219.866 1454.1 M219.866 1450.39 Q225.676 1450.39 228.732 1455 Q231.811 1459.58 231.811 1468.33 Q231.811 1477.06 228.732 1481.67 Q225.676 1486.25 219.866 1486.25 Q214.056 1486.25 210.977 1481.67 Q207.922 1477.06 207.922 1468.33 Q207.922 1459.58 210.977 1455 Q214.056 1450.39 219.866 1450.39 Z" fill="#000000" fill-rule="nonzero" fill-opacity="1" /><path clip-path="url(#clip790)" d="M554.121 1481.64 L570.44 1481.64 L570.44 1485.58 L548.496 1485.58 L548.496 1481.64 Q551.158 1478.89 555.741 1474.26 Q560.348 1469.61 561.529 1468.27 Q563.774 1465.74 564.653 1464.01 Q565.556 1462.25 565.556 1460.56 Q565.556 1457.8 563.612 1456.07 Q561.691 1454.33 558.589 1454.33 Q556.39 1454.33 553.936 1455.09 Q551.505 1455.86 548.728 1457.41 L548.728 1452.69 Q551.552 1451.55 554.005 1450.97 Q556.459 1450.39 558.496 1450.39 Q563.866 1450.39 567.061 1453.08 Q570.255 1455.77 570.255 1460.26 Q570.255 1462.39 569.445 1464.31 Q568.658 1466.2 566.552 1468.8 Q565.973 1469.47 562.871 1472.69 Q559.769 1475.88 554.121 1481.64 Z" fill="#000000" fill-rule="nonzero" fill-opacity="1" /><path clip-path="url(#clip790)" d="M590.255 1454.1 Q586.644 1454.1 584.815 1457.66 Q583.01 1461.2 583.01 1468.33 Q583.01 1475.44 584.815 1479.01 Q586.644 1482.55 590.255 1482.55 Q593.889 1482.55 595.695 1479.01 Q597.524 1475.44 597.524 1468.33 Q597.524 1461.2 595.695 1457.66 Q593.889 1454.1 590.255 1454.1 M590.255 1450.39 Q596.065 1450.39 599.121 1455 Q602.2 1459.58 602.2 1468.33 Q602.2 1477.06 599.121 1481.67 Q596.065 1486.25 590.255 1486.25 Q584.445 1486.25 581.366 1481.67 Q578.311 1477.06 578.311 1468.33 Q578.311 1459.58 581.366 1455 Q584.445 1450.39 590.255 1450.39 Z" fill="#000000" fill-rule="nonzero" fill-opacity="1" /><path clip-path="url(#clip790)" d="M919.001 1455.09 L907.195 1473.54 L919.001 1473.54 L919.001 1455.09 M917.774 1451.02 L923.654 1451.02 L923.654 1473.54 L928.584 1473.54 L928.584 1477.43 L923.654 1477.43 L923.654 1485.58 L919.001 1485.58 L919.001 1477.43 L903.399 1477.43 L903.399 1472.92 L917.774 1451.02 Z" fill="#000000" fill-rule="nonzero" fill-opacity="1" /><path clip-path="url(#clip790)" d="M946.316 1454.1 Q942.704 1454.1 940.876 1457.66 Q939.07 1461.2 939.07 1468.33 Q939.07 1475.44 940.876 1479.01 Q942.704 1482.55 946.316 1482.55 Q949.95 1482.55 951.755 1479.01 Q953.584 1475.44 953.584 1468.33 Q953.584 1461.2 951.755 1457.66 Q949.95 1454.1 946.316 1454.1 M946.316 1450.39 Q952.126 1450.39 955.181 1455 Q958.26 1459.58 958.26 1468.33 Q958.26 1477.06 955.181 1481.67 Q952.126 1486.25 946.316 1486.25 Q940.505 1486.25 937.427 1481.67 Q934.371 1477.06 934.371 1468.33 Q934.371 1459.58 937.427 1455 Q940.505 1450.39 946.316 1450.39 Z" fill="#000000" fill-rule="nonzero" fill-opacity="1" /><path clip-path="url(#clip790)" d="M1271.72 1466.44 Q1268.57 1466.44 1266.72 1468.59 Q1264.89 1470.74 1264.89 1474.49 Q1264.89 1478.22 1266.72 1480.39 Q1268.57 1482.55 1271.72 1482.55 Q1274.86 1482.55 1276.69 1480.39 Q1278.54 1478.22 1278.54 1474.49 Q1278.54 1470.74 1276.69 1468.59 Q1274.86 1466.44 1271.72 1466.44 M1281 1451.78 L1281 1456.04 Q1279.24 1455.21 1277.43 1454.77 Q1275.65 1454.33 1273.89 1454.33 Q1269.26 1454.33 1266.81 1457.45 Q1264.38 1460.58 1264.03 1466.9 Q1265.4 1464.89 1267.46 1463.82 Q1269.52 1462.73 1271.99 1462.73 Q1277.2 1462.73 1280.21 1465.9 Q1283.24 1469.05 1283.24 1474.49 Q1283.24 1479.82 1280.1 1483.03 Q1276.95 1486.25 1271.72 1486.25 Q1265.72 1486.25 1262.55 1481.67 Q1259.38 1477.06 1259.38 1468.33 Q1259.38 1460.14 1263.27 1455.28 Q1267.16 1450.39 1273.71 1450.39 Q1275.47 1450.39 1277.25 1450.74 Q1279.05 1451.09 1281 1451.78 Z" fill="#000000" fill-rule="nonzero" fill-opacity="1" /><path clip-path="url(#clip790)" d="M1301.3 1454.1 Q1297.69 1454.1 1295.86 1457.66 Q1294.05 1461.2 1294.05 1468.33 Q1294.05 1475.44 1295.86 1479.01 Q1297.69 1482.55 1301.3 1482.55 Q1304.93 1482.55 1306.74 1479.01 Q1308.57 1475.44 1308.57 1468.33 Q1308.57 1461.2 1306.74 1457.66 Q1304.93 1454.1 1301.3 1454.1 M1301.3 1450.39 Q1307.11 1450.39 1310.17 1455 Q1313.24 1459.58 1313.24 1468.33 Q1313.24 1477.06 1310.17 1481.67 Q1307.11 1486.25 1301.3 1486.25 Q1295.49 1486.25 1292.41 1481.67 Q1289.36 1477.06 1289.36 1468.33 Q1289.36 1459.58 1292.41 1455 Q1295.49 1450.39 1301.3 1450.39 Z" fill="#000000" fill-rule="nonzero" fill-opacity="1" /><path clip-path="url(#clip790)" d="M1626.67 1469.17 Q1623.33 1469.17 1621.41 1470.95 Q1619.51 1472.73 1619.51 1475.86 Q1619.51 1478.98 1621.41 1480.77 Q1623.33 1482.55 1626.67 1482.55 Q1630 1482.55 1631.92 1480.77 Q1633.84 1478.96 1633.84 1475.86 Q1633.84 1472.73 1631.92 1470.95 Q1630.02 1469.17 1626.67 1469.17 M1621.99 1467.18 Q1618.98 1466.44 1617.29 1464.38 Q1615.62 1462.32 1615.62 1459.35 Q1615.62 1455.21 1618.56 1452.8 Q1621.53 1450.39 1626.67 1450.39 Q1631.83 1450.39 1634.77 1452.8 Q1637.71 1455.21 1637.71 1459.35 Q1637.71 1462.32 1636.02 1464.38 Q1634.35 1466.44 1631.36 1467.18 Q1634.74 1467.96 1636.62 1470.26 Q1638.52 1472.55 1638.52 1475.86 Q1638.52 1480.88 1635.44 1483.57 Q1632.38 1486.25 1626.67 1486.25 Q1620.95 1486.25 1617.87 1483.57 Q1614.81 1480.88 1614.81 1475.86 Q1614.81 1472.55 1616.71 1470.26 Q1618.61 1467.96 1621.99 1467.18 M1620.28 1459.79 Q1620.28 1462.48 1621.94 1463.98 Q1623.63 1465.49 1626.67 1465.49 Q1629.67 1465.49 1631.36 1463.98 Q1633.08 1462.48 1633.08 1459.79 Q1633.08 1457.11 1631.36 1455.6 Q1629.67 1454.1 1626.67 1454.1 Q1623.63 1454.1 1621.94 1455.6 Q1620.28 1457.11 1620.28 1459.79 Z" fill="#000000" fill-rule="nonzero" fill-opacity="1" /><path clip-path="url(#clip790)" d="M1656.83 1454.1 Q1653.22 1454.1 1651.39 1457.66 Q1649.58 1461.2 1649.58 1468.33 Q1649.58 1475.44 1651.39 1479.01 Q1653.22 1482.55 1656.83 1482.55 Q1660.46 1482.55 1662.27 1479.01 Q1664.1 1475.44 1664.1 1468.33 Q1664.1 1461.2 1662.27 1457.66 Q1660.46 1454.1 1656.83 1454.1 M1656.83 1450.39 Q1662.64 1450.39 1665.69 1455 Q1668.77 1459.58 1668.77 1468.33 Q1668.77 1477.06 1665.69 1481.67 Q1662.64 1486.25 1656.83 1486.25 Q1651.02 1486.25 1647.94 1481.67 Q1644.88 1477.06 1644.88 1468.33 Q1644.88 1459.58 1647.94 1455 Q1651.02 1450.39 1656.83 1450.39 Z" fill="#000000" fill-rule="nonzero" fill-opacity="1" /><path clip-path="url(#clip790)" d="M1956.88 1481.64 L1964.52 1481.64 L1964.52 1455.28 L1956.21 1456.95 L1956.21 1452.69 L1964.47 1451.02 L1969.15 1451.02 L1969.15 1481.64 L1976.79 1481.64 L1976.79 1485.58 L1956.88 1485.58 L1956.88 1481.64 Z" fill="#000000" fill-rule="nonzero" fill-opacity="1" /><path clip-path="url(#clip790)" d="M1996.23 1454.1 Q1992.62 1454.1 1990.79 1457.66 Q1988.99 1461.2 1988.99 1468.33 Q1988.99 1475.44 1990.79 1479.01 Q1992.62 1482.55 1996.23 1482.55 Q1999.87 1482.55 2001.67 1479.01 Q2003.5 1475.44 2003.5 1468.33 Q2003.5 1461.2 2001.67 1457.66 Q1999.87 1454.1 1996.23 1454.1 M1996.23 1450.39 Q2002.04 1450.39 2005.1 1455 Q2008.18 1459.58 2008.18 1468.33 Q2008.18 1477.06 2005.1 1481.67 Q2002.04 1486.25 1996.23 1486.25 Q1990.42 1486.25 1987.34 1481.67 Q1984.29 1477.06 1984.29 1468.33 Q1984.29 1459.58 1987.34 1455 Q1990.42 1450.39 1996.23 1450.39 Z" fill="#000000" fill-rule="nonzero" fill-opacity="1" /><path clip-path="url(#clip790)" d="M2026.39 1454.1 Q2022.78 1454.1 2020.95 1457.66 Q2019.15 1461.2 2019.15 1468.33 Q2019.15 1475.44 2020.95 1479.01 Q2022.78 1482.55 2026.39 1482.55 Q2030.03 1482.55 2031.83 1479.01 Q2033.66 1475.44 2033.66 1468.33 Q2033.66 1461.2 2031.83 1457.66 Q2030.03 1454.1 2026.39 1454.1 M2026.39 1450.39 Q2032.2 1450.39 2035.26 1455 Q2038.34 1459.58 2038.34 1468.33 Q2038.34 1477.06 2035.26 1481.67 Q2032.2 1486.25 2026.39 1486.25 Q2020.58 1486.25 2017.51 1481.67 Q2014.45 1477.06 2014.45 1468.33 Q2014.45 1459.58 2017.51 1455 Q2020.58 1450.39 2026.39 1450.39 Z" fill="#000000" fill-rule="nonzero" fill-opacity="1" /><path clip-path="url(#clip790)" d="M2312.36 1481.64 L2320 1481.64 L2320 1455.28 L2311.69 1456.95 L2311.69 1452.69 L2319.96 1451.02 L2324.63 1451.02 L2324.63 1481.64 L2332.27 1481.64 L2332.27 1485.58 L2312.36 1485.58 L2312.36 1481.64 Z" fill="#000000" fill-rule="nonzero" fill-opacity="1" /><path clip-path="url(#clip790)" d="M2345.74 1481.64 L2362.06 1481.64 L2362.06 1485.58 L2340.12 1485.58 L2340.12 1481.64 Q2342.78 1478.89 2347.36 1474.26 Q2351.97 1469.61 2353.15 1468.27 Q2355.39 1465.74 2356.27 1464.01 Q2357.18 1462.25 2357.18 1460.56 Q2357.18 1457.8 2355.23 1456.07 Q2353.31 1454.33 2350.21 1454.33 Q2348.01 1454.33 2345.56 1455.09 Q2343.13 1455.86 2340.35 1457.41 L2340.35 1452.69 Q2343.17 1451.55 2345.63 1450.97 Q2348.08 1450.39 2350.12 1450.39 Q2355.49 1450.39 2358.68 1453.08 Q2361.88 1455.77 2361.88 1460.26 Q2361.88 1462.39 2361.07 1464.31 Q2360.28 1466.2 2358.17 1468.8 Q2357.59 1469.47 2354.49 1472.69 Q2351.39 1475.88 2345.74 1481.64 Z" fill="#000000" fill-rule="nonzero" fill-opacity="1" /><path clip-path="url(#clip790)" d="M2381.88 1454.1 Q2378.27 1454.1 2376.44 1457.66 Q2374.63 1461.2 2374.63 1468.33 Q2374.63 1475.44 2376.44 1479.01 Q2378.27 1482.55 2381.88 1482.55 Q2385.51 1482.55 2387.32 1479.01 Q2389.14 1475.44 2389.14 1468.33 Q2389.14 1461.2 2387.32 1457.66 Q2385.51 1454.1 2381.88 1454.1 M2381.88 1450.39 Q2387.69 1450.39 2390.74 1455 Q2393.82 1459.58 2393.82 1468.33 Q2393.82 1477.06 2390.74 1481.67 Q2387.69 1486.25 2381.88 1486.25 Q2376.07 1486.25 2372.99 1481.67 Q2369.93 1477.06 2369.93 1468.33 Q2369.93 1459.58 2372.99 1455 Q2376.07 1450.39 2381.88 1450.39 Z" fill="#000000" fill-rule="nonzero" fill-opacity="1" /><path clip-path="url(#clip790)" d="M1213.67 1511.94 Q1213.67 1512.55 1213.54 1513.07 L1211.73 1524.53 Q1211.64 1525.4 1211.45 1525.72 Q1211.28 1526.05 1210.77 1526.05 Q1209.96 1526.05 1209.96 1525.21 Q1209.96 1524.72 1210.16 1523.95 Q1210.7 1520.31 1210.7 1518.67 Q1210.7 1517.58 1210.48 1516.77 Q1210.29 1515.93 1209.96 1515.35 Q1209.67 1514.77 1209 1514.39 Q1208.32 1514 1207.68 1513.77 Q1207.03 1513.55 1205.87 1513.45 Q1204.71 1513.32 1203.72 1513.29 Q1202.72 1513.26 1201.07 1513.26 Q1197.5 1513.26 1196.92 1513.39 Q1196.31 1513.55 1195.99 1514.03 Q1195.7 1514.48 1195.37 1515.84 L1186.61 1550.84 L1186.36 1552.23 Q1186.36 1553 1186.84 1553.26 Q1187.32 1553.52 1188.8 1553.68 Q1190.93 1553.84 1193.02 1553.84 Q1193.09 1553.84 1193.22 1553.84 Q1193.93 1553.84 1194.21 1553.87 Q1194.5 1553.87 1194.79 1553.94 Q1195.08 1554 1195.15 1554.16 Q1195.25 1554.29 1195.25 1554.55 Q1195.25 1555.16 1194.99 1555.48 Q1194.73 1555.77 1194.47 1555.84 Q1194.25 1555.87 1193.8 1555.87 Q1192.89 1555.87 1190.96 1555.8 Q1189.03 1555.74 1188.06 1555.74 L1182.59 1555.67 L1176.98 1555.74 Q1176.12 1555.74 1174.28 1555.8 Q1172.44 1555.87 1171.57 1555.87 Q1170.45 1555.87 1170.45 1555.06 Q1170.45 1554.16 1170.87 1554 Q1171.32 1553.84 1173.22 1553.84 Q1175.89 1553.84 1177.34 1553.71 Q1178.79 1553.58 1179.56 1553.13 Q1180.37 1552.68 1180.59 1552.23 Q1180.82 1551.75 1181.07 1550.65 L1189.93 1515.45 Q1190.19 1514.68 1190.19 1514.06 Q1190.19 1513.74 1190.09 1513.61 Q1190.03 1513.48 1189.61 1513.39 Q1189.19 1513.26 1188.32 1513.26 L1185.74 1513.26 Q1183.1 1513.26 1181.46 1513.39 Q1179.85 1513.48 1178.31 1513.97 Q1176.79 1514.45 1175.89 1515.13 Q1175.02 1515.8 1174.05 1517.19 Q1173.09 1518.57 1172.38 1520.25 Q1171.7 1521.92 1170.74 1524.66 Q1170.41 1525.56 1170.22 1525.82 Q1170.06 1526.05 1169.61 1526.05 Q1169.29 1526.05 1169.03 1525.85 Q1168.8 1525.63 1168.8 1525.34 Q1169.13 1524.27 1169.19 1524.15 L1173.15 1512.52 Q1173.47 1511.58 1173.76 1511.42 Q1174.09 1511.23 1175.28 1511.23 L1211.86 1511.23 Q1212.44 1511.23 1212.64 1511.23 Q1212.83 1511.23 1213.15 1511.29 Q1213.47 1511.36 1213.57 1511.52 Q1213.67 1511.68 1213.67 1511.94 Z" fill="#000000" fill-rule="nonzero" fill-opacity="1" /><path clip-path="url(#clip790)" d="M1229 1514.64 Q1229 1516.06 1227.84 1517.12 Q1226.71 1518.15 1225.49 1518.15 Q1224.36 1518.15 1223.65 1517.48 Q1222.97 1516.77 1222.97 1515.77 Q1222.97 1514.45 1224.1 1513.36 Q1225.23 1512.26 1226.55 1512.26 Q1227.64 1512.26 1228.32 1512.94 Q1229 1513.61 1229 1514.64 M1229.58 1546.43 Q1229.58 1546.69 1229.29 1547.72 Q1229 1548.72 1228.29 1550.26 Q1227.61 1551.78 1226.68 1553.19 Q1225.74 1554.61 1224.2 1555.61 Q1222.68 1556.61 1220.95 1556.61 Q1218.59 1556.61 1217.05 1555.06 Q1215.53 1553.52 1215.53 1551.2 Q1215.53 1549.94 1217.05 1545.92 Q1221.43 1534.19 1221.59 1533.71 Q1222.33 1531.87 1222.33 1530.26 Q1222.33 1529.52 1222.17 1529.07 Q1222.01 1528.59 1221.69 1528.43 Q1221.36 1528.24 1221.17 1528.2 Q1221.01 1528.17 1220.69 1528.17 Q1218.79 1528.17 1217.02 1530.1 Q1215.24 1532.04 1214.02 1536.35 Q1213.76 1537.16 1213.6 1537.35 Q1213.44 1537.54 1212.96 1537.54 Q1212.15 1537.51 1212.15 1536.87 Q1212.15 1536.67 1212.38 1535.93 Q1212.6 1535.16 1213.02 1534 Q1213.44 1532.81 1214.18 1531.58 Q1214.92 1530.33 1215.82 1529.23 Q1216.76 1528.14 1218.08 1527.43 Q1219.4 1526.72 1220.88 1526.72 Q1223.3 1526.72 1224.78 1528.3 Q1226.29 1529.85 1226.29 1532.13 Q1226.29 1533.39 1225.42 1535.61 Q1224.36 1538.51 1223.97 1539.44 L1221.4 1546.37 Q1220.46 1548.88 1220.17 1549.65 Q1219.91 1550.39 1219.69 1551.29 Q1219.5 1552.16 1219.5 1552.97 Q1219.5 1554.1 1219.85 1554.61 Q1220.24 1555.13 1221.07 1555.13 Q1223.39 1555.13 1225.1 1552.84 Q1226.81 1550.52 1227.81 1546.98 Q1227.84 1546.88 1227.87 1546.72 Q1228.13 1545.92 1228.38 1545.82 Q1228.51 1545.79 1228.77 1545.79 Q1229.58 1545.79 1229.58 1546.43 Z" fill="#000000" fill-rule="nonzero" fill-opacity="1" /><path clip-path="url(#clip790)" d="M1289.24 1546.43 Q1289.24 1546.69 1288.95 1547.69 Q1288.66 1548.69 1287.95 1550.23 Q1287.28 1551.78 1286.31 1553.19 Q1285.38 1554.58 1283.83 1555.61 Q1282.32 1556.61 1280.58 1556.61 Q1278.26 1556.61 1276.71 1555.06 Q1275.17 1553.52 1275.17 1551.2 Q1275.17 1549.94 1276.04 1547.56 Q1280.13 1536.67 1280.13 1532.78 Q1280.13 1528.17 1276.55 1528.17 Q1274.52 1528.17 1272.69 1529.01 Q1270.85 1529.85 1269.66 1531 Q1268.47 1532.16 1267.54 1533.48 Q1266.6 1534.81 1266.18 1535.67 Q1265.8 1536.54 1265.7 1536.93 L1261.74 1552.84 Q1261.42 1554.19 1261.19 1554.84 Q1260.97 1555.48 1260.35 1556.03 Q1259.74 1556.61 1258.78 1556.61 Q1257.97 1556.61 1257.39 1556.13 Q1256.84 1555.64 1256.84 1554.8 Q1256.84 1554.68 1257 1554 Q1257.17 1553.32 1257.39 1552.39 Q1257.62 1551.46 1257.71 1550.91 Q1258.87 1546.53 1259.03 1545.92 L1260.87 1538.25 Q1261.87 1534.45 1261.87 1532.78 Q1261.87 1528.17 1258.29 1528.17 Q1256.52 1528.17 1254.85 1528.85 Q1253.2 1529.49 1252.08 1530.39 Q1250.95 1531.29 1249.92 1532.55 Q1248.92 1533.77 1248.41 1534.61 Q1247.92 1535.42 1247.54 1536.22 L1246.7 1539.51 Q1246.51 1540.41 1245.57 1543.92 L1244.12 1549.88 Q1243.09 1554.32 1242.87 1554.74 Q1242.54 1555.64 1241.84 1556.13 Q1241.13 1556.61 1240.42 1556.61 Q1239.61 1556.61 1239.07 1556.13 Q1238.52 1555.64 1238.52 1554.8 Q1238.52 1554.68 1238.62 1554.19 Q1238.71 1553.71 1238.87 1553.03 Q1239.03 1552.36 1239.1 1551.97 L1242.93 1536.74 Q1243.64 1533.97 1243.8 1533.1 Q1243.99 1532.2 1243.99 1531.2 Q1243.99 1528.17 1241.93 1528.17 Q1240.26 1528.17 1239.16 1530.17 Q1238.07 1532.16 1237.13 1536.03 Q1236.84 1537.09 1236.65 1537.32 Q1236.49 1537.54 1236.01 1537.54 Q1235.2 1537.51 1235.2 1536.87 Q1235.2 1536.71 1235.46 1535.67 Q1235.72 1534.64 1236.2 1533.1 Q1236.72 1531.52 1237.26 1530.49 Q1237.58 1529.81 1237.87 1529.36 Q1238.16 1528.91 1238.74 1528.2 Q1239.32 1527.49 1240.19 1527.11 Q1241.06 1526.72 1242.13 1526.72 Q1244.48 1526.72 1246.22 1528.24 Q1247.99 1529.75 1248.21 1532.45 Q1252.5 1526.72 1258.49 1526.72 Q1261.87 1526.72 1263.9 1528.43 Q1265.8 1530.07 1266.02 1533.1 Q1270.47 1526.72 1276.78 1526.72 Q1280.42 1526.72 1282.38 1528.62 Q1284.35 1530.49 1284.35 1533.77 Q1284.35 1535.48 1283.48 1538.73 Q1282.61 1541.95 1282.03 1543.57 Q1281.45 1545.18 1280.32 1548.27 Q1279.13 1551.23 1279.13 1552.97 Q1279.13 1554.1 1279.52 1554.61 Q1279.9 1555.13 1280.74 1555.13 Q1282.03 1555.13 1283.16 1554.39 Q1284.28 1553.61 1285.09 1552.36 Q1285.93 1551.07 1286.47 1549.78 Q1287.02 1548.46 1287.44 1546.98 Q1287.7 1546.17 1287.83 1545.98 Q1287.99 1545.79 1288.44 1545.79 Q1289.24 1545.79 1289.24 1546.43 Z" fill="#000000" fill-rule="nonzero" fill-opacity="1" /><path clip-path="url(#clip790)" d="M1318.7 1548.23 Q1318.96 1548.52 1318.96 1548.81 Q1318.96 1549.1 1318.31 1549.94 Q1317.7 1550.78 1316.38 1551.91 Q1315.06 1553.03 1313.35 1554.1 Q1311.65 1555.16 1309.13 1555.87 Q1306.62 1556.61 1303.98 1556.61 Q1299.25 1556.61 1296.41 1553.23 Q1293.61 1549.85 1293.61 1544.66 Q1293.61 1541.34 1294.71 1538.41 Q1295.8 1535.45 1297.57 1533.36 Q1299.38 1531.26 1301.63 1529.75 Q1303.92 1528.2 1306.3 1527.46 Q1308.68 1526.72 1310.91 1526.72 Q1314.16 1526.72 1316.06 1528.36 Q1317.96 1530.01 1317.96 1532.33 Q1317.96 1532.87 1317.8 1533.55 Q1317.67 1534.23 1317.22 1535.29 Q1316.8 1536.35 1315.7 1537.41 Q1314.61 1538.44 1313 1539.12 Q1309.42 1540.63 1302.92 1540.63 L1299.41 1540.63 Q1298.38 1544.79 1298.38 1547.49 Q1298.38 1548.56 1298.57 1549.65 Q1298.76 1550.71 1299.28 1552.07 Q1299.83 1553.42 1301.05 1554.29 Q1302.31 1555.13 1304.11 1555.13 Q1304.69 1555.13 1305.3 1555.09 Q1305.95 1555.06 1307.56 1554.71 Q1309.2 1554.35 1310.65 1553.74 Q1312.1 1553.13 1313.93 1551.81 Q1315.8 1550.46 1317.28 1548.62 Q1317.8 1547.95 1318.15 1547.95 Q1318.44 1547.95 1318.7 1548.23 M1315.77 1532.33 Q1315.77 1530.55 1314.45 1529.36 Q1313.16 1528.17 1310.91 1528.17 Q1310.2 1528.17 1309.33 1528.33 Q1308.46 1528.49 1307.01 1529.17 Q1305.59 1529.85 1304.34 1530.97 Q1303.08 1532.07 1301.82 1534.23 Q1300.57 1536.35 1299.83 1539.19 L1302.53 1539.19 Q1303.47 1539.19 1304.14 1539.19 Q1304.82 1539.15 1306.3 1539.02 Q1307.81 1538.9 1308.91 1538.67 Q1310 1538.41 1311.39 1537.9 Q1312.77 1537.38 1313.64 1536.71 Q1314.54 1536 1315.16 1534.87 Q1315.77 1533.74 1315.77 1532.33 Z" fill="#000000" fill-rule="nonzero" fill-opacity="1" /><path clip-path="url(#clip790)" d="M1332.76 1539.38 Q1332.76 1528.24 1336.91 1519.25 Q1338.68 1515.48 1341.16 1512.33 Q1343.64 1509.17 1345.29 1507.78 Q1346.93 1506.4 1347.38 1506.4 Q1348.02 1506.4 1348.06 1507.04 Q1348.06 1507.37 1347.19 1508.17 Q1336.56 1518.99 1336.59 1539.38 Q1336.59 1559.83 1346.93 1570.23 Q1348.06 1571.36 1348.06 1571.71 Q1348.06 1572.36 1347.38 1572.36 Q1346.93 1572.36 1345.35 1571.04 Q1343.77 1569.72 1341.32 1566.69 Q1338.88 1563.66 1337.11 1559.96 Q1332.76 1550.97 1332.76 1539.38 Z" fill="#000000" fill-rule="nonzero" fill-opacity="1" /><path clip-path="url(#clip790)" d="M1373.33 1528.17 Q1373.33 1529.07 1372.91 1529.3 Q1372.49 1529.49 1371.33 1529.49 L1365.15 1529.49 L1360.25 1548.94 Q1359.86 1550.65 1359.86 1552.1 Q1359.86 1553.71 1360.35 1554.42 Q1360.86 1555.13 1361.93 1555.13 Q1364.02 1555.13 1366.27 1553.23 Q1368.56 1551.33 1370.49 1546.69 Q1370.75 1546.08 1370.88 1545.95 Q1371.04 1545.79 1371.46 1545.79 Q1372.26 1545.79 1372.26 1546.43 Q1372.26 1546.66 1371.81 1547.69 Q1371.39 1548.72 1370.46 1550.23 Q1369.56 1551.75 1368.37 1553.16 Q1367.21 1554.58 1365.44 1555.61 Q1363.66 1556.61 1361.76 1556.61 Q1359.09 1556.61 1357.38 1554.9 Q1355.71 1553.19 1355.71 1550.52 Q1355.71 1549.65 1356.39 1546.88 Q1357.06 1544.08 1360.73 1529.49 L1354.9 1529.49 Q1354.1 1529.49 1353.78 1529.46 Q1353.49 1529.43 1353.26 1529.27 Q1353.07 1529.07 1353.07 1528.69 Q1353.07 1528.07 1353.33 1527.82 Q1353.58 1527.53 1353.91 1527.49 Q1354.26 1527.43 1355.07 1527.43 L1361.25 1527.43 L1363.83 1516.96 Q1364.08 1515.93 1364.73 1515.35 Q1365.4 1514.74 1365.79 1514.68 Q1366.18 1514.58 1366.47 1514.58 Q1367.34 1514.58 1367.85 1515.06 Q1368.37 1515.51 1368.37 1516.35 Q1368.37 1516.8 1365.66 1527.43 L1371.46 1527.43 Q1372.2 1527.43 1372.49 1527.46 Q1372.81 1527.49 1373.07 1527.66 Q1373.33 1527.82 1373.33 1528.17 Z" fill="#000000" fill-rule="nonzero" fill-opacity="1" /><path clip-path="url(#clip790)" d="M1378.49 1571.71 Q1378.49 1571.39 1379.33 1570.59 Q1389.96 1559.76 1389.96 1539.38 Q1389.96 1518.93 1379.75 1508.59 Q1378.49 1507.4 1378.49 1507.04 Q1378.49 1506.4 1379.13 1506.4 Q1379.59 1506.4 1381.16 1507.72 Q1382.77 1509.04 1385.19 1512.07 Q1387.64 1515.1 1389.44 1518.8 Q1393.79 1527.78 1393.79 1539.38 Q1393.79 1550.52 1389.63 1559.51 Q1387.86 1563.28 1385.38 1566.43 Q1382.9 1569.59 1381.26 1570.97 Q1379.62 1572.36 1379.13 1572.36 Q1378.49 1572.36 1378.49 1571.71 Z" fill="#000000" fill-rule="nonzero" fill-opacity="1" /><polyline clip-path="url(#clip790)" style="stroke:#000000; stroke-linecap:round; stroke-linejoin:round; stroke-width:4; stroke-opacity:1; fill:none" points="219.866,1423.18 219.866,123.472 "/>
<polyline clip-path="url(#clip790)" style="stroke:#000000; stroke-linecap:round; stroke-linejoin:round; stroke-width:4; stroke-opacity:1; fill:none" points="219.866,1423.18 238.764,1423.18 "/>
<polyline clip-path="url(#clip790)" style="stroke:#000000; stroke-linecap:round; stroke-linejoin:round; stroke-width:4; stroke-opacity:1; fill:none" points="219.866,1163.24 238.764,1163.24 "/>
<polyline clip-path="url(#clip790)" style="stroke:#000000; stroke-linecap:round; stroke-linejoin:round; stroke-width:4; stroke-opacity:1; fill:none" points="219.866,903.297 238.764,903.297 "/>
<polyline clip-path="url(#clip790)" style="stroke:#000000; stroke-linecap:round; stroke-linejoin:round; stroke-width:4; stroke-opacity:1; fill:none" points="219.866,643.355 238.764,643.355 "/>
<polyline clip-path="url(#clip790)" style="stroke:#000000; stroke-linecap:round; stroke-linejoin:round; stroke-width:4; stroke-opacity:1; fill:none" points="219.866,383.414 238.764,383.414 "/>
<polyline clip-path="url(#clip790)" style="stroke:#000000; stroke-linecap:round; stroke-linejoin:round; stroke-width:4; stroke-opacity:1; fill:none" points="219.866,123.472 238.764,123.472 "/>
<path clip-path="url(#clip790)" d="M126.691 1408.98 Q123.08 1408.98 121.251 1412.54 Q119.445 1416.08 119.445 1423.21 Q119.445 1430.32 121.251 1433.89 Q123.08 1437.43 126.691 1437.43 Q130.325 1437.43 132.13 1433.89 Q133.959 1430.32 133.959 1423.21 Q133.959 1416.08 132.13 1412.54 Q130.325 1408.98 126.691 1408.98 M126.691 1405.27 Q132.501 1405.27 135.556 1409.88 Q138.635 1414.46 138.635 1423.21 Q138.635 1431.94 135.556 1436.55 Q132.501 1441.13 126.691 1441.13 Q120.88 1441.13 117.802 1436.55 Q114.746 1431.94 114.746 1423.21 Q114.746 1414.46 117.802 1409.88 Q120.88 1405.27 126.691 1405.27 Z" fill="#000000" fill-rule="nonzero" fill-opacity="1" /><path clip-path="url(#clip790)" d="M146.853 1434.58 L151.737 1434.58 L151.737 1440.46 L146.853 1440.46 L146.853 1434.58 Z" fill="#000000" fill-rule="nonzero" fill-opacity="1" /><path clip-path="url(#clip790)" d="M171.922 1408.98 Q168.311 1408.98 166.482 1412.54 Q164.677 1416.08 164.677 1423.21 Q164.677 1430.32 166.482 1433.89 Q168.311 1437.43 171.922 1437.43 Q175.556 1437.43 177.362 1433.89 Q179.19 1430.32 179.19 1423.21 Q179.19 1416.08 177.362 1412.54 Q175.556 1408.98 171.922 1408.98 M171.922 1405.27 Q177.732 1405.27 180.788 1409.88 Q183.866 1414.46 183.866 1423.21 Q183.866 1431.94 180.788 1436.55 Q177.732 1441.13 171.922 1441.13 Q166.112 1441.13 163.033 1436.55 Q159.978 1431.94 159.978 1423.21 Q159.978 1414.46 163.033 1409.88 Q166.112 1405.27 171.922 1405.27 Z" fill="#000000" fill-rule="nonzero" fill-opacity="1" /><path clip-path="url(#clip790)" d="M128.288 1149.04 Q124.677 1149.04 122.848 1152.6 Q121.043 1156.14 121.043 1163.27 Q121.043 1170.38 122.848 1173.94 Q124.677 1177.49 128.288 1177.49 Q131.922 1177.49 133.728 1173.94 Q135.556 1170.38 135.556 1163.27 Q135.556 1156.14 133.728 1152.6 Q131.922 1149.04 128.288 1149.04 M128.288 1145.33 Q134.098 1145.33 137.154 1149.94 Q140.232 1154.52 140.232 1163.27 Q140.232 1172 137.154 1176.61 Q134.098 1181.19 128.288 1181.19 Q122.478 1181.19 119.399 1176.61 Q116.343 1172 116.343 1163.27 Q116.343 1154.52 119.399 1149.94 Q122.478 1145.33 128.288 1145.33 Z" fill="#000000" fill-rule="nonzero" fill-opacity="1" /><path clip-path="url(#clip790)" d="M148.45 1174.64 L153.334 1174.64 L153.334 1180.52 L148.45 1180.52 L148.45 1174.64 Z" fill="#000000" fill-rule="nonzero" fill-opacity="1" /><path clip-path="url(#clip790)" d="M167.547 1176.58 L183.866 1176.58 L183.866 1180.52 L161.922 1180.52 L161.922 1176.58 Q164.584 1173.83 169.167 1169.2 Q173.774 1164.55 174.954 1163.2 Q177.2 1160.68 178.079 1158.94 Q178.982 1157.19 178.982 1155.5 Q178.982 1152.74 177.038 1151 Q175.116 1149.27 172.014 1149.27 Q169.815 1149.27 167.362 1150.03 Q164.931 1150.8 162.153 1152.35 L162.153 1147.62 Q164.977 1146.49 167.431 1145.91 Q169.885 1145.33 171.922 1145.33 Q177.292 1145.33 180.487 1148.02 Q183.681 1150.7 183.681 1155.19 Q183.681 1157.32 182.871 1159.25 Q182.084 1161.14 179.977 1163.74 Q179.399 1164.41 176.297 1167.62 Q173.195 1170.82 167.547 1176.58 Z" fill="#000000" fill-rule="nonzero" fill-opacity="1" /><path clip-path="url(#clip790)" d="M126.205 889.095 Q122.593 889.095 120.765 892.66 Q118.959 896.202 118.959 903.331 Q118.959 910.438 120.765 914.003 Q122.593 917.544 126.205 917.544 Q129.839 917.544 131.644 914.003 Q133.473 910.438 133.473 903.331 Q133.473 896.202 131.644 892.66 Q129.839 889.095 126.205 889.095 M126.205 885.392 Q132.015 885.392 135.07 889.998 Q138.149 894.582 138.149 903.331 Q138.149 912.058 135.07 916.665 Q132.015 921.248 126.205 921.248 Q120.394 921.248 117.316 916.665 Q114.26 912.058 114.26 903.331 Q114.26 894.582 117.316 889.998 Q120.394 885.392 126.205 885.392 Z" fill="#000000" fill-rule="nonzero" fill-opacity="1" /><path clip-path="url(#clip790)" d="M146.366 914.697 L151.251 914.697 L151.251 920.577 L146.366 920.577 L146.366 914.697 Z" fill="#000000" fill-rule="nonzero" fill-opacity="1" /><path clip-path="url(#clip790)" d="M174.283 890.091 L162.477 908.54 L174.283 908.54 L174.283 890.091 M173.056 886.017 L178.936 886.017 L178.936 908.54 L183.866 908.54 L183.866 912.429 L178.936 912.429 L178.936 920.577 L174.283 920.577 L174.283 912.429 L158.681 912.429 L158.681 907.915 L173.056 886.017 Z" fill="#000000" fill-rule="nonzero" fill-opacity="1" /><path clip-path="url(#clip790)" d="M126.529 629.154 Q122.918 629.154 121.089 632.719 Q119.283 636.26 119.283 643.39 Q119.283 650.496 121.089 654.061 Q122.918 657.603 126.529 657.603 Q130.163 657.603 131.968 654.061 Q133.797 650.496 133.797 643.39 Q133.797 636.26 131.968 632.719 Q130.163 629.154 126.529 629.154 M126.529 625.45 Q132.339 625.45 135.394 630.057 Q138.473 634.64 138.473 643.39 Q138.473 652.117 135.394 656.723 Q132.339 661.307 126.529 661.307 Q120.718 661.307 117.64 656.723 Q114.584 652.117 114.584 643.39 Q114.584 634.64 117.64 630.057 Q120.718 625.45 126.529 625.45 Z" fill="#000000" fill-rule="nonzero" fill-opacity="1" /><path clip-path="url(#clip790)" d="M146.691 654.756 L151.575 654.756 L151.575 660.635 L146.691 660.635 L146.691 654.756 Z" fill="#000000" fill-rule="nonzero" fill-opacity="1" /><path clip-path="url(#clip790)" d="M172.339 641.492 Q169.19 641.492 167.339 643.645 Q165.51 645.797 165.51 649.547 Q165.51 653.274 167.339 655.45 Q169.19 657.603 172.339 657.603 Q175.487 657.603 177.315 655.45 Q179.167 653.274 179.167 649.547 Q179.167 645.797 177.315 643.645 Q175.487 641.492 172.339 641.492 M181.621 626.839 L181.621 631.098 Q179.862 630.265 178.056 629.825 Q176.274 629.385 174.514 629.385 Q169.885 629.385 167.431 632.51 Q165.001 635.635 164.653 641.955 Q166.019 639.941 168.079 638.876 Q170.139 637.788 172.616 637.788 Q177.825 637.788 180.834 640.959 Q183.866 644.108 183.866 649.547 Q183.866 654.871 180.718 658.089 Q177.57 661.307 172.339 661.307 Q166.343 661.307 163.172 656.723 Q160.001 652.117 160.001 643.39 Q160.001 635.196 163.89 630.334 Q167.778 625.45 174.329 625.45 Q176.089 625.45 177.871 625.797 Q179.676 626.145 181.621 626.839 Z" fill="#000000" fill-rule="nonzero" fill-opacity="1" /><path clip-path="url(#clip790)" d="M126.783 369.212 Q123.172 369.212 121.343 372.777 Q119.538 376.319 119.538 383.448 Q119.538 390.555 121.343 394.12 Q123.172 397.661 126.783 397.661 Q130.417 397.661 132.223 394.12 Q134.052 390.555 134.052 383.448 Q134.052 376.319 132.223 372.777 Q130.417 369.212 126.783 369.212 M126.783 365.509 Q132.593 365.509 135.649 370.115 Q138.728 374.698 138.728 383.448 Q138.728 392.175 135.649 396.782 Q132.593 401.365 126.783 401.365 Q120.973 401.365 117.894 396.782 Q114.839 392.175 114.839 383.448 Q114.839 374.698 117.894 370.115 Q120.973 365.509 126.783 365.509 Z" fill="#000000" fill-rule="nonzero" fill-opacity="1" /><path clip-path="url(#clip790)" d="M146.945 394.814 L151.829 394.814 L151.829 400.694 L146.945 400.694 L146.945 394.814 Z" fill="#000000" fill-rule="nonzero" fill-opacity="1" /><path clip-path="url(#clip790)" d="M172.014 384.282 Q168.681 384.282 166.76 386.064 Q164.862 387.847 164.862 390.971 Q164.862 394.096 166.76 395.879 Q168.681 397.661 172.014 397.661 Q175.348 397.661 177.269 395.879 Q179.19 394.073 179.19 390.971 Q179.19 387.847 177.269 386.064 Q175.371 384.282 172.014 384.282 M167.339 382.291 Q164.329 381.55 162.64 379.49 Q160.973 377.43 160.973 374.467 Q160.973 370.323 163.913 367.916 Q166.876 365.509 172.014 365.509 Q177.176 365.509 180.116 367.916 Q183.056 370.323 183.056 374.467 Q183.056 377.43 181.366 379.49 Q179.7 381.55 176.714 382.291 Q180.093 383.078 181.968 385.37 Q183.866 387.661 183.866 390.971 Q183.866 395.995 180.788 398.68 Q177.732 401.365 172.014 401.365 Q166.297 401.365 163.218 398.68 Q160.163 395.995 160.163 390.971 Q160.163 387.661 162.061 385.37 Q163.959 383.078 167.339 382.291 M165.626 374.907 Q165.626 377.592 167.292 379.097 Q168.982 380.601 172.014 380.601 Q175.024 380.601 176.714 379.097 Q178.426 377.592 178.426 374.907 Q178.426 372.222 176.714 370.717 Q175.024 369.212 172.014 369.212 Q168.982 369.212 167.292 370.717 Q165.626 372.222 165.626 374.907 Z" fill="#000000" fill-rule="nonzero" fill-opacity="1" /><path clip-path="url(#clip790)" d="M117.501 136.817 L125.14 136.817 L125.14 110.451 L116.83 112.118 L116.83 107.859 L125.093 106.192 L129.769 106.192 L129.769 136.817 L137.408 136.817 L137.408 140.752 L117.501 140.752 L117.501 136.817 Z" fill="#000000" fill-rule="nonzero" fill-opacity="1" /><path clip-path="url(#clip790)" d="M146.853 134.873 L151.737 134.873 L151.737 140.752 L146.853 140.752 L146.853 134.873 Z" fill="#000000" fill-rule="nonzero" fill-opacity="1" /><path clip-path="url(#clip790)" d="M171.922 109.271 Q168.311 109.271 166.482 112.836 Q164.677 116.377 164.677 123.507 Q164.677 130.613 166.482 134.178 Q168.311 137.72 171.922 137.72 Q175.556 137.72 177.362 134.178 Q179.19 130.613 179.19 123.507 Q179.19 116.377 177.362 112.836 Q175.556 109.271 171.922 109.271 M171.922 105.567 Q177.732 105.567 180.788 110.174 Q183.866 114.757 183.866 123.507 Q183.866 132.234 180.788 136.84 Q177.732 141.423 171.922 141.423 Q166.112 141.423 163.033 136.84 Q159.978 132.234 159.978 123.507 Q159.978 114.757 163.033 110.174 Q166.112 105.567 171.922 105.567 Z" fill="#000000" fill-rule="nonzero" fill-opacity="1" /><path clip-path="url(#clip790)" d="M34.8527 758.208 Q33.7899 758.208 32.9203 758.498 Q32.0186 758.756 31.4066 759.174 Q30.7625 759.561 30.2794 760.301 Q29.7641 761.042 29.4421 761.654 Q29.12 762.266 28.9268 763.297 Q28.7013 764.327 28.6047 765.003 Q28.4759 765.68 28.4115 766.839 Q28.3471 767.999 28.3471 768.578 Q28.3471 769.126 28.3471 770.221 Q28.3471 773.667 28.4115 774.247 Q28.5403 775.116 29.0556 775.438 Q29.5387 775.76 30.8591 776.082 L48.0571 780.366 L48.0571 772.991 Q48.0571 768.965 46.9299 766.195 Q45.8027 763.425 44.2246 761.847 Q42.4855 760.108 39.6835 759.174 Q36.8816 758.208 34.8527 758.208 M65.2228 751.026 Q65.5771 751.026 66.3822 751.316 Q67.1874 751.574 68.3146 752.218 Q69.4096 752.862 70.4079 753.731 Q71.4063 754.601 72.0826 755.986 Q72.7912 757.371 72.7912 758.949 Q72.7912 759.335 72.759 759.722 Q72.759 760.108 72.5979 761.074 Q72.4691 762.008 72.2115 762.781 Q71.986 763.554 71.4385 764.52 Q70.9232 765.487 70.2147 766.163 Q69.474 766.807 68.3146 767.258 Q67.1229 767.709 65.6737 767.709 Q64.3854 767.709 60.0699 766.646 Q56.3984 765.712 55.4966 765.712 Q54.4982 765.712 53.5643 766.034 Q52.6303 766.324 51.6641 767.065 Q50.698 767.773 50.1182 769.287 Q49.5063 770.801 49.5063 772.926 L49.5063 780.752 L66.9941 785.132 Q67.0263 785.132 67.4772 785.229 Q67.8959 785.325 68.1213 785.325 Q68.54 785.325 68.7976 785.068 Q69.0553 784.778 69.1841 784.069 Q69.2807 783.361 69.3129 782.813 Q69.3129 782.234 69.3129 781.042 Q69.3129 779.561 69.5706 779.303 Q69.7316 779.174 70.0215 779.174 Q70.4723 779.174 70.7944 779.303 Q71.0843 779.4 71.1809 779.657 Q71.2775 779.883 71.3097 780.044 Q71.3419 780.205 71.3419 780.495 L71.1487 788.868 L71.3419 797.177 Q71.3419 798.111 70.6012 798.111 Q69.9571 798.111 69.6994 797.886 Q69.4096 797.66 69.3773 797.37 Q69.3129 797.081 69.3129 796.34 Q69.3129 794.73 69.2163 793.763 Q69.1197 792.797 68.9909 792.185 Q68.8299 791.541 68.379 791.219 Q67.9281 790.865 67.5416 790.704 Q67.1229 790.543 66.189 790.317 L30.7625 781.493 Q29.6997 781.235 29.5387 781.235 Q28.9268 781.235 28.7658 781.622 Q28.5725 781.976 28.4759 783.007 L28.3471 785.519 Q28.3471 786.292 28.3149 786.614 Q28.2827 786.903 28.1216 787.129 Q27.9606 787.354 27.6063 787.354 Q26.7046 787.354 26.5113 786.968 Q26.2859 786.581 26.2859 785.454 L26.2859 766.646 Q26.2859 760.237 29.0878 756.179 Q31.8897 752.089 36.1731 752.089 Q38.1055 752.089 39.909 752.959 Q41.7125 753.828 43.1296 755.277 Q44.5466 756.694 45.7382 758.595 Q46.8977 760.495 47.7028 762.524 Q48.4757 764.52 48.9266 766.582 Q49.2487 765.68 49.7318 764.842 Q50.2149 763.973 51.1166 762.878 Q52.0184 761.751 53.4677 761.074 Q54.9169 760.398 56.6882 760.398 Q57.9443 760.398 59.8122 760.656 Q65.1262 761.3 67.3162 761.3 Q69.4096 761.3 70.3757 760.752 Q71.3419 760.205 71.3419 758.659 Q71.3419 757.145 69.9893 755.471 Q68.6044 753.764 65.3516 752.669 Q64.4176 752.411 64.4176 751.799 Q64.4176 751.767 64.4176 751.735 Q64.4176 751.67 64.4821 751.541 Q64.5143 751.413 64.6109 751.316 Q64.6753 751.187 64.8363 751.123 Q64.9974 751.026 65.2228 751.026 Z" fill="#000000" fill-rule="nonzero" fill-opacity="1" /><path clip-path="url(#clip790)" d="M880.744 18.8198 Q880.744 20.0085 880.212 20.2544 Q879.72 20.5004 878.08 20.5004 Q876.154 20.5004 874.965 20.6643 Q873.776 20.7873 873.038 20.9922 Q872.301 21.1562 871.85 21.7301 Q871.44 22.3039 871.276 22.7958 Q871.112 23.2467 870.825 24.3534 L859.676 69.0727 Q859.266 70.5893 859.266 71.1221 Q859.266 71.655 859.594 71.9829 Q859.963 72.3108 860.865 72.4748 Q861.766 72.5977 862.463 72.6387 Q863.201 72.6387 864.718 72.6387 Q866.603 72.6387 866.89 72.9667 Q867.054 73.1716 867.054 73.5405 Q867.054 74.3193 866.726 74.7292 Q866.398 75.0981 866.111 75.1801 Q865.865 75.2211 865.455 75.2211 Q863.734 75.2211 860.209 75.0981 Q856.684 74.9751 854.962 74.9751 L844.551 75.2211 Q843.321 75.2211 843.321 74.1963 Q843.321 73.4175 843.649 73.0896 Q843.977 72.7207 844.346 72.6797 Q844.715 72.6387 845.658 72.6387 Q849.019 72.6387 850.453 72.2698 Q851.929 71.9009 852.339 71.2451 Q852.79 70.5483 853.282 68.6628 L865.292 20.5824 L865.21 20.5824 L831.311 73.7045 L831.065 74.0734 Q830.82 74.4013 830.738 74.5242 Q830.656 74.6062 830.41 74.8522 Q830.205 75.0571 829.959 75.1391 Q829.754 75.2211 829.467 75.2211 Q828.975 75.2211 828.688 74.8931 Q828.442 74.5652 828.36 74.3193 Q828.319 74.0324 828.196 73.2946 L820.982 21.2382 L820.9 21.2382 L809.464 66.9822 Q809.136 68.2529 809.136 68.9087 Q809.136 70.5893 810.325 71.614 Q811.555 72.5977 814.834 72.6387 Q816.35 72.6387 816.35 73.5405 Q816.35 75.2211 814.834 75.2211 Q813.44 75.2211 810.53 75.0981 Q807.62 74.9751 806.185 74.9751 Q804.791 74.9751 801.963 75.0981 Q799.176 75.2211 797.823 75.2211 Q796.634 75.2211 796.634 74.1963 Q796.634 72.6387 798.151 72.6387 Q800.61 72.5568 802.291 72.0649 Q803.972 71.573 804.914 70.6303 Q805.898 69.6875 806.349 68.7448 Q806.841 67.761 807.21 66.3264 L817.867 23.5746 Q818.195 22.2219 818.195 22.017 Q818.195 21.3202 817.785 21.0742 Q817.416 20.7873 816.35 20.6643 Q814.301 20.5004 812.743 20.5004 Q811.719 20.5004 811.309 20.4594 Q810.94 20.4184 810.612 20.2135 Q810.325 19.9675 810.325 19.4756 Q810.325 18.6968 810.653 18.3689 Q811.022 18 811.432 17.959 Q811.841 17.8771 812.825 17.8771 L824.343 17.8771 Q826.024 17.8771 826.393 18.164 Q826.762 18.4099 826.926 19.8036 L833.484 67.3101 L864.144 19.4756 Q864.923 18.287 865.332 18.082 Q865.742 17.8771 867.382 17.8771 L878.49 17.8771 Q879.392 17.8771 879.761 17.9181 Q880.13 17.959 880.417 18.164 Q880.744 18.3689 880.744 18.8198 Z" fill="#000000" fill-rule="nonzero" fill-opacity="1" /><path clip-path="url(#clip790)" d="M921.27 52.3081 Q921.27 56.7759 919.302 61.2027 Q917.335 65.5886 914.179 68.8677 Q911.063 72.1059 906.964 74.1553 Q902.866 76.1638 898.767 76.1638 Q892.905 76.1638 889.093 72.1879 Q885.322 68.1709 885.322 61.9405 Q885.322 56.1201 888.56 50.5865 Q891.839 45.012 897.086 41.5689 Q902.333 38.1258 907.825 38.1258 Q913.605 38.1258 917.417 42.0197 Q921.27 45.9137 921.27 52.3081 M915.121 49.0289 Q915.121 45.053 913.195 42.5116 Q911.268 39.9703 907.743 39.9703 Q906.719 39.9703 905.53 40.2982 Q904.341 40.5851 902.784 41.3639 Q901.267 42.1427 899.545 43.7823 Q897.865 45.3809 896.389 47.6763 Q894.463 50.7095 892.987 56.284 Q891.553 61.8176 891.553 65.1377 Q891.553 69.7285 893.684 72.0239 Q895.815 74.2783 898.849 74.2783 Q901.8 74.2783 904.915 72.2288 Q908.071 70.1384 910.244 66.5723 Q912.416 62.8833 913.769 57.4727 Q915.121 52.0211 915.121 49.0289 Z" fill="#000000" fill-rule="nonzero" fill-opacity="1" /><path clip-path="url(#clip790)" d="M965.599 17.8771 L953.507 66.4084 Q953.015 68.5808 953.015 70.4253 Q953.015 74.2783 955.515 74.2783 Q956.745 74.2783 957.729 73.4995 Q958.712 72.7207 959.491 71.0811 Q960.27 69.4416 960.762 67.925 Q961.254 66.3674 961.909 63.908 Q962.114 62.9243 962.278 62.6783 Q962.483 62.3914 963.057 62.3914 Q964.082 62.3914 964.082 63.2112 Q962.975 68.4988 961.541 71.532 Q959.245 76.1638 955.351 76.1638 Q952.4 76.1638 950.31 74.3603 Q948.219 72.5568 947.727 69.8515 Q942.358 76.1638 936.783 76.1638 Q931.864 76.1638 928.749 72.4338 Q925.634 68.6628 925.634 62.7193 Q925.634 56.7349 928.585 50.9964 Q931.577 45.2579 936.291 41.6918 Q941.005 38.1258 945.842 38.1258 Q950.965 38.1258 953.589 43.4954 L958.63 23.5746 L958.876 21.935 Q958.876 21.4431 958.671 21.1972 Q958.507 20.9103 957.524 20.7053 Q956.581 20.5004 954.695 20.5004 Q953.917 20.5004 953.548 20.4594 Q953.22 20.4184 952.933 20.2135 Q952.646 19.9675 952.646 19.4756 Q952.646 18.041 953.835 17.8771 Q961.705 16.9753 964.492 16.9753 Q964.984 16.9753 965.271 17.2212 Q965.558 17.4262 965.558 17.6721 L965.599 17.8771 M952.564 47.3484 Q952.564 46.9794 952.277 45.9547 Q951.99 44.93 951.334 43.4954 Q950.678 42.0607 949.244 41.036 Q947.85 39.9703 945.965 39.9703 Q943.423 39.9703 940.759 42.1427 Q938.136 44.3151 936.209 48.0042 Q934.734 50.9554 933.135 57.1448 Q931.577 63.3342 931.577 66.4084 Q931.577 68.2939 931.987 69.9744 Q932.438 71.614 933.709 72.9667 Q934.98 74.2783 936.947 74.2783 Q941.743 74.2783 946.457 68.3349 Q947.358 67.3101 947.563 66.9002 Q947.809 66.4494 948.137 65.2197 L952.318 48.783 Q952.564 47.5533 952.564 47.3484 Z" fill="#000000" fill-rule="nonzero" fill-opacity="1" /><path clip-path="url(#clip790)" d="M1001.09 65.5066 Q1001.42 65.8755 1001.42 66.2444 Q1001.42 66.6133 1000.6 67.679 Q999.824 68.7448 998.144 70.1794 Q996.463 71.614 994.291 72.9667 Q992.118 74.3193 988.921 75.2211 Q985.724 76.1638 982.363 76.1638 Q976.337 76.1638 972.73 71.8599 Q969.164 67.5561 969.164 60.9568 Q969.164 56.7349 970.558 53.0049 Q971.951 49.2339 974.206 46.5696 Q976.501 43.9053 979.37 41.9788 Q982.281 40.0113 985.314 39.0685 Q988.347 38.1258 991.175 38.1258 Q995.315 38.1258 997.734 40.2162 Q1000.15 42.3067 1000.15 45.2579 Q1000.15 45.9547 999.947 46.8155 Q999.783 47.6763 999.209 49.0289 Q998.676 50.3816 997.283 51.7342 Q995.889 53.0459 993.84 53.9066 Q989.29 55.8331 981.01 55.8331 L976.542 55.8331 Q975.231 61.1208 975.231 64.5639 Q975.231 65.9165 975.476 67.3101 Q975.722 68.6628 976.378 70.3843 Q977.075 72.1059 978.633 73.2126 Q980.231 74.2783 982.527 74.2783 Q983.264 74.2783 984.043 74.2373 Q984.863 74.1963 986.912 73.7454 Q989.003 73.2946 990.847 72.5158 Q992.692 71.737 995.028 70.0564 Q997.406 68.3349 999.291 65.9985 Q999.947 65.1377 1000.4 65.1377 Q1000.77 65.1377 1001.09 65.5066 M997.365 45.2579 Q997.365 43.0035 995.684 41.4869 Q994.045 39.9703 991.175 39.9703 Q990.274 39.9703 989.167 40.1752 Q988.06 40.3802 986.216 41.241 Q984.412 42.1017 982.814 43.5364 Q981.215 44.93 979.616 47.6763 Q978.018 50.3816 977.075 53.9886 L980.518 53.9886 Q981.707 53.9886 982.568 53.9886 Q983.428 53.9476 985.314 53.7837 Q987.24 53.6197 988.634 53.3328 Q990.028 53.0049 991.79 52.349 Q993.553 51.6932 994.659 50.8324 Q995.807 49.9307 996.586 48.4961 Q997.365 47.0614 997.365 45.2579 Z" fill="#000000" fill-rule="nonzero" fill-opacity="1" /><path clip-path="url(#clip790)" d="M1025.85 17.8771 L1013.75 66.4084 Q1013.26 68.3349 1013.26 70.4253 Q1013.26 74.2783 1015.8 74.2783 Q1016.99 74.2783 1017.98 73.4995 Q1018.96 72.6797 1019.7 71.0811 Q1020.48 69.4416 1020.97 67.884 Q1021.5 66.3264 1022.16 63.908 Q1022.36 62.9653 1022.57 62.6783 Q1022.77 62.3914 1023.35 62.3914 Q1024.37 62.3914 1024.37 63.2112 Q1023.35 68.2529 1021.83 71.45 Q1019.62 76.1638 1015.52 76.1638 Q1012.44 76.1638 1010.15 74.0324 Q1007.89 71.8599 1007.89 68.4168 Q1007.89 67.1052 1008.3 65.5476 L1018.88 23.5746 L1019.16 21.935 Q1019.16 21.4841 1019 21.2382 Q1018.84 20.9922 1017.85 20.7463 Q1016.91 20.5004 1015.02 20.5004 Q1014.25 20.5004 1013.88 20.4594 Q1013.55 20.4184 1013.22 20.2135 Q1012.93 20.0085 1012.93 19.5576 Q1012.93 18.8198 1013.22 18.4099 Q1013.55 18 1013.8 17.9181 Q1014.04 17.8361 1014.53 17.7951 Q1015.23 17.7541 1017.57 17.5491 Q1019.9 17.3032 1021.91 17.1393 Q1023.92 16.9753 1024.78 16.9753 Q1025.27 16.9753 1025.52 17.2212 Q1025.81 17.4262 1025.85 17.6721 L1025.85 17.8771 Z" fill="#000000" fill-rule="nonzero" fill-opacity="1" /><path clip-path="url(#clip790)" d="M1103.35 20.4184 L1101.67 34.9286 Q1101.54 36.2403 1101.34 36.6502 Q1101.13 37.0191 1100.48 37.0191 Q1099.49 37.0191 1099.49 36.0353 Q1099.49 35.6254 1099.66 34.5187 Q1099.9 32.2643 1099.9 29.9689 Q1099.9 27.3866 1099.41 25.788 Q1098.96 24.1484 1097.65 22.9597 Q1096.34 21.771 1093.92 21.2792 Q1091.5 20.7463 1087.65 20.7463 L1076.58 20.7463 Q1073.87 20.7463 1073.22 21.2382 Q1072.6 21.7301 1072.03 24.0255 L1066.66 45.3399 L1074.28 45.3399 Q1079.61 45.3399 1081.7 43.7823 Q1083.79 42.2247 1085.11 37.265 Q1085.31 36.4862 1085.39 36.1993 Q1085.52 35.8714 1085.72 35.7074 Q1085.97 35.5025 1086.38 35.5025 Q1086.74 35.5025 1086.99 35.7484 Q1087.24 35.9533 1087.32 36.1993 L1087.4 36.4452 Q1087.4 36.8551 1087.15 37.7979 L1082.52 55.9971 Q1082.2 57.2268 1081.99 57.5137 Q1081.83 57.7596 1081.25 57.7596 Q1080.84 57.7596 1080.56 57.4727 Q1080.27 57.1858 1080.27 56.7349 Q1080.35 56.243 1080.51 55.8331 Q1081.09 53.3328 1081.09 51.7342 Q1081.09 50.7095 1080.88 50.0946 Q1080.68 49.4798 1079.98 48.9469 Q1079.28 48.4141 1077.85 48.1681 Q1076.42 47.9222 1074.12 47.9222 L1066 47.9222 L1060.8 68.8267 L1060.43 70.7532 Q1060.43 71.614 1060.88 71.9419 Q1061.37 72.2698 1063.14 72.4338 Q1065.76 72.6387 1067.48 72.6387 Q1069.61 72.6387 1069.86 72.7207 Q1070.35 72.9667 1070.35 73.6225 Q1070.35 74.3603 1070.02 74.7702 Q1069.69 75.1391 1069.41 75.1801 Q1069.12 75.2211 1068.59 75.2211 L1056.08 74.9751 L1045.02 75.2211 Q1043.75 75.2211 1043.75 74.1963 Q1043.75 73.4175 1044.08 73.0896 Q1044.4 72.7207 1044.77 72.6797 Q1045.14 72.6387 1046.08 72.6387 Q1048.13 72.6387 1049.36 72.5158 Q1050.59 72.3928 1051.37 72.2288 Q1052.19 72.0239 1052.6 71.45 Q1053.05 70.8762 1053.26 70.3843 Q1053.46 69.8515 1053.75 68.6628 L1064.82 24.2714 Q1065.23 22.7548 1065.23 22.2629 Q1065.23 21.7301 1064.86 21.4021 Q1064.53 21.0742 1063.63 20.9513 Q1062.73 20.7873 1061.99 20.7873 Q1061.29 20.7463 1059.77 20.7463 Q1058.79 20.7463 1058.38 20.7053 Q1058.01 20.6643 1057.72 20.4594 Q1057.44 20.2544 1057.44 19.8036 Q1057.44 18.6559 1057.93 18.4099 Q1058.46 18.123 1059.94 18.123 L1101.09 18.123 Q1102.73 18.123 1103.1 18.4919 Q1103.51 18.8198 1103.35 20.4184 Z" fill="#000000" fill-rule="nonzero" fill-opacity="1" /><path clip-path="url(#clip790)" d="M1124.64 22.7548 Q1124.64 24.5583 1123.17 25.911 Q1121.73 27.2226 1120.17 27.2226 Q1118.74 27.2226 1117.84 26.3618 Q1116.98 25.4601 1116.98 24.1894 Q1116.98 22.5089 1118.41 21.1152 Q1119.85 19.7216 1121.53 19.7216 Q1122.92 19.7216 1123.78 20.5824 Q1124.64 21.4431 1124.64 22.7548 M1125.38 63.2112 Q1125.38 63.5391 1125.01 64.8508 Q1124.64 66.1214 1123.74 68.0889 Q1122.88 70.0154 1121.69 71.819 Q1120.5 73.6225 1118.53 74.8931 Q1116.61 76.1638 1114.39 76.1638 Q1111.4 76.1638 1109.43 74.1963 Q1107.51 72.2288 1107.51 69.2776 Q1107.51 67.679 1109.43 62.5554 Q1115.01 47.6353 1115.21 47.0204 Q1116.16 44.6841 1116.16 42.6346 Q1116.16 41.6918 1115.95 41.118 Q1115.75 40.5031 1115.34 40.2982 Q1114.93 40.0523 1114.68 40.0113 Q1114.48 39.9703 1114.07 39.9703 Q1111.65 39.9703 1109.39 42.4296 Q1107.14 44.889 1105.58 50.3816 Q1105.25 51.4063 1105.05 51.6522 Q1104.84 51.8982 1104.23 51.8982 Q1103.2 51.8572 1103.2 51.0374 Q1103.2 50.7915 1103.49 49.8487 Q1103.78 48.865 1104.31 47.3893 Q1104.84 45.8727 1105.79 44.3151 Q1106.73 42.7166 1107.88 41.3229 Q1109.07 39.9293 1110.75 39.0275 Q1112.43 38.1258 1114.31 38.1258 Q1117.39 38.1258 1119.27 40.1342 Q1121.2 42.1017 1121.2 45.012 Q1121.2 46.6105 1120.09 49.4388 Q1118.74 53.1278 1118.25 54.3165 L1114.97 63.1292 Q1113.78 66.3264 1113.41 67.3101 Q1113.08 68.2529 1112.8 69.4006 Q1112.55 70.5073 1112.55 71.532 Q1112.55 72.9667 1113 73.6225 Q1113.49 74.2783 1114.56 74.2783 Q1117.51 74.2783 1119.68 71.3681 Q1121.85 68.4168 1123.13 63.908 Q1123.17 63.7851 1123.21 63.5801 Q1123.54 62.5554 1123.86 62.4324 Q1124.03 62.3914 1124.36 62.3914 Q1125.38 62.3914 1125.38 63.2112 Z" fill="#000000" fill-rule="nonzero" fill-opacity="1" /><path clip-path="url(#clip790)" d="M1158.32 39.9703 Q1158.32 41.118 1157.79 41.4049 Q1157.25 41.6508 1155.78 41.6508 L1147.91 41.6508 L1141.68 66.4084 Q1141.19 68.5808 1141.19 70.4253 Q1141.19 72.4748 1141.8 73.3765 Q1142.46 74.2783 1143.81 74.2783 Q1146.47 74.2783 1149.34 71.8599 Q1152.25 69.4416 1154.71 63.5391 Q1155.04 62.7603 1155.2 62.5964 Q1155.41 62.3914 1155.94 62.3914 Q1156.97 62.3914 1156.97 63.2112 Q1156.97 63.4981 1156.39 64.8098 Q1155.86 66.1214 1154.67 68.0479 Q1153.52 69.9744 1152.01 71.778 Q1150.53 73.5815 1148.28 74.8931 Q1146.02 76.1638 1143.6 76.1638 Q1140.2 76.1638 1138.03 73.9914 Q1135.9 71.819 1135.9 68.4168 Q1135.9 67.3101 1136.76 63.7851 Q1137.62 60.219 1142.29 41.6508 L1134.87 41.6508 Q1133.85 41.6508 1133.44 41.6099 Q1133.07 41.5689 1132.78 41.3639 Q1132.54 41.118 1132.54 40.6261 Q1132.54 39.8473 1132.87 39.5194 Q1133.19 39.1505 1133.6 39.1095 Q1134.05 39.0275 1135.08 39.0275 L1142.95 39.0275 L1146.23 25.706 Q1146.56 24.3944 1147.38 23.6566 Q1148.24 22.8778 1148.73 22.7958 Q1149.22 22.6728 1149.59 22.6728 Q1150.7 22.6728 1151.35 23.2876 Q1152.01 23.8615 1152.01 24.9272 Q1152.01 25.5011 1148.56 39.0275 L1155.94 39.0275 Q1156.88 39.0275 1157.25 39.0685 Q1157.66 39.1095 1157.99 39.3145 Q1158.32 39.5194 1158.32 39.9703 Z" fill="#000000" fill-rule="nonzero" fill-opacity="1" /><path clip-path="url(#clip790)" d="M1215.48 21.812 Q1215.48 24.0664 1214.04 25.4601 Q1212.65 26.8537 1210.89 26.8537 Q1209.62 26.8537 1208.67 26.0749 Q1207.77 25.2961 1207.77 23.9435 Q1207.77 22.5498 1208.84 21.0742 Q1209.9 19.5986 1212.32 19.3937 Q1210.72 17.8771 1208.18 17.8771 Q1206.91 17.8771 1205.85 18.6968 Q1204.82 19.4756 1204.25 20.7463 Q1203.63 22.058 1202.24 29.477 Q1201.79 31.8954 1201.38 34.2318 Q1200.97 36.5682 1200.48 39.0275 L1207.44 39.0275 Q1208.35 39.0275 1208.72 39.0685 Q1209.08 39.1095 1209.37 39.3145 Q1209.7 39.5194 1209.7 39.9703 Q1209.7 41.118 1209.17 41.4049 Q1208.67 41.6508 1207.2 41.6508 L1199.98 41.6508 L1194.94 68.2529 Q1194.82 69.0317 1194.29 71.491 Q1193.8 73.9094 1192.61 77.8854 Q1191.42 81.9023 1190.23 84.2797 Q1189.57 85.6323 1188.71 86.903 Q1187.89 88.2147 1186.7 89.5263 Q1185.52 90.838 1183.96 91.6168 Q1182.4 92.4366 1180.76 92.4366 Q1177.97 92.4366 1175.8 90.879 Q1173.63 89.3214 1173.63 86.6571 Q1173.63 84.4027 1175.02 83.009 Q1176.46 81.6154 1178.22 81.6154 Q1179.49 81.6154 1180.39 82.3942 Q1181.33 83.173 1181.33 84.5256 Q1181.33 85.0995 1181.13 85.7553 Q1180.92 86.4111 1180.47 87.1489 Q1180.02 87.9277 1179.04 88.4606 Q1178.06 88.9935 1176.7 89.0754 Q1178.3 90.592 1180.76 90.592 Q1181.54 90.592 1182.24 90.2641 Q1182.93 89.9772 1183.51 89.2394 Q1184.12 88.5016 1184.57 87.7638 Q1185.02 87.067 1185.47 85.7143 Q1185.93 84.4027 1186.21 83.4189 Q1186.5 82.4352 1186.87 80.6726 Q1187.28 78.9101 1187.48 77.8444 Q1187.69 76.8196 1188.06 74.8112 L1194.33 41.6508 L1188.79 41.6508 Q1187.81 41.6508 1187.4 41.6099 Q1187.03 41.5689 1186.75 41.3639 Q1186.46 41.118 1186.46 40.6261 Q1186.46 39.8473 1186.79 39.5194 Q1187.16 39.1505 1187.57 39.1095 Q1187.97 39.0275 1188.96 39.0275 L1194.78 39.0275 Q1196.75 28.6572 1197.53 25.87 Q1198.43 22.9187 1199.82 20.8693 Q1201.21 18.7788 1202.77 17.7951 Q1204.33 16.8113 1205.6 16.4424 Q1206.91 16.0325 1208.18 16.0325 Q1211.05 16.0325 1213.27 17.5901 Q1215.48 19.1067 1215.48 21.812 Z" fill="#000000" fill-rule="nonzero" fill-opacity="1" /><path clip-path="url(#clip790)" d="M1255.2 52.3081 Q1255.2 56.7759 1253.23 61.2027 Q1251.27 65.5886 1248.11 68.8677 Q1245 72.1059 1240.9 74.1553 Q1236.8 76.1638 1232.7 76.1638 Q1226.84 76.1638 1223.03 72.1879 Q1219.25 68.1709 1219.25 61.9405 Q1219.25 56.1201 1222.49 50.5865 Q1225.77 45.012 1231.02 41.5689 Q1236.27 38.1258 1241.76 38.1258 Q1247.54 38.1258 1251.35 42.0197 Q1255.2 45.9137 1255.2 52.3081 M1249.05 49.0289 Q1249.05 45.053 1247.13 42.5116 Q1245.2 39.9703 1241.68 39.9703 Q1240.65 39.9703 1239.46 40.2982 Q1238.27 40.5851 1236.72 41.3639 Q1235.2 42.1427 1233.48 43.7823 Q1231.8 45.3809 1230.32 47.6763 Q1228.4 50.7095 1226.92 56.284 Q1225.48 61.8176 1225.48 65.1377 Q1225.48 69.7285 1227.62 72.0239 Q1229.75 74.2783 1232.78 74.2783 Q1235.73 74.2783 1238.85 72.2288 Q1242 70.1384 1244.18 66.5723 Q1246.35 62.8833 1247.7 57.4727 Q1249.05 52.0211 1249.05 49.0289 Z" fill="#000000" fill-rule="nonzero" fill-opacity="1" /><path clip-path="url(#clip790)" d="M1292.07 43.5773 Q1292.07 45.7498 1290.64 47.1434 Q1289.24 48.537 1287.44 48.537 Q1285.88 48.537 1285.06 47.6353 Q1284.24 46.7335 1284.24 45.5858 Q1284.24 43.9462 1285.51 42.5936 Q1286.78 41.241 1288.63 40.954 Q1287.28 39.9703 1285.1 39.9703 Q1281.54 39.9703 1278.38 42.7166 Q1276.99 43.9872 1275.47 46.3236 Q1273.95 48.619 1273.67 49.6028 L1271 60.5469 Q1270.76 61.7766 1269.24 67.679 Q1267.76 73.5405 1267.64 73.7864 Q1267.23 74.9341 1266.33 75.549 Q1265.43 76.1638 1264.53 76.1638 Q1263.5 76.1638 1262.81 75.549 Q1262.11 74.9341 1262.11 73.8684 Q1262.11 73.7045 1262.23 73.0896 Q1262.35 72.4748 1262.56 71.614 Q1262.76 70.7532 1262.85 70.2614 L1267.72 50.8734 Q1268.63 47.3484 1268.83 46.2416 Q1269.08 45.0939 1269.08 43.8233 Q1269.08 41.6099 1268.38 40.7901 Q1267.68 39.9703 1266.45 39.9703 Q1264.32 39.9703 1262.93 42.5116 Q1261.53 45.053 1260.35 49.9717 Q1259.98 51.3243 1259.73 51.6112 Q1259.53 51.8982 1258.91 51.8982 Q1257.89 51.8572 1257.89 51.0374 Q1257.89 50.8324 1258.21 49.5208 Q1258.54 48.1681 1259.16 46.2007 Q1259.81 44.1922 1260.51 42.9215 Q1260.92 42.0607 1261.29 41.4869 Q1261.66 40.913 1262.4 40.0113 Q1263.13 39.1095 1264.24 38.6176 Q1265.35 38.1258 1266.7 38.1258 Q1269.65 38.1258 1271.74 39.9293 Q1273.87 41.7328 1274.36 44.5611 Q1275.39 43.0855 1276.66 41.8148 Q1277.93 40.5031 1280.27 39.3145 Q1282.6 38.1258 1285.1 38.1258 Q1288.22 38.1258 1290.14 39.7243 Q1292.07 41.2819 1292.07 43.5773 Z" fill="#000000" fill-rule="nonzero" fill-opacity="1" /><path clip-path="url(#clip790)" d="M1345.38 16.726 L1345.38 24.7063 Q1340.72 22.4783 1336.59 21.3845 Q1332.45 20.2908 1328.61 20.2908 Q1321.92 20.2908 1318.28 22.8834 Q1314.67 25.476 1314.67 30.256 Q1314.67 34.2664 1317.06 36.3324 Q1319.49 38.3578 1326.22 39.6136 L1331.16 40.6263 Q1340.31 42.3682 1344.65 46.7837 Q1349.02 51.1587 1349.02 58.5313 Q1349.02 67.3218 1343.11 71.8588 Q1337.23 76.3958 1325.85 76.3958 Q1321.56 76.3958 1316.7 75.4236 Q1311.88 74.4514 1306.69 72.5475 L1306.69 64.1216 Q1311.67 66.9167 1316.45 68.3345 Q1321.23 69.7523 1325.85 69.7523 Q1332.86 69.7523 1336.67 66.9977 Q1340.47 64.2431 1340.47 59.139 Q1340.47 54.683 1337.72 52.1714 Q1335.01 49.6599 1328.77 48.4041 L1323.79 47.4319 Q1314.63 45.609 1310.54 41.7201 Q1306.45 37.8312 1306.45 30.9042 Q1306.45 22.8834 1312.08 18.2653 Q1317.75 13.6473 1327.67 13.6473 Q1331.93 13.6473 1336.34 14.417 Q1340.76 15.1867 1345.38 16.726 Z" fill="#000000" fill-rule="nonzero" fill-opacity="1" /><path clip-path="url(#clip790)" d="M1400.27 50.6726 L1400.27 54.3184 L1366 54.3184 Q1366.48 62.0151 1370.61 66.066 Q1374.79 70.0764 1382.2 70.0764 Q1386.49 70.0764 1390.5 69.0232 Q1394.55 67.9699 1398.52 65.8635 L1398.52 72.912 Q1394.51 74.6134 1390.3 75.5046 Q1386.09 76.3958 1381.75 76.3958 Q1370.9 76.3958 1364.54 70.0764 Q1358.22 63.757 1358.22 52.9816 Q1358.22 41.8416 1364.21 35.3197 Q1370.25 28.7572 1380.46 28.7572 Q1389.61 28.7572 1394.92 34.6715 Q1400.27 40.5453 1400.27 50.6726 M1392.81 48.4851 Q1392.73 42.3682 1389.37 38.7224 Q1386.05 35.0766 1380.54 35.0766 Q1374.3 35.0766 1370.53 38.6009 Q1366.81 42.1252 1366.24 48.5256 L1392.81 48.4851 Z" fill="#000000" fill-rule="nonzero" fill-opacity="1" /><path clip-path="url(#clip790)" d="M1419.87 16.9691 L1419.87 29.8509 L1435.23 29.8509 L1435.23 35.6437 L1419.87 35.6437 L1419.87 60.2732 Q1419.87 65.823 1421.37 67.4028 Q1422.91 68.9827 1427.57 68.9827 L1435.23 68.9827 L1435.23 75.2211 L1427.57 75.2211 Q1418.94 75.2211 1415.66 72.0208 Q1412.38 68.7801 1412.38 60.2732 L1412.38 35.6437 L1406.91 35.6437 L1406.91 29.8509 L1412.38 29.8509 L1412.38 16.9691 L1419.87 16.9691 Z" fill="#000000" fill-rule="nonzero" fill-opacity="1" /><path clip-path="url(#clip790)" d="M1479.91 21.4656 L1479.91 68.4966 L1489.79 68.4966 Q1502.31 68.4966 1508.1 62.8253 Q1513.93 57.154 1513.93 44.9203 Q1513.93 32.7676 1508.1 27.1368 Q1502.31 21.4656 1489.79 21.4656 L1479.91 21.4656 M1471.72 14.7411 L1488.54 14.7411 Q1506.12 14.7411 1514.34 22.0732 Q1522.56 29.3648 1522.56 44.9203 Q1522.56 60.5568 1514.3 67.8889 Q1506.04 75.2211 1488.54 75.2211 L1471.72 75.2211 L1471.72 14.7411 Z" fill="#000000" fill-rule="nonzero" fill-opacity="1" /><path clip-path="url(#clip790)" d="M1557.89 49.1737 L1579.72 49.1737 L1579.72 55.8172 L1557.89 55.8172 L1557.89 49.1737 Z" fill="#000000" fill-rule="nonzero" fill-opacity="1" /><path clip-path="url(#clip790)" d="M1637.53 41.7201 Q1632.02 41.7201 1628.78 45.4874 Q1625.58 49.2548 1625.58 55.8172 Q1625.58 62.3392 1628.78 66.147 Q1632.02 69.9144 1637.53 69.9144 Q1643.04 69.9144 1646.24 66.147 Q1649.48 62.3392 1649.48 55.8172 Q1649.48 49.2548 1646.24 45.4874 Q1643.04 41.7201 1637.53 41.7201 M1653.77 16.0779 L1653.77 23.5315 Q1650.69 22.0732 1647.53 21.3035 Q1644.41 20.5339 1641.34 20.5339 Q1633.23 20.5339 1628.94 26.0026 Q1624.69 31.4713 1624.08 42.5303 Q1626.47 39.006 1630.07 37.1426 Q1633.68 35.2386 1638.01 35.2386 Q1647.13 35.2386 1652.39 40.7884 Q1657.7 46.2976 1657.7 55.8172 Q1657.7 65.1343 1652.19 70.7651 Q1646.68 76.3958 1637.53 76.3958 Q1627.04 76.3958 1621.49 68.375 Q1615.94 60.3137 1615.94 45.0418 Q1615.94 30.7016 1622.74 22.1947 Q1629.55 13.6473 1641.01 13.6473 Q1644.09 13.6473 1647.21 14.255 Q1650.37 14.8626 1653.77 16.0779 Z" fill="#000000" fill-rule="nonzero" fill-opacity="1" /><path clip-path="url(#clip790)" d="M1734.83 47.8369 L1734.83 75.2211 L1727.38 75.2211 L1727.38 48.08 Q1727.38 41.6391 1724.87 38.4389 Q1722.35 35.2386 1717.33 35.2386 Q1711.29 35.2386 1707.81 39.087 Q1704.33 42.9354 1704.33 49.5788 L1704.33 75.2211 L1696.83 75.2211 L1696.83 12.189 L1704.33 12.189 L1704.33 36.8995 Q1707 32.8081 1710.61 30.7826 Q1714.25 28.7572 1718.99 28.7572 Q1726.81 28.7572 1730.82 33.6183 Q1734.83 38.4389 1734.83 47.8369 Z" fill="#000000" fill-rule="nonzero" fill-opacity="1" /><path clip-path="url(#clip790)" d="M1775.99 36.8185 Q1774.73 36.0893 1773.23 35.7653 Q1771.77 35.4007 1769.99 35.4007 Q1763.67 35.4007 1760.27 39.5326 Q1756.91 43.624 1756.91 51.3207 L1756.91 75.2211 L1749.41 75.2211 L1749.41 29.8509 L1756.91 29.8509 L1756.91 36.8995 Q1759.26 32.7676 1763.02 30.7826 Q1766.79 28.7572 1772.18 28.7572 Q1772.95 28.7572 1773.88 28.8787 Q1774.81 28.9597 1775.95 29.1623 L1775.99 36.8185 Z" fill="#000000" fill-rule="nonzero" fill-opacity="1" /><polyline clip-path="url(#clip792)" style="stroke:#e2630d; stroke-linecap:round; stroke-linejoin:round; stroke-width:8; stroke-opacity:1; fill:none" points="237.779,1344.28 273.103,1252.93 308.486,1203.1 396.98,1103.44 483.242,1049.46 572.468,958.109 746.244,754.64 921.833,692.354 1102.93,497.19 1271.88,426.599 1628.27,306.179 1984.75,152.539 2338.81,123.472 "/>
<polyline clip-path="url(#clip792)" style="stroke:#e2630d; stroke-linecap:round; stroke-linejoin:round; stroke-width:8; stroke-opacity:1; fill:none" stroke-dasharray="32, 20" points="237.779,1331.98 273.103,1234.03 308.486,1175.28 396.98,1065.3 483.242,972.654 572.468,886.532 746.244,743.077 921.833,625.499 1102.93,527.555 1271.88,453.494 1628.27,338.775 1984.75,263.921 2338.81,215.356 "/>
<path clip-path="url(#clip790)" d="M1773.16 322.316 L2281.66 322.316 L2281.66 166.796 L1773.16 166.796  Z" fill="#ffffff" fill-rule="evenodd" fill-opacity="1"/>
<polyline clip-path="url(#clip790)" style="stroke:#000000; stroke-linecap:round; stroke-linejoin:round; stroke-width:4; stroke-opacity:1; fill:none" points="1773.16,322.316 2281.66,322.316 2281.66,166.796 1773.16,166.796 1773.16,322.316 "/>
<polyline clip-path="url(#clip790)" style="stroke:#e2630d; stroke-linecap:round; stroke-linejoin:round; stroke-width:8; stroke-opacity:1; fill:none" points="1796.86,218.636 1939.05,218.636 "/>
<path clip-path="url(#clip790)" d="M1997.53 199.195 L1996.57 207.486 Q1996.5 208.236 1996.38 208.47 Q1996.26 208.681 1995.89 208.681 Q1995.61 208.681 1995.44 208.517 Q1995.3 208.33 1995.3 208.119 Q1995.3 208.002 1995.33 207.697 Q1995.35 207.393 1995.35 207.252 Q1995.56 205.8 1995.56 204.699 Q1995.56 202.661 1994.95 201.561 Q1994.34 200.436 1992.77 199.921 Q1991.21 199.382 1988.25 199.382 L1981.51 199.382 Q1979.96 199.382 1979.59 199.663 Q1979.24 199.944 1978.91 201.256 L1976.03 212.803 L1980.55 212.803 Q1982.23 212.803 1983.24 212.593 Q1984.27 212.382 1984.95 211.796 Q1985.65 211.187 1986.03 210.367 Q1986.43 209.548 1986.83 208.072 Q1986.94 207.58 1987.06 207.393 Q1987.2 207.205 1987.5 207.205 Q1987.74 207.205 1987.9 207.369 Q1988.07 207.51 1988.07 207.721 L1985.33 218.94 Q1985.19 219.502 1985.04 219.713 Q1984.9 219.9 1984.62 219.9 Q1984.32 219.9 1984.15 219.736 Q1983.99 219.572 1983.99 219.385 Q1983.99 219.198 1984.13 218.846 Q1984.48 217.324 1984.48 216.504 Q1984.48 216.036 1984.44 215.801 Q1984.41 215.567 1984.2 215.239 Q1984.01 214.888 1983.59 214.724 Q1983.17 214.56 1982.37 214.443 Q1981.58 214.302 1980.38 214.302 L1975.65 214.302 L1972.37 227.396 Q1972.14 228.262 1972.14 228.496 Q1972.14 228.754 1972.26 228.848 Q1972.4 228.918 1972.77 228.965 Q1973.19 229.035 1973.83 229.035 L1980.83 229.035 Q1982.37 229.035 1983.62 228.895 Q1984.86 228.754 1985.89 228.403 Q1986.94 228.051 1987.74 227.653 Q1988.53 227.255 1989.28 226.529 Q1990.03 225.779 1990.55 225.124 Q1991.09 224.444 1991.72 223.297 Q1992.35 222.149 1992.8 221.212 Q1993.24 220.252 1993.92 218.706 Q1994.11 218.144 1994.55 218.144 Q1994.81 218.144 1994.95 218.284 Q1995.09 218.401 1995.12 218.518 L1995.12 218.659 Q1994.98 219.104 1994.88 219.338 L1990.48 229.691 Q1990.22 230.276 1990.01 230.394 Q1989.8 230.511 1988.98 230.511 L1964.08 230.511 Q1963.52 230.511 1963.29 230.487 Q1963.07 230.464 1962.91 230.347 Q1962.75 230.206 1962.75 229.925 Q1962.75 229.48 1962.93 229.293 Q1963.12 229.082 1963.33 229.059 Q1963.54 229.035 1964.08 229.035 Q1965.25 229.035 1965.96 228.965 Q1966.66 228.895 1967.1 228.801 Q1967.57 228.684 1967.81 228.356 Q1968.06 228.028 1968.18 227.747 Q1968.3 227.442 1968.46 226.763 L1974.79 201.397 Q1975.02 200.53 1975.02 200.249 Q1975.02 199.944 1974.81 199.757 Q1974.62 199.57 1974.11 199.499 Q1973.59 199.406 1973.17 199.406 Q1972.77 199.382 1971.9 199.382 Q1971.34 199.382 1971.11 199.359 Q1970.9 199.335 1970.73 199.218 Q1970.57 199.101 1970.57 198.844 Q1970.57 198.188 1970.85 198.047 Q1971.16 197.883 1972 197.883 L1996.22 197.883 Q1997.18 197.883 1997.39 198.094 Q1997.62 198.281 1997.53 199.195 Z" fill="#000000" fill-rule="nonzero" fill-opacity="1" /><path clip-path="url(#clip790)" d="M2023.41 212.475 Q2023.41 213.787 2022.59 214.537 Q2021.77 215.263 2020.83 215.263 Q2019.94 215.263 2019.48 214.747 Q2019.01 214.232 2019.01 213.576 Q2019.01 212.686 2019.66 211.913 Q2020.32 211.14 2021.3 210.976 Q2020.34 210.367 2018.91 210.367 Q2017.98 210.367 2017.16 210.859 Q2016.36 211.351 2015.87 211.984 Q2015.4 212.616 2014.98 213.529 Q2014.58 214.419 2014.42 214.958 Q2014.28 215.474 2014.16 216.036 L2012.52 222.594 Q2011.72 225.709 2011.72 226.81 Q2011.72 228.168 2012.38 229.082 Q2013.03 229.972 2014.35 229.972 Q2014.86 229.972 2015.45 229.831 Q2016.03 229.668 2016.78 229.246 Q2017.56 228.801 2018.23 228.145 Q2018.94 227.466 2019.62 226.318 Q2020.3 225.17 2020.74 223.695 Q2020.88 223.179 2021.35 223.179 Q2021.94 223.179 2021.94 223.648 Q2021.94 224.046 2021.61 224.889 Q2021.3 225.709 2020.62 226.787 Q2019.97 227.841 2019.1 228.801 Q2018.23 229.738 2016.95 230.394 Q2015.66 231.049 2014.25 231.049 Q2012.24 231.049 2010.9 229.972 Q2009.57 228.895 2009.08 227.396 Q2008.96 227.606 2008.8 227.887 Q2008.63 228.168 2008.14 228.801 Q2007.67 229.41 2007.13 229.878 Q2006.59 230.323 2005.75 230.675 Q2004.93 231.049 2004.04 231.049 Q2002.92 231.049 2001.91 230.722 Q2000.93 230.394 2000.22 229.644 Q1999.52 228.895 1999.52 227.864 Q1999.52 226.716 2000.29 225.92 Q2001.09 225.1 2002.17 225.1 Q2002.85 225.1 2003.38 225.498 Q2003.95 225.896 2003.95 226.763 Q2003.95 227.723 2003.29 228.45 Q2002.64 229.176 2001.7 229.363 Q2002.66 229.972 2004.09 229.972 Q2005.63 229.972 2006.85 228.613 Q2008.07 227.255 2008.65 224.983 Q2010.11 219.526 2010.67 217.09 Q2011.23 214.63 2011.23 213.576 Q2011.23 212.593 2010.97 211.913 Q2010.72 211.234 2010.27 210.93 Q2009.85 210.602 2009.45 210.485 Q2009.08 210.367 2008.65 210.367 Q2007.95 210.367 2007.16 210.648 Q2006.38 210.93 2005.45 211.585 Q2004.53 212.218 2003.67 213.529 Q2002.8 214.841 2002.21 216.645 Q2002.1 217.183 2001.58 217.183 Q2001.02 217.16 2001.02 216.691 Q2001.02 216.293 2001.32 215.474 Q2001.65 214.63 2002.31 213.576 Q2002.99 212.522 2003.85 211.585 Q2004.74 210.625 2006.03 209.969 Q2007.34 209.313 2008.75 209.313 Q2009.38 209.313 2009.99 209.454 Q2010.62 209.571 2011.37 209.922 Q2012.14 210.274 2012.82 211.047 Q2013.5 211.82 2013.92 212.944 Q2014.21 212.405 2014.58 211.89 Q2014.98 211.375 2015.59 210.742 Q2016.22 210.086 2017.09 209.712 Q2017.98 209.313 2018.96 209.313 Q2019.92 209.313 2020.86 209.571 Q2021.79 209.805 2022.59 210.578 Q2023.41 211.328 2023.41 212.475 Z" fill="#000000" fill-rule="nonzero" fill-opacity="1" /><path clip-path="url(#clip790)" d="M2048.48 216.973 Q2048.48 220.392 2046.74 223.695 Q2045.03 226.997 2042.34 229.035 Q2039.65 231.049 2036.91 231.049 Q2035.27 231.049 2034.17 230.159 Q2033.09 229.246 2032.5 227.958 Q2032.06 229.55 2031.1 233.368 Q2030.14 237.186 2030.14 237.561 Q2030.14 237.772 2030.18 237.865 Q2030.23 237.959 2030.44 238.076 Q2030.65 238.217 2031.17 238.264 Q2031.68 238.334 2032.55 238.334 Q2033 238.334 2033.16 238.334 Q2033.35 238.357 2033.51 238.474 Q2033.7 238.591 2033.7 238.849 Q2033.7 239.809 2032.83 239.809 Q2032.06 239.809 2030.47 239.739 Q2028.87 239.669 2028.08 239.669 Q2027.4 239.669 2026.04 239.739 Q2024.68 239.809 2024.05 239.809 Q2023.42 239.809 2023.42 239.247 Q2023.42 238.919 2023.51 238.709 Q2023.58 238.521 2023.77 238.428 Q2023.95 238.357 2024.12 238.334 Q2024.26 238.334 2024.54 238.334 Q2025.62 238.334 2026.09 238.146 Q2026.55 237.982 2026.72 237.631 Q2026.91 237.303 2027.12 236.366 L2032.5 215.005 Q2032.83 213.576 2032.83 212.569 Q2032.83 211.304 2032.43 210.836 Q2032.03 210.367 2031.33 210.367 Q2030.11 210.367 2029.32 211.82 Q2028.52 213.272 2027.84 216.082 Q2027.63 216.855 2027.49 217.019 Q2027.37 217.183 2027.02 217.183 Q2026.44 217.16 2026.44 216.691 Q2026.44 216.574 2026.62 215.825 Q2026.81 215.052 2027.16 213.928 Q2027.54 212.78 2027.94 212.054 Q2028.17 211.562 2028.38 211.234 Q2028.59 210.906 2029.01 210.391 Q2029.46 209.876 2030.09 209.594 Q2030.72 209.313 2031.5 209.313 Q2033 209.313 2034.24 210.203 Q2035.48 211.094 2035.81 212.897 Q2037.14 211.328 2038.78 210.321 Q2040.42 209.313 2042.08 209.313 Q2044.85 209.313 2046.65 211.468 Q2048.48 213.6 2048.48 216.973 M2045.01 214.865 Q2045.01 212.733 2044.19 211.562 Q2043.39 210.367 2041.94 210.367 Q2040.14 210.367 2038.05 212.194 Q2035.99 213.928 2035.57 215.544 L2033.21 224.936 L2033.07 225.709 Q2033.07 225.85 2033.14 226.271 Q2033.23 226.669 2033.49 227.325 Q2033.77 227.981 2034.14 228.567 Q2034.54 229.129 2035.24 229.55 Q2035.97 229.972 2036.86 229.972 Q2038.29 229.972 2039.83 228.707 Q2041.4 227.442 2042.57 225.053 Q2043.3 223.507 2044.14 220.181 Q2045.01 216.832 2045.01 214.865 Z" fill="#000000" fill-rule="nonzero" fill-opacity="1" /><path clip-path="url(#clip790)" d="M2069.39 224.96 Q2069.58 225.17 2069.58 225.381 Q2069.58 225.592 2069.11 226.201 Q2068.66 226.81 2067.7 227.63 Q2066.74 228.45 2065.5 229.222 Q2064.26 229.995 2062.43 230.511 Q2060.61 231.049 2058.69 231.049 Q2055.24 231.049 2053.18 228.59 Q2051.14 226.131 2051.14 222.36 Q2051.14 219.947 2051.94 217.816 Q2052.74 215.661 2054.03 214.138 Q2055.34 212.616 2056.98 211.515 Q2058.64 210.391 2060.37 209.852 Q2062.11 209.313 2063.72 209.313 Q2066.09 209.313 2067.47 210.508 Q2068.85 211.702 2068.85 213.389 Q2068.85 213.787 2068.73 214.279 Q2068.64 214.771 2068.31 215.544 Q2068.01 216.317 2067.21 217.09 Q2066.42 217.839 2065.24 218.331 Q2062.64 219.432 2057.91 219.432 L2055.36 219.432 Q2054.61 222.453 2054.61 224.421 Q2054.61 225.194 2054.75 225.99 Q2054.89 226.763 2055.27 227.747 Q2055.67 228.731 2056.56 229.363 Q2057.47 229.972 2058.78 229.972 Q2059.2 229.972 2059.65 229.949 Q2060.12 229.925 2061.29 229.668 Q2062.48 229.41 2063.54 228.965 Q2064.59 228.52 2065.92 227.559 Q2067.28 226.576 2068.36 225.241 Q2068.73 224.749 2068.99 224.749 Q2069.2 224.749 2069.39 224.96 M2067.26 213.389 Q2067.26 212.101 2066.3 211.234 Q2065.36 210.367 2063.72 210.367 Q2063.21 210.367 2062.57 210.485 Q2061.94 210.602 2060.89 211.094 Q2059.86 211.585 2058.94 212.405 Q2058.03 213.202 2057.12 214.771 Q2056.2 216.317 2055.67 218.378 L2057.63 218.378 Q2058.31 218.378 2058.8 218.378 Q2059.3 218.354 2060.37 218.261 Q2061.47 218.167 2062.27 218.003 Q2063.07 217.816 2064.07 217.441 Q2065.08 217.066 2065.71 216.574 Q2066.37 216.059 2066.81 215.239 Q2067.26 214.419 2067.26 213.389 Z" fill="#000000" fill-rule="nonzero" fill-opacity="1" /><path clip-path="url(#clip790)" d="M2091.85 212.429 Q2091.85 213.67 2091.03 214.466 Q2090.23 215.263 2089.2 215.263 Q2088.31 215.263 2087.84 214.747 Q2087.37 214.232 2087.37 213.576 Q2087.37 212.639 2088.1 211.866 Q2088.82 211.094 2089.88 210.93 Q2089.1 210.367 2087.86 210.367 Q2085.83 210.367 2084.02 211.937 Q2083.23 212.663 2082.36 213.998 Q2081.49 215.31 2081.33 215.872 L2079.81 222.125 Q2079.67 222.828 2078.8 226.201 Q2077.96 229.55 2077.89 229.691 Q2077.65 230.347 2077.14 230.698 Q2076.62 231.049 2076.11 231.049 Q2075.52 231.049 2075.12 230.698 Q2074.72 230.347 2074.72 229.738 Q2074.72 229.644 2074.79 229.293 Q2074.86 228.941 2074.98 228.45 Q2075.1 227.958 2075.15 227.677 L2077.93 216.598 Q2078.45 214.583 2078.56 213.951 Q2078.71 213.295 2078.71 212.569 Q2078.71 211.304 2078.31 210.836 Q2077.91 210.367 2077.21 210.367 Q2075.99 210.367 2075.19 211.82 Q2074.4 213.272 2073.72 216.082 Q2073.51 216.855 2073.37 217.019 Q2073.25 217.183 2072.9 217.183 Q2072.31 217.16 2072.31 216.691 Q2072.31 216.574 2072.5 215.825 Q2072.69 215.052 2073.04 213.928 Q2073.41 212.78 2073.81 212.054 Q2074.04 211.562 2074.26 211.234 Q2074.47 210.906 2074.89 210.391 Q2075.31 209.876 2075.94 209.594 Q2076.57 209.313 2077.35 209.313 Q2079.03 209.313 2080.23 210.344 Q2081.45 211.375 2081.73 212.991 Q2082.31 212.148 2083.04 211.421 Q2083.76 210.672 2085.1 209.993 Q2086.43 209.313 2087.86 209.313 Q2089.64 209.313 2090.74 210.227 Q2091.85 211.117 2091.85 212.429 Z" fill="#000000" fill-rule="nonzero" fill-opacity="1" /><path clip-path="url(#clip790)" d="M2105.42 200.53 Q2105.42 201.561 2104.58 202.334 Q2103.76 203.083 2102.87 203.083 Q2102.05 203.083 2101.53 202.591 Q2101.04 202.076 2101.04 201.35 Q2101.04 200.389 2101.86 199.593 Q2102.68 198.797 2103.64 198.797 Q2104.44 198.797 2104.93 199.289 Q2105.42 199.78 2105.42 200.53 M2105.84 223.648 Q2105.84 223.835 2105.63 224.585 Q2105.42 225.311 2104.9 226.435 Q2104.41 227.536 2103.73 228.567 Q2103.05 229.597 2101.93 230.323 Q2100.83 231.049 2099.56 231.049 Q2097.85 231.049 2096.73 229.925 Q2095.63 228.801 2095.63 227.114 Q2095.63 226.201 2096.73 223.273 Q2099.92 214.747 2100.03 214.396 Q2100.57 213.061 2100.57 211.89 Q2100.57 211.351 2100.45 211.023 Q2100.34 210.672 2100.1 210.555 Q2099.87 210.414 2099.73 210.391 Q2099.61 210.367 2099.38 210.367 Q2097.99 210.367 2096.71 211.773 Q2095.42 213.178 2094.53 216.317 Q2094.34 216.902 2094.22 217.043 Q2094.11 217.183 2093.76 217.183 Q2093.17 217.16 2093.17 216.691 Q2093.17 216.551 2093.33 216.012 Q2093.5 215.45 2093.8 214.607 Q2094.11 213.74 2094.65 212.85 Q2095.18 211.937 2095.84 211.14 Q2096.52 210.344 2097.48 209.829 Q2098.44 209.313 2099.52 209.313 Q2101.27 209.313 2102.35 210.461 Q2103.45 211.585 2103.45 213.248 Q2103.45 214.162 2102.82 215.778 Q2102.05 217.886 2101.77 218.565 L2099.89 223.601 Q2099.21 225.428 2099 225.99 Q2098.81 226.529 2098.65 227.185 Q2098.51 227.817 2098.51 228.403 Q2098.51 229.222 2098.77 229.597 Q2099.05 229.972 2099.66 229.972 Q2101.34 229.972 2102.59 228.309 Q2103.83 226.623 2104.55 224.046 Q2104.58 223.976 2104.6 223.859 Q2104.79 223.273 2104.97 223.203 Q2105.07 223.179 2105.26 223.179 Q2105.84 223.179 2105.84 223.648 Z" fill="#000000" fill-rule="nonzero" fill-opacity="1" /><path clip-path="url(#clip790)" d="M2149.23 223.648 Q2149.23 223.835 2149.02 224.561 Q2148.81 225.288 2148.29 226.412 Q2147.8 227.536 2147.1 228.567 Q2146.42 229.574 2145.3 230.323 Q2144.2 231.049 2142.93 231.049 Q2141.24 231.049 2140.12 229.925 Q2139 228.801 2139 227.114 Q2139 226.201 2139.63 224.468 Q2142.6 216.551 2142.6 213.717 Q2142.6 210.367 2140 210.367 Q2138.53 210.367 2137.19 210.976 Q2135.86 211.585 2134.99 212.429 Q2134.12 213.272 2133.44 214.232 Q2132.76 215.192 2132.46 215.825 Q2132.18 216.457 2132.11 216.738 L2129.23 228.309 Q2128.99 229.293 2128.83 229.761 Q2128.67 230.23 2128.22 230.628 Q2127.78 231.049 2127.07 231.049 Q2126.49 231.049 2126.07 230.698 Q2125.67 230.347 2125.67 229.738 Q2125.67 229.644 2125.78 229.152 Q2125.9 228.66 2126.07 227.981 Q2126.23 227.302 2126.3 226.904 Q2127.14 223.718 2127.26 223.273 L2128.6 217.699 Q2129.32 214.935 2129.32 213.717 Q2129.32 210.367 2126.72 210.367 Q2125.43 210.367 2124.22 210.859 Q2123.02 211.328 2122.2 211.984 Q2121.38 212.639 2120.63 213.553 Q2119.91 214.443 2119.53 215.052 Q2119.18 215.637 2118.9 216.223 L2118.29 218.612 Q2118.15 219.268 2117.47 221.821 L2116.42 226.154 Q2115.67 229.386 2115.5 229.691 Q2115.27 230.347 2114.75 230.698 Q2114.24 231.049 2113.72 231.049 Q2113.14 231.049 2112.74 230.698 Q2112.34 230.347 2112.34 229.738 Q2112.34 229.644 2112.41 229.293 Q2112.48 228.941 2112.6 228.45 Q2112.72 227.958 2112.76 227.677 L2115.55 216.598 Q2116.06 214.583 2116.18 213.951 Q2116.32 213.295 2116.32 212.569 Q2116.32 210.367 2114.82 210.367 Q2113.61 210.367 2112.81 211.82 Q2112.01 213.272 2111.33 216.082 Q2111.12 216.855 2110.98 217.019 Q2110.86 217.183 2110.51 217.183 Q2109.93 217.16 2109.93 216.691 Q2109.93 216.574 2110.12 215.825 Q2110.3 215.075 2110.65 213.951 Q2111.03 212.803 2111.43 212.054 Q2111.66 211.562 2111.87 211.234 Q2112.08 210.906 2112.5 210.391 Q2112.93 209.876 2113.56 209.594 Q2114.19 209.313 2114.96 209.313 Q2116.67 209.313 2117.94 210.414 Q2119.23 211.515 2119.39 213.483 Q2122.51 209.313 2126.86 209.313 Q2129.32 209.313 2130.8 210.555 Q2132.18 211.749 2132.34 213.951 Q2135.58 209.313 2140.17 209.313 Q2142.81 209.313 2144.24 210.695 Q2145.67 212.054 2145.67 214.443 Q2145.67 215.684 2145.04 218.05 Q2144.41 220.392 2143.98 221.563 Q2143.56 222.734 2142.74 224.983 Q2141.88 227.138 2141.88 228.403 Q2141.88 229.222 2142.16 229.597 Q2142.44 229.972 2143.05 229.972 Q2143.98 229.972 2144.8 229.433 Q2145.62 228.871 2146.21 227.958 Q2146.82 227.021 2147.22 226.084 Q2147.61 225.124 2147.92 224.046 Q2148.11 223.461 2148.2 223.32 Q2148.32 223.179 2148.65 223.179 Q2149.23 223.179 2149.23 223.648 Z" fill="#000000" fill-rule="nonzero" fill-opacity="1" /><path clip-path="url(#clip790)" d="M2170.64 224.96 Q2170.83 225.17 2170.83 225.381 Q2170.83 225.592 2170.36 226.201 Q2169.92 226.81 2168.96 227.63 Q2168 228.45 2166.76 229.222 Q2165.51 229.995 2163.69 230.511 Q2161.86 231.049 2159.94 231.049 Q2156.5 231.049 2154.44 228.59 Q2152.4 226.131 2152.4 222.36 Q2152.4 219.947 2153.19 217.816 Q2153.99 215.661 2155.28 214.138 Q2156.59 212.616 2158.23 211.515 Q2159.89 210.391 2161.63 209.852 Q2163.36 209.313 2164.98 209.313 Q2167.34 209.313 2168.72 210.508 Q2170.11 211.702 2170.11 213.389 Q2170.11 213.787 2169.99 214.279 Q2169.89 214.771 2169.57 215.544 Q2169.26 216.317 2168.47 217.09 Q2167.67 217.839 2166.5 218.331 Q2163.9 219.432 2159.17 219.432 L2156.61 219.432 Q2155.86 222.453 2155.86 224.421 Q2155.86 225.194 2156 225.99 Q2156.15 226.763 2156.52 227.747 Q2156.92 228.731 2157.81 229.363 Q2158.72 229.972 2160.03 229.972 Q2160.45 229.972 2160.9 229.949 Q2161.37 229.925 2162.54 229.668 Q2163.73 229.41 2164.79 228.965 Q2165.84 228.52 2167.18 227.559 Q2168.54 226.576 2169.61 225.241 Q2169.99 224.749 2170.25 224.749 Q2170.46 224.749 2170.64 224.96 M2168.51 213.389 Q2168.51 212.101 2167.55 211.234 Q2166.62 210.367 2164.98 210.367 Q2164.46 210.367 2163.83 210.485 Q2163.2 210.602 2162.14 211.094 Q2161.11 211.585 2160.2 212.405 Q2159.28 213.202 2158.37 214.771 Q2157.46 216.317 2156.92 218.378 L2158.89 218.378 Q2159.56 218.378 2160.06 218.378 Q2160.55 218.354 2161.63 218.261 Q2162.73 218.167 2163.52 218.003 Q2164.32 217.816 2165.33 217.441 Q2166.33 217.066 2166.97 216.574 Q2167.62 216.059 2168.07 215.239 Q2168.51 214.419 2168.51 213.389 Z" fill="#000000" fill-rule="nonzero" fill-opacity="1" /><path clip-path="url(#clip790)" d="M2199.56 223.648 Q2199.56 223.835 2199.35 224.561 Q2199.14 225.288 2198.63 226.412 Q2198.13 227.536 2197.46 228.567 Q2196.78 229.574 2195.65 230.323 Q2194.55 231.049 2193.29 231.049 Q2191.6 231.049 2190.48 229.925 Q2189.35 228.801 2189.35 227.114 Q2189.35 226.178 2189.84 224.889 Q2192.96 216.574 2192.96 213.717 Q2192.96 210.367 2190.36 210.367 Q2189.07 210.367 2187.85 210.859 Q2186.66 211.328 2185.84 211.984 Q2185.02 212.639 2184.27 213.553 Q2183.54 214.443 2183.17 215.052 Q2182.82 215.637 2182.53 216.223 L2181.93 218.612 Q2181.79 219.268 2181.11 221.821 L2180.05 226.154 Q2179.3 229.386 2179.14 229.691 Q2178.9 230.347 2178.39 230.698 Q2177.87 231.049 2177.36 231.049 Q2176.77 231.049 2176.37 230.698 Q2175.98 230.347 2175.98 229.738 Q2175.98 229.644 2176.05 229.293 Q2176.12 228.941 2176.23 228.45 Q2176.35 227.958 2176.4 227.677 L2179.19 216.598 Q2179.7 214.583 2179.82 213.951 Q2179.96 213.295 2179.96 212.569 Q2179.96 210.367 2178.46 210.367 Q2177.24 210.367 2176.45 211.82 Q2175.65 213.272 2174.97 216.082 Q2174.76 216.855 2174.62 217.019 Q2174.5 217.183 2174.15 217.183 Q2173.56 217.16 2173.56 216.691 Q2173.56 216.574 2173.75 215.801 Q2173.94 215.028 2174.29 213.928 Q2174.66 212.803 2175.02 212.054 Q2175.32 211.492 2175.48 211.234 Q2175.67 210.953 2176.12 210.414 Q2176.59 209.852 2177.19 209.594 Q2177.83 209.313 2178.6 209.313 Q2180.33 209.313 2181.6 210.438 Q2182.86 211.539 2183.03 213.483 Q2186.14 209.313 2190.5 209.313 Q2193.08 209.313 2194.55 210.672 Q2196.03 212.03 2196.03 214.443 Q2196.03 215.005 2195.91 215.731 Q2195.82 216.434 2195.58 217.324 Q2195.37 218.214 2195.18 218.893 Q2195 219.572 2194.62 220.673 Q2194.25 221.751 2194.08 222.219 Q2193.92 222.688 2193.52 223.788 Q2193.15 224.866 2193.1 224.983 Q2192.23 227.161 2192.23 228.403 Q2192.23 229.222 2192.49 229.597 Q2192.77 229.972 2193.38 229.972 Q2195.02 229.972 2196.24 228.356 Q2197.48 226.716 2198.27 224.046 Q2198.46 223.461 2198.56 223.32 Q2198.67 223.179 2199 223.179 Q2199.56 223.179 2199.56 223.648 Z" fill="#000000" fill-rule="nonzero" fill-opacity="1" /><path clip-path="url(#clip790)" d="M2216.97 210.367 Q2216.97 211.023 2216.67 211.187 Q2216.36 211.328 2215.52 211.328 L2211.02 211.328 L2207.46 225.475 Q2207.18 226.716 2207.18 227.77 Q2207.18 228.941 2207.53 229.457 Q2207.91 229.972 2208.68 229.972 Q2210.2 229.972 2211.84 228.59 Q2213.5 227.208 2214.91 223.835 Q2215.1 223.39 2215.19 223.297 Q2215.31 223.179 2215.61 223.179 Q2216.2 223.179 2216.2 223.648 Q2216.2 223.812 2215.87 224.561 Q2215.56 225.311 2214.89 226.412 Q2214.23 227.513 2213.36 228.543 Q2212.52 229.574 2211.23 230.323 Q2209.94 231.049 2208.56 231.049 Q2206.62 231.049 2205.38 229.808 Q2204.16 228.567 2204.16 226.623 Q2204.16 225.99 2204.65 223.976 Q2205.14 221.938 2207.81 211.328 L2203.57 211.328 Q2202.99 211.328 2202.75 211.304 Q2202.54 211.281 2202.38 211.164 Q2202.24 211.023 2202.24 210.742 Q2202.24 210.297 2202.42 210.11 Q2202.61 209.899 2202.85 209.876 Q2203.1 209.829 2203.69 209.829 L2208.19 209.829 L2210.06 202.216 Q2210.25 201.467 2210.72 201.045 Q2211.21 200.6 2211.49 200.553 Q2211.77 200.483 2211.98 200.483 Q2212.61 200.483 2212.99 200.834 Q2213.36 201.162 2213.36 201.771 Q2213.36 202.099 2211.4 209.829 L2215.61 209.829 Q2216.15 209.829 2216.36 209.852 Q2216.6 209.876 2216.78 209.993 Q2216.97 210.11 2216.97 210.367 Z" fill="#000000" fill-rule="nonzero" fill-opacity="1" /><path clip-path="url(#clip790)" d="M2240.86 223.648 Q2240.22 226.669 2239.4 228.403 Q2238.09 231.049 2235.87 231.049 Q2234.18 231.049 2232.99 230.019 Q2231.79 228.988 2231.51 227.442 Q2228.44 231.049 2225.26 231.049 Q2222.45 231.049 2220.67 228.918 Q2218.89 226.763 2218.89 223.367 Q2218.89 219.947 2220.57 216.668 Q2222.28 213.389 2224.98 211.351 Q2227.67 209.313 2230.43 209.313 Q2233.36 209.313 2234.86 212.382 Q2234.98 211.539 2235.52 210.906 Q2236.06 210.274 2236.87 210.274 Q2237.51 210.274 2237.88 210.625 Q2238.26 210.953 2238.26 211.562 Q2238.26 211.866 2237.93 213.202 L2236.2 219.9 L2235.14 224.234 Q2234.74 225.826 2234.63 226.412 Q2234.53 226.997 2234.53 227.77 Q2234.53 229.972 2235.96 229.972 Q2236.66 229.972 2237.23 229.527 Q2237.79 229.082 2238.23 228.145 Q2238.68 227.208 2238.96 226.342 Q2239.24 225.451 2239.62 224.046 Q2239.73 223.484 2239.83 223.343 Q2239.94 223.179 2240.27 223.179 Q2240.86 223.179 2240.86 223.648 M2234.27 214.583 Q2234.27 214.373 2234.11 213.787 Q2233.95 213.202 2233.57 212.382 Q2233.2 211.562 2232.38 210.976 Q2231.58 210.367 2230.5 210.367 Q2229.05 210.367 2227.53 211.609 Q2226.03 212.85 2224.93 214.958 Q2224.09 216.645 2223.17 220.181 Q2222.28 223.718 2222.28 225.475 Q2222.28 226.552 2222.52 227.513 Q2222.77 228.45 2223.5 229.222 Q2224.23 229.972 2225.35 229.972 Q2228.09 229.972 2230.79 226.576 Q2231.3 225.99 2231.42 225.756 Q2231.56 225.498 2231.75 224.796 L2234.13 215.403 Q2234.27 214.701 2234.27 214.583 Z" fill="#000000" fill-rule="nonzero" fill-opacity="1" /><path clip-path="url(#clip790)" d="M2254.07 197.743 L2247.16 225.475 Q2246.88 226.576 2246.88 227.77 Q2246.88 229.972 2248.33 229.972 Q2249.01 229.972 2249.57 229.527 Q2250.14 229.059 2250.56 228.145 Q2251 227.208 2251.28 226.318 Q2251.59 225.428 2251.96 224.046 Q2252.08 223.507 2252.2 223.343 Q2252.32 223.179 2252.64 223.179 Q2253.23 223.179 2253.23 223.648 Q2252.64 226.529 2251.78 228.356 Q2250.51 231.049 2248.17 231.049 Q2246.41 231.049 2245.1 229.831 Q2243.81 228.59 2243.81 226.623 Q2243.81 225.873 2244.05 224.983 L2250.09 200.998 L2250.25 200.062 Q2250.25 199.804 2250.16 199.663 Q2250.07 199.523 2249.5 199.382 Q2248.97 199.242 2247.89 199.242 Q2247.44 199.242 2247.23 199.218 Q2247.05 199.195 2246.86 199.078 Q2246.69 198.961 2246.69 198.703 Q2246.69 198.281 2246.86 198.047 Q2247.05 197.813 2247.19 197.766 Q2247.33 197.719 2247.61 197.696 Q2248.01 197.672 2249.34 197.555 Q2250.68 197.415 2251.82 197.321 Q2252.97 197.227 2253.46 197.227 Q2253.74 197.227 2253.88 197.368 Q2254.05 197.485 2254.07 197.626 L2254.07 197.743 Z" fill="#000000" fill-rule="nonzero" fill-opacity="1" /><polyline clip-path="url(#clip790)" style="stroke:#e2630d; stroke-linecap:round; stroke-linejoin:round; stroke-width:8; stroke-opacity:1; fill:none" stroke-dasharray="32, 20" points="1796.86,270.476 1939.05,270.476 "/>
<path clip-path="url(#clip790)" d="M1996.8 253.364 L1993.78 265.591 Q1993.57 266.364 1993.43 266.457 Q1993.31 266.551 1992.94 266.551 Q1992.21 266.551 1992.21 266.059 Q1992.21 266.012 1992.28 265.403 Q1992.35 264.771 1992.35 263.623 Q1992.35 259.384 1990.29 256.878 Q1988.25 254.371 1984.62 254.371 Q1981.48 254.371 1978.32 255.964 Q1975.18 257.557 1972.94 260.157 Q1971.25 262.124 1970.01 264.607 Q1968.79 267.09 1968.2 269.362 Q1967.64 271.634 1967.38 273.344 Q1967.13 275.054 1967.13 276.295 Q1967.13 278.098 1967.5 279.621 Q1967.9 281.143 1968.6 282.221 Q1969.31 283.275 1970.2 284.095 Q1971.11 284.891 1972.16 285.359 Q1973.24 285.828 1974.32 286.062 Q1975.39 286.273 1976.52 286.273 Q1981.04 286.273 1985.35 282.759 Q1988.77 279.879 1990.2 275.171 Q1990.32 274.702 1990.81 274.702 Q1991.39 274.702 1991.39 275.171 Q1991.39 275.264 1991.28 275.733 Q1991.16 276.178 1990.81 277.091 Q1990.46 277.981 1989.92 278.988 Q1989.38 279.996 1988.37 281.26 Q1987.36 282.525 1986.12 283.626 Q1984.01 285.453 1981.34 286.601 Q1978.67 287.748 1975.75 287.748 Q1972.09 287.748 1969.14 286.132 Q1966.19 284.516 1964.46 281.495 Q1962.75 278.473 1962.75 274.608 Q1962.75 270.533 1964.62 266.528 Q1966.49 262.523 1969.47 259.548 Q1972.44 256.573 1976.38 254.723 Q1980.31 252.872 1984.25 252.872 Q1985.75 252.872 1987.08 253.271 Q1988.42 253.669 1989.21 254.161 Q1990.03 254.653 1990.76 255.379 Q1991.49 256.081 1991.72 256.409 Q1991.98 256.737 1992.21 257.135 L1995.56 253.458 Q1996.15 252.872 1996.29 252.872 Q1996.57 252.872 1996.69 253.036 Q1996.8 253.2 1996.8 253.364 Z" fill="#000000" fill-rule="nonzero" fill-opacity="1" /><path clip-path="url(#clip790)" d="M2022.51 279.832 Q2021.88 282.853 2021.06 284.586 Q2019.75 287.233 2017.52 287.233 Q2015.84 287.233 2014.64 286.203 Q2013.45 285.172 2013.17 283.626 Q2010.1 287.233 2006.91 287.233 Q2004.1 287.233 2002.32 285.102 Q2000.54 282.947 2000.54 279.551 Q2000.54 276.131 2002.23 272.852 Q2003.94 269.573 2006.63 267.535 Q2009.33 265.497 2012.09 265.497 Q2015.02 265.497 2016.52 268.565 Q2016.63 267.722 2017.17 267.09 Q2017.71 266.457 2018.53 266.457 Q2019.16 266.457 2019.54 266.809 Q2019.91 267.137 2019.91 267.746 Q2019.91 268.05 2019.58 269.385 L2017.85 276.084 L2016.8 280.417 Q2016.4 282.01 2016.28 282.596 Q2016.19 283.181 2016.19 283.954 Q2016.19 286.156 2017.62 286.156 Q2018.32 286.156 2018.88 285.711 Q2019.44 285.266 2019.89 284.329 Q2020.33 283.392 2020.61 282.525 Q2020.9 281.635 2021.27 280.23 Q2021.39 279.668 2021.48 279.527 Q2021.6 279.363 2021.93 279.363 Q2022.51 279.363 2022.51 279.832 M2015.93 270.767 Q2015.93 270.556 2015.77 269.971 Q2015.6 269.385 2015.23 268.565 Q2014.85 267.746 2014.03 267.16 Q2013.24 266.551 2012.16 266.551 Q2010.71 266.551 2009.18 267.793 Q2007.69 269.034 2006.58 271.142 Q2005.74 272.828 2004.83 276.365 Q2003.94 279.902 2003.94 281.659 Q2003.94 282.736 2004.17 283.696 Q2004.43 284.633 2005.16 285.406 Q2005.88 286.156 2007.01 286.156 Q2009.75 286.156 2012.44 282.759 Q2012.96 282.174 2013.07 281.94 Q2013.21 281.682 2013.4 280.979 L2015.79 271.587 Q2015.93 270.884 2015.93 270.767 Z" fill="#000000" fill-rule="nonzero" fill-opacity="1" /><path clip-path="url(#clip790)" d="M2035.73 253.926 L2028.82 281.659 Q2028.54 282.759 2028.54 283.954 Q2028.54 286.156 2029.99 286.156 Q2030.67 286.156 2031.23 285.711 Q2031.79 285.242 2032.21 284.329 Q2032.66 283.392 2032.94 282.502 Q2033.24 281.612 2033.62 280.23 Q2033.74 279.691 2033.85 279.527 Q2033.97 279.363 2034.3 279.363 Q2034.88 279.363 2034.88 279.832 Q2034.3 282.713 2033.43 284.54 Q2032.17 287.233 2029.82 287.233 Q2028.07 287.233 2026.76 286.015 Q2025.47 284.774 2025.47 282.806 Q2025.47 282.057 2025.7 281.167 L2031.75 257.182 L2031.91 256.245 Q2031.91 255.988 2031.82 255.847 Q2031.72 255.707 2031.16 255.566 Q2030.62 255.426 2029.54 255.426 Q2029.1 255.426 2028.89 255.402 Q2028.7 255.379 2028.51 255.262 Q2028.35 255.144 2028.35 254.887 Q2028.35 254.465 2028.51 254.231 Q2028.7 253.997 2028.84 253.95 Q2028.98 253.903 2029.26 253.88 Q2029.66 253.856 2031 253.739 Q2032.33 253.599 2033.48 253.505 Q2034.63 253.411 2035.12 253.411 Q2035.4 253.411 2035.54 253.552 Q2035.7 253.669 2035.73 253.809 L2035.73 253.926 Z" fill="#000000" fill-rule="nonzero" fill-opacity="1" /><path clip-path="url(#clip790)" d="M2058.67 281.143 Q2058.86 281.354 2058.86 281.565 Q2058.86 281.776 2058.39 282.385 Q2057.95 282.994 2056.99 283.814 Q2056.03 284.633 2054.78 285.406 Q2053.54 286.179 2051.72 286.694 Q2049.89 287.233 2047.97 287.233 Q2044.38 287.233 2042.28 284.868 Q2040.19 282.502 2040.19 279.106 Q2040.19 275.803 2042.04 272.641 Q2043.89 269.456 2046.89 267.488 Q2049.89 265.497 2053.05 265.497 Q2055.56 265.497 2057.13 266.668 Q2058.7 267.839 2058.7 269.62 Q2058.7 271.001 2057.9 271.845 Q2057.1 272.688 2056.03 272.688 Q2055.28 272.688 2054.76 272.266 Q2054.25 271.821 2054.25 271.001 Q2054.25 269.947 2055.11 269.128 Q2055.44 268.8 2055.81 268.659 Q2056.21 268.495 2056.45 268.495 Q2056.68 268.472 2057.22 268.472 Q2056.73 267.558 2055.56 267.066 Q2054.41 266.551 2053.1 266.551 Q2051.15 266.551 2049.3 267.91 Q2047.45 269.245 2046.33 271.353 Q2045.2 273.414 2044.48 276.342 Q2043.75 279.246 2043.75 280.933 Q2043.75 283.251 2044.83 284.704 Q2045.91 286.156 2048.06 286.156 Q2048.48 286.156 2048.93 286.132 Q2049.4 286.109 2050.57 285.851 Q2051.76 285.594 2052.82 285.149 Q2053.87 284.704 2055.21 283.743 Q2056.56 282.759 2057.64 281.424 Q2058.02 280.933 2058.27 280.933 Q2058.49 280.933 2058.67 281.143 Z" fill="#000000" fill-rule="nonzero" fill-opacity="1" /><path clip-path="url(#clip790)" d="M2084.06 279.832 Q2083.45 282.853 2082.63 284.586 Q2081.3 287.233 2079.07 287.233 Q2077.53 287.233 2076.36 286.367 Q2075.21 285.476 2074.81 284.001 Q2074.36 284.586 2073.97 284.985 Q2073.59 285.383 2072.87 285.992 Q2072.14 286.577 2071.16 286.905 Q2070.2 287.233 2069.09 287.233 Q2068.25 287.233 2067.48 287.069 Q2066.71 286.929 2065.89 286.531 Q2065.09 286.109 2064.5 285.476 Q2063.94 284.844 2063.57 283.814 Q2063.19 282.783 2063.19 281.471 Q2063.19 279.832 2063.82 277.607 Q2064.48 275.381 2065.98 271.4 Q2066.8 269.292 2066.8 268.12 Q2066.8 267.582 2066.68 267.23 Q2066.56 266.879 2066.33 266.762 Q2066.12 266.621 2065.98 266.598 Q2065.84 266.551 2065.6 266.551 Q2064.15 266.551 2062.89 268.027 Q2061.62 269.502 2060.76 272.5 Q2060.57 273.086 2060.45 273.227 Q2060.33 273.367 2059.98 273.367 Q2059.4 273.344 2059.4 272.875 Q2059.4 272.688 2059.61 271.962 Q2059.82 271.212 2060.31 270.111 Q2060.83 268.987 2061.53 267.98 Q2062.23 266.949 2063.33 266.223 Q2064.46 265.497 2065.75 265.497 Q2067.5 265.497 2068.58 266.645 Q2069.68 267.769 2069.68 269.432 Q2069.68 270.463 2068.86 272.454 Q2066.26 279.363 2066.26 282.244 Q2066.26 286.156 2069.23 286.156 Q2070.22 286.156 2071.13 285.758 Q2072.07 285.359 2072.68 284.797 Q2073.29 284.235 2073.76 283.626 Q2074.25 283.017 2074.46 282.619 Q2074.69 282.221 2074.72 282.127 L2078.3 267.699 Q2078.44 267.137 2078.7 266.762 Q2078.98 266.364 2079.31 266.223 Q2079.63 266.083 2079.82 266.059 Q2080.01 266.012 2080.17 266.012 Q2080.76 266.012 2081.16 266.364 Q2081.58 266.715 2081.58 267.324 Q2081.58 267.441 2081.44 268.003 Q2081.32 268.542 2081.13 269.338 Q2080.95 270.111 2080.85 270.533 Q2080.1 273.484 2080.03 273.789 L2078.7 278.965 Q2078.63 279.27 2078.39 280.253 Q2078.18 281.237 2078.07 281.752 Q2077.95 282.244 2077.83 282.923 Q2077.74 283.579 2077.74 283.954 Q2077.74 285.125 2078.09 285.64 Q2078.44 286.156 2079.21 286.156 Q2079.94 286.156 2080.5 285.664 Q2081.09 285.149 2081.53 284.165 Q2081.98 283.158 2082.23 282.338 Q2082.49 281.518 2082.82 280.23 Q2082.94 279.668 2083.03 279.527 Q2083.15 279.363 2083.48 279.363 Q2084.06 279.363 2084.06 279.832 Z" fill="#000000" fill-rule="nonzero" fill-opacity="1" /><path clip-path="url(#clip790)" d="M2097.2 253.926 L2090.29 281.659 Q2090.01 282.759 2090.01 283.954 Q2090.01 286.156 2091.46 286.156 Q2092.14 286.156 2092.7 285.711 Q2093.27 285.242 2093.69 284.329 Q2094.13 283.392 2094.41 282.502 Q2094.72 281.612 2095.09 280.23 Q2095.21 279.691 2095.33 279.527 Q2095.44 279.363 2095.77 279.363 Q2096.36 279.363 2096.36 279.832 Q2095.77 282.713 2094.9 284.54 Q2093.64 287.233 2091.3 287.233 Q2089.54 287.233 2088.23 286.015 Q2086.94 284.774 2086.94 282.806 Q2086.94 282.057 2087.18 281.167 L2093.22 257.182 L2093.38 256.245 Q2093.38 255.988 2093.29 255.847 Q2093.19 255.707 2092.63 255.566 Q2092.09 255.426 2091.02 255.426 Q2090.57 255.426 2090.36 255.402 Q2090.17 255.379 2089.99 255.262 Q2089.82 255.144 2089.82 254.887 Q2089.82 254.465 2089.99 254.231 Q2090.17 253.997 2090.31 253.95 Q2090.45 253.903 2090.74 253.88 Q2091.13 253.856 2092.47 253.739 Q2093.8 253.599 2094.95 253.505 Q2096.1 253.411 2096.59 253.411 Q2096.87 253.411 2097.01 253.552 Q2097.18 253.669 2097.2 253.809 L2097.2 253.926 Z" fill="#000000" fill-rule="nonzero" fill-opacity="1" /><path clip-path="url(#clip790)" d="M2124.4 279.832 Q2123.77 282.853 2122.95 284.586 Q2121.64 287.233 2119.41 287.233 Q2117.73 287.233 2116.53 286.203 Q2115.34 285.172 2115.06 283.626 Q2111.99 287.233 2108.8 287.233 Q2105.99 287.233 2104.21 285.102 Q2102.43 282.947 2102.43 279.551 Q2102.43 276.131 2104.12 272.852 Q2105.83 269.573 2108.52 267.535 Q2111.22 265.497 2113.98 265.497 Q2116.91 265.497 2118.41 268.565 Q2118.52 267.722 2119.06 267.09 Q2119.6 266.457 2120.42 266.457 Q2121.05 266.457 2121.43 266.809 Q2121.8 267.137 2121.8 267.746 Q2121.8 268.05 2121.48 269.385 L2119.74 276.084 L2118.69 280.417 Q2118.29 282.01 2118.17 282.596 Q2118.08 283.181 2118.08 283.954 Q2118.08 286.156 2119.51 286.156 Q2120.21 286.156 2120.77 285.711 Q2121.33 285.266 2121.78 284.329 Q2122.22 283.392 2122.51 282.525 Q2122.79 281.635 2123.16 280.23 Q2123.28 279.668 2123.37 279.527 Q2123.49 279.363 2123.82 279.363 Q2124.4 279.363 2124.4 279.832 M2117.82 270.767 Q2117.82 270.556 2117.66 269.971 Q2117.49 269.385 2117.12 268.565 Q2116.74 267.746 2115.92 267.16 Q2115.13 266.551 2114.05 266.551 Q2112.6 266.551 2111.08 267.793 Q2109.58 269.034 2108.48 271.142 Q2107.63 272.828 2106.72 276.365 Q2105.83 279.902 2105.83 281.659 Q2105.83 282.736 2106.06 283.696 Q2106.32 284.633 2107.05 285.406 Q2107.77 286.156 2108.9 286.156 Q2111.64 286.156 2114.33 282.759 Q2114.85 282.174 2114.96 281.94 Q2115.1 281.682 2115.29 280.979 L2117.68 271.587 Q2117.82 270.884 2117.82 270.767 Z" fill="#000000" fill-rule="nonzero" fill-opacity="1" /><path clip-path="url(#clip790)" d="M2141.32 266.551 Q2141.32 267.207 2141.02 267.371 Q2140.72 267.511 2139.87 267.511 L2135.37 267.511 L2131.81 281.659 Q2131.53 282.9 2131.53 283.954 Q2131.53 285.125 2131.88 285.64 Q2132.26 286.156 2133.03 286.156 Q2134.55 286.156 2136.19 284.774 Q2137.86 283.392 2139.26 280.019 Q2139.45 279.574 2139.54 279.48 Q2139.66 279.363 2139.97 279.363 Q2140.55 279.363 2140.55 279.832 Q2140.55 279.996 2140.22 280.745 Q2139.92 281.495 2139.24 282.596 Q2138.58 283.696 2137.72 284.727 Q2136.87 285.758 2135.59 286.507 Q2134.3 287.233 2132.92 287.233 Q2130.97 287.233 2129.73 285.992 Q2128.51 284.75 2128.51 282.806 Q2128.51 282.174 2129 280.16 Q2129.5 278.122 2132.17 267.511 L2127.93 267.511 Q2127.34 267.511 2127.11 267.488 Q2126.9 267.465 2126.73 267.348 Q2126.59 267.207 2126.59 266.926 Q2126.59 266.481 2126.78 266.294 Q2126.97 266.083 2127.2 266.059 Q2127.46 266.012 2128.04 266.012 L2132.54 266.012 L2134.41 258.4 Q2134.6 257.651 2135.07 257.229 Q2135.56 256.784 2135.84 256.737 Q2136.12 256.667 2136.34 256.667 Q2136.97 256.667 2137.34 257.018 Q2137.72 257.346 2137.72 257.955 Q2137.72 258.283 2135.75 266.012 L2139.97 266.012 Q2140.5 266.012 2140.72 266.036 Q2140.95 266.059 2141.14 266.176 Q2141.32 266.294 2141.32 266.551 Z" fill="#000000" fill-rule="nonzero" fill-opacity="1" /><path clip-path="url(#clip790)" d="M2160.86 281.143 Q2161.05 281.354 2161.05 281.565 Q2161.05 281.776 2160.58 282.385 Q2160.14 282.994 2159.17 283.814 Q2158.21 284.633 2156.97 285.406 Q2155.73 286.179 2153.9 286.694 Q2152.08 287.233 2150.16 287.233 Q2146.71 287.233 2144.65 284.774 Q2142.62 282.314 2142.62 278.543 Q2142.62 276.131 2143.41 274 Q2144.21 271.845 2145.5 270.322 Q2146.81 268.8 2148.45 267.699 Q2150.11 266.575 2151.84 266.036 Q2153.58 265.497 2155.19 265.497 Q2157.56 265.497 2158.94 266.692 Q2160.32 267.886 2160.32 269.573 Q2160.32 269.971 2160.21 270.463 Q2160.11 270.955 2159.78 271.728 Q2159.48 272.5 2158.68 273.273 Q2157.89 274.023 2156.72 274.515 Q2154.12 275.616 2149.38 275.616 L2146.83 275.616 Q2146.08 278.637 2146.08 280.605 Q2146.08 281.378 2146.22 282.174 Q2146.36 282.947 2146.74 283.931 Q2147.14 284.914 2148.03 285.547 Q2148.94 286.156 2150.25 286.156 Q2150.67 286.156 2151.12 286.132 Q2151.59 286.109 2152.76 285.851 Q2153.95 285.594 2155.01 285.149 Q2156.06 284.704 2157.39 283.743 Q2158.75 282.759 2159.83 281.424 Q2160.21 280.933 2160.46 280.933 Q2160.67 280.933 2160.86 281.143 M2158.73 269.573 Q2158.73 268.284 2157.77 267.418 Q2156.83 266.551 2155.19 266.551 Q2154.68 266.551 2154.05 266.668 Q2153.41 266.785 2152.36 267.277 Q2151.33 267.769 2150.41 268.589 Q2149.5 269.385 2148.59 270.955 Q2147.67 272.5 2147.14 274.562 L2149.1 274.562 Q2149.78 274.562 2150.27 274.562 Q2150.77 274.538 2151.84 274.445 Q2152.94 274.351 2153.74 274.187 Q2154.54 274 2155.54 273.625 Q2156.55 273.25 2157.18 272.758 Q2157.84 272.243 2158.28 271.423 Q2158.73 270.603 2158.73 269.573 Z" fill="#000000" fill-rule="nonzero" fill-opacity="1" /><path clip-path="url(#clip790)" d="M2187.58 253.926 L2180.67 281.659 Q2180.39 282.9 2180.39 283.954 Q2180.39 286.156 2181.82 286.156 Q2182.52 286.156 2183.08 285.711 Q2183.64 285.266 2184.09 284.329 Q2184.53 283.392 2184.81 282.525 Q2185.1 281.635 2185.47 280.23 Q2185.59 279.668 2185.68 279.527 Q2185.8 279.363 2186.13 279.363 Q2186.71 279.363 2186.71 279.832 Q2186.08 282.853 2185.26 284.586 Q2183.95 287.233 2181.72 287.233 Q2180.04 287.233 2178.84 286.203 Q2177.65 285.172 2177.37 283.626 Q2174.3 287.233 2171.11 287.233 Q2168.3 287.233 2166.52 285.102 Q2164.74 282.947 2164.74 279.551 Q2164.74 276.131 2166.43 272.852 Q2168.14 269.573 2170.83 267.535 Q2173.53 265.497 2176.29 265.497 Q2179.22 265.497 2180.72 268.565 L2183.6 257.182 L2183.74 256.245 Q2183.74 255.964 2183.62 255.824 Q2183.53 255.66 2182.96 255.543 Q2182.43 255.426 2181.35 255.426 Q2180.9 255.426 2180.69 255.402 Q2180.5 255.379 2180.34 255.262 Q2180.18 255.121 2180.18 254.84 Q2180.18 254.02 2180.86 253.926 Q2185.35 253.411 2186.95 253.411 Q2187.23 253.411 2187.39 253.552 Q2187.56 253.669 2187.56 253.809 L2187.58 253.926 M2180.13 270.767 Q2180.13 270.556 2179.97 269.971 Q2179.8 269.385 2179.43 268.565 Q2179.05 267.746 2178.23 267.16 Q2177.44 266.551 2176.36 266.551 Q2174.91 266.551 2173.38 267.793 Q2171.89 269.034 2170.78 271.142 Q2169.94 272.828 2169.03 276.365 Q2168.14 279.902 2168.14 281.659 Q2168.14 282.736 2168.37 283.696 Q2168.63 284.633 2169.36 285.406 Q2170.08 286.156 2171.21 286.156 Q2173.95 286.156 2176.64 282.759 Q2177.16 282.174 2177.27 281.94 Q2177.41 281.682 2177.6 280.979 L2179.99 271.587 Q2180.13 270.884 2180.13 270.767 Z" fill="#000000" fill-rule="nonzero" fill-opacity="1" /></svg>
