<?xml version="1.0" encoding="utf-8"?>
<svg xmlns="http://www.w3.org/2000/svg" xmlns:xlink="http://www.w3.org/1999/xlink" width="600" height="400" viewBox="0 0 2400 1600">
<defs>
  <clipPath id="clip010">
    <rect x="0" y="0" width="2400" height="1600"/>
  </clipPath>
</defs>
<path clip-path="url(#clip010)" d="M0 1600 L2400 1600 L2400 0 L0 0  Z" fill="#ffffff" fill-rule="evenodd" fill-opacity="1"/>
<defs>
  <clipPath id="clip011">
    <rect x="480" y="0" width="1681" height="1600"/>
  </clipPath>
</defs>
<path clip-path="url(#clip010)" d="M219.866 1423.18 L2352.76 1423.18 L2352.76 123.472 L219.866 123.472  Z" fill="#ffffff" fill-rule="evenodd" fill-opacity="1"/>
<defs>
  <clipPath id="clip012">
    <rect x="219" y="123" width="2134" height="1301"/>
  </clipPath>
</defs>
<polyline clip-path="url(#clip010)" style="stroke:#000000; stroke-linecap:round; stroke-linejoin:round; stroke-width:4; stroke-opacity:1; fill:none" points="219.866,1423.18 2352.76,1423.18 "/>
<polyline clip-path="url(#clip010)" style="stroke:#000000; stroke-linecap:round; stroke-linejoin:round; stroke-width:4; stroke-opacity:1; fill:none" points="219.866,1423.18 219.866,1404.28 "/>
<polyline clip-path="url(#clip010)" style="stroke:#000000; stroke-linecap:round; stroke-linejoin:round; stroke-width:4; stroke-opacity:1; fill:none" points="575.348,1423.18 575.348,1404.28 "/>
<polyline clip-path="url(#clip010)" style="stroke:#000000; stroke-linecap:round; stroke-linejoin:round; stroke-width:4; stroke-opacity:1; fill:none" points="930.829,1423.18 930.829,1404.28 "/>
<polyline clip-path="url(#clip010)" style="stroke:#000000; stroke-linecap:round; stroke-linejoin:round; stroke-width:4; stroke-opacity:1; fill:none" points="1286.31,1423.18 1286.31,1404.28 "/>
<polyline clip-path="url(#clip010)" style="stroke:#000000; stroke-linecap:round; stroke-linejoin:round; stroke-width:4; stroke-opacity:1; fill:none" points="1641.79,1423.18 1641.79,1404.28 "/>
<polyline clip-path="url(#clip010)" style="stroke:#000000; stroke-linecap:round; stroke-linejoin:round; stroke-width:4; stroke-opacity:1; fill:none" points="1997.27,1423.18 1997.27,1404.28 "/>
<polyline clip-path="url(#clip010)" style="stroke:#000000; stroke-linecap:round; stroke-linejoin:round; stroke-width:4; stroke-opacity:1; fill:none" points="2352.76,1423.18 2352.76,1404.28 "/>
<path clip-path="url(#clip010)" d="M219.866 1454.1 Q216.255 1454.1 214.426 1457.66 Q212.621 1461.2 212.621 1468.33 Q212.621 1475.44 214.426 1479.01 Q216.255 1482.55 219.866 1482.55 Q223.501 1482.55 225.306 1479.01 Q227.135 1475.44 227.135 1468.33 Q227.135 1461.2 225.306 1457.66 Q223.501 1454.1 219.866 1454.1 M219.866 1450.39 Q225.676 1450.39 228.732 1455 Q231.811 1459.58 231.811 1468.33 Q231.811 1477.06 228.732 1481.67 Q225.676 1486.25 219.866 1486.25 Q214.056 1486.25 210.977 1481.67 Q207.922 1477.06 207.922 1468.33 Q207.922 1459.58 210.977 1455 Q214.056 1450.39 219.866 1450.39 Z" fill="#000000" fill-rule="nonzero" fill-opacity="1" /><path clip-path="url(#clip010)" d="M554.121 1481.64 L570.44 1481.64 L570.44 1485.58 L548.496 1485.58 L548.496 1481.64 Q551.158 1478.89 555.741 1474.26 Q560.348 1469.61 561.529 1468.27 Q563.774 1465.74 564.653 1464.01 Q565.556 1462.25 565.556 1460.56 Q565.556 1457.8 563.612 1456.07 Q561.691 1454.33 558.589 1454.33 Q556.39 1454.33 553.936 1455.09 Q551.505 1455.86 548.728 1457.41 L548.728 1452.69 Q551.552 1451.55 554.005 1450.97 Q556.459 1450.39 558.496 1450.39 Q563.866 1450.39 567.061 1453.08 Q570.255 1455.77 570.255 1460.26 Q570.255 1462.39 569.445 1464.31 Q568.658 1466.2 566.552 1468.8 Q565.973 1469.47 562.871 1472.69 Q559.769 1475.88 554.121 1481.64 Z" fill="#000000" fill-rule="nonzero" fill-opacity="1" /><path clip-path="url(#clip010)" d="M590.255 1454.1 Q586.644 1454.1 584.815 1457.66 Q583.01 1461.2 583.01 1468.33 Q583.01 1475.44 584.815 1479.01 Q586.644 1482.55 590.255 1482.55 Q593.889 1482.55 595.695 1479.01 Q597.524 1475.44 597.524 1468.33 Q597.524 1461.2 595.695 1457.66 Q593.889 1454.1 590.255 1454.1 M590.255 1450.39 Q596.065 1450.39 599.121 1455 Q602.2 1459.58 602.2 1468.33 Q602.2 1477.06 599.121 1481.67 Q596.065 1486.25 590.255 1486.25 Q584.445 1486.25 581.366 1481.67 Q578.311 1477.06 578.311 1468.33 Q578.311 1459.58 581.366 1455 Q584.445 1450.39 590.255 1450.39 Z" fill="#000000" fill-rule="nonzero" fill-opacity="1" /><path clip-path="url(#clip010)" d="M919.001 1455.09 L907.195 1473.54 L919.001 1473.54 L919.001 1455.09 M917.774 1451.02 L923.654 1451.02 L923.654 1473.54 L928.584 1473.54 L928.584 1477.43 L923.654 1477.43 L923.654 1485.58 L919.001 1485.58 L919.001 1477.43 L903.399 1477.43 L903.399 1472.92 L917.774 1451.02 Z" fill="#000000" fill-rule="nonzero" fill-opacity="1" /><path clip-path="url(#clip010)" d="M946.316 1454.1 Q942.704 1454.1 940.876 1457.66 Q939.07 1461.2 939.07 1468.33 Q939.07 1475.44 940.876 1479.01 Q942.704 1482.55 946.316 1482.55 Q949.95 1482.55 951.755 1479.01 Q953.584 1475.44 953.584 1468.33 Q953.584 1461.2 951.755 1457.66 Q949.95 1454.1 946.316 1454.1 M946.316 1450.39 Q952.126 1450.39 955.181 1455 Q958.26 1459.58 958.26 1468.33 Q958.26 1477.06 955.181 1481.67 Q952.126 1486.25 946.316 1486.25 Q940.505 1486.25 937.427 1481.67 Q934.371 1477.06 934.371 1468.33 Q934.371 1459.58 937.427 1455 Q940.505 1450.39 946.316 1450.39 Z" fill="#000000" fill-rule="nonzero" fill-opacity="1" /><path clip-path="url(#clip010)" d="M1271.72 1466.44 Q1268.57 1466.44 1266.72 1468.59 Q1264.89 1470.74 1264.89 1474.49 Q1264.89 1478.22 1266.72 1480.39 Q1268.57 1482.55 1271.72 1482.55 Q1274.86 1482.55 1276.69 1480.39 Q1278.54 1478.22 1278.54 1474.49 Q1278.54 1470.74 1276.69 1468.59 Q1274.86 1466.44 1271.72 1466.44 M1281 1451.78 L1281 1456.04 Q1279.24 1455.21 1277.43 1454.77 Q1275.65 1454.33 1273.89 1454.33 Q1269.26 1454.33 1266.81 1457.45 Q1264.38 1460.58 1264.03 1466.9 Q1265.4 1464.89 1267.46 1463.82 Q1269.52 1462.73 1271.99 1462.73 Q1277.2 1462.73 1280.21 1465.9 Q1283.24 1469.05 1283.24 1474.49 Q1283.24 1479.82 1280.1 1483.03 Q1276.95 1486.25 1271.72 1486.25 Q1265.72 1486.25 1262.55 1481.67 Q1259.38 1477.06 1259.38 1468.33 Q1259.38 1460.14 1263.27 1455.28 Q1267.16 1450.39 1273.71 1450.39 Q1275.47 1450.39 1277.25 1450.74 Q1279.05 1451.09 1281 1451.78 Z" fill="#000000" fill-rule="nonzero" fill-opacity="1" /><path clip-path="url(#clip010)" d="M1301.3 1454.1 Q1297.69 1454.1 1295.86 1457.66 Q1294.05 1461.2 1294.05 1468.33 Q1294.05 1475.44 1295.86 1479.01 Q1297.69 1482.55 1301.3 1482.55 Q1304.93 1482.55 1306.74 1479.01 Q1308.57 1475.44 1308.57 1468.33 Q1308.57 1461.2 1306.74 1457.66 Q1304.93 1454.1 1301.3 1454.1 M1301.3 1450.39 Q1307.11 1450.39 1310.17 1455 Q1313.24 1459.58 1313.24 1468.33 Q1313.24 1477.06 1310.17 1481.67 Q1307.11 1486.25 1301.3 1486.25 Q1295.49 1486.25 1292.41 1481.67 Q1289.36 1477.06 1289.36 1468.33 Q1289.36 1459.58 1292.41 1455 Q1295.49 1450.39 1301.3 1450.39 Z" fill="#000000" fill-rule="nonzero" fill-opacity="1" /><path clip-path="url(#clip010)" d="M1626.67 1469.17 Q1623.33 1469.17 1621.41 1470.95 Q1619.51 1472.73 1619.51 1475.86 Q1619.51 1478.98 1621.41 1480.77 Q1623.33 1482.55 1626.67 1482.55 Q1630 1482.55 1631.92 1480.77 Q1633.84 1478.96 1633.84 1475.86 Q1633.84 1472.73 1631.92 1470.95 Q1630.02 1469.17 1626.67 1469.17 M1621.99 1467.18 Q1618.98 1466.44 1617.29 1464.38 Q1615.62 1462.32 1615.62 1459.35 Q1615.62 1455.21 1618.56 1452.8 Q1621.53 1450.39 1626.67 1450.39 Q1631.83 1450.39 1634.77 1452.8 Q1637.71 1455.21 1637.71 1459.35 Q1637.71 1462.32 1636.02 1464.38 Q1634.35 1466.44 1631.36 1467.18 Q1634.74 1467.96 1636.62 1470.26 Q1638.52 1472.55 1638.52 1475.86 Q1638.52 1480.88 1635.44 1483.57 Q1632.38 1486.25 1626.67 1486.25 Q1620.95 1486.25 1617.87 1483.57 Q1614.81 1480.88 1614.81 1475.86 Q1614.81 1472.55 1616.71 1470.26 Q1618.61 1467.96 1621.99 1467.18 M1620.28 1459.79 Q1620.28 1462.48 1621.94 1463.98 Q1623.63 1465.49 1626.67 1465.49 Q1629.67 1465.49 1631.36 1463.98 Q1633.08 1462.48 1633.08 1459.79 Q1633.08 1457.11 1631.36 1455.6 Q1629.67 1454.1 1626.67 1454.1 Q1623.63 1454.1 1621.94 1455.6 Q1620.28 1457.11 1620.28 1459.79 Z" fill="#000000" fill-rule="nonzero" fill-opacity="1" /><path clip-path="url(#clip010)" d="M1656.83 1454.1 Q1653.22 1454.1 1651.39 1457.66 Q1649.58 1461.2 1649.58 1468.33 Q1649.58 1475.44 1651.39 1479.01 Q1653.22 1482.55 1656.83 1482.55 Q1660.46 1482.55 1662.27 1479.01 Q1664.1 1475.44 1664.1 1468.33 Q1664.1 1461.2 1662.27 1457.66 Q1660.46 1454.1 1656.83 1454.1 M1656.83 1450.39 Q1662.64 1450.39 1665.69 1455 Q1668.77 1459.58 1668.77 1468.33 Q1668.77 1477.06 1665.69 1481.67 Q1662.64 1486.25 1656.83 1486.25 Q1651.02 1486.25 1647.94 1481.67 Q1644.88 1477.06 1644.88 1468.33 Q1644.88 1459.58 1647.94 1455 Q1651.02 1450.39 1656.83 1450.39 Z" fill="#000000" fill-rule="nonzero" fill-opacity="1" /><path clip-path="url(#clip010)" d="M1956.88 1481.64 L1964.52 1481.64 L1964.52 1455.28 L1956.21 1456.95 L1956.21 1452.69 L1964.47 1451.02 L1969.15 1451.02 L1969.15 1481.64 L1976.79 1481.64 L1976.79 1485.58 L1956.88 1485.58 L1956.88 1481.64 Z" fill="#000000" fill-rule="nonzero" fill-opacity="1" /><path clip-path="url(#clip010)" d="M1996.23 1454.1 Q1992.62 1454.1 1990.79 1457.66 Q1988.99 1461.2 1988.99 1468.33 Q1988.99 1475.44 1990.79 1479.01 Q1992.62 1482.55 1996.23 1482.55 Q1999.87 1482.55 2001.67 1479.01 Q2003.5 1475.44 2003.5 1468.33 Q2003.5 1461.2 2001.67 1457.66 Q1999.87 1454.1 1996.23 1454.1 M1996.23 1450.39 Q2002.04 1450.39 2005.1 1455 Q2008.18 1459.58 2008.18 1468.33 Q2008.18 1477.06 2005.1 1481.67 Q2002.04 1486.25 1996.23 1486.25 Q1990.42 1486.25 1987.34 1481.67 Q1984.29 1477.06 1984.29 1468.33 Q1984.29 1459.58 1987.34 1455 Q1990.42 1450.39 1996.23 1450.39 Z" fill="#000000" fill-rule="nonzero" fill-opacity="1" /><path clip-path="url(#clip010)" d="M2026.39 1454.1 Q2022.78 1454.1 2020.95 1457.66 Q2019.15 1461.2 2019.15 1468.33 Q2019.15 1475.44 2020.95 1479.01 Q2022.78 1482.55 2026.39 1482.55 Q2030.03 1482.55 2031.83 1479.01 Q2033.66 1475.44 2033.66 1468.33 Q2033.66 1461.2 2031.83 1457.66 Q2030.03 1454.1 2026.39 1454.1 M2026.39 1450.39 Q2032.2 1450.39 2035.26 1455 Q2038.34 1459.58 2038.34 1468.33 Q2038.34 1477.06 2035.26 1481.67 Q2032.2 1486.25 2026.39 1486.25 Q2020.58 1486.25 2017.51 1481.67 Q2014.45 1477.06 2014.45 1468.33 Q2014.45 1459.58 2017.51 1455 Q2020.58 1450.39 2026.39 1450.39 Z" fill="#000000" fill-rule="nonzero" fill-opacity="1" /><path clip-path="url(#clip010)" d="M2312.36 1481.64 L2320 1481.64 L2320 1455.28 L2311.69 1456.95 L2311.69 1452.69 L2319.96 1451.02 L2324.63 1451.02 L2324.63 1481.64 L2332.27 1481.64 L2332.27 1485.58 L2312.36 1485.58 L2312.36 1481.64 Z" fill="#000000" fill-rule="nonzero" fill-opacity="1" /><path clip-path="url(#clip010)" d="M2345.74 1481.64 L2362.06 1481.64 L2362.06 1485.58 L2340.12 1485.58 L2340.12 1481.64 Q2342.78 1478.89 2347.36 1474.26 Q2351.97 1469.61 2353.15 1468.27 Q2355.39 1465.74 2356.27 1464.01 Q2357.18 1462.25 2357.18 1460.56 Q2357.18 1457.8 2355.23 1456.07 Q2353.31 1454.33 2350.21 1454.33 Q2348.01 1454.33 2345.56 1455.09 Q2343.13 1455.86 2340.35 1457.41 L2340.35 1452.69 Q2343.17 1451.55 2345.63 1450.97 Q2348.08 1450.39 2350.12 1450.39 Q2355.49 1450.39 2358.68 1453.08 Q2361.88 1455.77 2361.88 1460.26 Q2361.88 1462.39 2361.07 1464.31 Q2360.28 1466.2 2358.17 1468.8 Q2357.59 1469.47 2354.49 1472.69 Q2351.39 1475.88 2345.74 1481.64 Z" fill="#000000" fill-rule="nonzero" fill-opacity="1" /><path clip-path="url(#clip010)" d="M2381.88 1454.1 Q2378.27 1454.1 2376.44 1457.66 Q2374.63 1461.2 2374.63 1468.33 Q2374.63 1475.44 2376.44 1479.01 Q2378.27 1482.55 2381.88 1482.55 Q2385.51 1482.55 2387.32 1479.01 Q2389.14 1475.44 2389.14 1468.33 Q2389.14 1461.2 2387.32 1457.66 Q2385.51 1454.1 2381.88 1454.1 M2381.88 1450.39 Q2387.69 1450.39 2390.74 1455 Q2393.82 1459.58 2393.82 1468.33 Q2393.82 1477.06 2390.74 1481.67 Q2387.69 1486.25 2381.88 1486.25 Q2376.07 1486.25 2372.99 1481.67 Q2369.93 1477.06 2369.93 1468.33 Q2369.93 1459.58 2372.99 1455 Q2376.07 1450.39 2381.88 1450.39 Z" fill="#000000" fill-rule="nonzero" fill-opacity="1" /><path clip-path="url(#clip010)" d="M1213.67 1511.94 Q1213.67 1512.55 1213.54 1513.07 L1211.73 1524.53 Q1211.64 1525.4 1211.45 1525.72 Q1211.28 1526.05 1210.77 1526.05 Q1209.96 1526.05 1209.96 1525.21 Q1209.96 1524.72 1210.16 1523.95 Q1210.7 1520.31 1210.7 1518.67 Q1210.7 1517.58 1210.48 1516.77 Q1210.29 1515.93 1209.96 1515.35 Q1209.67 1514.77 1209 1514.39 Q1208.32 1514 1207.68 1513.77 Q1207.03 1513.55 1205.87 1513.45 Q1204.71 1513.32 1203.72 1513.29 Q1202.72 1513.26 1201.07 1513.26 Q1197.5 1513.26 1196.92 1513.39 Q1196.31 1513.55 1195.99 1514.03 Q1195.7 1514.48 1195.37 1515.84 L1186.61 1550.84 L1186.36 1552.23 Q1186.36 1553 1186.84 1553.26 Q1187.32 1553.52 1188.8 1553.68 Q1190.93 1553.84 1193.02 1553.84 Q1193.09 1553.84 1193.22 1553.84 Q1193.93 1553.84 1194.21 1553.87 Q1194.5 1553.87 1194.79 1553.94 Q1195.08 1554 1195.15 1554.16 Q1195.25 1554.29 1195.25 1554.55 Q1195.25 1555.16 1194.99 1555.48 Q1194.73 1555.77 1194.47 1555.84 Q1194.25 1555.87 1193.8 1555.87 Q1192.89 1555.87 1190.96 1555.8 Q1189.03 1555.74 1188.06 1555.74 L1182.59 1555.67 L1176.98 1555.74 Q1176.12 1555.74 1174.28 1555.8 Q1172.44 1555.87 1171.57 1555.87 Q1170.45 1555.87 1170.45 1555.06 Q1170.45 1554.16 1170.87 1554 Q1171.32 1553.84 1173.22 1553.84 Q1175.89 1553.84 1177.34 1553.71 Q1178.79 1553.58 1179.56 1553.13 Q1180.37 1552.68 1180.59 1552.23 Q1180.82 1551.75 1181.07 1550.65 L1189.93 1515.45 Q1190.19 1514.68 1190.19 1514.06 Q1190.19 1513.74 1190.09 1513.61 Q1190.03 1513.48 1189.61 1513.39 Q1189.19 1513.26 1188.32 1513.26 L1185.74 1513.26 Q1183.1 1513.26 1181.46 1513.39 Q1179.85 1513.48 1178.31 1513.97 Q1176.79 1514.45 1175.89 1515.13 Q1175.02 1515.8 1174.05 1517.19 Q1173.09 1518.57 1172.38 1520.25 Q1171.7 1521.92 1170.74 1524.66 Q1170.41 1525.56 1170.22 1525.82 Q1170.06 1526.05 1169.61 1526.05 Q1169.29 1526.05 1169.03 1525.85 Q1168.8 1525.63 1168.8 1525.34 Q1169.13 1524.27 1169.19 1524.15 L1173.15 1512.52 Q1173.47 1511.58 1173.76 1511.42 Q1174.09 1511.23 1175.28 1511.23 L1211.86 1511.23 Q1212.44 1511.23 1212.64 1511.23 Q1212.83 1511.23 1213.15 1511.29 Q1213.47 1511.36 1213.57 1511.52 Q1213.67 1511.68 1213.67 1511.94 Z" fill="#000000" fill-rule="nonzero" fill-opacity="1" /><path clip-path="url(#clip010)" d="M1229 1514.64 Q1229 1516.06 1227.84 1517.12 Q1226.71 1518.15 1225.49 1518.15 Q1224.36 1518.15 1223.65 1517.48 Q1222.97 1516.77 1222.97 1515.77 Q1222.97 1514.45 1224.1 1513.36 Q1225.23 1512.26 1226.55 1512.26 Q1227.64 1512.26 1228.32 1512.94 Q1229 1513.61 1229 1514.64 M1229.58 1546.43 Q1229.58 1546.69 1229.29 1547.72 Q1229 1548.72 1228.29 1550.26 Q1227.61 1551.78 1226.68 1553.19 Q1225.74 1554.61 1224.2 1555.61 Q1222.68 1556.61 1220.95 1556.61 Q1218.59 1556.61 1217.05 1555.06 Q1215.53 1553.52 1215.53 1551.2 Q1215.53 1549.94 1217.05 1545.92 Q1221.43 1534.19 1221.59 1533.71 Q1222.33 1531.87 1222.33 1530.26 Q1222.33 1529.52 1222.17 1529.07 Q1222.01 1528.59 1221.69 1528.43 Q1221.36 1528.24 1221.17 1528.2 Q1221.01 1528.17 1220.69 1528.17 Q1218.79 1528.17 1217.02 1530.1 Q1215.24 1532.04 1214.02 1536.35 Q1213.76 1537.16 1213.6 1537.35 Q1213.44 1537.54 1212.96 1537.54 Q1212.15 1537.51 1212.15 1536.87 Q1212.15 1536.67 1212.38 1535.93 Q1212.6 1535.16 1213.02 1534 Q1213.44 1532.81 1214.18 1531.58 Q1214.92 1530.33 1215.82 1529.23 Q1216.76 1528.14 1218.08 1527.43 Q1219.4 1526.72 1220.88 1526.72 Q1223.3 1526.72 1224.78 1528.3 Q1226.29 1529.85 1226.29 1532.13 Q1226.29 1533.39 1225.42 1535.61 Q1224.36 1538.51 1223.97 1539.44 L1221.4 1546.37 Q1220.46 1548.88 1220.17 1549.65 Q1219.91 1550.39 1219.69 1551.29 Q1219.5 1552.16 1219.5 1552.97 Q1219.5 1554.1 1219.85 1554.61 Q1220.24 1555.13 1221.07 1555.13 Q1223.39 1555.13 1225.1 1552.84 Q1226.81 1550.52 1227.81 1546.98 Q1227.84 1546.88 1227.87 1546.72 Q1228.13 1545.92 1228.38 1545.82 Q1228.51 1545.79 1228.77 1545.79 Q1229.58 1545.79 1229.58 1546.43 Z" fill="#000000" fill-rule="nonzero" fill-opacity="1" /><path clip-path="url(#clip010)" d="M1289.24 1546.43 Q1289.24 1546.69 1288.95 1547.69 Q1288.66 1548.69 1287.95 1550.23 Q1287.28 1551.78 1286.31 1553.19 Q1285.38 1554.58 1283.83 1555.61 Q1282.32 1556.61 1280.58 1556.61 Q1278.26 1556.61 1276.71 1555.06 Q1275.17 1553.52 1275.17 1551.2 Q1275.17 1549.94 1276.04 1547.56 Q1280.13 1536.67 1280.13 1532.78 Q1280.13 1528.17 1276.55 1528.17 Q1274.52 1528.17 1272.69 1529.01 Q1270.85 1529.85 1269.66 1531 Q1268.47 1532.16 1267.54 1533.48 Q1266.6 1534.81 1266.18 1535.67 Q1265.8 1536.54 1265.7 1536.93 L1261.74 1552.84 Q1261.42 1554.19 1261.19 1554.84 Q1260.97 1555.48 1260.35 1556.03 Q1259.74 1556.61 1258.78 1556.61 Q1257.97 1556.61 1257.39 1556.13 Q1256.84 1555.64 1256.84 1554.8 Q1256.84 1554.68 1257 1554 Q1257.17 1553.32 1257.39 1552.39 Q1257.62 1551.46 1257.71 1550.91 Q1258.87 1546.53 1259.03 1545.92 L1260.87 1538.25 Q1261.87 1534.45 1261.87 1532.78 Q1261.87 1528.17 1258.29 1528.17 Q1256.52 1528.17 1254.85 1528.85 Q1253.2 1529.49 1252.08 1530.39 Q1250.95 1531.29 1249.92 1532.55 Q1248.92 1533.77 1248.41 1534.61 Q1247.92 1535.42 1247.54 1536.22 L1246.7 1539.51 Q1246.51 1540.41 1245.57 1543.92 L1244.12 1549.88 Q1243.09 1554.32 1242.87 1554.74 Q1242.54 1555.64 1241.84 1556.13 Q1241.13 1556.61 1240.42 1556.61 Q1239.61 1556.61 1239.07 1556.13 Q1238.52 1555.64 1238.52 1554.8 Q1238.52 1554.68 1238.62 1554.19 Q1238.71 1553.71 1238.87 1553.03 Q1239.03 1552.36 1239.1 1551.97 L1242.93 1536.74 Q1243.64 1533.97 1243.8 1533.1 Q1243.99 1532.2 1243.99 1531.2 Q1243.99 1528.17 1241.93 1528.17 Q1240.26 1528.17 1239.16 1530.17 Q1238.07 1532.16 1237.13 1536.03 Q1236.84 1537.09 1236.65 1537.32 Q1236.49 1537.54 1236.01 1537.54 Q1235.2 1537.51 1235.2 1536.87 Q1235.2 1536.71 1235.46 1535.67 Q1235.72 1534.64 1236.2 1533.1 Q1236.72 1531.52 1237.26 1530.49 Q1237.58 1529.81 1237.87 1529.36 Q1238.16 1528.91 1238.74 1528.2 Q1239.32 1527.49 1240.19 1527.11 Q1241.06 1526.72 1242.13 1526.72 Q1244.48 1526.72 1246.22 1528.24 Q1247.99 1529.75 1248.21 1532.45 Q1252.5 1526.72 1258.49 1526.72 Q1261.87 1526.72 1263.9 1528.43 Q1265.8 1530.07 1266.02 1533.1 Q1270.47 1526.72 1276.78 1526.72 Q1280.42 1526.72 1282.38 1528.62 Q1284.35 1530.49 1284.35 1533.77 Q1284.35 1535.48 1283.48 1538.73 Q1282.61 1541.95 1282.03 1543.57 Q1281.45 1545.18 1280.32 1548.27 Q1279.13 1551.23 1279.13 1552.97 Q1279.13 1554.1 1279.52 1554.61 Q1279.9 1555.13 1280.74 1555.13 Q1282.03 1555.13 1283.16 1554.39 Q1284.28 1553.61 1285.09 1552.36 Q1285.93 1551.07 1286.47 1549.78 Q1287.02 1548.46 1287.44 1546.98 Q1287.7 1546.17 1287.83 1545.98 Q1287.99 1545.79 1288.44 1545.79 Q1289.24 1545.79 1289.24 1546.43 Z" fill="#000000" fill-rule="nonzero" fill-opacity="1" /><path clip-path="url(#clip010)" d="M1318.7 1548.23 Q1318.96 1548.52 1318.96 1548.81 Q1318.96 1549.1 1318.31 1549.94 Q1317.7 1550.78 1316.38 1551.91 Q1315.06 1553.03 1313.35 1554.1 Q1311.65 1555.16 1309.13 1555.87 Q1306.62 1556.61 1303.98 1556.61 Q1299.25 1556.61 1296.41 1553.23 Q1293.61 1549.85 1293.61 1544.66 Q1293.61 1541.34 1294.71 1538.41 Q1295.8 1535.45 1297.57 1533.36 Q1299.38 1531.26 1301.63 1529.75 Q1303.92 1528.2 1306.3 1527.46 Q1308.68 1526.72 1310.91 1526.72 Q1314.16 1526.72 1316.06 1528.36 Q1317.96 1530.01 1317.96 1532.33 Q1317.96 1532.87 1317.8 1533.55 Q1317.67 1534.23 1317.22 1535.29 Q1316.8 1536.35 1315.7 1537.41 Q1314.61 1538.44 1313 1539.12 Q1309.42 1540.63 1302.92 1540.63 L1299.41 1540.63 Q1298.38 1544.79 1298.38 1547.49 Q1298.38 1548.56 1298.57 1549.65 Q1298.76 1550.71 1299.28 1552.07 Q1299.83 1553.42 1301.05 1554.29 Q1302.31 1555.13 1304.11 1555.13 Q1304.69 1555.13 1305.3 1555.09 Q1305.95 1555.06 1307.56 1554.71 Q1309.2 1554.35 1310.65 1553.74 Q1312.1 1553.13 1313.93 1551.81 Q1315.8 1550.46 1317.28 1548.62 Q1317.8 1547.95 1318.15 1547.95 Q1318.44 1547.95 1318.7 1548.23 M1315.77 1532.33 Q1315.77 1530.55 1314.45 1529.36 Q1313.16 1528.17 1310.91 1528.17 Q1310.2 1528.17 1309.33 1528.33 Q1308.46 1528.49 1307.01 1529.17 Q1305.59 1529.85 1304.34 1530.97 Q1303.08 1532.07 1301.82 1534.23 Q1300.57 1536.35 1299.83 1539.19 L1302.53 1539.19 Q1303.47 1539.19 1304.14 1539.19 Q1304.82 1539.15 1306.3 1539.02 Q1307.81 1538.9 1308.91 1538.67 Q1310 1538.41 1311.39 1537.9 Q1312.77 1537.38 1313.64 1536.71 Q1314.54 1536 1315.16 1534.87 Q1315.77 1533.74 1315.77 1532.33 Z" fill="#000000" fill-rule="nonzero" fill-opacity="1" /><path clip-path="url(#clip010)" d="M1332.76 1539.38 Q1332.76 1528.24 1336.91 1519.25 Q1338.68 1515.48 1341.16 1512.33 Q1343.64 1509.17 1345.29 1507.78 Q1346.93 1506.4 1347.38 1506.4 Q1348.02 1506.4 1348.06 1507.04 Q1348.06 1507.37 1347.19 1508.17 Q1336.56 1518.99 1336.59 1539.38 Q1336.59 1559.83 1346.93 1570.23 Q1348.06 1571.36 1348.06 1571.71 Q1348.06 1572.36 1347.38 1572.36 Q1346.93 1572.36 1345.35 1571.04 Q1343.77 1569.72 1341.32 1566.69 Q1338.88 1563.66 1337.11 1559.96 Q1332.76 1550.97 1332.76 1539.38 Z" fill="#000000" fill-rule="nonzero" fill-opacity="1" /><path clip-path="url(#clip010)" d="M1373.33 1528.17 Q1373.33 1529.07 1372.91 1529.3 Q1372.49 1529.49 1371.33 1529.49 L1365.15 1529.49 L1360.25 1548.94 Q1359.86 1550.65 1359.86 1552.1 Q1359.86 1553.71 1360.35 1554.42 Q1360.86 1555.13 1361.93 1555.13 Q1364.02 1555.13 1366.27 1553.23 Q1368.56 1551.33 1370.49 1546.69 Q1370.75 1546.08 1370.88 1545.95 Q1371.04 1545.79 1371.46 1545.79 Q1372.26 1545.79 1372.26 1546.43 Q1372.26 1546.66 1371.81 1547.69 Q1371.39 1548.72 1370.46 1550.23 Q1369.56 1551.75 1368.37 1553.16 Q1367.21 1554.58 1365.44 1555.61 Q1363.66 1556.61 1361.76 1556.61 Q1359.09 1556.61 1357.38 1554.9 Q1355.71 1553.19 1355.71 1550.52 Q1355.71 1549.65 1356.39 1546.88 Q1357.06 1544.08 1360.73 1529.49 L1354.9 1529.49 Q1354.1 1529.49 1353.78 1529.46 Q1353.49 1529.43 1353.26 1529.27 Q1353.07 1529.07 1353.07 1528.69 Q1353.07 1528.07 1353.33 1527.82 Q1353.58 1527.53 1353.91 1527.49 Q1354.26 1527.43 1355.07 1527.43 L1361.25 1527.43 L1363.83 1516.96 Q1364.08 1515.93 1364.73 1515.35 Q1365.4 1514.74 1365.79 1514.68 Q1366.18 1514.58 1366.47 1514.58 Q1367.34 1514.58 1367.85 1515.06 Q1368.37 1515.51 1368.37 1516.35 Q1368.37 1516.8 1365.66 1527.43 L1371.46 1527.43 Q1372.2 1527.43 1372.49 1527.46 Q1372.81 1527.49 1373.07 1527.66 Q1373.33 1527.82 1373.33 1528.17 Z" fill="#000000" fill-rule="nonzero" fill-opacity="1" /><path clip-path="url(#clip010)" d="M1378.49 1571.71 Q1378.49 1571.39 1379.33 1570.59 Q1389.96 1559.76 1389.96 1539.38 Q1389.96 1518.93 1379.75 1508.59 Q1378.49 1507.4 1378.49 1507.04 Q1378.49 1506.4 1379.13 1506.4 Q1379.59 1506.4 1381.16 1507.72 Q1382.77 1509.04 1385.19 1512.07 Q1387.64 1515.1 1389.44 1518.8 Q1393.79 1527.78 1393.79 1539.38 Q1393.79 1550.52 1389.63 1559.51 Q1387.86 1563.28 1385.38 1566.43 Q1382.9 1569.59 1381.26 1570.97 Q1379.62 1572.36 1379.13 1572.36 Q1378.49 1572.36 1378.49 1571.71 Z" fill="#000000" fill-rule="nonzero" fill-opacity="1" /><polyline clip-path="url(#clip010)" style="stroke:#000000; stroke-linecap:round; stroke-linejoin:round; stroke-width:4; stroke-opacity:1; fill:none" points="219.866,1423.18 219.866,123.472 "/>
<polyline clip-path="url(#clip010)" style="stroke:#000000; stroke-linecap:round; stroke-linejoin:round; stroke-width:4; stroke-opacity:1; fill:none" points="219.866,1423.18 238.764,1423.18 "/>
<polyline clip-path="url(#clip010)" style="stroke:#000000; stroke-linecap:round; stroke-linejoin:round; stroke-width:4; stroke-opacity:1; fill:none" points="219.866,1163.24 238.764,1163.24 "/>
<polyline clip-path="url(#clip010)" style="stroke:#000000; stroke-linecap:round; stroke-linejoin:round; stroke-width:4; stroke-opacity:1; fill:none" points="219.866,903.297 238.764,903.297 "/>
<polyline clip-path="url(#clip010)" style="stroke:#000000; stroke-linecap:round; stroke-linejoin:round; stroke-width:4; stroke-opacity:1; fill:none" points="219.866,643.355 238.764,643.355 "/>
<polyline clip-path="url(#clip010)" style="stroke:#000000; stroke-linecap:round; stroke-linejoin:round; stroke-width:4; stroke-opacity:1; fill:none" points="219.866,383.414 238.764,383.414 "/>
<polyline clip-path="url(#clip010)" style="stroke:#000000; stroke-linecap:round; stroke-linejoin:round; stroke-width:4; stroke-opacity:1; fill:none" points="219.866,123.472 238.764,123.472 "/>
<path clip-path="url(#clip010)" d="M126.691 1408.98 Q123.08 1408.98 121.251 1412.54 Q119.445 1416.08 119.445 1423.21 Q119.445 1430.32 121.251 1433.89 Q123.08 1437.43 126.691 1437.43 Q130.325 1437.43 132.13 1433.89 Q133.959 1430.32 133.959 1423.21 Q133.959 1416.08 132.13 1412.54 Q130.325 1408.98 126.691 1408.98 M126.691 1405.27 Q132.501 1405.27 135.556 1409.88 Q138.635 1414.46 138.635 1423.21 Q138.635 1431.94 135.556 1436.55 Q132.501 1441.13 126.691 1441.13 Q120.88 1441.13 117.802 1436.55 Q114.746 1431.94 114.746 1423.21 Q114.746 1414.46 117.802 1409.88 Q120.88 1405.27 126.691 1405.27 Z" fill="#000000" fill-rule="nonzero" fill-opacity="1" /><path clip-path="url(#clip010)" d="M146.853 1434.58 L151.737 1434.58 L151.737 1440.46 L146.853 1440.46 L146.853 1434.58 Z" fill="#000000" fill-rule="nonzero" fill-opacity="1" /><path clip-path="url(#clip010)" d="M171.922 1408.98 Q168.311 1408.98 166.482 1412.54 Q164.677 1416.08 164.677 1423.21 Q164.677 1430.32 166.482 1433.89 Q168.311 1437.43 171.922 1437.43 Q175.556 1437.43 177.362 1433.89 Q179.19 1430.32 179.19 1423.21 Q179.19 1416.08 177.362 1412.54 Q175.556 1408.98 171.922 1408.98 M171.922 1405.27 Q177.732 1405.27 180.788 1409.88 Q183.866 1414.46 183.866 1423.21 Q183.866 1431.94 180.788 1436.55 Q177.732 1441.13 171.922 1441.13 Q166.112 1441.13 163.033 1436.55 Q159.978 1431.94 159.978 1423.21 Q159.978 1414.46 163.033 1409.88 Q166.112 1405.27 171.922 1405.27 Z" fill="#000000" fill-rule="nonzero" fill-opacity="1" /><path clip-path="url(#clip010)" d="M128.288 1149.04 Q124.677 1149.04 122.848 1152.6 Q121.043 1156.14 121.043 1163.27 Q121.043 1170.38 122.848 1173.94 Q124.677 1177.49 128.288 1177.49 Q131.922 1177.49 133.728 1173.94 Q135.556 1170.38 135.556 1163.27 Q135.556 1156.14 133.728 1152.6 Q131.922 1149.04 128.288 1149.04 M128.288 1145.33 Q134.098 1145.33 137.154 1149.94 Q140.232 1154.52 140.232 1163.27 Q140.232 1172 137.154 1176.61 Q134.098 1181.19 128.288 1181.19 Q122.478 1181.19 119.399 1176.61 Q116.343 1172 116.343 1163.27 Q116.343 1154.52 119.399 1149.94 Q122.478 1145.33 128.288 1145.33 Z" fill="#000000" fill-rule="nonzero" fill-opacity="1" /><path clip-path="url(#clip010)" d="M148.45 1174.64 L153.334 1174.64 L153.334 1180.52 L148.45 1180.52 L148.45 1174.64 Z" fill="#000000" fill-rule="nonzero" fill-opacity="1" /><path clip-path="url(#clip010)" d="M167.547 1176.58 L183.866 1176.58 L183.866 1180.52 L161.922 1180.52 L161.922 1176.58 Q164.584 1173.83 169.167 1169.2 Q173.774 1164.55 174.954 1163.2 Q177.2 1160.68 178.079 1158.94 Q178.982 1157.19 178.982 1155.5 Q178.982 1152.74 177.038 1151 Q175.116 1149.27 172.014 1149.27 Q169.815 1149.27 167.362 1150.03 Q164.931 1150.8 162.153 1152.35 L162.153 1147.62 Q164.977 1146.49 167.431 1145.91 Q169.885 1145.33 171.922 1145.33 Q177.292 1145.33 180.487 1148.02 Q183.681 1150.7 183.681 1155.19 Q183.681 1157.32 182.871 1159.25 Q182.084 1161.14 179.977 1163.74 Q179.399 1164.41 176.297 1167.62 Q173.195 1170.82 167.547 1176.58 Z" fill="#000000" fill-rule="nonzero" fill-opacity="1" /><path clip-path="url(#clip010)" d="M126.205 889.095 Q122.593 889.095 120.765 892.66 Q118.959 896.202 118.959 903.331 Q118.959 910.438 120.765 914.003 Q122.593 917.544 126.205 917.544 Q129.839 917.544 131.644 914.003 Q133.473 910.438 133.473 903.331 Q133.473 896.202 131.644 892.66 Q129.839 889.095 126.205 889.095 M126.205 885.392 Q132.015 885.392 135.07 889.998 Q138.149 894.582 138.149 903.331 Q138.149 912.058 135.07 916.665 Q132.015 921.248 126.205 921.248 Q120.394 921.248 117.316 916.665 Q114.26 912.058 114.26 903.331 Q114.26 894.582 117.316 889.998 Q120.394 885.392 126.205 885.392 Z" fill="#000000" fill-rule="nonzero" fill-opacity="1" /><path clip-path="url(#clip010)" d="M146.366 914.697 L151.251 914.697 L151.251 920.577 L146.366 920.577 L146.366 914.697 Z" fill="#000000" fill-rule="nonzero" fill-opacity="1" /><path clip-path="url(#clip010)" d="M174.283 890.091 L162.477 908.54 L174.283 908.54 L174.283 890.091 M173.056 886.017 L178.936 886.017 L178.936 908.54 L183.866 908.54 L183.866 912.429 L178.936 912.429 L178.936 920.577 L174.283 920.577 L174.283 912.429 L158.681 912.429 L158.681 907.915 L173.056 886.017 Z" fill="#000000" fill-rule="nonzero" fill-opacity="1" /><path clip-path="url(#clip010)" d="M126.529 629.154 Q122.918 629.154 121.089 632.719 Q119.283 636.26 119.283 643.39 Q119.283 650.496 121.089 654.061 Q122.918 657.603 126.529 657.603 Q130.163 657.603 131.968 654.061 Q133.797 650.496 133.797 643.39 Q133.797 636.26 131.968 632.719 Q130.163 629.154 126.529 629.154 M126.529 625.45 Q132.339 625.45 135.394 630.057 Q138.473 634.64 138.473 643.39 Q138.473 652.117 135.394 656.723 Q132.339 661.307 126.529 661.307 Q120.718 661.307 117.64 656.723 Q114.584 652.117 114.584 643.39 Q114.584 634.64 117.64 630.057 Q120.718 625.45 126.529 625.45 Z" fill="#000000" fill-rule="nonzero" fill-opacity="1" /><path clip-path="url(#clip010)" d="M146.691 654.756 L151.575 654.756 L151.575 660.635 L146.691 660.635 L146.691 654.756 Z" fill="#000000" fill-rule="nonzero" fill-opacity="1" /><path clip-path="url(#clip010)" d="M172.339 641.492 Q169.19 641.492 167.339 643.645 Q165.51 645.797 165.51 649.547 Q165.51 653.274 167.339 655.45 Q169.19 657.603 172.339 657.603 Q175.487 657.603 177.315 655.45 Q179.167 653.274 179.167 649.547 Q179.167 645.797 177.315 643.645 Q175.487 641.492 172.339 641.492 M181.621 626.839 L181.621 631.098 Q179.862 630.265 178.056 629.825 Q176.274 629.385 174.514 629.385 Q169.885 629.385 167.431 632.51 Q165.001 635.635 164.653 641.955 Q166.019 639.941 168.079 638.876 Q170.139 637.788 172.616 637.788 Q177.825 637.788 180.834 640.959 Q183.866 644.108 183.866 649.547 Q183.866 654.871 180.718 658.089 Q177.57 661.307 172.339 661.307 Q166.343 661.307 163.172 656.723 Q160.001 652.117 160.001 643.39 Q160.001 635.196 163.89 630.334 Q167.778 625.45 174.329 625.45 Q176.089 625.45 177.871 625.797 Q179.676 626.145 181.621 626.839 Z" fill="#000000" fill-rule="nonzero" fill-opacity="1" /><path clip-path="url(#clip010)" d="M126.783 369.212 Q123.172 369.212 121.343 372.777 Q119.538 376.319 119.538 383.448 Q119.538 390.555 121.343 394.12 Q123.172 397.661 126.783 397.661 Q130.417 397.661 132.223 394.12 Q134.052 390.555 134.052 383.448 Q134.052 376.319 132.223 372.777 Q130.417 369.212 126.783 369.212 M126.783 365.509 Q132.593 365.509 135.649 370.115 Q138.728 374.698 138.728 383.448 Q138.728 392.175 135.649 396.782 Q132.593 401.365 126.783 401.365 Q120.973 401.365 117.894 396.782 Q114.839 392.175 114.839 383.448 Q114.839 374.698 117.894 370.115 Q120.973 365.509 126.783 365.509 Z" fill="#000000" fill-rule="nonzero" fill-opacity="1" /><path clip-path="url(#clip010)" d="M146.945 394.814 L151.829 394.814 L151.829 400.694 L146.945 400.694 L146.945 394.814 Z" fill="#000000" fill-rule="nonzero" fill-opacity="1" /><path clip-path="url(#clip010)" d="M172.014 384.282 Q168.681 384.282 166.76 386.064 Q164.862 387.847 164.862 390.971 Q164.862 394.096 166.76 395.879 Q168.681 397.661 172.014 397.661 Q175.348 397.661 177.269 395.879 Q179.19 394.073 179.19 390.971 Q179.19 387.847 177.269 386.064 Q175.371 384.282 172.014 384.282 M167.339 382.291 Q164.329 381.55 162.64 379.49 Q160.973 377.43 160.973 374.467 Q160.973 370.323 163.913 367.916 Q166.876 365.509 172.014 365.509 Q177.176 365.509 180.116 367.916 Q183.056 370.323 183.056 374.467 Q183.056 377.43 181.366 379.49 Q179.7 381.55 176.714 382.291 Q180.093 383.078 181.968 385.37 Q183.866 387.661 183.866 390.971 Q183.866 395.995 180.788 398.68 Q177.732 401.365 172.014 401.365 Q166.297 401.365 163.218 398.68 Q160.163 395.995 160.163 390.971 Q160.163 387.661 162.061 385.37 Q163.959 383.078 167.339 382.291 M165.626 374.907 Q165.626 377.592 167.292 379.097 Q168.982 380.601 172.014 380.601 Q175.024 380.601 176.714 379.097 Q178.426 377.592 178.426 374.907 Q178.426 372.222 176.714 370.717 Q175.024 369.212 172.014 369.212 Q168.982 369.212 167.292 370.717 Q165.626 372.222 165.626 374.907 Z" fill="#000000" fill-rule="nonzero" fill-opacity="1" /><path clip-path="url(#clip010)" d="M117.501 136.817 L125.14 136.817 L125.14 110.451 L116.83 112.118 L116.83 107.859 L125.093 106.192 L129.769 106.192 L129.769 136.817 L137.408 136.817 L137.408 140.752 L117.501 140.752 L117.501 136.817 Z" fill="#000000" fill-rule="nonzero" fill-opacity="1" /><path clip-path="url(#clip010)" d="M146.853 134.873 L151.737 134.873 L151.737 140.752 L146.853 140.752 L146.853 134.873 Z" fill="#000000" fill-rule="nonzero" fill-opacity="1" /><path clip-path="url(#clip010)" d="M171.922 109.271 Q168.311 109.271 166.482 112.836 Q164.677 116.377 164.677 123.507 Q164.677 130.613 166.482 134.178 Q168.311 137.72 171.922 137.72 Q175.556 137.72 177.362 134.178 Q179.19 130.613 179.19 123.507 Q179.19 116.377 177.362 112.836 Q175.556 109.271 171.922 109.271 M171.922 105.567 Q177.732 105.567 180.788 110.174 Q183.866 114.757 183.866 123.507 Q183.866 132.234 180.788 136.84 Q177.732 141.423 171.922 141.423 Q166.112 141.423 163.033 136.84 Q159.978 132.234 159.978 123.507 Q159.978 114.757 163.033 110.174 Q166.112 105.567 171.922 105.567 Z" fill="#000000" fill-rule="nonzero" fill-opacity="1" /><path clip-path="url(#clip010)" d="M34.8527 758.208 Q33.7899 758.208 32.9203 758.498 Q32.0186 758.756 31.4066 759.174 Q30.7625 759.561 30.2794 760.301 Q29.7641 761.042 29.4421 761.654 Q29.12 762.266 28.9268 763.297 Q28.7013 764.327 28.6047 765.003 Q28.4759 765.68 28.4115 766.839 Q28.3471 767.999 28.3471 768.578 Q28.3471 769.126 28.3471 770.221 Q28.3471 773.667 28.4115 774.247 Q28.5403 775.116 29.0556 775.438 Q29.5387 775.76 30.8591 776.082 L48.0571 780.366 L48.0571 772.991 Q48.0571 768.965 46.9299 766.195 Q45.8027 763.425 44.2246 761.847 Q42.4855 760.108 39.6835 759.174 Q36.8816 758.208 34.8527 758.208 M65.2228 751.026 Q65.5771 751.026 66.3822 751.316 Q67.1874 751.574 68.3146 752.218 Q69.4096 752.862 70.4079 753.731 Q71.4063 754.601 72.0826 755.986 Q72.7912 757.371 72.7912 758.949 Q72.7912 759.335 72.759 759.722 Q72.759 760.108 72.5979 761.074 Q72.4691 762.008 72.2115 762.781 Q71.986 763.554 71.4385 764.52 Q70.9232 765.487 70.2147 766.163 Q69.474 766.807 68.3146 767.258 Q67.1229 767.709 65.6737 767.709 Q64.3854 767.709 60.0699 766.646 Q56.3984 765.712 55.4966 765.712 Q54.4982 765.712 53.5643 766.034 Q52.6303 766.324 51.6641 767.065 Q50.698 767.773 50.1182 769.287 Q49.5063 770.801 49.5063 772.926 L49.5063 780.752 L66.9941 785.132 Q67.0263 785.132 67.4772 785.229 Q67.8959 785.325 68.1213 785.325 Q68.54 785.325 68.7976 785.068 Q69.0553 784.778 69.1841 784.069 Q69.2807 783.361 69.3129 782.813 Q69.3129 782.234 69.3129 781.042 Q69.3129 779.561 69.5706 779.303 Q69.7316 779.174 70.0215 779.174 Q70.4723 779.174 70.7944 779.303 Q71.0843 779.4 71.1809 779.657 Q71.2775 779.883 71.3097 780.044 Q71.3419 780.205 71.3419 780.495 L71.1487 788.868 L71.3419 797.177 Q71.3419 798.111 70.6012 798.111 Q69.9571 798.111 69.6994 797.886 Q69.4096 797.66 69.3773 797.37 Q69.3129 797.081 69.3129 796.34 Q69.3129 794.73 69.2163 793.763 Q69.1197 792.797 68.9909 792.185 Q68.8299 791.541 68.379 791.219 Q67.9281 790.865 67.5416 790.704 Q67.1229 790.543 66.189 790.317 L30.7625 781.493 Q29.6997 781.235 29.5387 781.235 Q28.9268 781.235 28.7658 781.622 Q28.5725 781.976 28.4759 783.007 L28.3471 785.519 Q28.3471 786.292 28.3149 786.614 Q28.2827 786.903 28.1216 787.129 Q27.9606 787.354 27.6063 787.354 Q26.7046 787.354 26.5113 786.968 Q26.2859 786.581 26.2859 785.454 L26.2859 766.646 Q26.2859 760.237 29.0878 756.179 Q31.8897 752.089 36.1731 752.089 Q38.1055 752.089 39.909 752.959 Q41.7125 753.828 43.1296 755.277 Q44.5466 756.694 45.7382 758.595 Q46.8977 760.495 47.7028 762.524 Q48.4757 764.52 48.9266 766.582 Q49.2487 765.68 49.7318 764.842 Q50.2149 763.973 51.1166 762.878 Q52.0184 761.751 53.4677 761.074 Q54.9169 760.398 56.6882 760.398 Q57.9443 760.398 59.8122 760.656 Q65.1262 761.3 67.3162 761.3 Q69.4096 761.3 70.3757 760.752 Q71.3419 760.205 71.3419 758.659 Q71.3419 757.145 69.9893 755.471 Q68.6044 753.764 65.3516 752.669 Q64.4176 752.411 64.4176 751.799 Q64.4176 751.767 64.4176 751.735 Q64.4176 751.67 64.4821 751.541 Q64.5143 751.413 64.6109 751.316 Q64.6753 751.187 64.8363 751.123 Q64.9974 751.026 65.2228 751.026 Z" fill="#000000" fill-rule="nonzero" fill-opacity="1" /><path clip-path="url(#clip010)" d="M857.918 18.8198 Q857.918 20.0085 857.385 20.2544 Q856.893 20.5004 855.253 20.5004 Q853.327 20.5004 852.138 20.6643 Q850.949 20.7873 850.212 20.9922 Q849.474 21.1562 849.023 21.7301 Q848.613 22.3039 848.449 22.7958 Q848.285 23.2467 847.998 24.3534 L836.849 69.0727 Q836.439 70.5893 836.439 71.1221 Q836.439 71.655 836.767 71.9829 Q837.136 72.3108 838.038 72.4748 Q838.94 72.5977 839.636 72.6387 Q840.374 72.6387 841.891 72.6387 Q843.776 72.6387 844.063 72.9667 Q844.227 73.1716 844.227 73.5405 Q844.227 74.3193 843.899 74.7292 Q843.571 75.0981 843.284 75.1801 Q843.039 75.2211 842.629 75.2211 Q840.907 75.2211 837.382 75.0981 Q833.857 74.9751 832.135 74.9751 L821.724 75.2211 Q820.494 75.2211 820.494 74.1963 Q820.494 73.4175 820.822 73.0896 Q821.15 72.7207 821.519 72.6797 Q821.888 72.6387 822.831 72.6387 Q826.192 72.6387 827.627 72.2698 Q829.102 71.9009 829.512 71.2451 Q829.963 70.5483 830.455 68.6628 L842.465 20.5824 L842.383 20.5824 L808.485 73.7045 L808.239 74.0734 Q807.993 74.4013 807.911 74.5242 Q807.829 74.6062 807.583 74.8522 Q807.378 75.0571 807.132 75.1391 Q806.927 75.2211 806.64 75.2211 Q806.148 75.2211 805.861 74.8931 Q805.615 74.5652 805.533 74.3193 Q805.492 74.0324 805.369 73.2946 L798.155 21.2382 L798.073 21.2382 L786.637 66.9822 Q786.309 68.2529 786.309 68.9087 Q786.309 70.5893 787.498 71.614 Q788.728 72.5977 792.007 72.6387 Q793.523 72.6387 793.523 73.5405 Q793.523 75.2211 792.007 75.2211 Q790.613 75.2211 787.703 75.0981 Q784.793 74.9751 783.358 74.9751 Q781.964 74.9751 779.136 75.0981 Q776.349 75.2211 774.996 75.2211 Q773.808 75.2211 773.808 74.1963 Q773.808 72.6387 775.324 72.6387 Q777.784 72.5568 779.464 72.0649 Q781.145 71.573 782.087 70.6303 Q783.071 69.6875 783.522 68.7448 Q784.014 67.761 784.383 66.3264 L795.04 23.5746 Q795.368 22.2219 795.368 22.017 Q795.368 21.3202 794.958 21.0742 Q794.589 20.7873 793.523 20.6643 Q791.474 20.5004 789.916 20.5004 Q788.892 20.5004 788.482 20.4594 Q788.113 20.4184 787.785 20.2135 Q787.498 19.9675 787.498 19.4756 Q787.498 18.6968 787.826 18.3689 Q788.195 18 788.605 17.959 Q789.015 17.8771 789.998 17.8771 L801.516 17.8771 Q803.197 17.8771 803.566 18.164 Q803.935 18.4099 804.099 19.8036 L810.657 67.3101 L841.317 19.4756 Q842.096 18.287 842.506 18.082 Q842.916 17.8771 844.555 17.8771 L855.663 17.8771 Q856.565 17.8771 856.934 17.9181 Q857.303 17.959 857.59 18.164 Q857.918 18.3689 857.918 18.8198 Z" fill="#000000" fill-rule="nonzero" fill-opacity="1" /><path clip-path="url(#clip010)" d="M898.443 52.3081 Q898.443 56.7759 896.475 61.2027 Q894.508 65.5886 891.352 68.8677 Q888.237 72.1059 884.138 74.1553 Q880.039 76.1638 875.94 76.1638 Q870.078 76.1638 866.266 72.1879 Q862.495 68.1709 862.495 61.9405 Q862.495 56.1201 865.733 50.5865 Q869.013 45.012 874.259 41.5689 Q879.506 38.1258 884.998 38.1258 Q890.778 38.1258 894.59 42.0197 Q898.443 45.9137 898.443 52.3081 M892.294 49.0289 Q892.294 45.053 890.368 42.5116 Q888.442 39.9703 884.916 39.9703 Q883.892 39.9703 882.703 40.2982 Q881.514 40.5851 879.957 41.3639 Q878.44 42.1427 876.719 43.7823 Q875.038 45.3809 873.562 47.6763 Q871.636 50.7095 870.16 56.284 Q868.726 61.8176 868.726 65.1377 Q868.726 69.7285 870.857 72.0239 Q872.989 74.2783 876.022 74.2783 Q878.973 74.2783 882.088 72.2288 Q885.244 70.1384 887.417 66.5723 Q889.589 62.8833 890.942 57.4727 Q892.294 52.0211 892.294 49.0289 Z" fill="#000000" fill-rule="nonzero" fill-opacity="1" /><path clip-path="url(#clip010)" d="M942.772 17.8771 L930.68 66.4084 Q930.188 68.5808 930.188 70.4253 Q930.188 74.2783 932.688 74.2783 Q933.918 74.2783 934.902 73.4995 Q935.885 72.7207 936.664 71.0811 Q937.443 69.4416 937.935 67.925 Q938.427 66.3674 939.083 63.908 Q939.288 62.9243 939.452 62.6783 Q939.656 62.3914 940.23 62.3914 Q941.255 62.3914 941.255 63.2112 Q940.148 68.4988 938.714 71.532 Q936.418 76.1638 932.524 76.1638 Q929.573 76.1638 927.483 74.3603 Q925.392 72.5568 924.9 69.8515 Q919.531 76.1638 913.956 76.1638 Q909.037 76.1638 905.922 72.4338 Q902.807 68.6628 902.807 62.7193 Q902.807 56.7349 905.758 50.9964 Q908.751 45.2579 913.464 41.6918 Q918.178 38.1258 923.015 38.1258 Q928.138 38.1258 930.762 43.4954 L935.803 23.5746 L936.049 21.935 Q936.049 21.4431 935.844 21.1972 Q935.681 20.9103 934.697 20.7053 Q933.754 20.5004 931.869 20.5004 Q931.09 20.5004 930.721 20.4594 Q930.393 20.4184 930.106 20.2135 Q929.819 19.9675 929.819 19.4756 Q929.819 18.041 931.008 17.8771 Q938.878 16.9753 941.665 16.9753 Q942.157 16.9753 942.444 17.2212 Q942.731 17.4262 942.731 17.6721 L942.772 17.8771 M929.737 47.3484 Q929.737 46.9794 929.45 45.9547 Q929.163 44.93 928.507 43.4954 Q927.852 42.0607 926.417 41.036 Q925.023 39.9703 923.138 39.9703 Q920.596 39.9703 917.932 42.1427 Q915.309 44.3151 913.382 48.0042 Q911.907 50.9554 910.308 57.1448 Q908.751 63.3342 908.751 66.4084 Q908.751 68.2939 909.16 69.9744 Q909.611 71.614 910.882 72.9667 Q912.153 74.2783 914.12 74.2783 Q918.916 74.2783 923.63 68.3349 Q924.531 67.3101 924.736 66.9002 Q924.982 66.4494 925.31 65.2197 L929.491 48.783 Q929.737 47.5533 929.737 47.3484 Z" fill="#000000" fill-rule="nonzero" fill-opacity="1" /><path clip-path="url(#clip010)" d="M978.268 65.5066 Q978.596 65.8755 978.596 66.2444 Q978.596 66.6133 977.776 67.679 Q976.997 68.7448 975.317 70.1794 Q973.636 71.614 971.464 72.9667 Q969.291 74.3193 966.094 75.2211 Q962.897 76.1638 959.536 76.1638 Q953.51 76.1638 949.903 71.8599 Q946.337 67.5561 946.337 60.9568 Q946.337 56.7349 947.731 53.0049 Q949.125 49.2339 951.379 46.5696 Q953.674 43.9053 956.544 41.9788 Q959.454 40.0113 962.487 39.0685 Q965.52 38.1258 968.349 38.1258 Q972.488 38.1258 974.907 40.2162 Q977.325 42.3067 977.325 45.2579 Q977.325 45.9547 977.12 46.8155 Q976.956 47.6763 976.382 49.0289 Q975.85 50.3816 974.456 51.7342 Q973.062 53.0459 971.013 53.9066 Q966.463 55.8331 958.183 55.8331 L953.715 55.8331 Q952.404 61.1208 952.404 64.5639 Q952.404 65.9165 952.65 67.3101 Q952.896 68.6628 953.551 70.3843 Q954.248 72.1059 955.806 73.2126 Q957.404 74.2783 959.7 74.2783 Q960.438 74.2783 961.216 74.2373 Q962.036 74.1963 964.086 73.7454 Q966.176 73.2946 968.021 72.5158 Q969.865 71.737 972.202 70.0564 Q974.579 68.3349 976.464 65.9985 Q977.12 65.1377 977.571 65.1377 Q977.94 65.1377 978.268 65.5066 M974.538 45.2579 Q974.538 43.0035 972.857 41.4869 Q971.218 39.9703 968.349 39.9703 Q967.447 39.9703 966.34 40.1752 Q965.233 40.3802 963.389 41.241 Q961.585 42.1017 959.987 43.5364 Q958.388 44.93 956.79 47.6763 Q955.191 50.3816 954.248 53.9886 L957.691 53.9886 Q958.88 53.9886 959.741 53.9886 Q960.602 53.9476 962.487 53.7837 Q964.414 53.6197 965.807 53.3328 Q967.201 53.0049 968.963 52.349 Q970.726 51.6932 971.833 50.8324 Q972.98 49.9307 973.759 48.4961 Q974.538 47.0614 974.538 45.2579 Z" fill="#000000" fill-rule="nonzero" fill-opacity="1" /><path clip-path="url(#clip010)" d="M1003.02 17.8771 L990.927 66.4084 Q990.435 68.3349 990.435 70.4253 Q990.435 74.2783 992.977 74.2783 Q994.165 74.2783 995.149 73.4995 Q996.133 72.6797 996.871 71.0811 Q997.65 69.4416 998.141 67.884 Q998.674 66.3264 999.33 63.908 Q999.535 62.9653 999.74 62.6783 Q999.945 62.3914 1000.52 62.3914 Q1001.54 62.3914 1001.54 63.2112 Q1000.52 68.2529 999.002 71.45 Q996.789 76.1638 992.69 76.1638 Q989.616 76.1638 987.32 74.0324 Q985.066 71.8599 985.066 68.4168 Q985.066 67.1052 985.476 65.5476 L996.051 23.5746 L996.338 21.935 Q996.338 21.4841 996.174 21.2382 Q996.01 20.9922 995.026 20.7463 Q994.084 20.5004 992.198 20.5004 Q991.419 20.5004 991.05 20.4594 Q990.722 20.4184 990.394 20.2135 Q990.108 20.0085 990.108 19.5576 Q990.108 18.8198 990.394 18.4099 Q990.722 18 990.968 17.9181 Q991.214 17.8361 991.706 17.7951 Q992.403 17.7541 994.739 17.5491 Q997.076 17.3032 999.084 17.1393 Q1001.09 16.9753 1001.95 16.9753 Q1002.45 16.9753 1002.69 17.2212 Q1002.98 17.4262 1003.02 17.6721 L1003.02 17.8771 Z" fill="#000000" fill-rule="nonzero" fill-opacity="1" /><path clip-path="url(#clip010)" d="M1080.52 20.4184 L1078.84 34.9286 Q1078.72 36.2403 1078.51 36.6502 Q1078.31 37.0191 1077.65 37.0191 Q1076.67 37.0191 1076.67 36.0353 Q1076.67 35.6254 1076.83 34.5187 Q1077.08 32.2643 1077.08 29.9689 Q1077.08 27.3866 1076.58 25.788 Q1076.13 24.1484 1074.82 22.9597 Q1073.51 21.771 1071.09 21.2792 Q1068.67 20.7463 1064.82 20.7463 L1053.75 20.7463 Q1051.05 20.7463 1050.39 21.2382 Q1049.78 21.7301 1049.2 24.0255 L1043.83 45.3399 L1051.46 45.3399 Q1056.79 45.3399 1058.88 43.7823 Q1060.97 42.2247 1062.28 37.265 Q1062.48 36.4862 1062.57 36.1993 Q1062.69 35.8714 1062.89 35.7074 Q1063.14 35.5025 1063.55 35.5025 Q1063.92 35.5025 1064.16 35.7484 Q1064.41 35.9533 1064.49 36.1993 L1064.57 36.4452 Q1064.57 36.8551 1064.33 37.7979 L1059.7 55.9971 Q1059.37 57.2268 1059.16 57.5137 Q1059 57.7596 1058.43 57.7596 Q1058.02 57.7596 1057.73 57.4727 Q1057.44 57.1858 1057.44 56.7349 Q1057.52 56.243 1057.69 55.8331 Q1058.26 53.3328 1058.26 51.7342 Q1058.26 50.7095 1058.06 50.0946 Q1057.85 49.4798 1057.15 48.9469 Q1056.46 48.4141 1055.02 48.1681 Q1053.59 47.9222 1051.29 47.9222 L1043.18 47.9222 L1037.97 68.8267 L1037.6 70.7532 Q1037.6 71.614 1038.05 71.9419 Q1038.55 72.2698 1040.31 72.4338 Q1042.93 72.6387 1044.65 72.6387 Q1046.78 72.6387 1047.03 72.7207 Q1047.52 72.9667 1047.52 73.6225 Q1047.52 74.3603 1047.19 74.7702 Q1046.87 75.1391 1046.58 75.1801 Q1046.29 75.2211 1045.76 75.2211 L1033.26 74.9751 L1022.19 75.2211 Q1020.92 75.2211 1020.92 74.1963 Q1020.92 73.4175 1021.25 73.0896 Q1021.58 72.7207 1021.95 72.6797 Q1022.31 72.6387 1023.26 72.6387 Q1025.31 72.6387 1026.54 72.5158 Q1027.77 72.3928 1028.54 72.2288 Q1029.36 72.0239 1029.77 71.45 Q1030.22 70.8762 1030.43 70.3843 Q1030.63 69.8515 1030.92 68.6628 L1041.99 24.2714 Q1042.4 22.7548 1042.4 22.2629 Q1042.4 21.7301 1042.03 21.4021 Q1041.7 21.0742 1040.8 20.9513 Q1039.9 20.7873 1039.16 20.7873 Q1038.46 20.7463 1036.95 20.7463 Q1035.96 20.7463 1035.55 20.7053 Q1035.18 20.6643 1034.9 20.4594 Q1034.61 20.2544 1034.61 19.8036 Q1034.61 18.6559 1035.1 18.4099 Q1035.64 18.123 1037.11 18.123 L1078.26 18.123 Q1079.9 18.123 1080.27 18.4919 Q1080.68 18.8198 1080.52 20.4184 Z" fill="#000000" fill-rule="nonzero" fill-opacity="1" /><path clip-path="url(#clip010)" d="M1101.82 22.7548 Q1101.82 24.5583 1100.34 25.911 Q1098.9 27.2226 1097.35 27.2226 Q1095.91 27.2226 1095.01 26.3618 Q1094.15 25.4601 1094.15 24.1894 Q1094.15 22.5089 1095.58 21.1152 Q1097.02 19.7216 1098.7 19.7216 Q1100.09 19.7216 1100.95 20.5824 Q1101.82 21.4431 1101.82 22.7548 M1102.55 63.2112 Q1102.55 63.5391 1102.18 64.8508 Q1101.82 66.1214 1100.91 68.0889 Q1100.05 70.0154 1098.86 71.819 Q1097.68 73.6225 1095.71 74.8931 Q1093.78 76.1638 1091.57 76.1638 Q1088.58 76.1638 1086.61 74.1963 Q1084.68 72.2288 1084.68 69.2776 Q1084.68 67.679 1086.61 62.5554 Q1092.18 47.6353 1092.39 47.0204 Q1093.33 44.6841 1093.33 42.6346 Q1093.33 41.6918 1093.13 41.118 Q1092.92 40.5031 1092.51 40.2982 Q1092.1 40.0523 1091.85 40.0113 Q1091.65 39.9703 1091.24 39.9703 Q1088.82 39.9703 1086.57 42.4296 Q1084.31 44.889 1082.76 50.3816 Q1082.43 51.4063 1082.22 51.6522 Q1082.02 51.8982 1081.4 51.8982 Q1080.38 51.8572 1080.38 51.0374 Q1080.38 50.7915 1080.66 49.8487 Q1080.95 48.865 1081.48 47.3893 Q1082.02 45.8727 1082.96 44.3151 Q1083.9 42.7166 1085.05 41.3229 Q1086.24 39.9293 1087.92 39.0275 Q1089.6 38.1258 1091.49 38.1258 Q1094.56 38.1258 1096.45 40.1342 Q1098.37 42.1017 1098.37 45.012 Q1098.37 46.6105 1097.27 49.4388 Q1095.91 53.1278 1095.42 54.3165 L1092.14 63.1292 Q1090.95 66.3264 1090.58 67.3101 Q1090.26 68.2529 1089.97 69.4006 Q1089.72 70.5073 1089.72 71.532 Q1089.72 72.9667 1090.17 73.6225 Q1090.67 74.2783 1091.73 74.2783 Q1094.68 74.2783 1096.86 71.3681 Q1099.03 68.4168 1100.3 63.908 Q1100.34 63.7851 1100.38 63.5801 Q1100.71 62.5554 1101.04 62.4324 Q1101.2 62.3914 1101.53 62.3914 Q1102.55 62.3914 1102.55 63.2112 Z" fill="#000000" fill-rule="nonzero" fill-opacity="1" /><path clip-path="url(#clip010)" d="M1135.49 39.9703 Q1135.49 41.118 1134.96 41.4049 Q1134.43 41.6508 1132.95 41.6508 L1125.08 41.6508 L1118.85 66.4084 Q1118.36 68.5808 1118.36 70.4253 Q1118.36 72.4748 1118.97 73.3765 Q1119.63 74.2783 1120.98 74.2783 Q1123.65 74.2783 1126.52 71.8599 Q1129.43 69.4416 1131.89 63.5391 Q1132.21 62.7603 1132.38 62.5964 Q1132.58 62.3914 1133.12 62.3914 Q1134.14 62.3914 1134.14 63.2112 Q1134.14 63.4981 1133.57 64.8098 Q1133.03 66.1214 1131.84 68.0479 Q1130.7 69.9744 1129.18 71.778 Q1127.7 73.5815 1125.45 74.8931 Q1123.2 76.1638 1120.78 76.1638 Q1117.38 76.1638 1115.2 73.9914 Q1113.07 71.819 1113.07 68.4168 Q1113.07 67.3101 1113.93 63.7851 Q1114.79 60.219 1119.47 41.6508 L1112.05 41.6508 Q1111.02 41.6508 1110.61 41.6099 Q1110.24 41.5689 1109.96 41.3639 Q1109.71 41.118 1109.71 40.6261 Q1109.71 39.8473 1110.04 39.5194 Q1110.37 39.1505 1110.78 39.1095 Q1111.23 39.0275 1112.25 39.0275 L1120.12 39.0275 L1123.4 25.706 Q1123.73 24.3944 1124.55 23.6566 Q1125.41 22.8778 1125.9 22.7958 Q1126.39 22.6728 1126.76 22.6728 Q1127.87 22.6728 1128.52 23.2876 Q1129.18 23.8615 1129.18 24.9272 Q1129.18 25.5011 1125.74 39.0275 L1133.12 39.0275 Q1134.06 39.0275 1134.43 39.0685 Q1134.84 39.1095 1135.16 39.3145 Q1135.49 39.5194 1135.49 39.9703 Z" fill="#000000" fill-rule="nonzero" fill-opacity="1" /><path clip-path="url(#clip010)" d="M1192.65 21.812 Q1192.65 24.0664 1191.22 25.4601 Q1189.82 26.8537 1188.06 26.8537 Q1186.79 26.8537 1185.85 26.0749 Q1184.95 25.2961 1184.95 23.9435 Q1184.95 22.5498 1186.01 21.0742 Q1187.08 19.5986 1189.5 19.3937 Q1187.9 17.8771 1185.36 17.8771 Q1184.09 17.8771 1183.02 18.6968 Q1181.99 19.4756 1181.42 20.7463 Q1180.81 22.058 1179.41 29.477 Q1178.96 31.8954 1178.55 34.2318 Q1178.14 36.5682 1177.65 39.0275 L1184.62 39.0275 Q1185.52 39.0275 1185.89 39.0685 Q1186.26 39.1095 1186.54 39.3145 Q1186.87 39.5194 1186.87 39.9703 Q1186.87 41.118 1186.34 41.4049 Q1185.85 41.6508 1184.37 41.6508 L1177.16 41.6508 L1172.12 68.2529 Q1171.99 69.0317 1171.46 71.491 Q1170.97 73.9094 1169.78 77.8854 Q1168.59 81.9023 1167.4 84.2797 Q1166.75 85.6323 1165.89 86.903 Q1165.07 88.2147 1163.88 89.5263 Q1162.69 90.838 1161.13 91.6168 Q1159.57 92.4366 1157.93 92.4366 Q1155.15 92.4366 1152.97 90.879 Q1150.8 89.3214 1150.8 86.6571 Q1150.8 84.4027 1152.2 83.009 Q1153.63 81.6154 1155.39 81.6154 Q1156.66 81.6154 1157.57 82.3942 Q1158.51 83.173 1158.51 84.5256 Q1158.51 85.0995 1158.3 85.7553 Q1158.1 86.4111 1157.65 87.1489 Q1157.2 87.9277 1156.21 88.4606 Q1155.23 88.9935 1153.88 89.0754 Q1155.47 90.592 1157.93 90.592 Q1158.71 90.592 1159.41 90.2641 Q1160.11 89.9772 1160.68 89.2394 Q1161.3 88.5016 1161.75 87.7638 Q1162.2 87.067 1162.65 85.7143 Q1163.1 84.4027 1163.39 83.4189 Q1163.67 82.4352 1164.04 80.6726 Q1164.45 78.9101 1164.66 77.8444 Q1164.86 76.8196 1165.23 74.8112 L1171.5 41.6508 L1165.97 41.6508 Q1164.98 41.6508 1164.57 41.6099 Q1164.21 41.5689 1163.92 41.3639 Q1163.63 41.118 1163.63 40.6261 Q1163.63 39.8473 1163.96 39.5194 Q1164.33 39.1505 1164.74 39.1095 Q1165.15 39.0275 1166.13 39.0275 L1171.95 39.0275 Q1173.92 28.6572 1174.7 25.87 Q1175.6 22.9187 1176.99 20.8693 Q1178.39 18.7788 1179.95 17.7951 Q1181.5 16.8113 1182.77 16.4424 Q1184.09 16.0325 1185.36 16.0325 Q1188.23 16.0325 1190.44 17.5901 Q1192.65 19.1067 1192.65 21.812 Z" fill="#000000" fill-rule="nonzero" fill-opacity="1" /><path clip-path="url(#clip010)" d="M1232.38 52.3081 Q1232.38 56.7759 1230.41 61.2027 Q1228.44 65.5886 1225.28 68.8677 Q1222.17 72.1059 1218.07 74.1553 Q1213.97 76.1638 1209.87 76.1638 Q1204.01 76.1638 1200.2 72.1879 Q1196.43 68.1709 1196.43 61.9405 Q1196.43 56.1201 1199.67 50.5865 Q1202.94 45.012 1208.19 41.5689 Q1213.44 38.1258 1218.93 38.1258 Q1224.71 38.1258 1228.52 42.0197 Q1232.38 45.9137 1232.38 52.3081 M1226.23 49.0289 Q1226.23 45.053 1224.3 42.5116 Q1222.37 39.9703 1218.85 39.9703 Q1217.82 39.9703 1216.64 40.2982 Q1215.45 40.5851 1213.89 41.3639 Q1212.37 42.1427 1210.65 43.7823 Q1208.97 45.3809 1207.49 47.6763 Q1205.57 50.7095 1204.09 56.284 Q1202.66 61.8176 1202.66 65.1377 Q1202.66 69.7285 1204.79 72.0239 Q1206.92 74.2783 1209.95 74.2783 Q1212.91 74.2783 1216.02 72.2288 Q1219.18 70.1384 1221.35 66.5723 Q1223.52 62.8833 1224.87 57.4727 Q1226.23 52.0211 1226.23 49.0289 Z" fill="#000000" fill-rule="nonzero" fill-opacity="1" /><path clip-path="url(#clip010)" d="M1269.24 43.5773 Q1269.24 45.7498 1267.81 47.1434 Q1266.42 48.537 1264.61 48.537 Q1263.06 48.537 1262.24 47.6353 Q1261.42 46.7335 1261.42 45.5858 Q1261.42 43.9462 1262.69 42.5936 Q1263.96 41.241 1265.8 40.954 Q1264.45 39.9703 1262.28 39.9703 Q1258.71 39.9703 1255.55 42.7166 Q1254.16 43.9872 1252.64 46.3236 Q1251.13 48.619 1250.84 49.6028 L1248.18 60.5469 Q1247.93 61.7766 1246.41 67.679 Q1244.94 73.5405 1244.81 73.7864 Q1244.41 74.9341 1243.5 75.549 Q1242.6 76.1638 1241.7 76.1638 Q1240.68 76.1638 1239.98 75.549 Q1239.28 74.9341 1239.28 73.8684 Q1239.28 73.7045 1239.4 73.0896 Q1239.53 72.4748 1239.73 71.614 Q1239.94 70.7532 1240.02 70.2614 L1244.9 50.8734 Q1245.8 47.3484 1246 46.2416 Q1246.25 45.0939 1246.25 43.8233 Q1246.25 41.6099 1245.55 40.7901 Q1244.86 39.9703 1243.63 39.9703 Q1241.49 39.9703 1240.1 42.5116 Q1238.71 45.053 1237.52 49.9717 Q1237.15 51.3243 1236.9 51.6112 Q1236.7 51.8982 1236.08 51.8982 Q1235.06 51.8572 1235.06 51.0374 Q1235.06 50.8324 1235.39 49.5208 Q1235.72 48.1681 1236.33 46.2007 Q1236.99 44.1922 1237.68 42.9215 Q1238.09 42.0607 1238.46 41.4869 Q1238.83 40.913 1239.57 40.0113 Q1240.31 39.1095 1241.41 38.6176 Q1242.52 38.1258 1243.87 38.1258 Q1246.82 38.1258 1248.91 39.9293 Q1251.05 41.7328 1251.54 44.5611 Q1252.56 43.0855 1253.83 41.8148 Q1255.1 40.5031 1257.44 39.3145 Q1259.78 38.1258 1262.28 38.1258 Q1265.39 38.1258 1267.32 39.7243 Q1269.24 41.2819 1269.24 43.5773 Z" fill="#000000" fill-rule="nonzero" fill-opacity="1" /><path clip-path="url(#clip010)" d="M1322.55 16.726 L1322.55 24.7063 Q1317.89 22.4783 1313.76 21.3845 Q1309.63 20.2908 1305.78 20.2908 Q1299.1 20.2908 1295.45 22.8834 Q1291.84 25.476 1291.84 30.256 Q1291.84 34.2664 1294.23 36.3324 Q1296.66 38.3578 1303.39 39.6136 L1308.33 40.6263 Q1317.49 42.3682 1321.82 46.7837 Q1326.2 51.1587 1326.2 58.5313 Q1326.2 67.3218 1320.28 71.8588 Q1314.41 76.3958 1303.02 76.3958 Q1298.73 76.3958 1293.87 75.4236 Q1289.05 74.4514 1283.86 72.5475 L1283.86 64.1216 Q1288.85 66.9167 1293.63 68.3345 Q1298.41 69.7523 1303.02 69.7523 Q1310.03 69.7523 1313.84 66.9977 Q1317.65 64.2431 1317.65 59.139 Q1317.65 54.683 1314.89 52.1714 Q1312.18 49.6599 1305.94 48.4041 L1300.96 47.4319 Q1291.8 45.609 1287.71 41.7201 Q1283.62 37.8312 1283.62 30.9042 Q1283.62 22.8834 1289.25 18.2653 Q1294.92 13.6473 1304.85 13.6473 Q1309.1 13.6473 1313.52 14.417 Q1317.93 15.1867 1322.55 16.726 Z" fill="#000000" fill-rule="nonzero" fill-opacity="1" /><path clip-path="url(#clip010)" d="M1377.44 50.6726 L1377.44 54.3184 L1343.17 54.3184 Q1343.65 62.0151 1347.79 66.066 Q1351.96 70.0764 1359.37 70.0764 Q1363.67 70.0764 1367.68 69.0232 Q1371.73 67.9699 1375.7 65.8635 L1375.7 72.912 Q1371.69 74.6134 1367.47 75.5046 Q1363.26 76.3958 1358.93 76.3958 Q1348.07 76.3958 1341.71 70.0764 Q1335.39 63.757 1335.39 52.9816 Q1335.39 41.8416 1341.39 35.3197 Q1347.42 28.7572 1357.63 28.7572 Q1366.79 28.7572 1372.09 34.6715 Q1377.44 40.5453 1377.44 50.6726 M1369.99 48.4851 Q1369.9 42.3682 1366.54 38.7224 Q1363.22 35.0766 1357.71 35.0766 Q1351.47 35.0766 1347.71 38.6009 Q1343.98 42.1252 1343.41 48.5256 L1369.99 48.4851 Z" fill="#000000" fill-rule="nonzero" fill-opacity="1" /><path clip-path="url(#clip010)" d="M1397.05 16.9691 L1397.05 29.8509 L1412.4 29.8509 L1412.4 35.6437 L1397.05 35.6437 L1397.05 60.2732 Q1397.05 65.823 1398.54 67.4028 Q1400.08 68.9827 1404.74 68.9827 L1412.4 68.9827 L1412.4 75.2211 L1404.74 75.2211 Q1396.11 75.2211 1392.83 72.0208 Q1389.55 68.7801 1389.55 60.2732 L1389.55 35.6437 L1384.08 35.6437 L1384.08 29.8509 L1389.55 29.8509 L1389.55 16.9691 L1397.05 16.9691 Z" fill="#000000" fill-rule="nonzero" fill-opacity="1" /><path clip-path="url(#clip010)" d="M1469.11 22.8024 L1458.01 52.9006 L1480.25 52.9006 L1469.11 22.8024 M1464.49 14.7411 L1473.77 14.7411 L1496.82 75.2211 L1488.31 75.2211 L1482.8 59.7061 L1455.54 59.7061 L1450.03 75.2211 L1441.4 75.2211 L1464.49 14.7411 Z" fill="#000000" fill-rule="nonzero" fill-opacity="1" /><path clip-path="url(#clip010)" d="M1527.93 49.1737 L1549.76 49.1737 L1549.76 55.8172 L1527.93 55.8172 L1527.93 49.1737 Z" fill="#000000" fill-rule="nonzero" fill-opacity="1" /><path clip-path="url(#clip010)" d="M1590.48 68.3345 L1603.84 68.3345 L1603.84 22.1947 L1589.3 25.1114 L1589.3 17.6577 L1603.76 14.7411 L1611.95 14.7411 L1611.95 68.3345 L1625.31 68.3345 L1625.31 75.2211 L1590.48 75.2211 L1590.48 68.3345 Z" fill="#000000" fill-rule="nonzero" fill-opacity="1" /><path clip-path="url(#clip010)" d="M1648.89 68.3345 L1677.45 68.3345 L1677.45 75.2211 L1639.05 75.2211 L1639.05 68.3345 Q1643.71 63.5139 1651.73 55.4121 Q1659.79 47.2698 1661.85 44.9203 Q1665.78 40.5048 1667.32 37.4666 Q1668.9 34.3879 1668.9 31.4308 Q1668.9 26.6102 1665.5 23.572 Q1662.14 20.5339 1656.71 20.5339 Q1652.86 20.5339 1648.57 21.8707 Q1644.31 23.2075 1639.45 25.9216 L1639.45 17.6577 Q1644.39 15.6728 1648.69 14.66 Q1652.98 13.6473 1656.55 13.6473 Q1665.94 13.6473 1671.54 18.3464 Q1677.13 23.0454 1677.13 30.9042 Q1677.13 34.631 1675.71 37.9933 Q1674.33 41.315 1670.64 45.852 Q1669.63 47.0268 1664.2 52.6575 Q1658.77 58.2478 1648.89 68.3345 Z" fill="#000000" fill-rule="nonzero" fill-opacity="1" /><path clip-path="url(#clip010)" d="M1757.66 47.8369 L1757.66 75.2211 L1750.2 75.2211 L1750.2 48.08 Q1750.2 41.6391 1747.69 38.4389 Q1745.18 35.2386 1740.16 35.2386 Q1734.12 35.2386 1730.64 39.087 Q1727.15 42.9354 1727.15 49.5788 L1727.15 75.2211 L1719.66 75.2211 L1719.66 12.189 L1727.15 12.189 L1727.15 36.8995 Q1729.83 32.8081 1733.43 30.7826 Q1737.08 28.7572 1741.82 28.7572 Q1749.64 28.7572 1753.65 33.6183 Q1757.66 38.4389 1757.66 47.8369 Z" fill="#000000" fill-rule="nonzero" fill-opacity="1" /><path clip-path="url(#clip010)" d="M1798.81 36.8185 Q1797.56 36.0893 1796.06 35.7653 Q1794.6 35.4007 1792.82 35.4007 Q1786.5 35.4007 1783.1 39.5326 Q1779.73 43.624 1779.73 51.3207 L1779.73 75.2211 L1772.24 75.2211 L1772.24 29.8509 L1779.73 29.8509 L1779.73 36.8995 Q1782.08 32.7676 1785.85 30.7826 Q1789.62 28.7572 1795.01 28.7572 Q1795.78 28.7572 1796.71 28.8787 Q1797.64 28.9597 1798.77 29.1623 L1798.81 36.8185 Z" fill="#000000" fill-rule="nonzero" fill-opacity="1" /><polyline clip-path="url(#clip012)" style="stroke:#ff9bff; stroke-linecap:round; stroke-linejoin:round; stroke-width:8; stroke-opacity:1; fill:none" points="238.021,1343.98 255.417,1289.89 308.511,1243.79 397.141,1119.55 487.67,955.611 573.992,788.235 744.411,620.896 926.341,528.207 1091.29,386.833 1267.61,294.107 1430.38,222.868 1778.73,153.927 1966.68,134.728 2316.98,123.472 "/>
<polyline clip-path="url(#clip012)" style="stroke:#ff9bff; stroke-linecap:round; stroke-linejoin:round; stroke-width:8; stroke-opacity:1; fill:none" stroke-dasharray="32, 20" points="238.021,1346.13 255.417,1309.26 308.511,1203.47 397.141,1047.47 487.67,911.369 573.992,800.308 744.411,624.903 926.341,487.505 1091.29,395.775 1267.61,323.12 1430.38,273.386 1778.73,204.673 1966.68,181.801 2316.98,154.957 "/>
<path clip-path="url(#clip010)" d="M1773.16 322.316 L2281.66 322.316 L2281.66 166.796 L1773.16 166.796  Z" fill="#ffffff" fill-rule="evenodd" fill-opacity="1"/>
<polyline clip-path="url(#clip010)" style="stroke:#000000; stroke-linecap:round; stroke-linejoin:round; stroke-width:4; stroke-opacity:1; fill:none" points="1773.16,322.316 2281.66,322.316 2281.66,166.796 1773.16,166.796 1773.16,322.316 "/>
<polyline clip-path="url(#clip010)" style="stroke:#ff9bff; stroke-linecap:round; stroke-linejoin:round; stroke-width:8; stroke-opacity:1; fill:none" points="1796.86,218.636 1939.05,218.636 "/>
<path clip-path="url(#clip010)" d="M1997.53 199.195 L1996.57 207.486 Q1996.5 208.236 1996.38 208.47 Q1996.26 208.681 1995.89 208.681 Q1995.61 208.681 1995.44 208.517 Q1995.3 208.33 1995.3 208.119 Q1995.3 208.002 1995.33 207.697 Q1995.35 207.393 1995.35 207.252 Q1995.56 205.8 1995.56 204.699 Q1995.56 202.661 1994.95 201.561 Q1994.34 200.436 1992.77 199.921 Q1991.21 199.382 1988.25 199.382 L1981.51 199.382 Q1979.96 199.382 1979.59 199.663 Q1979.24 199.944 1978.91 201.256 L1976.03 212.803 L1980.55 212.803 Q1982.23 212.803 1983.24 212.593 Q1984.27 212.382 1984.95 211.796 Q1985.65 211.187 1986.03 210.367 Q1986.43 209.548 1986.83 208.072 Q1986.94 207.58 1987.06 207.393 Q1987.2 207.205 1987.5 207.205 Q1987.74 207.205 1987.9 207.369 Q1988.07 207.51 1988.07 207.721 L1985.33 218.94 Q1985.19 219.502 1985.04 219.713 Q1984.9 219.9 1984.62 219.9 Q1984.32 219.9 1984.15 219.736 Q1983.99 219.572 1983.99 219.385 Q1983.99 219.198 1984.13 218.846 Q1984.48 217.324 1984.48 216.504 Q1984.48 216.036 1984.44 215.801 Q1984.41 215.567 1984.2 215.239 Q1984.01 214.888 1983.59 214.724 Q1983.17 214.56 1982.37 214.443 Q1981.58 214.302 1980.38 214.302 L1975.65 214.302 L1972.37 227.396 Q1972.14 228.262 1972.14 228.496 Q1972.14 228.754 1972.26 228.848 Q1972.4 228.918 1972.77 228.965 Q1973.19 229.035 1973.83 229.035 L1980.83 229.035 Q1982.37 229.035 1983.62 228.895 Q1984.86 228.754 1985.89 228.403 Q1986.94 228.051 1987.74 227.653 Q1988.53 227.255 1989.28 226.529 Q1990.03 225.779 1990.55 225.124 Q1991.09 224.444 1991.72 223.297 Q1992.35 222.149 1992.8 221.212 Q1993.24 220.252 1993.92 218.706 Q1994.11 218.144 1994.55 218.144 Q1994.81 218.144 1994.95 218.284 Q1995.09 218.401 1995.12 218.518 L1995.12 218.659 Q1994.98 219.104 1994.88 219.338 L1990.48 229.691 Q1990.22 230.276 1990.01 230.394 Q1989.8 230.511 1988.98 230.511 L1964.08 230.511 Q1963.52 230.511 1963.29 230.487 Q1963.07 230.464 1962.91 230.347 Q1962.75 230.206 1962.75 229.925 Q1962.75 229.48 1962.93 229.293 Q1963.12 229.082 1963.33 229.059 Q1963.54 229.035 1964.08 229.035 Q1965.25 229.035 1965.96 228.965 Q1966.66 228.895 1967.1 228.801 Q1967.57 228.684 1967.81 228.356 Q1968.06 228.028 1968.18 227.747 Q1968.3 227.442 1968.46 226.763 L1974.79 201.397 Q1975.02 200.53 1975.02 200.249 Q1975.02 199.944 1974.81 199.757 Q1974.62 199.57 1974.11 199.499 Q1973.59 199.406 1973.17 199.406 Q1972.77 199.382 1971.9 199.382 Q1971.34 199.382 1971.11 199.359 Q1970.9 199.335 1970.73 199.218 Q1970.57 199.101 1970.57 198.844 Q1970.57 198.188 1970.85 198.047 Q1971.16 197.883 1972 197.883 L1996.22 197.883 Q1997.18 197.883 1997.39 198.094 Q1997.62 198.281 1997.53 199.195 Z" fill="#000000" fill-rule="nonzero" fill-opacity="1" /><path clip-path="url(#clip010)" d="M2023.41 212.475 Q2023.41 213.787 2022.59 214.537 Q2021.77 215.263 2020.83 215.263 Q2019.94 215.263 2019.48 214.747 Q2019.01 214.232 2019.01 213.576 Q2019.01 212.686 2019.66 211.913 Q2020.32 211.14 2021.3 210.976 Q2020.34 210.367 2018.91 210.367 Q2017.98 210.367 2017.16 210.859 Q2016.36 211.351 2015.87 211.984 Q2015.4 212.616 2014.98 213.529 Q2014.58 214.419 2014.42 214.958 Q2014.28 215.474 2014.16 216.036 L2012.52 222.594 Q2011.72 225.709 2011.72 226.81 Q2011.72 228.168 2012.38 229.082 Q2013.03 229.972 2014.35 229.972 Q2014.86 229.972 2015.45 229.831 Q2016.03 229.668 2016.78 229.246 Q2017.56 228.801 2018.23 228.145 Q2018.94 227.466 2019.62 226.318 Q2020.3 225.17 2020.74 223.695 Q2020.88 223.179 2021.35 223.179 Q2021.94 223.179 2021.94 223.648 Q2021.94 224.046 2021.61 224.889 Q2021.3 225.709 2020.62 226.787 Q2019.97 227.841 2019.1 228.801 Q2018.23 229.738 2016.95 230.394 Q2015.66 231.049 2014.25 231.049 Q2012.24 231.049 2010.9 229.972 Q2009.57 228.895 2009.08 227.396 Q2008.96 227.606 2008.8 227.887 Q2008.63 228.168 2008.14 228.801 Q2007.67 229.41 2007.13 229.878 Q2006.59 230.323 2005.75 230.675 Q2004.93 231.049 2004.04 231.049 Q2002.92 231.049 2001.91 230.722 Q2000.93 230.394 2000.22 229.644 Q1999.52 228.895 1999.52 227.864 Q1999.52 226.716 2000.29 225.92 Q2001.09 225.1 2002.17 225.1 Q2002.85 225.1 2003.38 225.498 Q2003.95 225.896 2003.95 226.763 Q2003.95 227.723 2003.29 228.45 Q2002.64 229.176 2001.7 229.363 Q2002.66 229.972 2004.09 229.972 Q2005.63 229.972 2006.85 228.613 Q2008.07 227.255 2008.65 224.983 Q2010.11 219.526 2010.67 217.09 Q2011.23 214.63 2011.23 213.576 Q2011.23 212.593 2010.97 211.913 Q2010.72 211.234 2010.27 210.93 Q2009.85 210.602 2009.45 210.485 Q2009.08 210.367 2008.65 210.367 Q2007.95 210.367 2007.16 210.648 Q2006.38 210.93 2005.45 211.585 Q2004.53 212.218 2003.67 213.529 Q2002.8 214.841 2002.21 216.645 Q2002.1 217.183 2001.58 217.183 Q2001.02 217.16 2001.02 216.691 Q2001.02 216.293 2001.32 215.474 Q2001.65 214.63 2002.31 213.576 Q2002.99 212.522 2003.85 211.585 Q2004.74 210.625 2006.03 209.969 Q2007.34 209.313 2008.75 209.313 Q2009.38 209.313 2009.99 209.454 Q2010.62 209.571 2011.37 209.922 Q2012.14 210.274 2012.82 211.047 Q2013.5 211.82 2013.92 212.944 Q2014.21 212.405 2014.58 211.89 Q2014.98 211.375 2015.59 210.742 Q2016.22 210.086 2017.09 209.712 Q2017.98 209.313 2018.96 209.313 Q2019.92 209.313 2020.86 209.571 Q2021.79 209.805 2022.59 210.578 Q2023.41 211.328 2023.41 212.475 Z" fill="#000000" fill-rule="nonzero" fill-opacity="1" /><path clip-path="url(#clip010)" d="M2048.48 216.973 Q2048.48 220.392 2046.74 223.695 Q2045.03 226.997 2042.34 229.035 Q2039.65 231.049 2036.91 231.049 Q2035.27 231.049 2034.17 230.159 Q2033.09 229.246 2032.5 227.958 Q2032.06 229.55 2031.1 233.368 Q2030.14 237.186 2030.14 237.561 Q2030.14 237.772 2030.18 237.865 Q2030.23 237.959 2030.44 238.076 Q2030.65 238.217 2031.17 238.264 Q2031.68 238.334 2032.55 238.334 Q2033 238.334 2033.16 238.334 Q2033.35 238.357 2033.51 238.474 Q2033.7 238.591 2033.7 238.849 Q2033.7 239.809 2032.83 239.809 Q2032.06 239.809 2030.47 239.739 Q2028.87 239.669 2028.08 239.669 Q2027.4 239.669 2026.04 239.739 Q2024.68 239.809 2024.05 239.809 Q2023.42 239.809 2023.42 239.247 Q2023.42 238.919 2023.51 238.709 Q2023.58 238.521 2023.77 238.428 Q2023.95 238.357 2024.12 238.334 Q2024.26 238.334 2024.54 238.334 Q2025.62 238.334 2026.09 238.146 Q2026.55 237.982 2026.72 237.631 Q2026.91 237.303 2027.12 236.366 L2032.5 215.005 Q2032.83 213.576 2032.83 212.569 Q2032.83 211.304 2032.43 210.836 Q2032.03 210.367 2031.33 210.367 Q2030.11 210.367 2029.32 211.82 Q2028.52 213.272 2027.84 216.082 Q2027.63 216.855 2027.49 217.019 Q2027.37 217.183 2027.02 217.183 Q2026.44 217.16 2026.44 216.691 Q2026.44 216.574 2026.62 215.825 Q2026.81 215.052 2027.16 213.928 Q2027.54 212.78 2027.94 212.054 Q2028.17 211.562 2028.38 211.234 Q2028.59 210.906 2029.01 210.391 Q2029.46 209.876 2030.09 209.594 Q2030.72 209.313 2031.5 209.313 Q2033 209.313 2034.24 210.203 Q2035.48 211.094 2035.81 212.897 Q2037.14 211.328 2038.78 210.321 Q2040.42 209.313 2042.08 209.313 Q2044.85 209.313 2046.65 211.468 Q2048.48 213.6 2048.48 216.973 M2045.01 214.865 Q2045.01 212.733 2044.19 211.562 Q2043.39 210.367 2041.94 210.367 Q2040.14 210.367 2038.05 212.194 Q2035.99 213.928 2035.57 215.544 L2033.21 224.936 L2033.07 225.709 Q2033.07 225.85 2033.14 226.271 Q2033.23 226.669 2033.49 227.325 Q2033.77 227.981 2034.14 228.567 Q2034.54 229.129 2035.24 229.55 Q2035.97 229.972 2036.86 229.972 Q2038.29 229.972 2039.83 228.707 Q2041.4 227.442 2042.57 225.053 Q2043.3 223.507 2044.14 220.181 Q2045.01 216.832 2045.01 214.865 Z" fill="#000000" fill-rule="nonzero" fill-opacity="1" /><path clip-path="url(#clip010)" d="M2069.39 224.96 Q2069.58 225.17 2069.58 225.381 Q2069.58 225.592 2069.11 226.201 Q2068.66 226.81 2067.7 227.63 Q2066.74 228.45 2065.5 229.222 Q2064.26 229.995 2062.43 230.511 Q2060.61 231.049 2058.69 231.049 Q2055.24 231.049 2053.18 228.59 Q2051.14 226.131 2051.14 222.36 Q2051.14 219.947 2051.94 217.816 Q2052.74 215.661 2054.03 214.138 Q2055.34 212.616 2056.98 211.515 Q2058.64 210.391 2060.37 209.852 Q2062.11 209.313 2063.72 209.313 Q2066.09 209.313 2067.47 210.508 Q2068.85 211.702 2068.85 213.389 Q2068.85 213.787 2068.73 214.279 Q2068.64 214.771 2068.31 215.544 Q2068.01 216.317 2067.21 217.09 Q2066.42 217.839 2065.24 218.331 Q2062.64 219.432 2057.91 219.432 L2055.36 219.432 Q2054.61 222.453 2054.61 224.421 Q2054.61 225.194 2054.75 225.99 Q2054.89 226.763 2055.27 227.747 Q2055.67 228.731 2056.56 229.363 Q2057.47 229.972 2058.78 229.972 Q2059.2 229.972 2059.65 229.949 Q2060.12 229.925 2061.29 229.668 Q2062.48 229.41 2063.54 228.965 Q2064.59 228.52 2065.92 227.559 Q2067.28 226.576 2068.36 225.241 Q2068.73 224.749 2068.99 224.749 Q2069.2 224.749 2069.39 224.96 M2067.26 213.389 Q2067.26 212.101 2066.3 211.234 Q2065.36 210.367 2063.72 210.367 Q2063.21 210.367 2062.57 210.485 Q2061.94 210.602 2060.89 211.094 Q2059.86 211.585 2058.94 212.405 Q2058.03 213.202 2057.12 214.771 Q2056.2 216.317 2055.67 218.378 L2057.63 218.378 Q2058.31 218.378 2058.8 218.378 Q2059.3 218.354 2060.37 218.261 Q2061.47 218.167 2062.27 218.003 Q2063.07 217.816 2064.07 217.441 Q2065.08 217.066 2065.71 216.574 Q2066.37 216.059 2066.81 215.239 Q2067.26 214.419 2067.26 213.389 Z" fill="#000000" fill-rule="nonzero" fill-opacity="1" /><path clip-path="url(#clip010)" d="M2091.85 212.429 Q2091.85 213.67 2091.03 214.466 Q2090.23 215.263 2089.2 215.263 Q2088.31 215.263 2087.84 214.747 Q2087.37 214.232 2087.37 213.576 Q2087.37 212.639 2088.1 211.866 Q2088.82 211.094 2089.88 210.93 Q2089.1 210.367 2087.86 210.367 Q2085.83 210.367 2084.02 211.937 Q2083.23 212.663 2082.36 213.998 Q2081.49 215.31 2081.33 215.872 L2079.81 222.125 Q2079.67 222.828 2078.8 226.201 Q2077.96 229.55 2077.89 229.691 Q2077.65 230.347 2077.14 230.698 Q2076.62 231.049 2076.11 231.049 Q2075.52 231.049 2075.12 230.698 Q2074.72 230.347 2074.72 229.738 Q2074.72 229.644 2074.79 229.293 Q2074.86 228.941 2074.98 228.45 Q2075.1 227.958 2075.15 227.677 L2077.93 216.598 Q2078.45 214.583 2078.56 213.951 Q2078.71 213.295 2078.71 212.569 Q2078.71 211.304 2078.31 210.836 Q2077.91 210.367 2077.21 210.367 Q2075.99 210.367 2075.19 211.82 Q2074.4 213.272 2073.72 216.082 Q2073.51 216.855 2073.37 217.019 Q2073.25 217.183 2072.9 217.183 Q2072.31 217.16 2072.31 216.691 Q2072.31 216.574 2072.5 215.825 Q2072.69 215.052 2073.04 213.928 Q2073.41 212.78 2073.81 212.054 Q2074.04 211.562 2074.26 211.234 Q2074.47 210.906 2074.89 210.391 Q2075.31 209.876 2075.94 209.594 Q2076.57 209.313 2077.35 209.313 Q2079.03 209.313 2080.23 210.344 Q2081.45 211.375 2081.73 212.991 Q2082.31 212.148 2083.04 211.421 Q2083.76 210.672 2085.1 209.993 Q2086.43 209.313 2087.86 209.313 Q2089.64 209.313 2090.74 210.227 Q2091.85 211.117 2091.85 212.429 Z" fill="#000000" fill-rule="nonzero" fill-opacity="1" /><path clip-path="url(#clip010)" d="M2105.42 200.53 Q2105.42 201.561 2104.58 202.334 Q2103.76 203.083 2102.87 203.083 Q2102.05 203.083 2101.53 202.591 Q2101.04 202.076 2101.04 201.35 Q2101.04 200.389 2101.86 199.593 Q2102.68 198.797 2103.64 198.797 Q2104.44 198.797 2104.93 199.289 Q2105.42 199.78 2105.42 200.53 M2105.84 223.648 Q2105.84 223.835 2105.63 224.585 Q2105.42 225.311 2104.9 226.435 Q2104.41 227.536 2103.73 228.567 Q2103.05 229.597 2101.93 230.323 Q2100.83 231.049 2099.56 231.049 Q2097.85 231.049 2096.73 229.925 Q2095.63 228.801 2095.63 227.114 Q2095.63 226.201 2096.73 223.273 Q2099.92 214.747 2100.03 214.396 Q2100.57 213.061 2100.57 211.89 Q2100.57 211.351 2100.45 211.023 Q2100.34 210.672 2100.1 210.555 Q2099.87 210.414 2099.73 210.391 Q2099.61 210.367 2099.38 210.367 Q2097.99 210.367 2096.71 211.773 Q2095.42 213.178 2094.53 216.317 Q2094.34 216.902 2094.22 217.043 Q2094.11 217.183 2093.76 217.183 Q2093.17 217.16 2093.17 216.691 Q2093.17 216.551 2093.33 216.012 Q2093.5 215.45 2093.8 214.607 Q2094.11 213.74 2094.65 212.85 Q2095.18 211.937 2095.84 211.14 Q2096.52 210.344 2097.48 209.829 Q2098.44 209.313 2099.52 209.313 Q2101.27 209.313 2102.35 210.461 Q2103.45 211.585 2103.45 213.248 Q2103.45 214.162 2102.82 215.778 Q2102.05 217.886 2101.77 218.565 L2099.89 223.601 Q2099.21 225.428 2099 225.99 Q2098.81 226.529 2098.65 227.185 Q2098.51 227.817 2098.51 228.403 Q2098.51 229.222 2098.77 229.597 Q2099.05 229.972 2099.66 229.972 Q2101.34 229.972 2102.59 228.309 Q2103.83 226.623 2104.55 224.046 Q2104.58 223.976 2104.6 223.859 Q2104.79 223.273 2104.97 223.203 Q2105.07 223.179 2105.26 223.179 Q2105.84 223.179 2105.84 223.648 Z" fill="#000000" fill-rule="nonzero" fill-opacity="1" /><path clip-path="url(#clip010)" d="M2149.23 223.648 Q2149.23 223.835 2149.02 224.561 Q2148.81 225.288 2148.29 226.412 Q2147.8 227.536 2147.1 228.567 Q2146.42 229.574 2145.3 230.323 Q2144.2 231.049 2142.93 231.049 Q2141.24 231.049 2140.12 229.925 Q2139 228.801 2139 227.114 Q2139 226.201 2139.63 224.468 Q2142.6 216.551 2142.6 213.717 Q2142.6 210.367 2140 210.367 Q2138.53 210.367 2137.19 210.976 Q2135.86 211.585 2134.99 212.429 Q2134.12 213.272 2133.44 214.232 Q2132.76 215.192 2132.46 215.825 Q2132.18 216.457 2132.11 216.738 L2129.23 228.309 Q2128.99 229.293 2128.83 229.761 Q2128.67 230.23 2128.22 230.628 Q2127.78 231.049 2127.07 231.049 Q2126.49 231.049 2126.07 230.698 Q2125.67 230.347 2125.67 229.738 Q2125.67 229.644 2125.78 229.152 Q2125.9 228.66 2126.07 227.981 Q2126.23 227.302 2126.3 226.904 Q2127.14 223.718 2127.26 223.273 L2128.6 217.699 Q2129.32 214.935 2129.32 213.717 Q2129.32 210.367 2126.72 210.367 Q2125.43 210.367 2124.22 210.859 Q2123.02 211.328 2122.2 211.984 Q2121.38 212.639 2120.63 213.553 Q2119.91 214.443 2119.53 215.052 Q2119.18 215.637 2118.9 216.223 L2118.29 218.612 Q2118.15 219.268 2117.47 221.821 L2116.42 226.154 Q2115.67 229.386 2115.5 229.691 Q2115.27 230.347 2114.75 230.698 Q2114.24 231.049 2113.72 231.049 Q2113.14 231.049 2112.74 230.698 Q2112.34 230.347 2112.34 229.738 Q2112.34 229.644 2112.41 229.293 Q2112.48 228.941 2112.6 228.45 Q2112.72 227.958 2112.76 227.677 L2115.55 216.598 Q2116.06 214.583 2116.18 213.951 Q2116.32 213.295 2116.32 212.569 Q2116.32 210.367 2114.82 210.367 Q2113.61 210.367 2112.81 211.82 Q2112.01 213.272 2111.33 216.082 Q2111.12 216.855 2110.98 217.019 Q2110.86 217.183 2110.51 217.183 Q2109.93 217.16 2109.93 216.691 Q2109.93 216.574 2110.12 215.825 Q2110.3 215.075 2110.65 213.951 Q2111.03 212.803 2111.43 212.054 Q2111.66 211.562 2111.87 211.234 Q2112.08 210.906 2112.5 210.391 Q2112.93 209.876 2113.56 209.594 Q2114.19 209.313 2114.96 209.313 Q2116.67 209.313 2117.94 210.414 Q2119.23 211.515 2119.39 213.483 Q2122.51 209.313 2126.86 209.313 Q2129.32 209.313 2130.8 210.555 Q2132.18 211.749 2132.34 213.951 Q2135.58 209.313 2140.17 209.313 Q2142.81 209.313 2144.24 210.695 Q2145.67 212.054 2145.67 214.443 Q2145.67 215.684 2145.04 218.05 Q2144.41 220.392 2143.98 221.563 Q2143.56 222.734 2142.74 224.983 Q2141.88 227.138 2141.88 228.403 Q2141.88 229.222 2142.16 229.597 Q2142.44 229.972 2143.05 229.972 Q2143.98 229.972 2144.8 229.433 Q2145.62 228.871 2146.21 227.958 Q2146.82 227.021 2147.22 226.084 Q2147.61 225.124 2147.92 224.046 Q2148.11 223.461 2148.2 223.32 Q2148.32 223.179 2148.65 223.179 Q2149.23 223.179 2149.23 223.648 Z" fill="#000000" fill-rule="nonzero" fill-opacity="1" /><path clip-path="url(#clip010)" d="M2170.64 224.96 Q2170.83 225.17 2170.83 225.381 Q2170.83 225.592 2170.36 226.201 Q2169.92 226.81 2168.96 227.63 Q2168 228.45 2166.76 229.222 Q2165.51 229.995 2163.69 230.511 Q2161.86 231.049 2159.94 231.049 Q2156.5 231.049 2154.44 228.59 Q2152.4 226.131 2152.4 222.36 Q2152.4 219.947 2153.19 217.816 Q2153.99 215.661 2155.28 214.138 Q2156.59 212.616 2158.23 211.515 Q2159.89 210.391 2161.63 209.852 Q2163.36 209.313 2164.98 209.313 Q2167.34 209.313 2168.72 210.508 Q2170.11 211.702 2170.11 213.389 Q2170.11 213.787 2169.99 214.279 Q2169.89 214.771 2169.57 215.544 Q2169.26 216.317 2168.47 217.09 Q2167.67 217.839 2166.5 218.331 Q2163.9 219.432 2159.17 219.432 L2156.61 219.432 Q2155.86 222.453 2155.86 224.421 Q2155.86 225.194 2156 225.99 Q2156.15 226.763 2156.52 227.747 Q2156.92 228.731 2157.81 229.363 Q2158.72 229.972 2160.03 229.972 Q2160.45 229.972 2160.9 229.949 Q2161.37 229.925 2162.54 229.668 Q2163.73 229.41 2164.79 228.965 Q2165.84 228.52 2167.18 227.559 Q2168.54 226.576 2169.61 225.241 Q2169.99 224.749 2170.25 224.749 Q2170.46 224.749 2170.64 224.96 M2168.51 213.389 Q2168.51 212.101 2167.55 211.234 Q2166.62 210.367 2164.98 210.367 Q2164.46 210.367 2163.83 210.485 Q2163.2 210.602 2162.14 211.094 Q2161.11 211.585 2160.2 212.405 Q2159.28 213.202 2158.37 214.771 Q2157.46 216.317 2156.92 218.378 L2158.89 218.378 Q2159.56 218.378 2160.06 218.378 Q2160.55 218.354 2161.63 218.261 Q2162.73 218.167 2163.52 218.003 Q2164.32 217.816 2165.33 217.441 Q2166.33 217.066 2166.97 216.574 Q2167.62 216.059 2168.07 215.239 Q2168.51 214.419 2168.51 213.389 Z" fill="#000000" fill-rule="nonzero" fill-opacity="1" /><path clip-path="url(#clip010)" d="M2199.56 223.648 Q2199.56 223.835 2199.35 224.561 Q2199.14 225.288 2198.63 226.412 Q2198.13 227.536 2197.46 228.567 Q2196.78 229.574 2195.65 230.323 Q2194.55 231.049 2193.29 231.049 Q2191.6 231.049 2190.48 229.925 Q2189.35 228.801 2189.35 227.114 Q2189.35 226.178 2189.84 224.889 Q2192.96 216.574 2192.96 213.717 Q2192.96 210.367 2190.36 210.367 Q2189.07 210.367 2187.85 210.859 Q2186.66 211.328 2185.84 211.984 Q2185.02 212.639 2184.27 213.553 Q2183.54 214.443 2183.17 215.052 Q2182.82 215.637 2182.53 216.223 L2181.93 218.612 Q2181.79 219.268 2181.11 221.821 L2180.05 226.154 Q2179.3 229.386 2179.14 229.691 Q2178.9 230.347 2178.39 230.698 Q2177.87 231.049 2177.36 231.049 Q2176.77 231.049 2176.37 230.698 Q2175.98 230.347 2175.98 229.738 Q2175.98 229.644 2176.05 229.293 Q2176.12 228.941 2176.23 228.45 Q2176.35 227.958 2176.4 227.677 L2179.19 216.598 Q2179.7 214.583 2179.82 213.951 Q2179.96 213.295 2179.96 212.569 Q2179.96 210.367 2178.46 210.367 Q2177.24 210.367 2176.45 211.82 Q2175.65 213.272 2174.97 216.082 Q2174.76 216.855 2174.62 217.019 Q2174.5 217.183 2174.15 217.183 Q2173.56 217.16 2173.56 216.691 Q2173.56 216.574 2173.75 215.801 Q2173.94 215.028 2174.29 213.928 Q2174.66 212.803 2175.02 212.054 Q2175.32 211.492 2175.48 211.234 Q2175.67 210.953 2176.12 210.414 Q2176.59 209.852 2177.19 209.594 Q2177.83 209.313 2178.6 209.313 Q2180.33 209.313 2181.6 210.438 Q2182.86 211.539 2183.03 213.483 Q2186.14 209.313 2190.5 209.313 Q2193.08 209.313 2194.55 210.672 Q2196.03 212.03 2196.03 214.443 Q2196.03 215.005 2195.91 215.731 Q2195.82 216.434 2195.58 217.324 Q2195.37 218.214 2195.18 218.893 Q2195 219.572 2194.62 220.673 Q2194.25 221.751 2194.08 222.219 Q2193.92 222.688 2193.52 223.788 Q2193.15 224.866 2193.1 224.983 Q2192.23 227.161 2192.23 228.403 Q2192.23 229.222 2192.49 229.597 Q2192.77 229.972 2193.38 229.972 Q2195.02 229.972 2196.24 228.356 Q2197.48 226.716 2198.27 224.046 Q2198.46 223.461 2198.56 223.32 Q2198.67 223.179 2199 223.179 Q2199.56 223.179 2199.56 223.648 Z" fill="#000000" fill-rule="nonzero" fill-opacity="1" /><path clip-path="url(#clip010)" d="M2216.97 210.367 Q2216.97 211.023 2216.67 211.187 Q2216.36 211.328 2215.52 211.328 L2211.02 211.328 L2207.46 225.475 Q2207.18 226.716 2207.18 227.77 Q2207.18 228.941 2207.53 229.457 Q2207.91 229.972 2208.68 229.972 Q2210.2 229.972 2211.84 228.59 Q2213.5 227.208 2214.91 223.835 Q2215.1 223.39 2215.19 223.297 Q2215.31 223.179 2215.61 223.179 Q2216.2 223.179 2216.2 223.648 Q2216.2 223.812 2215.87 224.561 Q2215.56 225.311 2214.89 226.412 Q2214.23 227.513 2213.36 228.543 Q2212.52 229.574 2211.23 230.323 Q2209.94 231.049 2208.56 231.049 Q2206.62 231.049 2205.38 229.808 Q2204.16 228.567 2204.16 226.623 Q2204.16 225.99 2204.65 223.976 Q2205.14 221.938 2207.81 211.328 L2203.57 211.328 Q2202.99 211.328 2202.75 211.304 Q2202.54 211.281 2202.38 211.164 Q2202.24 211.023 2202.24 210.742 Q2202.24 210.297 2202.42 210.11 Q2202.61 209.899 2202.85 209.876 Q2203.1 209.829 2203.69 209.829 L2208.19 209.829 L2210.06 202.216 Q2210.25 201.467 2210.72 201.045 Q2211.21 200.6 2211.49 200.553 Q2211.77 200.483 2211.98 200.483 Q2212.61 200.483 2212.99 200.834 Q2213.36 201.162 2213.36 201.771 Q2213.36 202.099 2211.4 209.829 L2215.61 209.829 Q2216.15 209.829 2216.36 209.852 Q2216.6 209.876 2216.78 209.993 Q2216.97 210.11 2216.97 210.367 Z" fill="#000000" fill-rule="nonzero" fill-opacity="1" /><path clip-path="url(#clip010)" d="M2240.86 223.648 Q2240.22 226.669 2239.4 228.403 Q2238.09 231.049 2235.87 231.049 Q2234.18 231.049 2232.99 230.019 Q2231.79 228.988 2231.51 227.442 Q2228.44 231.049 2225.26 231.049 Q2222.45 231.049 2220.67 228.918 Q2218.89 226.763 2218.89 223.367 Q2218.89 219.947 2220.57 216.668 Q2222.28 213.389 2224.98 211.351 Q2227.67 209.313 2230.43 209.313 Q2233.36 209.313 2234.86 212.382 Q2234.98 211.539 2235.52 210.906 Q2236.06 210.274 2236.87 210.274 Q2237.51 210.274 2237.88 210.625 Q2238.26 210.953 2238.26 211.562 Q2238.26 211.866 2237.93 213.202 L2236.2 219.9 L2235.14 224.234 Q2234.74 225.826 2234.63 226.412 Q2234.53 226.997 2234.53 227.77 Q2234.53 229.972 2235.96 229.972 Q2236.66 229.972 2237.23 229.527 Q2237.79 229.082 2238.23 228.145 Q2238.68 227.208 2238.96 226.342 Q2239.24 225.451 2239.62 224.046 Q2239.73 223.484 2239.83 223.343 Q2239.94 223.179 2240.27 223.179 Q2240.86 223.179 2240.86 223.648 M2234.27 214.583 Q2234.27 214.373 2234.11 213.787 Q2233.95 213.202 2233.57 212.382 Q2233.2 211.562 2232.38 210.976 Q2231.58 210.367 2230.5 210.367 Q2229.05 210.367 2227.53 211.609 Q2226.03 212.85 2224.93 214.958 Q2224.09 216.645 2223.17 220.181 Q2222.28 223.718 2222.28 225.475 Q2222.28 226.552 2222.52 227.513 Q2222.77 228.45 2223.5 229.222 Q2224.23 229.972 2225.35 229.972 Q2228.09 229.972 2230.79 226.576 Q2231.3 225.99 2231.42 225.756 Q2231.56 225.498 2231.75 224.796 L2234.13 215.403 Q2234.27 214.701 2234.27 214.583 Z" fill="#000000" fill-rule="nonzero" fill-opacity="1" /><path clip-path="url(#clip010)" d="M2254.07 197.743 L2247.16 225.475 Q2246.88 226.576 2246.88 227.77 Q2246.88 229.972 2248.33 229.972 Q2249.01 229.972 2249.57 229.527 Q2250.14 229.059 2250.56 228.145 Q2251 227.208 2251.28 226.318 Q2251.59 225.428 2251.96 224.046 Q2252.08 223.507 2252.2 223.343 Q2252.32 223.179 2252.64 223.179 Q2253.23 223.179 2253.23 223.648 Q2252.64 226.529 2251.78 228.356 Q2250.51 231.049 2248.17 231.049 Q2246.41 231.049 2245.1 229.831 Q2243.81 228.59 2243.81 226.623 Q2243.81 225.873 2244.05 224.983 L2250.09 200.998 L2250.25 200.062 Q2250.25 199.804 2250.16 199.663 Q2250.07 199.523 2249.5 199.382 Q2248.97 199.242 2247.89 199.242 Q2247.44 199.242 2247.23 199.218 Q2247.05 199.195 2246.86 199.078 Q2246.69 198.961 2246.69 198.703 Q2246.69 198.281 2246.86 198.047 Q2247.05 197.813 2247.19 197.766 Q2247.33 197.719 2247.61 197.696 Q2248.01 197.672 2249.34 197.555 Q2250.68 197.415 2251.82 197.321 Q2252.97 197.227 2253.46 197.227 Q2253.74 197.227 2253.88 197.368 Q2254.05 197.485 2254.07 197.626 L2254.07 197.743 Z" fill="#000000" fill-rule="nonzero" fill-opacity="1" /><polyline clip-path="url(#clip010)" style="stroke:#ff9bff; stroke-linecap:round; stroke-linejoin:round; stroke-width:8; stroke-opacity:1; fill:none" stroke-dasharray="32, 20" points="1796.86,270.476 1939.05,270.476 "/>
<path clip-path="url(#clip010)" d="M1996.8 253.364 L1993.78 265.591 Q1993.57 266.364 1993.43 266.457 Q1993.31 266.551 1992.94 266.551 Q1992.21 266.551 1992.21 266.059 Q1992.21 266.012 1992.28 265.403 Q1992.35 264.771 1992.35 263.623 Q1992.35 259.384 1990.29 256.878 Q1988.25 254.371 1984.62 254.371 Q1981.48 254.371 1978.32 255.964 Q1975.18 257.557 1972.94 260.157 Q1971.25 262.124 1970.01 264.607 Q1968.79 267.09 1968.2 269.362 Q1967.64 271.634 1967.38 273.344 Q1967.13 275.054 1967.13 276.295 Q1967.13 278.098 1967.5 279.621 Q1967.9 281.143 1968.6 282.221 Q1969.31 283.275 1970.2 284.095 Q1971.11 284.891 1972.16 285.359 Q1973.24 285.828 1974.32 286.062 Q1975.39 286.273 1976.52 286.273 Q1981.04 286.273 1985.35 282.759 Q1988.77 279.879 1990.2 275.171 Q1990.32 274.702 1990.81 274.702 Q1991.39 274.702 1991.39 275.171 Q1991.39 275.264 1991.28 275.733 Q1991.16 276.178 1990.81 277.091 Q1990.46 277.981 1989.92 278.988 Q1989.38 279.996 1988.37 281.26 Q1987.36 282.525 1986.12 283.626 Q1984.01 285.453 1981.34 286.601 Q1978.67 287.748 1975.75 287.748 Q1972.09 287.748 1969.14 286.132 Q1966.19 284.516 1964.46 281.495 Q1962.75 278.473 1962.75 274.608 Q1962.75 270.533 1964.62 266.528 Q1966.49 262.523 1969.47 259.548 Q1972.44 256.573 1976.38 254.723 Q1980.31 252.872 1984.25 252.872 Q1985.75 252.872 1987.08 253.271 Q1988.42 253.669 1989.21 254.161 Q1990.03 254.653 1990.76 255.379 Q1991.49 256.081 1991.72 256.409 Q1991.98 256.737 1992.21 257.135 L1995.56 253.458 Q1996.15 252.872 1996.29 252.872 Q1996.57 252.872 1996.69 253.036 Q1996.8 253.2 1996.8 253.364 Z" fill="#000000" fill-rule="nonzero" fill-opacity="1" /><path clip-path="url(#clip010)" d="M2022.51 279.832 Q2021.88 282.853 2021.06 284.586 Q2019.75 287.233 2017.52 287.233 Q2015.84 287.233 2014.64 286.203 Q2013.45 285.172 2013.17 283.626 Q2010.1 287.233 2006.91 287.233 Q2004.1 287.233 2002.32 285.102 Q2000.54 282.947 2000.54 279.551 Q2000.54 276.131 2002.23 272.852 Q2003.94 269.573 2006.63 267.535 Q2009.33 265.497 2012.09 265.497 Q2015.02 265.497 2016.52 268.565 Q2016.63 267.722 2017.17 267.09 Q2017.71 266.457 2018.53 266.457 Q2019.16 266.457 2019.54 266.809 Q2019.91 267.137 2019.91 267.746 Q2019.91 268.05 2019.58 269.385 L2017.85 276.084 L2016.8 280.417 Q2016.4 282.01 2016.28 282.596 Q2016.19 283.181 2016.19 283.954 Q2016.19 286.156 2017.62 286.156 Q2018.32 286.156 2018.88 285.711 Q2019.44 285.266 2019.89 284.329 Q2020.33 283.392 2020.61 282.525 Q2020.9 281.635 2021.27 280.23 Q2021.39 279.668 2021.48 279.527 Q2021.6 279.363 2021.93 279.363 Q2022.51 279.363 2022.51 279.832 M2015.93 270.767 Q2015.93 270.556 2015.77 269.971 Q2015.6 269.385 2015.23 268.565 Q2014.85 267.746 2014.03 267.16 Q2013.24 266.551 2012.16 266.551 Q2010.71 266.551 2009.18 267.793 Q2007.69 269.034 2006.58 271.142 Q2005.74 272.828 2004.83 276.365 Q2003.94 279.902 2003.94 281.659 Q2003.94 282.736 2004.17 283.696 Q2004.43 284.633 2005.16 285.406 Q2005.88 286.156 2007.01 286.156 Q2009.75 286.156 2012.44 282.759 Q2012.96 282.174 2013.07 281.94 Q2013.21 281.682 2013.4 280.979 L2015.79 271.587 Q2015.93 270.884 2015.93 270.767 Z" fill="#000000" fill-rule="nonzero" fill-opacity="1" /><path clip-path="url(#clip010)" d="M2035.73 253.926 L2028.82 281.659 Q2028.54 282.759 2028.54 283.954 Q2028.54 286.156 2029.99 286.156 Q2030.67 286.156 2031.23 285.711 Q2031.79 285.242 2032.21 284.329 Q2032.66 283.392 2032.94 282.502 Q2033.24 281.612 2033.62 280.23 Q2033.74 279.691 2033.85 279.527 Q2033.97 279.363 2034.3 279.363 Q2034.88 279.363 2034.88 279.832 Q2034.3 282.713 2033.43 284.54 Q2032.17 287.233 2029.82 287.233 Q2028.07 287.233 2026.76 286.015 Q2025.47 284.774 2025.47 282.806 Q2025.47 282.057 2025.7 281.167 L2031.75 257.182 L2031.91 256.245 Q2031.91 255.988 2031.82 255.847 Q2031.72 255.707 2031.16 255.566 Q2030.62 255.426 2029.54 255.426 Q2029.1 255.426 2028.89 255.402 Q2028.7 255.379 2028.51 255.262 Q2028.35 255.144 2028.35 254.887 Q2028.35 254.465 2028.51 254.231 Q2028.7 253.997 2028.84 253.95 Q2028.98 253.903 2029.26 253.88 Q2029.66 253.856 2031 253.739 Q2032.33 253.599 2033.48 253.505 Q2034.63 253.411 2035.12 253.411 Q2035.4 253.411 2035.54 253.552 Q2035.7 253.669 2035.73 253.809 L2035.73 253.926 Z" fill="#000000" fill-rule="nonzero" fill-opacity="1" /><path clip-path="url(#clip010)" d="M2058.67 281.143 Q2058.86 281.354 2058.86 281.565 Q2058.86 281.776 2058.39 282.385 Q2057.95 282.994 2056.99 283.814 Q2056.03 284.633 2054.78 285.406 Q2053.54 286.179 2051.72 286.694 Q2049.89 287.233 2047.97 287.233 Q2044.38 287.233 2042.28 284.868 Q2040.19 282.502 2040.19 279.106 Q2040.19 275.803 2042.04 272.641 Q2043.89 269.456 2046.89 267.488 Q2049.89 265.497 2053.05 265.497 Q2055.56 265.497 2057.13 266.668 Q2058.7 267.839 2058.7 269.62 Q2058.7 271.001 2057.9 271.845 Q2057.1 272.688 2056.03 272.688 Q2055.28 272.688 2054.76 272.266 Q2054.25 271.821 2054.25 271.001 Q2054.25 269.947 2055.11 269.128 Q2055.44 268.8 2055.81 268.659 Q2056.21 268.495 2056.45 268.495 Q2056.68 268.472 2057.22 268.472 Q2056.73 267.558 2055.56 267.066 Q2054.41 266.551 2053.1 266.551 Q2051.15 266.551 2049.3 267.91 Q2047.45 269.245 2046.33 271.353 Q2045.2 273.414 2044.48 276.342 Q2043.75 279.246 2043.75 280.933 Q2043.75 283.251 2044.83 284.704 Q2045.91 286.156 2048.06 286.156 Q2048.48 286.156 2048.93 286.132 Q2049.4 286.109 2050.57 285.851 Q2051.76 285.594 2052.82 285.149 Q2053.87 284.704 2055.21 283.743 Q2056.56 282.759 2057.64 281.424 Q2058.02 280.933 2058.27 280.933 Q2058.49 280.933 2058.67 281.143 Z" fill="#000000" fill-rule="nonzero" fill-opacity="1" /><path clip-path="url(#clip010)" d="M2084.06 279.832 Q2083.45 282.853 2082.63 284.586 Q2081.3 287.233 2079.07 287.233 Q2077.53 287.233 2076.36 286.367 Q2075.21 285.476 2074.81 284.001 Q2074.36 284.586 2073.97 284.985 Q2073.59 285.383 2072.87 285.992 Q2072.14 286.577 2071.16 286.905 Q2070.2 287.233 2069.09 287.233 Q2068.25 287.233 2067.48 287.069 Q2066.71 286.929 2065.89 286.531 Q2065.09 286.109 2064.5 285.476 Q2063.94 284.844 2063.57 283.814 Q2063.19 282.783 2063.19 281.471 Q2063.19 279.832 2063.82 277.607 Q2064.48 275.381 2065.98 271.4 Q2066.8 269.292 2066.8 268.12 Q2066.8 267.582 2066.68 267.23 Q2066.56 266.879 2066.33 266.762 Q2066.12 266.621 2065.98 266.598 Q2065.84 266.551 2065.6 266.551 Q2064.15 266.551 2062.89 268.027 Q2061.62 269.502 2060.76 272.5 Q2060.57 273.086 2060.45 273.227 Q2060.33 273.367 2059.98 273.367 Q2059.4 273.344 2059.4 272.875 Q2059.4 272.688 2059.61 271.962 Q2059.82 271.212 2060.31 270.111 Q2060.83 268.987 2061.53 267.98 Q2062.23 266.949 2063.33 266.223 Q2064.46 265.497 2065.75 265.497 Q2067.5 265.497 2068.58 266.645 Q2069.68 267.769 2069.68 269.432 Q2069.68 270.463 2068.86 272.454 Q2066.26 279.363 2066.26 282.244 Q2066.26 286.156 2069.23 286.156 Q2070.22 286.156 2071.13 285.758 Q2072.07 285.359 2072.68 284.797 Q2073.29 284.235 2073.76 283.626 Q2074.25 283.017 2074.46 282.619 Q2074.69 282.221 2074.72 282.127 L2078.3 267.699 Q2078.44 267.137 2078.7 266.762 Q2078.98 266.364 2079.31 266.223 Q2079.63 266.083 2079.82 266.059 Q2080.01 266.012 2080.17 266.012 Q2080.76 266.012 2081.16 266.364 Q2081.58 266.715 2081.58 267.324 Q2081.58 267.441 2081.44 268.003 Q2081.32 268.542 2081.13 269.338 Q2080.95 270.111 2080.85 270.533 Q2080.1 273.484 2080.03 273.789 L2078.7 278.965 Q2078.63 279.27 2078.39 280.253 Q2078.18 281.237 2078.07 281.752 Q2077.95 282.244 2077.83 282.923 Q2077.74 283.579 2077.74 283.954 Q2077.74 285.125 2078.09 285.64 Q2078.44 286.156 2079.21 286.156 Q2079.94 286.156 2080.5 285.664 Q2081.09 285.149 2081.53 284.165 Q2081.98 283.158 2082.23 282.338 Q2082.49 281.518 2082.82 280.23 Q2082.94 279.668 2083.03 279.527 Q2083.15 279.363 2083.48 279.363 Q2084.06 279.363 2084.06 279.832 Z" fill="#000000" fill-rule="nonzero" fill-opacity="1" /><path clip-path="url(#clip010)" d="M2097.2 253.926 L2090.29 281.659 Q2090.01 282.759 2090.01 283.954 Q2090.01 286.156 2091.46 286.156 Q2092.14 286.156 2092.7 285.711 Q2093.27 285.242 2093.69 284.329 Q2094.13 283.392 2094.41 282.502 Q2094.72 281.612 2095.09 280.23 Q2095.21 279.691 2095.33 279.527 Q2095.44 279.363 2095.77 279.363 Q2096.36 279.363 2096.36 279.832 Q2095.77 282.713 2094.9 284.54 Q2093.64 287.233 2091.3 287.233 Q2089.54 287.233 2088.23 286.015 Q2086.94 284.774 2086.94 282.806 Q2086.94 282.057 2087.18 281.167 L2093.22 257.182 L2093.38 256.245 Q2093.38 255.988 2093.29 255.847 Q2093.19 255.707 2092.63 255.566 Q2092.09 255.426 2091.02 255.426 Q2090.57 255.426 2090.36 255.402 Q2090.17 255.379 2089.99 255.262 Q2089.82 255.144 2089.82 254.887 Q2089.82 254.465 2089.99 254.231 Q2090.17 253.997 2090.31 253.95 Q2090.45 253.903 2090.74 253.88 Q2091.13 253.856 2092.47 253.739 Q2093.8 253.599 2094.95 253.505 Q2096.1 253.411 2096.59 253.411 Q2096.87 253.411 2097.01 253.552 Q2097.18 253.669 2097.2 253.809 L2097.2 253.926 Z" fill="#000000" fill-rule="nonzero" fill-opacity="1" /><path clip-path="url(#clip010)" d="M2124.4 279.832 Q2123.77 282.853 2122.95 284.586 Q2121.64 287.233 2119.41 287.233 Q2117.73 287.233 2116.53 286.203 Q2115.34 285.172 2115.06 283.626 Q2111.99 287.233 2108.8 287.233 Q2105.99 287.233 2104.21 285.102 Q2102.43 282.947 2102.43 279.551 Q2102.43 276.131 2104.12 272.852 Q2105.83 269.573 2108.52 267.535 Q2111.22 265.497 2113.98 265.497 Q2116.91 265.497 2118.41 268.565 Q2118.52 267.722 2119.06 267.09 Q2119.6 266.457 2120.42 266.457 Q2121.05 266.457 2121.43 266.809 Q2121.8 267.137 2121.8 267.746 Q2121.8 268.05 2121.48 269.385 L2119.74 276.084 L2118.69 280.417 Q2118.29 282.01 2118.17 282.596 Q2118.08 283.181 2118.08 283.954 Q2118.08 286.156 2119.51 286.156 Q2120.21 286.156 2120.77 285.711 Q2121.33 285.266 2121.78 284.329 Q2122.22 283.392 2122.51 282.525 Q2122.79 281.635 2123.16 280.23 Q2123.28 279.668 2123.37 279.527 Q2123.49 279.363 2123.82 279.363 Q2124.4 279.363 2124.4 279.832 M2117.82 270.767 Q2117.82 270.556 2117.66 269.971 Q2117.49 269.385 2117.12 268.565 Q2116.74 267.746 2115.92 267.16 Q2115.13 266.551 2114.05 266.551 Q2112.6 266.551 2111.08 267.793 Q2109.58 269.034 2108.48 271.142 Q2107.63 272.828 2106.72 276.365 Q2105.83 279.902 2105.83 281.659 Q2105.83 282.736 2106.06 283.696 Q2106.32 284.633 2107.05 285.406 Q2107.77 286.156 2108.9 286.156 Q2111.64 286.156 2114.33 282.759 Q2114.85 282.174 2114.96 281.94 Q2115.1 281.682 2115.29 280.979 L2117.68 271.587 Q2117.82 270.884 2117.82 270.767 Z" fill="#000000" fill-rule="nonzero" fill-opacity="1" /><path clip-path="url(#clip010)" d="M2141.32 266.551 Q2141.32 267.207 2141.02 267.371 Q2140.72 267.511 2139.87 267.511 L2135.37 267.511 L2131.81 281.659 Q2131.53 282.9 2131.53 283.954 Q2131.53 285.125 2131.88 285.64 Q2132.26 286.156 2133.03 286.156 Q2134.55 286.156 2136.19 284.774 Q2137.86 283.392 2139.26 280.019 Q2139.45 279.574 2139.54 279.48 Q2139.66 279.363 2139.97 279.363 Q2140.55 279.363 2140.55 279.832 Q2140.55 279.996 2140.22 280.745 Q2139.92 281.495 2139.24 282.596 Q2138.58 283.696 2137.72 284.727 Q2136.87 285.758 2135.59 286.507 Q2134.3 287.233 2132.92 287.233 Q2130.97 287.233 2129.73 285.992 Q2128.51 284.75 2128.51 282.806 Q2128.51 282.174 2129 280.16 Q2129.5 278.122 2132.17 267.511 L2127.93 267.511 Q2127.34 267.511 2127.11 267.488 Q2126.9 267.465 2126.73 267.348 Q2126.59 267.207 2126.59 266.926 Q2126.59 266.481 2126.78 266.294 Q2126.97 266.083 2127.2 266.059 Q2127.46 266.012 2128.04 266.012 L2132.54 266.012 L2134.41 258.4 Q2134.6 257.651 2135.07 257.229 Q2135.56 256.784 2135.84 256.737 Q2136.12 256.667 2136.34 256.667 Q2136.97 256.667 2137.34 257.018 Q2137.72 257.346 2137.72 257.955 Q2137.72 258.283 2135.75 266.012 L2139.97 266.012 Q2140.5 266.012 2140.72 266.036 Q2140.95 266.059 2141.14 266.176 Q2141.32 266.294 2141.32 266.551 Z" fill="#000000" fill-rule="nonzero" fill-opacity="1" /><path clip-path="url(#clip010)" d="M2160.86 281.143 Q2161.05 281.354 2161.05 281.565 Q2161.05 281.776 2160.58 282.385 Q2160.14 282.994 2159.17 283.814 Q2158.21 284.633 2156.97 285.406 Q2155.73 286.179 2153.9 286.694 Q2152.08 287.233 2150.16 287.233 Q2146.71 287.233 2144.65 284.774 Q2142.62 282.314 2142.62 278.543 Q2142.62 276.131 2143.41 274 Q2144.21 271.845 2145.5 270.322 Q2146.81 268.8 2148.45 267.699 Q2150.11 266.575 2151.84 266.036 Q2153.58 265.497 2155.19 265.497 Q2157.56 265.497 2158.94 266.692 Q2160.32 267.886 2160.32 269.573 Q2160.32 269.971 2160.21 270.463 Q2160.11 270.955 2159.78 271.728 Q2159.48 272.5 2158.68 273.273 Q2157.89 274.023 2156.72 274.515 Q2154.12 275.616 2149.38 275.616 L2146.83 275.616 Q2146.08 278.637 2146.08 280.605 Q2146.08 281.378 2146.22 282.174 Q2146.36 282.947 2146.74 283.931 Q2147.14 284.914 2148.03 285.547 Q2148.94 286.156 2150.25 286.156 Q2150.67 286.156 2151.12 286.132 Q2151.59 286.109 2152.76 285.851 Q2153.95 285.594 2155.01 285.149 Q2156.06 284.704 2157.39 283.743 Q2158.75 282.759 2159.83 281.424 Q2160.21 280.933 2160.46 280.933 Q2160.67 280.933 2160.86 281.143 M2158.73 269.573 Q2158.73 268.284 2157.77 267.418 Q2156.83 266.551 2155.19 266.551 Q2154.68 266.551 2154.05 266.668 Q2153.41 266.785 2152.36 267.277 Q2151.33 267.769 2150.41 268.589 Q2149.5 269.385 2148.59 270.955 Q2147.67 272.5 2147.14 274.562 L2149.1 274.562 Q2149.78 274.562 2150.27 274.562 Q2150.77 274.538 2151.84 274.445 Q2152.94 274.351 2153.74 274.187 Q2154.54 274 2155.54 273.625 Q2156.55 273.25 2157.18 272.758 Q2157.84 272.243 2158.28 271.423 Q2158.73 270.603 2158.73 269.573 Z" fill="#000000" fill-rule="nonzero" fill-opacity="1" /><path clip-path="url(#clip010)" d="M2187.58 253.926 L2180.67 281.659 Q2180.39 282.9 2180.39 283.954 Q2180.39 286.156 2181.82 286.156 Q2182.52 286.156 2183.08 285.711 Q2183.64 285.266 2184.09 284.329 Q2184.53 283.392 2184.81 282.525 Q2185.1 281.635 2185.47 280.23 Q2185.59 279.668 2185.68 279.527 Q2185.8 279.363 2186.13 279.363 Q2186.71 279.363 2186.71 279.832 Q2186.08 282.853 2185.26 284.586 Q2183.95 287.233 2181.72 287.233 Q2180.04 287.233 2178.84 286.203 Q2177.65 285.172 2177.37 283.626 Q2174.3 287.233 2171.11 287.233 Q2168.3 287.233 2166.52 285.102 Q2164.74 282.947 2164.74 279.551 Q2164.74 276.131 2166.43 272.852 Q2168.14 269.573 2170.83 267.535 Q2173.53 265.497 2176.29 265.497 Q2179.22 265.497 2180.72 268.565 L2183.6 257.182 L2183.74 256.245 Q2183.74 255.964 2183.62 255.824 Q2183.53 255.66 2182.96 255.543 Q2182.43 255.426 2181.35 255.426 Q2180.9 255.426 2180.69 255.402 Q2180.5 255.379 2180.34 255.262 Q2180.18 255.121 2180.18 254.84 Q2180.18 254.02 2180.86 253.926 Q2185.35 253.411 2186.95 253.411 Q2187.23 253.411 2187.39 253.552 Q2187.56 253.669 2187.56 253.809 L2187.58 253.926 M2180.13 270.767 Q2180.13 270.556 2179.97 269.971 Q2179.8 269.385 2179.43 268.565 Q2179.05 267.746 2178.23 267.16 Q2177.44 266.551 2176.36 266.551 Q2174.91 266.551 2173.38 267.793 Q2171.89 269.034 2170.78 271.142 Q2169.94 272.828 2169.03 276.365 Q2168.14 279.902 2168.14 281.659 Q2168.14 282.736 2168.37 283.696 Q2168.63 284.633 2169.36 285.406 Q2170.08 286.156 2171.21 286.156 Q2173.95 286.156 2176.64 282.759 Q2177.16 282.174 2177.27 281.94 Q2177.41 281.682 2177.6 280.979 L2179.99 271.587 Q2180.13 270.884 2180.13 270.767 Z" fill="#000000" fill-rule="nonzero" fill-opacity="1" /></svg>
